<svg id="Layer_1" data-name="Layer 1" xmlns="http://www.w3.org/2000/svg" xmlns:xlink="http://www.w3.org/1999/xlink" viewBox="0 0 60 24.7"><defs><style>.cls-1{fill:url(#linear-gradient);}.cls-2{fill:url(#linear-gradient-2);}.cls-3{fill:url(#linear-gradient-3);}.cls-4{fill:url(#linear-gradient-4);}.cls-5{fill:url(#linear-gradient-5);}.cls-6{fill:url(#linear-gradient-6);}.cls-7{fill:url(#linear-gradient-7);}</style><linearGradient id="linear-gradient" x1="251.96" y1="-456.1" x2="240.96" y2="-445.1" gradientTransform="matrix(1, 0, 0, -1, -209.86, -423.54)" gradientUnits="userSpaceOnUse"><stop offset="0" stop-color="#e74925"/><stop offset="0.36" stop-color="#ed441c"/><stop offset="0.95" stop-color="#fe3502"/><stop offset="1" stop-color="#ff3400"/></linearGradient><linearGradient id="linear-gradient-2" x1="271.6" y1="-451.44" x2="253.71" y2="-433.55" xlink:href="#linear-gradient"/><linearGradient id="linear-gradient-3" x1="250.19" y1="-440.07" x2="245.67" y2="-435.56" xlink:href="#linear-gradient"/><linearGradient id="linear-gradient-4" x1="205.14" y1="-431.21" x2="252.03" y2="-433.17" gradientTransform="matrix(1, 0, 0, -1, -209.86, -423.54)" gradientUnits="userSpaceOnUse"><stop offset="0" stop-color="#343536"/><stop offset="1"/></linearGradient><linearGradient id="linear-gradient-5" x1="204.53" y1="-445.69" x2="251.42" y2="-447.65" xlink:href="#linear-gradient-4"/><linearGradient id="linear-gradient-6" x1="205.06" y1="-433.05" x2="251.95" y2="-435.01" xlink:href="#linear-gradient-4"/><linearGradient id="linear-gradient-7" x1="205.03" y1="-433.78" x2="251.92" y2="-435.74" xlink:href="#linear-gradient-4"/></defs><path class="cls-1" d="M39.93,20.23l-1.39,2.41a3.52,3.52,0,0,1-3.06,1.77H29a1.8,1.8,0,0,0-1.41.68l-3.35,4.14a3,3,0,0,1-.39.41h6.59A3.14,3.14,0,0,0,33,28.31l.69-1a2.42,2.42,0,0,1,2-1H48.35l-1.61-4.08a3.16,3.16,0,0,0-2.94-2Z" transform="translate(0 -5)"/><path class="cls-2" d="M52.49,9.9,51.31,6.71A2.59,2.59,0,0,0,48.86,5L45.8,10.28A3.61,3.61,0,0,1,44,11.84a2.5,2.5,0,0,1,1.21,1.31l5.65,14.61a3,3,0,0,0,2.75,1.88H60Z" transform="translate(0 -5)"/><path class="cls-3" d="M43.28,12.09H36.49a1.81,1.81,0,0,0-1.56.89l-2,3.49h6.28a3,3,0,0,0,2.59-1.55Z" transform="translate(0 -5)"/><path class="cls-4" d="M9.47,9.91,12.31,5H5.15a2.65,2.65,0,0,0-2.3,1.33L0,11.24H7.16A2.68,2.68,0,0,0,9.47,9.91Z" transform="translate(0 -5)"/><path class="cls-5" d="M32.81,17.33a2.45,2.45,0,0,0-.76.11,2.66,2.66,0,0,0-1.55,1.22l-2,3.52a2.69,2.69,0,0,1-2.3,1.33H20.37a2.66,2.66,0,0,0-2.08,1L14.11,29.7h7.4a2.62,2.62,0,0,0,.95-.18,2.68,2.68,0,0,0,1.12-.81l3.35-4.15a2.71,2.71,0,0,1,2.08-1h6.48a2.68,2.68,0,0,0,2.31-1.33l1.16-2,1.68-2.9Z" transform="translate(0 -5)"/><path class="cls-6" d="M40.05,5a2.69,2.69,0,0,0-2.31,1.34l-2,3.52a2.67,2.67,0,0,1-2.31,1.33H27.91a2.76,2.76,0,0,0-2.38,1.37l-2.82,4.82h7.15a2.3,2.3,0,0,0,.64-.09l.11,0a2.68,2.68,0,0,0,1.54-1.22l2.05-3.49a2.68,2.68,0,0,1,2.3-1.32h6.18a2.76,2.76,0,0,0,2.39-1.38L47.89,5Z" transform="translate(0 -5)"/><path class="cls-7" d="M15,16.05l2-3.49a2.7,2.7,0,0,1,2.31-1.32h5.5A2.78,2.78,0,0,0,27.2,9.86L30,5H22.85a2.68,2.68,0,0,0-2.31,1.33l-2,3.52a2.68,2.68,0,0,1-2.31,1.34H10.72a2.76,2.76,0,0,0-2.39,1.37L5.51,17.37h7.15A2.66,2.66,0,0,0,15,16.05Z" transform="translate(0 -5)"/></svg>