<svg width="585" height="480" viewBox="0 0 585 480" fill="none" xmlns="http://www.w3.org/2000/svg">
<path d="M343.322 -98.9159C480.636 -74.7488 585 45.4609 585 190.084C585 334.706 480.636 454.921 343.322 479.083L311.555 298.436C363.023 289.391 402.187 244.321 402.187 190.084C402.187 135.846 363.023 90.7763 311.555 81.7311L343.322 -98.9159ZM241.678 -98.917L273.445 81.7301C221.977 90.7809 182.813 135.85 182.813 190.088C182.813 244.32 221.977 289.395 273.445 298.44L241.678 479.082C104.365 454.915 0 334.705 0 190.088C0 45.4652 104.365 -74.7498 241.678 -98.917Z" fill="url(#paint0_linear)"/>
<mask id="mask0" mask-type="alpha" maskUnits="userSpaceOnUse" x="0" y="-99" width="585" height="579">
<path d="M343.083 -98.9989C480.301 -74.8283 584.592 45.3987 584.592 190.042C584.592 334.686 480.301 454.918 343.083 479.083L311.337 298.41C362.77 289.364 401.906 244.288 401.906 190.042C401.906 135.797 362.77 90.7206 311.337 81.6741L343.083 -98.9989ZM241.51 -99L273.255 81.673C221.822 90.7251 182.686 135.801 182.686 190.046C182.686 244.286 221.822 289.368 273.255 298.415L241.51 479.082C104.292 454.911 0 334.684 0 190.046C0 45.403 104.292 -74.8294 241.51 -99Z" fill="url(#paint1_linear)"/>
</mask>
<g mask="url(#mask0)">
<path opacity="0.6" fill-rule="evenodd" clip-rule="evenodd" d="M-2 160.005H-5V163.367H-2V160.005ZM8 160.005H5V163.367H8V160.005ZM15 160.005H18V163.367H15V160.005ZM28 160.005H25V163.367H28V160.005ZM35 160.005H38V163.367H35V160.005ZM48 160.005H45V163.367H48V160.005ZM55 160.005H58V163.367H55V160.005ZM68 160.005H65V163.367H68V160.005ZM75 160.005H78V163.367H75V160.005ZM88 160.005H85V163.367H88V160.005ZM95 160.005H98V163.367H95V160.005ZM108 160.005H105V163.367H108V160.005ZM115 160.005H118V163.367H115V160.005ZM128 160.005H125V163.367H128V160.005ZM135 160.005H138V163.367H135V160.005ZM148 160.005H145V163.367H148V160.005ZM-5 171.213H-2V174.575H-5V171.213ZM8 171.213H5V174.575H8V171.213ZM15 171.213H18V174.575H15V171.213ZM28 171.213H25V174.575H28V171.213ZM35 171.213H38V174.575H35V171.213ZM48 171.213H45V174.575H48V171.213ZM55 171.213H58V174.575H55V171.213ZM68 171.213H65V174.575H68V171.213ZM75 171.213H78V174.575H75V171.213ZM88 171.213H85V174.575H88V171.213ZM95 171.213H98V174.575H95V171.213ZM108 171.213H105V174.575H108V171.213ZM115 171.213H118V174.575H115V171.213ZM128 171.213H125V174.575H128V171.213ZM135 171.213H138V174.575H135V171.213ZM148 171.213H145V174.575H148V171.213ZM-5 182.421H-2V185.784H-5V182.421ZM8 182.421H5V185.784H8V182.421ZM15 182.421H18V185.784H15V182.421ZM28 182.421H25V185.784H28V182.421ZM35 182.421H38V185.784H35V182.421ZM48 182.421H45V185.784H48V182.421ZM55 182.421H58V185.784H55V182.421ZM68 182.421H65V185.784H68V182.421ZM75 182.421H78V185.784H75V182.421ZM88 182.421H85V185.784H88V182.421ZM95 182.421H98V185.784H95V182.421ZM108 182.421H105V185.784H108V182.421ZM115 182.421H118V185.784H115V182.421ZM128 182.421H125V185.784H128V182.421ZM135 182.421H138V185.784H135V182.421ZM148 182.421H145V185.784H148V182.421ZM-5 193.629H-2V196.992H-5V193.629ZM8 193.629H5V196.992H8V193.629ZM15 193.629H18V196.992H15V193.629ZM28 193.629H25V196.992H28V193.629ZM35 193.629H38V196.992H35V193.629ZM48 193.629H45V196.992H48V193.629ZM55 193.629H58V196.992H55V193.629ZM68 193.629H65V196.992H68V193.629ZM75 193.629H78V196.992H75V193.629ZM88 193.629H85V196.992H88V193.629ZM95 193.629H98V196.992H95V193.629ZM108 193.629H105V196.992H108V193.629ZM115 193.629H118V196.992H115V193.629ZM128 193.629H125V196.992H128V193.629ZM135 193.629H138V196.992H135V193.629ZM148 193.629H145V196.992H148V193.629ZM-5 204.838H-2V208.201H-5V204.838ZM8 204.838H5V208.201H8V204.838ZM15 204.838H18V208.201H15V204.838ZM28 204.838H25V208.201H28V204.838ZM35 204.838H38V208.201H35V204.838ZM48 204.838H45V208.201H48V204.838ZM55 204.838H58V208.201H55V204.838ZM68 204.838H65V208.201H68V204.838ZM75 204.838H78V208.201H75V204.838ZM88 204.838H85V208.201H88V204.838ZM95 204.838H98V208.201H95V204.838ZM108 204.838H105V208.201H108V204.838ZM115 204.838H118V208.201H115V204.838ZM128 204.838H125V208.201H128V204.838ZM135 204.838H138V208.201H135V204.838ZM148 204.838H145V208.201H148V204.838ZM-5 216.046H-2V219.409H-5V216.046ZM8 216.046H5V219.409H8V216.046ZM15 216.046H18V219.409H15V216.046ZM28 216.046H25V219.409H28V216.046ZM35 216.046H38V219.409H35V216.046ZM48 216.046H45V219.409H48V216.046ZM55 216.046H58V219.409H55V216.046ZM68 216.046H65V219.409H68V216.046ZM75 216.046H78V219.409H75V216.046ZM88 216.046H85V219.409H88V216.046ZM95 216.046H98V219.409H95V216.046ZM108 216.046H105V219.409H108V216.046ZM115 216.046H118V219.409H115V216.046ZM128 216.046H125V219.409H128V216.046ZM135 216.046H138V219.409H135V216.046ZM148 216.046H145V219.409H148V216.046ZM-5 227.255H-2V230.617H-5V227.255ZM8 227.255H5V230.617H8V227.255ZM15 227.255H18V230.617H15V227.255ZM28 227.255H25V230.617H28V227.255ZM35 227.255H38V230.617H35V227.255ZM48 227.255H45V230.617H48V227.255ZM55 227.255H58V230.617H55V227.255ZM68 227.255H65V230.617H68V227.255ZM75 227.255H78V230.617H75V227.255ZM88 227.255H85V230.617H88V227.255ZM95 227.255H98V230.617H95V227.255ZM108 227.255H105V230.617H108V227.255ZM115 227.255H118V230.617H115V227.255ZM128 227.255H125V230.617H128V227.255ZM135 227.255H138V230.617H135V227.255ZM148 227.255H145V230.617H148V227.255ZM-5 238.463H-2V241.825H-5V238.463ZM8 238.463H5V241.825H8V238.463ZM15 238.463H18V241.825H15V238.463ZM28 238.463H25V241.825H28V238.463ZM35 238.463H38V241.825H35V238.463ZM48 238.463H45V241.825H48V238.463ZM55 238.463H58V241.825H55V238.463ZM68 238.463H65V241.825H68V238.463ZM75 238.463H78V241.825H75V238.463ZM88 238.463H85V241.825H88V238.463ZM95 238.463H98V241.825H95V238.463ZM108 238.463H105V241.825H108V238.463ZM115 238.463H118V241.825H115V238.463ZM128 238.463H125V241.825H128V238.463ZM135 238.463H138V241.825H135V238.463ZM148 238.463H145V241.825H148V238.463Z" fill="white"/>
<path opacity="0.6" fill-rule="evenodd" clip-rule="evenodd" d="M127 459.267H124V462.629H127V459.267ZM137 459.267H134V462.629H137V459.267ZM144 459.267H147V462.629H144V459.267ZM157 459.267H154V462.629H157V459.267ZM164 459.267H167V462.629H164V459.267ZM177 459.267H174V462.629H177V459.267ZM184 459.267H187V462.629H184V459.267ZM197 459.267H194V462.629H197V459.267ZM204 459.267H207V462.629H204V459.267ZM217 459.267H214V462.629H217V459.267ZM224 459.267H227V462.629H224V459.267ZM237 459.267H234V462.629H237V459.267ZM244 459.267H247V462.629H244V459.267ZM257 459.267H254V462.629H257V459.267ZM264 459.267H267V462.629H264V459.267ZM277 459.267H274V462.629H277V459.267ZM124 470.474H127V473.837H124V470.474ZM137 470.474H134V473.837H137V470.474ZM144 470.474H147V473.837H144V470.474ZM157 470.474H154V473.837H157V470.474ZM164 470.474H167V473.837H164V470.474ZM177 470.474H174V473.837H177V470.474ZM184 470.474H187V473.837H184V470.474ZM197 470.474H194V473.837H197V470.474ZM204 470.474H207V473.837H204V470.474ZM217 470.474H214V473.837H217V470.474ZM224 470.474H227V473.837H224V470.474ZM237 470.474H234V473.837H237V470.474ZM244 470.474H247V473.837H244V470.474ZM257 470.474H254V473.837H257V470.474ZM264 470.474H267V473.837H264V470.474ZM277 470.474H274V473.837H277V470.474ZM124 481.683H127V485.045H124V481.683ZM137 481.683H134V485.045H137V481.683ZM144 481.683H147V485.045H144V481.683ZM157 481.683H154V485.045H157V481.683ZM164 481.683H167V485.045H164V481.683ZM177 481.683H174V485.045H177V481.683ZM184 481.683H187V485.045H184V481.683ZM197 481.683H194V485.045H197V481.683ZM204 481.683H207V485.045H204V481.683ZM217 481.683H214V485.045H217V481.683ZM224 481.683H227V485.045H224V481.683ZM237 481.683H234V485.045H237V481.683ZM244 481.683H247V485.045H244V481.683ZM257 481.683H254V485.045H257V481.683ZM264 481.683H267V485.045H264V481.683ZM277 481.683H274V485.045H277V481.683ZM124 492.891H127V496.253H124V492.891ZM137 492.891H134V496.253H137V492.891ZM144 492.891H147V496.253H144V492.891ZM157 492.891H154V496.253H157V492.891ZM164 492.891H167V496.253H164V492.891ZM177 492.891H174V496.253H177V492.891ZM184 492.891H187V496.253H184V492.891ZM197 492.891H194V496.253H197V492.891ZM204 492.891H207V496.253H204V492.891ZM217 492.891H214V496.253H217V492.891ZM224 492.891H227V496.253H224V492.891ZM237 492.891H234V496.253H237V492.891ZM244 492.891H247V496.253H244V492.891ZM257 492.891H254V496.253H257V492.891ZM264 492.891H267V496.253H264V492.891ZM277 492.891H274V496.253H277V492.891ZM124 504.1H127V507.462H124V504.1ZM137 504.1H134V507.462H137V504.1ZM144 504.1H147V507.462H144V504.1ZM157 504.1H154V507.462H157V504.1ZM164 504.1H167V507.462H164V504.1ZM177 504.1H174V507.462H177V504.1ZM184 504.1H187V507.462H184V504.1ZM197 504.1H194V507.462H197V504.1ZM204 504.1H207V507.462H204V504.1ZM217 504.1H214V507.462H217V504.1ZM224 504.1H227V507.462H224V504.1ZM237 504.1H234V507.462H237V504.1ZM244 504.1H247V507.462H244V504.1ZM257 504.1H254V507.462H257V504.1ZM264 504.1H267V507.462H264V504.1ZM277 504.1H274V507.462H277V504.1ZM124 515.308H127V518.67H124V515.308ZM137 515.308H134V518.67H137V515.308ZM144 515.308H147V518.67H144V515.308ZM157 515.308H154V518.67H157V515.308ZM164 515.308H167V518.67H164V515.308ZM177 515.308H174V518.67H177V515.308ZM184 515.308H187V518.67H184V515.308ZM197 515.308H194V518.67H197V515.308ZM204 515.308H207V518.67H204V515.308ZM217 515.308H214V518.67H217V515.308ZM224 515.308H227V518.67H224V515.308ZM237 515.308H234V518.67H237V515.308ZM244 515.308H247V518.67H244V515.308ZM257 515.308H254V518.67H257V515.308ZM264 515.308H267V518.67H264V515.308ZM277 515.308H274V518.67H277V515.308ZM124 526.516H127V529.879H124V526.516ZM137 526.516H134V529.879H137V526.516ZM144 526.516H147V529.879H144V526.516ZM157 526.516H154V529.879H157V526.516ZM164 526.516H167V529.879H164V526.516ZM177 526.516H174V529.879H177V526.516ZM184 526.516H187V529.879H184V526.516ZM197 526.516H194V529.879H197V526.516ZM204 526.516H207V529.879H204V526.516ZM217 526.516H214V529.879H217V526.516ZM224 526.516H227V529.879H224V526.516ZM237 526.516H234V529.879H237V526.516ZM244 526.516H247V529.879H244V526.516ZM257 526.516H254V529.879H257V526.516ZM264 526.516H267V529.879H264V526.516ZM277 526.516H274V529.879H277V526.516ZM124 537.725H127V541.087H124V537.725ZM137 537.725H134V541.087H137V537.725ZM144 537.725H147V541.087H144V537.725ZM157 537.725H154V541.087H157V537.725ZM164 537.725H167V541.087H164V537.725ZM177 537.725H174V541.087H177V537.725ZM184 537.725H187V541.087H184V537.725ZM197 537.725H194V541.087H197V537.725ZM204 537.725H207V541.087H204V537.725ZM217 537.725H214V541.087H217V537.725ZM224 537.725H227V541.087H224V537.725ZM237 537.725H234V541.087H237V537.725ZM244 537.725H247V541.087H244V537.725ZM257 537.725H254V541.087H257V537.725ZM264 537.725H267V541.087H264V537.725ZM277 537.725H274V541.087H277V537.725Z" fill="white"/>
</g>
<defs>
<linearGradient id="paint0_linear" x1="3.44202e-06" y1="185.539" x2="585" y2="185.539" gradientUnits="userSpaceOnUse">
<stop stop-color="#F2F8FC"/>
<stop offset="0.270804" stop-color="#DAF2FF"/>
<stop offset="0.593733" stop-color="#E3EBFD"/>
<stop offset="1" stop-color="#EEF1FA"/>
</linearGradient>
<linearGradient id="paint1_linear" x1="3.43962e-06" y1="185.497" x2="584.592" y2="185.497" gradientUnits="userSpaceOnUse">
<stop stop-color="#F2F8FC"/>
<stop offset="0.270804" stop-color="#DAF2FF"/>
<stop offset="0.593733" stop-color="#E3EBFD"/>
<stop offset="1" stop-color="#EEF1FA"/>
</linearGradient>
</defs>
</svg>
