<svg xmlns="http://www.w3.org/2000/svg" width="106" height="83" xmlns:v="https://vecta.io/nano"><defs><linearGradient x1="57.3937667%" y1="-14.8243382%" x2="29.0121008%" y2="105.585782%" id="A"><stop stop-color="#fff" offset="0%"/><stop stop-color="#007fff" offset="100%"/></linearGradient></defs><path d="M116 115a1 1 0 1 1 0 2 1 1 0 1 1 0-2zm-10 0a1 1 0 1 1 0 2 1 1 0 1 1 0-2zm-10 0a1 1 0 1 1 0 2 1 1 0 1 1 0-2zm-10 0a1 1 0 1 1 0 2 1 1 0 1 1 0-2zm-10 0a1 1 0 1 1 0 2 1 1 0 1 1 0-2zm-10 0a1 1 0 1 1 0 2 1 1 0 1 1 0-2zm-10 0a1 1 0 1 1 0 2 1 1 0 1 1 0-2zm-10 0a1 1 0 1 1 0 2 1 1 0 1 1 0-2zm-10 0a1 1 0 1 1 0 2 1 1 0 1 1 0-2zm-10 0a1 1 0 1 1 0 2 1 1 0 1 1 0-2zm90-10a1 1 0 1 1 0 2 1 1 0 1 1 0-2zm-10 0a1 1 0 1 1 0 2 1 1 0 1 1 0-2zm-10 0a1 1 0 1 1 0 2 1 1 0 1 1 0-2zm-10 0a1 1 0 1 1 0 2 1 1 0 1 1 0-2zm-10 0a1 1 0 1 1 0 2 1 1 0 1 1 0-2zm-10 0a1 1 0 1 1 0 2 1 1 0 1 1 0-2zm-10 0a1 1 0 1 1 0 2 1 1 0 1 1 0-2zm-10 0a1 1 0 1 1 0 2 1 1 0 1 1 0-2zm-10 0a1 1 0 1 1 0 2 1 1 0 1 1 0-2zm-10 0a1 1 0 1 1 0 2 1 1 0 1 1 0-2zm90-10a1 1 0 1 1 0 2 1 1 0 1 1 0-2zm-10 0a1 1 0 1 1 0 2 1 1 0 1 1 0-2zm-10 0a1 1 0 1 1 0 2 1 1 0 1 1 0-2zm-10 0a1 1 0 1 1 0 2 1 1 0 1 1 0-2zm-10 0a1 1 0 1 1 0 2 1 1 0 1 1 0-2zm-10 0a1 1 0 1 1 0 2 1 1 0 1 1 0-2zm-10 0a1 1 0 1 1 0 2 1 1 0 1 1 0-2zm-10 0a1 1 0 1 1 0 2 1 1 0 1 1 0-2zm-10 0a1 1 0 1 1 0 2 1 1 0 1 1 0-2zm-10 0a1 1 0 1 1 0 2 1 1 0 1 1 0-2zm90-10a1 1 0 1 1 0 2 1 1 0 1 1 0-2zm-10 0a1 1 0 1 1 0 2 1 1 0 1 1 0-2zm-10 0a1 1 0 1 1 0 2 1 1 0 1 1 0-2zm-10 0a1 1 0 1 1 0 2 1 1 0 1 1 0-2zm-10 0a1 1 0 1 1 0 2 1 1 0 1 1 0-2zm-10 0a1 1 0 1 1 0 2 1 1 0 1 1 0-2zm-10 0a1 1 0 1 1 0 2 1 1 0 1 1 0-2zm-10 0a1 1 0 1 1 0 2 1 1 0 1 1 0-2zm-10 0a1 1 0 1 1 0 2 1 1 0 1 1 0-2zm-10 0a1 1 0 1 1 0 2 1 1 0 1 1 0-2zm90-10a1 1 0 1 1 0 2 1 1 0 1 1 0-2zm-10 0a1 1 0 1 1 0 2 1 1 0 1 1 0-2zm-10 0a1 1 0 1 1 0 2 1 1 0 1 1 0-2zm-10 0a1 1 0 1 1 0 2 1 1 0 1 1 0-2zm-10 0a1 1 0 1 1 0 2 1 1 0 1 1 0-2zm-10 0a1 1 0 1 1 0 2 1 1 0 1 1 0-2zm-10 0a1 1 0 1 1 0 2 1 1 0 1 1 0-2zm-10 0a1 1 0 1 1 0 2 1 1 0 1 1 0-2zm-10 0a1 1 0 1 1 0 2 1 1 0 1 1 0-2zm-10 0a1 1 0 1 1 0 2 1 1 0 1 1 0-2zm90-10a1 1 0 1 1 0 2 1 1 0 1 1 0-2zm-10 0a1 1 0 1 1 0 2 1 1 0 1 1 0-2zm-10 0a1 1 0 1 1 0 2 1 1 0 1 1 0-2zm-10 0a1 1 0 1 1 0 2 1 1 0 1 1 0-2zm-10 0a1 1 0 1 1 0 2 1 1 0 1 1 0-2zm-10 0a1 1 0 1 1 0 2 1 1 0 1 1 0-2zm-10 0a1 1 0 1 1 0 2 1 1 0 1 1 0-2zm-10 0a1 1 0 1 1 0 2 1 1 0 1 1 0-2zm-10 0a1 1 0 1 1 0 2 1 1 0 1 1 0-2zm-10 0a1 1 0 1 1 0 2 1 1 0 1 1 0-2zm90-10a1 1 0 1 1 0 2 1 1 0 1 1 0-2zm-10 0a1 1 0 1 1 0 2 1 1 0 1 1 0-2zm-10 0a1 1 0 1 1 0 2 1 1 0 1 1 0-2zm-10 0a1 1 0 1 1 0 2 1 1 0 1 1 0-2zm-10 0a1 1 0 1 1 0 2 1 1 0 1 1 0-2zm-10 0a1 1 0 1 1 0 2 1 1 0 1 1 0-2zm-10 0a1 1 0 1 1 0 2 1 1 0 1 1 0-2zm-10 0a1 1 0 1 1 0 2 1 1 0 1 1 0-2zm-10 0a1 1 0 1 1 0 2 1 1 0 1 1 0-2zm-10 0a1 1 0 1 1 0 2 1 1 0 1 1 0-2zm90-10a1 1 0 1 1 0 2 1 1 0 1 1 0-2zm-10 0a1 1 0 1 1 0 2 1 1 0 1 1 0-2zm-10 0a1 1 0 1 1 0 2 1 1 0 1 1 0-2zm-10 0a1 1 0 1 1 0 2 1 1 0 1 1 0-2zm-10 0a1 1 0 1 1 0 2 1 1 0 1 1 0-2zm-10 0a1 1 0 1 1 0 2 1 1 0 1 1 0-2zm-10 0a1 1 0 1 1 0 2 1 1 0 1 1 0-2zm-10 0a1 1 0 1 1 0 2 1 1 0 1 1 0-2zm-10 0a1 1 0 1 1 0 2 1 1 0 1 1 0-2zm-10 0a1 1 0 1 1 0 2 1 1 0 1 1 0-2zm90-10a1 1 0 1 1 0 2 1 1 0 1 1 0-2zm-10 0a1 1 0 1 1 0 2 1 1 0 1 1 0-2zm-10 0a1 1 0 1 1 0 2 1 1 0 1 1 0-2zm-10 0a1 1 0 1 1 0 2 1 1 0 1 1 0-2zm-10 0a1 1 0 1 1 0 2 1 1 0 1 1 0-2zm-10 0a1 1 0 1 1 0 2 1 1 0 1 1 0-2zm-10 0a1 1 0 1 1 0 2 1 1 0 1 1 0-2zm-10 0a1 1 0 1 1 0 2 1 1 0 1 1 0-2zm-10 0a1 1 0 1 1 0 2 1 1 0 1 1 0-2zm-10 0a1 1 0 1 1 0 2 1 1 0 1 1 0-2zm90-10a1 1 0 1 1 0 2 1 1 0 1 1 0-2zm-10 0a1 1 0 1 1 0 2 1 1 0 1 1 0-2zm-10 0a1 1 0 1 1 0 2 1 1 0 1 1 0-2zm-10 0a1 1 0 1 1 0 2 1 1 0 1 1 0-2zm-10 0a1 1 0 1 1 0 2 1 1 0 1 1 0-2zm-10 0a1 1 0 1 1 0 2 1 1 0 1 1 0-2zm-10 0a1 1 0 1 1 0 2 1 1 0 1 1 0-2zm-10 0a1 1 0 1 1 0 2 1 1 0 1 1 0-2zm-10 0a1 1 0 1 1 0 2 1 1 0 1 1 0-2zm-10 0a1 1 0 1 1 0 2 1 1 0 1 1 0-2zm90-10a1 1 0 1 1 0 2 1 1 0 1 1 0-2zm-10 0a1 1 0 1 1 0 2 1 1 0 1 1 0-2zm-10 0a1 1 0 1 1 0 2 1 1 0 1 1 0-2zm-10 0a1 1 0 1 1 0 2 1 1 0 1 1 0-2zm-10 0a1 1 0 1 1 0 2 1 1 0 1 1 0-2zm-10 0a1 1 0 1 1 0 2 1 1 0 1 1 0-2zm-10 0a1 1 0 1 1 0 2 1 1 0 1 1 0-2zm-10 0a1 1 0 1 1 0 2 1 1 0 1 1 0-2zm-10 0a1 1 0 1 1 0 2 1 1 0 1 1 0-2zm-10 0a1 1 0 1 1 0 2 1 1 0 1 1 0-2zm90-10a1 1 0 1 1 0 2 1 1 0 1 1 0-2zm-10 0a1 1 0 1 1 0 2 1 1 0 1 1 0-2zM96 5a1 1 0 1 1 0 2 1 1 0 1 1 0-2zM86 5a1 1 0 1 1 0 2 1 1 0 1 1 0-2zM76 5a1 1 0 1 1 0 2 1 1 0 1 1 0-2zM66 5a1 1 0 1 1 0 2 1 1 0 1 1 0-2zM56 5a1 1 0 1 1 0 2 1 1 0 1 1 0-2zM46 5a1 1 0 1 1 0 2 1 1 0 1 1 0-2zM36 5a1 1 0 1 1 0 2 1 1 0 1 1 0-2zM26 5a1 1 0 1 1 0 2 1 1 0 1 1 0-2zm90-10a1 1 0 1 1 0 2 1 1 0 1 1 0-2zm-10 0a1 1 0 1 1 0 2 1 1 0 1 1 0-2zM96-5a1 1 0 1 1 0 2 1 1 0 1 1 0-2zM86-5a1 1 0 1 1 0 2 1 1 0 1 1 0-2zM76-5a1 1 0 1 1 0 2 1 1 0 1 1 0-2zM66-5a1 1 0 1 1 0 2 1 1 0 1 1 0-2zM56-5a1 1 0 1 1 0 2 1 1 0 1 1 0-2zM46-5a1 1 0 1 1 0 2 1 1 0 1 1 0-2zM36-5a1 1 0 1 1 0 2 1 1 0 1 1 0-2zM26-5a1 1 0 1 1 0 2 1 1 0 1 1 0-2zm90-10a1 1 0 1 1 0 2 1 1 0 1 1 0-2zm-10 0a1 1 0 1 1 0 2 1 1 0 1 1 0-2zm-10 0a1 1 0 1 1 0 2 1 1 0 1 1 0-2zm-10 0a1 1 0 1 1 0 2 1 1 0 1 1 0-2zm-10 0a1 1 0 1 1 0 2 1 1 0 1 1 0-2zm-10 0a1 1 0 1 1 0 2 1 1 0 1 1 0-2zm-10 0a1 1 0 1 1 0 2 1 1 0 1 1 0-2zm-10 0a1 1 0 1 1 0 2 1 1 0 1 1 0-2zm-10 0a1 1 0 1 1 0 2 1 1 0 1 1 0-2zm-10 0a1 1 0 1 1 0 2 1 1 0 1 1 0-2zm90-10a1 1 0 1 1 0 2 1 1 0 1 1 0-2zm-10 0a1 1 0 1 1 0 2 1 1 0 1 1 0-2zm-10 0a1 1 0 1 1 0 2 1 1 0 1 1 0-2zm-10 0a1 1 0 1 1 0 2 1 1 0 1 1 0-2zm-10 0a1 1 0 1 1 0 2 1 1 0 1 1 0-2zm-10 0a1 1 0 1 1 0 2 1 1 0 1 1 0-2zm-10 0a1 1 0 1 1 0 2 1 1 0 1 1 0-2zm-10 0a1 1 0 1 1 0 2 1 1 0 1 1 0-2zm-10 0a1 1 0 1 1 0 2 1 1 0 1 1 0-2zm-10 0a1 1 0 1 1 0 2 1 1 0 1 1 0-2z" transform="matrix(-.857167 -.515038 .515038 -.857167 113.164527 74.547992)" fill="url(#A)" fill-rule="evenodd"/></svg>