<svg xmlns="http://www.w3.org/2000/svg" width="511" height="136" fill-rule="evenodd" xmlns:v="https://vecta.io/nano"><path d="M498.828 52.14l3.79 3.418.856-5.018c.077-.5.31-.984.664-1.36l3.436-3.762-5.032-.875a2.44 2.44 0 0 1-1.369-.688l-3.763-3.427-.882 5.027c-.054.523-.285 1.01-.655 1.385l-3.427 3.788 5.024.85c.513.067.99.3 1.36.662h0z" fill="#ffb86f"/><path d="M390.61 129.948l5.692 2.922a2 2 0 0 0 2.845-1.26l1.73-6.433a2 2 0 0 0-2.787-2.327l-7.423 3.51a2 2 0 0 0-.058 3.587z" fill="#44d7b6" fill-rule="nonzero"/><path d="M326.246 110c-1.96 0-2.955-1.105-3.833-2.08-.807-.897-1.505-1.672-2.92-1.672s-2.11.774-2.918 1.672c-.877.973-1.87 2.08-3.83 2.08s-2.955-1.105-3.832-2.08c-.807-.897-1.504-1.672-2.92-1.672s-2.11.774-2.918 1.672c-.878.973-1.87 2.08-3.83 2.08s-2.954-1.105-3.83-2.08c-.807-.897-1.503-1.67-2.917-1.67s-2.11.774-2.918 1.672c-.876.973-1.87 2.08-3.83 2.08s-2.954-1.105-3.83-2.08c-.807-.897-1.504-1.672-2.918-1.672V105c1.96 0 2.953 1.105 3.83 2.08.807.897 1.504 1.672 2.918 1.672s2.1-.774 2.916-1.67c.877-.974 1.87-2.08 3.83-2.08s2.953 1.105 3.83 2.08c.807.897 1.503 1.672 2.918 1.672s2.11-.774 2.918-1.672c.877-.973 1.87-2.08 3.83-2.08s2.955 1.105 3.833 2.08c.807.897 1.504 1.672 2.92 1.672s2.11-.774 2.918-1.672c.877-.973 1.87-2.08 3.83-2.08s2.956 1.105 3.834 2.08c.807.897 1.505 1.672 2.92 1.672s2.113-.774 2.92-1.672c.878-.973 1.872-2.08 3.833-2.08v1.25c-1.416 0-2.113.774-2.92 1.672-.878.973-1.873 2.08-3.834 2.08" fill="#ffb86f"/><g fill-rule="nonzero" fill="#09f"><circle cx="496" cy="132" r="4"/><path d="M183.885 117c7 0 12.75.627 17.957 1.845l.933.225c3.033.752 5.424 1.548 9.22 3.022l1.585.622 2.094.833.786.3 1.027.4c3.642 1.41 5.974 2.18 8.917 2.91l.91.22c4.94 1.155 10.377 1.773 16.938 1.82l1.84.008c5.91.063 5.617.675-1.013.675-7.124 0-12.95-.65-18.23-1.915l-.892-.22c-2.622-.66-4.798-1.37-7.904-2.552l-1.345-.52-1.03-.404-2.36-.938-1.038-.41-1.52-.588c-3.217-1.226-5.425-1.94-8.158-2.617l-.92-.222c-5.153-1.205-10.85-1.825-17.795-1.825-7.08 0-12.867.645-18.107 1.896l-.59.143-.793.2c-2.862.743-5.282 1.58-9.198 3.113l-.79.3-1.845.732-1.047.412c-4.39 1.717-6.92 2.57-10.285 3.39l-.705.168c-5.218 1.217-10.976 1.843-17.982 1.843-6.726 0-12.3-.577-17.353-1.7l-.94-.217c-3.2-.766-5.6-1.533-9.372-2.98l-.8-.313-1.034-.405-2.35-.93-.992-.39-1.496-.577c-3.01-1.145-5.133-1.846-7.6-2.482l-.36-.092-.923-.226c-5.24-1.25-11.026-1.896-18.108-1.896-6.86 0-12.513.65-17.642 1.904l-.41.1c-3.514.882-6.245 1.854-10.89 3.76l-2.13.88c-4.608 1.894-7.387 2.897-10.715 3.732l-.786.192-.712.165c-5.08 1.143-10.7 1.656-17.515 1.488L0 129.89l.02-.68c6.94.198 12.625-.308 17.75-1.46l.497-.114.45-.107c3.053-.737 5.556-1.58 9.29-3.074l.555-.223 1.048-.426 2.123-.875c4.31-1.772 6.998-2.76 10.1-3.597l.585-.155.39-.1.607-.15c5.183-1.27 10.9-1.924 17.804-1.924 6.994 0 12.743.626 17.954 1.84l.513.122.44.107c2.967.734 5.323 1.51 8.988 2.924l1.58.616 2.6 1.03 1.257.49 1.557.595c2.633.99 4.603 1.632 6.827 2.213l.938.238.55.134c5.248 1.253 11.042 1.898 18.136 1.898s12.89-.646 18.136-1.898l.6-.143c3.23-.797 5.726-1.643 10-3.316l3.913-1.544c4.24-1.655 6.74-2.49 10.036-3.296l.71-.17c5.21-1.216 10.96-1.84 17.953-1.84zm0-13c7 0 12.75.627 17.957 1.845l.933.225c3.033.752 5.424 1.548 9.22 3.022l1.585.622 2.094.833.786.3 1.027.4c3.642 1.41 5.974 2.18 8.917 2.91l.91.22c4.94 1.155 10.377 1.773 16.938 1.82l1.84.008c5.91.063 5.617.675-1.013.675-7.124 0-12.95-.65-18.23-1.915l-.892-.22c-2.622-.66-4.798-1.37-7.904-2.552l-1.345-.52-1.03-.404-2.36-.938-1.038-.41-1.52-.588c-3.217-1.226-5.425-1.94-8.158-2.617l-.92-.222c-5.153-1.205-10.85-1.825-17.795-1.825-7.08 0-12.867.645-18.107 1.896l-.59.143-.793.2c-2.862.743-5.282 1.58-9.198 3.113l-.79.3-1.845.732-1.047.412c-4.39 1.717-6.92 2.57-10.285 3.39l-.705.168c-5.218 1.217-10.976 1.843-17.982 1.843-6.726 0-12.3-.577-17.353-1.7l-.94-.217c-3.2-.766-5.6-1.533-9.372-2.98l-.8-.313-1.034-.405-2.35-.93-.992-.39-1.496-.577c-3.01-1.145-5.133-1.846-7.6-2.482l-.36-.092-.923-.226c-5.24-1.25-11.026-1.896-18.108-1.896-6.86 0-12.513.65-17.642 1.904l-.41.1c-3.514.882-6.245 1.854-10.89 3.76l-2.13.88c-4.608 1.894-7.387 2.897-10.715 3.732l-.786.192-.712.165c-5.08 1.143-10.7 1.656-17.515 1.488L0 116.89l.02-.68c6.94.198 12.625-.308 17.75-1.46l.497-.114.45-.107c3.053-.737 5.556-1.58 9.29-3.074l.555-.223 1.048-.426 2.123-.875c4.31-1.772 6.998-2.76 10.1-3.597l.585-.155.39-.1.607-.15c5.183-1.27 10.9-1.924 17.804-1.924 6.994 0 12.743.626 17.954 1.84l.513.122.44.107c2.967.734 5.323 1.51 8.988 2.924l1.58.616 2.6 1.03 1.257.49 1.557.595c2.633.99 4.603 1.632 6.827 2.213l.938.238.55.134c5.248 1.253 11.042 1.898 18.136 1.898s12.89-.646 18.136-1.898l.6-.143c3.23-.797 5.726-1.643 10-3.316l3.913-1.544c4.24-1.655 6.74-2.49 10.036-3.296l.71-.17c5.21-1.216 10.96-1.84 17.953-1.84zm0-13c7 0 12.75.627 17.957 1.845l.933.225c3.033.752 5.424 1.548 9.22 3.022l1.585.622 2.094.833.786.3 1.027.4c3.642 1.41 5.974 2.18 8.917 2.91l.91.22c4.94 1.155 10.377 1.773 16.938 1.82l1.84.008c5.91.063 5.617.675-1.013.675-7.124 0-12.95-.65-18.23-1.915l-.892-.22c-2.622-.66-4.798-1.37-7.904-2.552l-1.345-.52-1.03-.404-2.36-.938-1.038-.41-1.52-.588c-3.217-1.226-5.425-1.94-8.158-2.617l-.92-.222c-5.153-1.205-10.85-1.825-17.795-1.825-7.08 0-12.867.645-18.107 1.896l-.59.143-.793.2c-2.862.743-5.282 1.58-9.198 3.113l-.79.3-1.845.732-1.047.412c-4.39 1.717-6.92 2.57-10.285 3.39l-.705.168c-5.218 1.217-10.976 1.843-17.982 1.843-6.726 0-12.3-.577-17.353-1.7l-.94-.217c-3.2-.766-5.6-1.533-9.372-2.98l-.8-.313-1.034-.405-2.35-.93-.992-.39-1.496-.577c-3.01-1.145-5.133-1.846-7.6-2.482l-.36-.092-.923-.226c-5.24-1.25-11.026-1.896-18.108-1.896-6.86 0-12.513.65-17.642 1.904l-.41.1c-3.514.882-6.245 1.854-10.89 3.76l-2.13.88c-4.608 1.894-7.387 2.897-10.715 3.732l-.786.192-.712.165c-5.08 1.143-10.7 1.656-17.515 1.488L0 103.89l.02-.68c6.94.198 12.625-.308 17.75-1.46l.497-.114.45-.107c3.053-.737 5.556-1.58 9.29-3.074l.555-.223 1.048-.426 2.123-.875c4.31-1.772 6.998-2.76 10.1-3.597l.585-.155.39-.1.607-.15C48.585 91.655 54.292 91 61.205 91c6.994 0 12.743.626 17.954 1.84l.513.122.44.107c2.967.734 5.323 1.51 8.988 2.924l1.58.616 2.6 1.03 1.257.49 1.557.595c2.633.99 4.603 1.632 6.827 2.213l.938.238.55.134c5.248 1.253 11.042 1.898 18.136 1.898s12.89-.646 18.136-1.898l.6-.143c3.23-.797 5.726-1.643 10-3.316l3.913-1.544c4.24-1.655 6.74-2.49 10.036-3.296l.71-.17c5.21-1.216 10.96-1.84 17.953-1.84zm0-13c7 0 12.75.627 17.957 1.845l.933.225c3.033.752 5.424 1.548 9.22 3.022l1.585.622 2.094.833.786.3 1.027.4c3.642 1.41 5.974 2.18 8.917 2.91l.91.22c4.94 1.155 10.377 1.773 16.938 1.82l1.84.008c5.91.063 5.617.675-1.013.675-7.124 0-12.95-.65-18.23-1.915l-.892-.22c-2.622-.66-4.798-1.37-7.904-2.552l-1.345-.52-1.03-.404-2.36-.938-1.038-.41-1.52-.588c-3.217-1.226-5.425-1.94-8.158-2.617l-.92-.222c-5.153-1.205-10.85-1.825-17.795-1.825-7.08 0-12.867.645-18.107 1.896l-.59.143-.793.2c-2.862.743-5.282 1.58-9.198 3.113l-.79.3-1.845.732-1.047.412c-4.39 1.717-6.92 2.57-10.285 3.39l-.705.168c-5.218 1.217-10.976 1.843-17.982 1.843-6.726 0-12.3-.577-17.353-1.7l-.94-.217c-3.2-.766-5.6-1.533-9.372-2.98l-.8-.313-1.034-.405-2.35-.93-.992-.39-1.496-.577c-3.01-1.145-5.133-1.846-7.6-2.482l-.36-.092-.923-.226c-5.24-1.25-11.026-1.896-18.108-1.896-6.86 0-12.513.65-17.642 1.904l-.41.1c-3.514.882-6.245 1.854-10.89 3.76l-2.13.88c-4.608 1.894-7.387 2.897-10.715 3.732l-.786.192-.712.165c-5.08 1.143-10.7 1.656-17.515 1.488L0 90.89l.02-.68c6.94.198 12.625-.308 17.75-1.46l.497-.114.45-.107c3.053-.737 5.556-1.58 9.29-3.074l.555-.223 1.048-.426 2.123-.875c4.31-1.772 6.998-2.76 10.1-3.597l.585-.155.39-.1.607-.15C48.585 78.655 54.292 78 61.205 78c6.994 0 12.743.626 17.954 1.84l.513.122.44.107c2.967.734 5.323 1.51 8.988 2.924l1.58.616 2.6 1.03 1.257.49 1.557.595c2.633.99 4.603 1.632 6.827 2.213l.938.238.55.134c5.248 1.253 11.042 1.898 18.136 1.898s12.89-.646 18.136-1.898l.6-.143c3.23-.797 5.726-1.643 10-3.316l3.913-1.544c4.24-1.655 6.74-2.49 10.036-3.296l.71-.17c5.21-1.216 10.96-1.84 17.953-1.84zm0-13c7 0 12.75.627 17.957 1.845l.933.225c3.033.752 5.424 1.548 9.22 3.022l1.585.622 2.094.833.786.3 1.027.4c3.642 1.41 5.974 2.18 8.917 2.91l.91.22c4.94 1.155 10.377 1.773 16.938 1.82l1.84.008c5.91.063 5.617.675-1.013.675-7.124 0-12.95-.65-18.23-1.915l-.892-.22c-2.622-.66-4.798-1.37-7.904-2.552l-1.345-.52-1.03-.404-2.36-.938-1.038-.41-1.52-.588c-3.217-1.226-5.425-1.94-8.158-2.617l-.92-.222c-5.153-1.205-10.85-1.825-17.795-1.825-7.08 0-12.867.645-18.107 1.896l-.59.143-.793.2c-2.862.743-5.282 1.58-9.198 3.113l-.79.3-1.845.732-1.047.412c-4.39 1.717-6.92 2.57-10.285 3.39l-.705.168c-5.218 1.217-10.976 1.843-17.982 1.843-6.726 0-12.3-.577-17.353-1.7l-.94-.217c-3.2-.766-5.6-1.533-9.372-2.98l-.8-.313-1.034-.405-2.35-.93-.992-.39-1.496-.577c-3.01-1.145-5.133-1.846-7.6-2.482l-.36-.092-.923-.226c-5.24-1.25-11.026-1.896-18.108-1.896-6.86 0-12.513.65-17.642 1.904l-.41.1c-3.514.882-6.245 1.854-10.89 3.76l-2.13.88c-4.608 1.894-7.387 2.897-10.715 3.732l-.786.192-.712.165c-5.08 1.143-10.7 1.656-17.515 1.488L0 77.89l.02-.68c6.94.198 12.625-.308 17.75-1.46l.497-.114.45-.107c3.053-.737 5.556-1.58 9.29-3.074l.555-.223 1.048-.426 2.123-.875c4.31-1.772 6.998-2.76 10.1-3.597l.585-.155.39-.1.607-.15C48.585 65.655 54.292 65 61.205 65c6.994 0 12.743.626 17.954 1.84l.513.122.44.107c2.967.734 5.323 1.51 8.988 2.924l1.58.616 2.6 1.03 1.257.49 1.557.595c2.633.99 4.603 1.632 6.827 2.213l.938.238.55.134c5.248 1.253 11.042 1.898 18.136 1.898s12.89-.646 18.136-1.898l.6-.143c3.23-.797 5.726-1.643 10-3.316l3.913-1.544c4.24-1.655 6.74-2.49 10.036-3.296l.71-.17c5.21-1.216 10.96-1.84 17.953-1.84zm0-13c7 0 12.75.627 17.957 1.845l.933.225c3.033.752 5.424 1.548 9.22 3.022l1.585.622 2.094.833.786.3 1.027.4c3.642 1.41 5.974 2.18 8.917 2.91l.91.22c4.94 1.155 10.377 1.773 16.938 1.82l1.84.008c5.91.063 5.617.675-1.013.675-7.124 0-12.95-.65-18.23-1.915l-.892-.22c-2.622-.66-4.798-1.37-7.904-2.552l-1.345-.52-1.03-.404-2.36-.938-1.038-.41-1.52-.588c-3.217-1.226-5.425-1.94-8.158-2.617l-.92-.222c-5.153-1.205-10.85-1.825-17.795-1.825-7.08 0-12.867.645-18.107 1.896l-.59.143-.793.2c-2.862.743-5.282 1.58-9.198 3.113l-.79.3-1.845.732-1.047.412c-4.39 1.717-6.92 2.57-10.285 3.39l-.705.168c-5.218 1.217-10.976 1.843-17.982 1.843-6.726 0-12.3-.577-17.353-1.7l-.94-.217c-3.2-.766-5.6-1.533-9.372-2.98l-.8-.313-1.034-.405-2.35-.93-.992-.39-1.496-.577c-3.01-1.145-5.133-1.846-7.6-2.482l-.36-.092-.923-.226c-5.24-1.25-11.026-1.896-18.108-1.896-6.86 0-12.513.65-17.642 1.904l-.41.1c-3.514.882-6.245 1.854-10.89 3.76l-2.13.88c-4.608 1.894-7.387 2.897-10.715 3.732l-.786.192-.712.165c-5.08 1.143-10.7 1.656-17.515 1.488L0 64.89l.02-.68c6.94.198 12.625-.308 17.75-1.46l.497-.114.45-.107c3.053-.737 5.556-1.58 9.29-3.074l.555-.223 1.048-.426 2.123-.875c4.31-1.772 6.998-2.76 10.1-3.597l.585-.155.39-.1.607-.15C48.585 52.655 54.292 52 61.205 52c6.994 0 12.743.626 17.954 1.84l.513.122.44.107c2.967.734 5.323 1.51 8.988 2.924l1.58.616 2.6 1.03 1.257.49 1.557.595c2.633.99 4.603 1.632 6.827 2.213l.938.238.55.134c5.248 1.253 11.042 1.898 18.136 1.898s12.89-.646 18.136-1.898l.6-.143c3.23-.797 5.726-1.643 10-3.316l3.913-1.544c4.24-1.655 6.74-2.49 10.036-3.296l.71-.17c5.21-1.216 10.96-1.84 17.953-1.84zm0-13c7 0 12.75.627 17.957 1.845l.933.225c3.033.752 5.424 1.548 9.22 3.022l1.585.622 2.094.833.786.3 1.027.4c3.642 1.41 5.974 2.18 8.917 2.91l.91.22c4.94 1.155 10.377 1.773 16.938 1.82l1.84.008c5.91.063 5.617.675-1.013.675-7.124 0-12.95-.65-18.23-1.915l-.892-.22c-2.622-.66-4.798-1.37-7.904-2.552l-1.345-.52-1.03-.404-2.36-.938-1.038-.41-1.52-.588c-3.217-1.226-5.425-1.94-8.158-2.617l-.92-.222c-5.153-1.205-10.85-1.825-17.795-1.825-7.08 0-12.867.645-18.107 1.896l-.59.143-.793.2c-2.862.743-5.282 1.58-9.198 3.113l-.79.3-1.845.732-1.047.412c-4.39 1.717-6.92 2.57-10.285 3.39l-.705.168c-5.218 1.217-10.976 1.843-17.982 1.843-6.726 0-12.3-.577-17.353-1.7l-.94-.217c-3.2-.766-5.6-1.533-9.372-2.98l-.8-.313-1.034-.405-2.35-.93-.992-.39-1.496-.577c-3.01-1.145-5.133-1.846-7.6-2.482l-.36-.092-.923-.226c-5.24-1.25-11.026-1.896-18.108-1.896-6.86 0-12.513.65-17.642 1.904l-.41.1c-3.514.882-6.245 1.854-10.89 3.76l-2.13.88c-4.608 1.894-7.387 2.897-10.715 3.732l-.786.192-.712.165c-5.08 1.143-10.7 1.656-17.515 1.488L0 51.89l.02-.68c6.94.198 12.625-.308 17.75-1.46l.497-.114.45-.107c3.053-.737 5.556-1.58 9.29-3.074l.555-.223 1.048-.426 2.123-.875c4.31-1.772 6.998-2.76 10.1-3.597l.585-.155.39-.1.607-.15C48.585 39.655 54.292 39 61.205 39c6.994 0 12.743.626 17.954 1.84l.513.122.44.107c2.967.734 5.323 1.51 8.988 2.924l1.58.616 2.6 1.03 1.257.49 1.557.595c2.633.99 4.603 1.632 6.827 2.213l.938.238.55.134c5.248 1.253 11.042 1.898 18.136 1.898s12.89-.646 18.136-1.898l.6-.143c3.23-.797 5.726-1.643 10-3.316l3.913-1.544c4.24-1.655 6.74-2.49 10.036-3.296l.71-.17c5.21-1.216 10.96-1.84 17.953-1.84zm0-13c7 0 12.75.627 17.957 1.845l.933.225c3.033.752 5.424 1.548 9.22 3.022l1.585.622 2.094.833.786.3 1.027.4c3.642 1.41 5.974 2.18 8.917 2.91l.91.22c4.94 1.155 10.377 1.773 16.938 1.82l1.84.008c5.91.063 5.617.675-1.013.675-7.124 0-12.95-.65-18.23-1.915l-.892-.22c-2.622-.66-4.798-1.37-7.904-2.552l-1.345-.52-1.03-.404-2.36-.938-1.038-.41-1.52-.588c-3.217-1.226-5.425-1.94-8.158-2.617l-.92-.222c-5.153-1.205-10.85-1.825-17.795-1.825-7.08 0-12.867.645-18.107 1.896l-.59.143-.793.2c-2.862.743-5.282 1.58-9.198 3.113l-.79.3-1.845.732-1.047.412c-4.39 1.717-6.92 2.57-10.285 3.39l-.705.168c-5.218 1.217-10.976 1.843-17.982 1.843-6.726 0-12.3-.577-17.353-1.7l-.94-.217c-3.2-.766-5.6-1.533-9.372-2.98l-.8-.313-1.034-.405-2.35-.93-.992-.39-1.496-.577c-3.01-1.145-5.133-1.846-7.6-2.482l-.36-.092-.923-.226c-5.24-1.25-11.026-1.896-18.108-1.896-6.86 0-12.513.65-17.642 1.904l-.41.1c-3.514.882-6.245 1.854-10.89 3.76l-2.13.88c-4.608 1.894-7.387 2.897-10.715 3.732l-.786.192-.712.165c-5.08 1.143-10.7 1.656-17.515 1.488L0 38.89l.02-.68c6.94.198 12.625-.308 17.75-1.46l.497-.114.45-.107c3.053-.737 5.556-1.58 9.29-3.074l.555-.223 1.048-.426 2.123-.875c4.31-1.772 6.998-2.76 10.1-3.597l.585-.155.39-.1.607-.15C48.585 26.655 54.292 26 61.205 26c6.994 0 12.743.626 17.954 1.84l.513.122.44.107c2.967.734 5.323 1.51 8.988 2.924l1.58.616 2.6 1.03 1.257.49 1.557.595c2.633.99 4.603 1.632 6.827 2.213l.938.238.55.134c5.248 1.253 11.042 1.898 18.136 1.898s12.89-.646 18.136-1.898l.6-.143c3.23-.797 5.726-1.643 10-3.316l3.913-1.544c4.24-1.655 6.74-2.49 10.036-3.296l.71-.17c5.21-1.216 10.96-1.84 17.953-1.84zm0-13c7 0 12.75.627 17.957 1.845l.933.225c3.033.752 5.424 1.548 9.22 3.022l1.585.622 2.094.833.786.3 1.027.4c3.642 1.41 5.974 2.18 8.917 2.91l.91.22c4.94 1.155 10.377 1.773 16.938 1.82l1.84.008c5.91.063 5.617.675-1.013.675-7.124 0-12.95-.65-18.23-1.915l-.892-.22c-2.622-.66-4.798-1.37-7.904-2.552l-1.345-.52-1.03-.404-2.36-.938-1.038-.41-1.52-.588c-3.217-1.226-5.425-1.94-8.158-2.617l-.92-.222c-5.153-1.205-10.85-1.825-17.795-1.825-7.08 0-12.867.645-18.107 1.896l-.59.143-.793.2c-2.862.743-5.282 1.58-9.198 3.113l-.79.3-1.845.732-1.047.412c-4.39 1.717-6.92 2.57-10.285 3.39l-.705.168c-5.218 1.217-10.976 1.843-17.982 1.843-6.726 0-12.3-.577-17.353-1.7l-.94-.217c-3.2-.766-5.6-1.533-9.372-2.98l-.8-.313-1.034-.405-2.35-.93-.992-.39-1.496-.577c-3.01-1.145-5.133-1.846-7.6-2.482l-.36-.092-.923-.226c-5.24-1.25-11.026-1.896-18.108-1.896-6.86 0-12.513.65-17.642 1.904l-.41.1c-3.514.882-6.245 1.854-10.89 3.76l-2.13.88c-4.608 1.894-7.387 2.897-10.715 3.732l-.786.192-.712.165c-5.08 1.143-10.7 1.656-17.515 1.488L0 25.89l.02-.68c6.94.198 12.625-.308 17.75-1.46l.497-.114.45-.107c3.053-.737 5.556-1.58 9.29-3.074l.555-.223 1.048-.426 2.123-.875c4.31-1.772 6.998-2.76 10.1-3.597l.585-.155.39-.1.607-.15C48.585 13.655 54.292 13 61.205 13c6.994 0 12.743.626 17.954 1.84l.513.122.44.107c2.967.734 5.323 1.51 8.988 2.924l1.58.616 2.6 1.03 1.257.49 1.557.595c2.633.99 4.603 1.632 6.827 2.213l.938.238.55.134c5.248 1.253 11.042 1.898 18.136 1.898s12.89-.646 18.136-1.898l.6-.143c3.23-.797 5.726-1.643 10-3.316l3.913-1.544c4.24-1.655 6.74-2.49 10.036-3.296l.71-.17c5.21-1.216 10.96-1.84 17.953-1.84zm0-13c7 0 12.75.627 17.957 1.845l.933.225c3.033.752 5.424 1.548 9.22 3.022l1.585.622 2.094.833.786.3 1.027.4c3.642 1.41 5.974 2.18 8.917 2.91l.91.22c4.94 1.155 10.377 1.773 16.938 1.82l1.84.008c5.91.063 5.617.675-1.013.675-7.124 0-12.95-.65-18.23-1.915l-.892-.22c-2.622-.66-4.798-1.37-7.904-2.552l-1.345-.52-1.03-.404-2.36-.938-1.038-.41-1.52-.588c-3.217-1.226-5.425-1.94-8.158-2.617l-.92-.222C196.528 1.3 190.832.68 183.885.68c-7.08 0-12.867.645-18.107 1.896l-.59.143-.793.2c-2.862.743-5.282 1.58-9.198 3.113l-.79.3-1.845.732-1.047.412c-4.39 1.717-6.92 2.57-10.285 3.39l-.705.168c-5.218 1.217-10.976 1.843-17.982 1.843-6.726 0-12.3-.577-17.353-1.7l-.94-.217c-3.2-.766-5.6-1.533-9.372-2.98l-.8-.313-1.034-.405-2.35-.93-.992-.39-1.496-.577c-3.01-1.145-5.133-1.846-7.6-2.482l-.36-.092-.923-.226C74.073 1.325 68.287.68 61.205.68c-6.86 0-12.513.65-17.642 1.904l-.41.1c-3.514.882-6.245 1.854-10.89 3.76l-2.13.88c-4.608 1.894-7.387 2.897-10.715 3.732l-.786.192-.712.165c-5.08 1.143-10.7 1.656-17.515 1.488L0 12.89l.02-.68c6.94.198 12.625-.308 17.75-1.46l.497-.114.45-.107c3.053-.737 5.556-1.58 9.29-3.074l.555-.223 1.048-.426 2.123-.875c4.31-1.772 6.998-2.76 10.1-3.597l.585-.155.39-.1.607-.15C48.585.655 54.292 0 61.205 0 68.2 0 73.948.626 79.16 1.84l.513.122.44.107c2.967.734 5.323 1.51 8.988 2.924l1.58.616 2.6 1.03 1.257.49 1.557.595c2.633.99 4.603 1.632 6.827 2.213l.938.238.55.134c5.248 1.253 11.042 1.898 18.136 1.898s12.89-.646 18.136-1.898l.6-.143c3.23-.797 5.726-1.643 10-3.316l3.913-1.544c4.24-1.655 6.74-2.49 10.036-3.296l.71-.17C171.144.626 176.892 0 183.885 0z" opacity=".5"/></g></svg>