<?xml version="1.0" encoding="UTF-8"?>
<svg width="28px" height="25px" viewBox="0 0 28 25" version="1.1" xmlns="http://www.w3.org/2000/svg" xmlns:xlink="http://www.w3.org/1999/xlink">
    <title>noun_Car_174300</title>
    <g id="Online-Booking-Inventory-Designs-FINAL-8-may-2020" stroke="none" stroke-width="1" fill="none" fill-rule="evenodd" opacity="0.75">
        <g id="noun_Car_174300" fill="#007FFF">
            <path d="M27.488172,9.93548387 C27.488172,9.51397849 27.1870968,9.21290323 26.7655914,9.21290323 C26.6150538,9.21290323 26.4344086,9.21290323 26.283871,9.21290323 C25.3806452,9.21290323 24.7483871,10.2365591 24.7483871,10.2365591 C24.688172,10.3569892 24.5978495,10.4774194 24.5075269,10.6580645 C24.4172043,10.2666667 24.3268817,9.9655914 24.2365591,9.66451613 C23.8451613,8.30967742 23.2430108,7.04516129 22.4602151,5.90107527 C21.888172,5.08817204 21.0752688,4.8172043 20.172043,4.63655914 C18.5462366,4.3655914 16.8903226,4.33548387 15.2645161,4.33548387 C13.6086022,4.33548387 11.9827957,4.3655914 10.3569892,4.63655914 C9.45376344,4.78709677 8.64086022,5.08817204 8.0688172,5.90107527 C7.25591398,7.07526882 6.65376344,8.30967742 6.29247312,9.66451613 C6.20215054,9.9655914 6.14193548,10.2666667 6.02150538,10.6580645 C5.90107527,10.4774194 5.81075269,10.3569892 5.78064516,10.2365591 C5.78064516,10.2365591 5.1483871,9.21290323 4.24516129,9.21290323 C4.09462366,9.21290323 3.91397849,9.21290323 3.76344086,9.21290323 C3.34193548,9.21290323 3.04086022,9.51397849 3.04086022,9.93548387 C3.04086022,10.2365591 3.04086022,10.5376344 3.04086022,10.8387097 C3.04086022,11.2903226 3.34193548,11.5913978 3.82365591,11.5913978 C4.27526882,11.5913978 4.72688172,11.5913978 5.20860215,11.5913978 C5.38924731,11.5913978 5.56989247,11.5913978 5.75053763,11.5913978 C5.78064516,11.6215054 5.78064516,11.6516129 5.81075269,11.6817204 C5.75053763,11.711828 5.69032258,11.7419355 5.63010753,11.772043 C4.45591398,12.8860215 3.85376344,14.2408602 3.85376344,15.8666667 C3.88387097,16.8301075 3.94408602,17.7935484 4.06451613,18.7569892 C4.15483871,19.5096774 4.30537634,20.2322581 4.66666667,20.8946237 C4.8172043,21.1956989 4.99784946,21.4064516 5.32903226,21.4666667 C5.47956989,21.4967742 5.50967742,21.5870968 5.50967742,21.7376344 C5.50967742,22.1290323 5.50967742,22.5505376 5.50967742,22.9419355 C5.50967742,23.5139785 5.84086022,23.8451613 6.3827957,23.8451613 C6.86451613,23.8451613 7.34623656,23.8451613 7.79784946,23.8451613 C8.4,23.8451613 8.7311828,23.544086 8.7311828,22.911828 C8.7311828,22.6107527 8.7311828,22.2795699 8.7311828,21.9483871 C10.9290323,22.0989247 13.0967742,22.1892473 15.2645161,22.1892473 C17.4322581,22.1892473 19.6301075,22.0989247 21.7978495,21.9483871 C21.7978495,22.2795699 21.7978495,22.5806452 21.7978495,22.911828 C21.7978495,23.5139785 22.1290323,23.8451613 22.7311828,23.8451613 C23.2129032,23.8451613 23.6946237,23.8451613 24.1462366,23.8451613 C24.688172,23.8451613 25.0193548,23.5139785 25.0193548,22.9419355 C25.0193548,22.5505376 25.0193548,22.1290323 25.0193548,21.7376344 C25.0193548,21.6172043 25.0494624,21.4967742 25.2,21.4666667 C25.5311828,21.4064516 25.711828,21.1655914 25.8623656,20.8946237 C26.1935484,20.2021505 26.3741935,19.4795699 26.4645161,18.7569892 C26.5849462,17.7935484 26.6451613,16.8301075 26.6752688,15.8666667 C26.7053763,14.2408602 26.0731183,12.8860215 24.8989247,11.772043 C24.8387097,11.7419355 24.7784946,11.711828 24.7182796,11.6817204 C24.7483871,11.6516129 24.7483871,11.6215054 24.7784946,11.5913978 C24.9591398,11.5913978 25.1397849,11.5913978 25.3204301,11.5913978 C25.772043,11.5913978 26.2236559,11.5913978 26.7053763,11.5913978 C27.1569892,11.5913978 27.4580645,11.2903226 27.488172,10.8387097 C27.488172,10.5677419 27.488172,10.2365591 27.488172,9.93548387 Z M7.40645161,10.8989247 C7.76774194,9.45376344 8.30967742,8.0688172 9.06236559,6.77419355 C9.09247312,6.71397849 9.15268817,6.65376344 9.21290323,6.59354839 L9.21290323,6.59354839 C9.21290323,6.59354839 9.21290323,6.59354839 9.21290323,6.59354839 C9.27311828,6.56344086 9.33333333,6.50322581 9.39354839,6.50322581 C9.87526882,6.29247312 11.3204301,5.87096774 15.2344086,5.84086022 C19.1483871,5.87096774 20.5935484,6.29247312 21.0752688,6.50322581 C21.1655914,6.53333333 21.2258065,6.56344086 21.255914,6.59354839 C21.255914,6.59354839 21.255914,6.59354839 21.255914,6.59354839 L21.255914,6.59354839 C21.316129,6.65376344 21.3462366,6.68387097 21.4064516,6.77419355 C22.1892473,8.0688172 22.7311828,9.42365591 23.0623656,10.8989247 C23.0924731,10.9892473 23.0924731,11.1096774 23.0924731,11.1698925 C20.4430108,10.9290323 17.8236559,10.8387097 15.2043011,10.8387097 C12.5849462,10.8387097 9.93548387,10.9591398 7.31612903,11.1698925 C7.34623656,11.0795699 7.37634409,10.9892473 7.40645161,10.8989247 Z M7.79784946,17.0709677 C6.8344086,17.0709677 6.08172043,16.288172 6.08172043,15.3548387 C6.08172043,14.4215054 6.86451613,13.6387097 7.79784946,13.6387097 C8.7311828,13.6387097 9.51397849,14.4215054 9.51397849,15.3548387 C9.51397849,16.288172 8.76129032,17.0709677 7.79784946,17.0709677 Z M22.7010753,17.0709677 C21.7376344,17.0709677 20.9849462,16.288172 20.9849462,15.3548387 C20.9849462,14.4215054 21.7677419,13.6387097 22.7010753,13.6387097 C23.6645161,13.6387097 24.4172043,14.4215054 24.4172043,15.3548387 C24.4172043,16.288172 23.6645161,17.0709677 22.7010753,17.0709677 Z M26.5849462,5.29892473 L26.9462366,6.26236559 L27.9096774,6.62365591 L26.9462366,6.98494624 L26.5849462,7.9483871 L26.2236559,6.98494624 L25.2602151,6.62365591 L26.2236559,6.26236559 L26.5849462,5.29892473 Z M1.32473118,11.4107527 L1.68602151,12.3741935 L2.64946237,12.7354839 L1.68602151,13.0967742 L1.32473118,14.0602151 L0.96344086,13.0967742 L8.55707381e-15,12.7354839 L0.96344086,12.3741935 L1.32473118,11.4107527 Z M4.8172043,3.67311828 L5.41935484,5.23870968 L6.98494624,5.84086022 L5.41935484,6.44301075 L4.8172043,8.00860215 L4.21505376,6.44301075 L2.64946237,5.84086022 L4.21505376,5.23870968 L4.8172043,3.67311828 Z M23.9354839,0.210752688 L24.5978495,1.92688172 L26.3139785,2.58924731 L24.5978495,3.2516129 L23.9354839,4.96774194 L23.2731183,3.2516129 L21.5569892,2.58924731 L23.2731183,1.92688172 L23.9354839,0.210752688 Z" id="Shape"></path>
        </g>
    </g>
</svg>