<?xml version="1.0" encoding="UTF-8"?>
<svg width="25px" height="10px" viewBox="0 0 25 10" version="1.1" xmlns="http://www.w3.org/2000/svg" xmlns:xlink="http://www.w3.org/1999/xlink">
    <title>Brand?</title>
    <g id="Entry-Points" stroke="none" stroke-width="1" fill="none" fill-rule="evenodd" opacity="0.8">
        <g id="Mobile-Recommender-Entry-Points-V2" transform="translate(-223.000000, -332.000000)" fill="#9E9E9E" fill-rule="nonzero">
            <g id="Group-8" transform="translate(0.000000, 290.000000)">
                <g id="Group-9-Copy-2" transform="translate(278.757973, 63.132040) rotate(7.000000) translate(-278.757973, -63.132040) translate(221.257973, 49.132040)">
                    <path d="M2.79221175,6.25629928 C3.39637842,6.25629928 3.86382634,6.11046595 4.1945555,5.81879928 C4.52528467,5.52713262 4.69064925,5.12609095 4.69064925,4.61567428 C4.69064925,4.28234095 4.60145655,3.99523157 4.42307113,3.75434616 C4.24468571,3.51346074 4.00184717,3.35004928 3.6945555,3.26411178 C3.95497217,3.15213262 4.16070134,2.99392949 4.311743,2.78950241 C4.46278467,2.58507532 4.5383055,2.35004928 4.5383055,2.08442428 C4.5383055,1.58442428 4.38270655,1.20682012 4.07150863,0.951611782 C3.76031071,0.696403449 3.296118,0.568799282 2.6789305,0.568799282 L2.6789305,0.568799282 L0.819555504,0.568799282 L0.819555504,6.25629928 L2.79221175,6.25629928 Z M2.702368,2.99458053 L1.5695555,2.99458053 L1.5695555,1.18598678 L2.6789305,1.18598678 C3.05132634,1.18598678 3.32867009,1.25695032 3.51096175,1.39887741 C3.69325342,1.54080449 3.78439925,1.76801803 3.78439925,2.08051803 C3.78439925,2.36176803 3.68609196,2.58442428 3.48947738,2.74848678 C3.2928628,2.91254928 3.030493,2.99458053 2.702368,2.99458053 L2.702368,2.99458053 Z M2.80783675,5.64301803 L1.5695555,5.64301803 L1.5695555,3.59614303 L2.8195555,3.59614303 C3.56434717,3.59614303 3.936743,3.93859095 3.936743,4.62348678 C3.936743,4.94119512 3.83583155,5.19054407 3.63400863,5.37153366 C3.43218571,5.55252324 3.15679509,5.64301803 2.80783675,5.64301803 L2.80783675,5.64301803 Z M6.40939925,6.25629928 L6.40939925,3.25629928 C6.57867009,2.85265345 6.90028467,2.65083053 7.374243,2.65083053 C7.50184717,2.65083053 7.62033675,2.65994512 7.72971175,2.67817428 L7.72971175,2.67817428 L7.72971175,2.00629928 C7.65679509,1.96984095 7.55002425,1.95161178 7.40939925,1.95161178 C6.97450342,1.95161178 6.63856592,2.14041387 6.40158675,2.51801803 L6.40158675,2.51801803 L6.389868,2.02973678 L5.686743,2.02973678 L5.686743,6.25629928 L6.40939925,6.25629928 Z M9.54221175,6.33442428 C10.0083576,6.33442428 10.4093993,6.15994512 10.7453368,5.81098678 C10.7713784,6.02452845 10.8052326,6.17296595 10.8468993,6.25629928 L10.8468993,6.25629928 L11.6047118,6.25629928 L11.6047118,6.19379928 C11.5057534,5.96463262 11.4562743,5.65603887 11.4562743,5.26801803 L11.4562743,5.26801803 L11.4562743,3.32270553 C11.4458576,2.8956222 11.3026284,2.56033574 11.0265868,2.31684616 C10.7505451,2.07335657 10.3690347,1.95161178 9.8820555,1.95161178 C9.57476384,1.95161178 9.2928628,2.00890345 9.03635238,2.12348678 C8.77984196,2.23807012 8.57671696,2.39366907 8.42697738,2.59028366 C8.2772378,2.78689824 8.202368,2.99067428 8.202368,3.20161178 L8.202368,3.20161178 L8.9289305,3.20161178 C8.9289305,3.01671595 9.01617009,2.85916387 9.19064925,2.72895553 C9.36512842,2.5987472 9.58127425,2.53364303 9.83908675,2.53364303 C10.1333576,2.53364303 10.3560138,2.60851282 10.5070555,2.75825241 C10.6580972,2.90799199 10.733618,3.10916387 10.733618,3.36176803 L10.733618,3.36176803 L10.733618,3.69379928 L10.030493,3.69379928 C9.42372217,3.69379928 8.95301905,3.81554407 8.61838363,4.05903366 C8.28374821,4.30252324 8.1164305,4.64432012 8.1164305,5.08442428 C8.1164305,5.44640345 8.24989405,5.74523157 8.51682113,5.98090866 C8.78374821,6.21658574 9.12554509,6.33442428 9.54221175,6.33442428 Z M9.6476805,5.70551803 C9.41070134,5.70551803 9.21669092,5.64171595 9.06564925,5.51411178 C8.91460759,5.38650762 8.83908675,5.20942428 8.83908675,4.98286178 C8.83908675,4.46463262 9.28179509,4.20551803 10.1672118,4.20551803 L10.1672118,4.20551803 L10.733618,4.20551803 L10.733618,5.07270553 C10.6424722,5.26020553 10.4953368,5.41254928 10.2922118,5.52973678 C10.0890868,5.64692428 9.874243,5.70551803 9.6476805,5.70551803 Z M13.311743,6.25629928 L13.311743,3.24458053 C13.4107013,3.04145553 13.5487222,2.87739303 13.7258055,2.75239303 C13.9028888,2.62739303 14.108618,2.56489303 14.342993,2.56489303 C14.6320555,2.56489303 14.8449461,2.6378097 14.9816649,2.78364303 C15.1183836,2.92947637 15.1880451,3.15473678 15.1906493,3.45942428 L15.1906493,3.45942428 L15.1906493,6.25629928 L15.9133055,6.25629928 L15.9133055,3.46333053 C15.905493,2.45551803 15.4549722,1.95161178 14.561743,1.95161178 C14.0409097,1.95161178 13.6190347,2.15473678 13.296118,2.56098678 L13.296118,2.56098678 L13.2726805,2.02973678 L12.5890868,2.02973678 L12.5890868,6.25629928 L13.311743,6.25629928 Z M18.4875243,6.33442428 C19.0031493,6.33442428 19.405493,6.15734095 19.6945555,5.80317428 L19.6945555,5.80317428 L19.7297118,6.25629928 L20.3937743,6.25629928 L20.3937743,0.256299282 L19.671118,0.256299282 L19.671118,2.45942428 C19.3820555,2.12088262 18.9901284,1.95161178 18.4953368,1.95161178 C17.9979409,1.95161178 17.5955972,2.14887741 17.2883055,2.54340866 C16.9810138,2.93793991 16.827368,3.45942428 16.827368,4.10786178 L16.827368,4.10786178 L16.827368,4.16254928 C16.827368,4.80838262 16.9816649,5.33182012 17.2902586,5.73286178 C17.5988524,6.13390345 17.9979409,6.33442428 18.4875243,6.33442428 Z M18.6672118,5.72114303 C18.3182534,5.72114303 18.0448159,5.58572637 17.8468993,5.31489303 C17.6489826,5.0440597 17.5500243,4.6690597 17.5500243,4.18989303 C17.5500243,3.6534347 17.6489826,3.24848678 17.8468993,2.97504928 C18.0448159,2.70161178 18.3208576,2.56489303 18.6750243,2.56489303 C19.1229409,2.56489303 19.4549722,2.76411178 19.671118,3.16254928 L19.671118,3.16254928 L19.671118,5.10395553 C19.4601805,5.51541387 19.1255451,5.72114303 18.6672118,5.72114303 Z M23.0851805,4.65473678 C23.0851805,4.25890345 23.1802326,3.95551803 23.3703368,3.74458053 L23.3703368,3.74458053 L23.796118,3.32270553 C24.217993,2.8799972 24.4289305,2.43077845 24.4289305,1.97504928 C24.4289305,1.51411178 24.2915607,1.15148157 24.0168211,0.887158657 C23.7420815,0.622835741 23.358618,0.490674282 22.8664305,0.490674282 C22.3924722,0.490674282 22.0077065,0.620231574 21.7121336,0.879346157 C21.4165607,1.13846074 21.2661701,1.47895553 21.2609618,1.90083053 L21.2609618,1.90083053 L21.983618,1.90083053 C21.983618,1.66385137 22.0643472,1.47504928 22.2258055,1.33442428 C22.3872638,1.19379928 22.6008055,1.12348678 22.8664305,1.12348678 C23.139868,1.12348678 23.3482013,1.20096074 23.4914305,1.35590866 C23.6346597,1.51085657 23.7062743,1.72504928 23.7062743,1.99848678 C23.7062743,2.28234095 23.5968993,2.54796595 23.3781493,2.79536178 L23.3781493,2.79536178 L22.8664305,3.32270553 C22.6659097,3.54145553 22.5330972,3.74067428 22.467993,3.92036178 C22.4028888,4.10004928 22.3677326,4.34484095 22.3625243,4.65473678 L22.3625243,4.65473678 L23.0851805,4.65473678 Z M22.7570555,6.29926803 C22.8976805,6.29926803 23.0044513,6.26085657 23.077368,6.18403366 C23.1502847,6.10721074 23.186743,6.01020553 23.186743,5.89301803 C23.186743,5.77583053 23.1502847,5.67752324 23.077368,5.59809616 C23.0044513,5.51866907 22.8976805,5.47895553 22.7570555,5.47895553 C22.6164305,5.47895553 22.5103107,5.51866907 22.4386961,5.59809616 C22.3670815,5.67752324 22.3312743,5.77583053 22.3312743,5.89301803 C22.3312743,6.01020553 22.3670815,6.10721074 22.4386961,6.18403366 C22.5103107,6.26085657 22.6164305,6.29926803 22.7570555,6.29926803 Z" id="Brand?"></path>
                </g>
            </g>
        </g>
    </g>
</svg>