<?xml version="1.0" encoding="UTF-8"?>
<svg width="38px" height="21px" viewBox="0 0 38 21" version="1.1" xmlns="http://www.w3.org/2000/svg" xmlns:xlink="http://www.w3.org/1999/xlink">
    <title>Budget?</title>
    <g id="Entry-Points" stroke="none" stroke-width="1" fill="none" fill-rule="evenodd" opacity="0.8">
        <g id="Mobile-Recommender-Entry-Points-V2" transform="translate(-228.000000, -296.000000)" fill="#9E9E9E" fill-rule="nonzero">
            <g id="Group-8" transform="translate(0.000000, 290.000000)">
                <g id="Group-9" transform="translate(248.307608, 16.885261) rotate(9.000000) translate(-248.307608, -16.885261) translate(228.307608, 2.385261)">
                    <path d="M3.23756049,17.4329515 C4.06828966,17.4329515 4.71103054,17.2324307 5.16578315,16.831389 C5.62053575,16.4303474 5.84791205,15.8789151 5.84791205,15.1770922 C5.84791205,14.7187588 5.72527208,14.3239834 5.47999213,13.992766 C5.23471218,13.6615485 4.90080919,13.4368578 4.47828315,13.3186937 C4.83635606,13.1647224 5.11923367,12.9471931 5.32691596,12.6661058 C5.53459825,12.3850186 5.6384394,12.0618578 5.6384394,11.6966234 C5.6384394,11.0091234 5.42449083,10.4899177 4.99659369,10.1390062 C4.56869656,9.78809477 3.93043158,9.61263904 3.08179877,9.61263904 L3.08179877,9.61263904 L0.525158146,9.61263904 L0.525158146,17.4329515 L3.23756049,17.4329515 Z M3.11402533,12.9480883 L1.55640815,12.9480883 L1.55640815,10.4612719 L3.08179877,10.4612719 C3.59384304,10.4612719 3.9751907,10.5588467 4.22584174,10.7539965 C4.47649278,10.9491462 4.6018183,11.2615648 4.6018183,11.6912523 C4.6018183,12.0779711 4.46664578,12.3841234 4.19630072,12.6097094 C3.92595567,12.8352953 3.56519721,12.9480883 3.11402533,12.9480883 L3.11402533,12.9480883 Z M3.25904486,16.5896898 L1.55640815,16.5896898 L1.55640815,13.7752367 L3.27515815,13.7752367 C4.29924669,13.7752367 4.81129096,14.2461026 4.81129096,15.1878344 C4.81129096,15.6246833 4.6725377,15.9675381 4.39503119,16.2163988 C4.11752468,16.4652595 3.73886257,16.5896898 3.25904486,16.5896898 L3.25904486,16.5896898 Z M9.10279486,17.5403734 C9.85116726,17.5403734 10.4187128,17.3129971 10.8054316,16.8582445 L10.8054316,16.8582445 L10.826916,17.4329515 L11.7722285,17.4329515 L11.7722285,11.6214281 L10.7785761,11.6214281 L10.7785761,15.8484789 C10.5279251,16.4142341 10.0230423,16.6971117 9.26392768,16.6971117 C8.54778184,16.6971117 8.18970893,16.256682 8.18970893,15.3758226 L8.18970893,15.3758226 L8.18970893,11.6214281 L7.19605658,11.6214281 L7.19605658,15.4026781 C7.19963731,16.1080817 7.36345567,16.6407152 7.68751166,17.0005785 C8.01156765,17.3604418 8.48332872,17.5403734 9.10279486,17.5403734 Z M15.3225214,17.5403734 C16.0315058,17.5403734 16.5847285,17.2968838 16.9821894,16.8099047 L16.9821894,16.8099047 L17.0305292,17.4329515 L17.9436152,17.4329515 L17.9436152,9.18295154 L16.9499628,9.18295154 L16.9499628,12.2122484 C16.5525019,11.7467536 16.0136022,11.5140062 15.3332636,11.5140062 C14.6493443,11.5140062 14.0961217,11.7852465 13.6735956,12.3277269 C13.2510696,12.8702074 13.0398066,13.5872484 13.0398066,14.47885 L13.0398066,14.47885 L13.0398066,14.5540453 C13.0398066,15.4420661 13.2519648,16.1617927 13.6762812,16.713225 C14.1005976,17.2646573 14.6493443,17.5403734 15.3225214,17.5403734 Z M15.5695917,16.6971117 C15.089774,16.6971117 14.7137975,16.5109138 14.4416621,16.1385179 C14.1695266,15.7661221 14.0334589,15.2504971 14.0334589,14.5916429 C14.0334589,13.8540127 14.1695266,13.2972094 14.4416621,12.9212328 C14.7137975,12.5452562 15.0933548,12.3572679 15.5803339,12.3572679 C16.1962193,12.3572679 16.6527623,12.6311937 16.9499628,13.1790453 L16.9499628,13.1790453 L16.9499628,15.8484789 C16.6599238,16.4142341 16.1998001,16.6971117 15.5695917,16.6971117 Z M21.6926386,19.7210375 C22.4445917,19.7210375 23.0434687,19.5044034 23.4892695,19.0711351 C23.9350703,18.6378669 24.1579706,18.0452562 24.1579706,17.2933031 L24.1579706,17.2933031 L24.1579706,11.6214281 L23.2502558,11.6214281 L23.201916,12.2659594 C22.804455,11.7646573 22.2512324,11.5140062 21.542248,11.5140062 C20.8511673,11.5140062 20.2961542,11.7816657 19.8772089,12.3169847 C19.4582636,12.8523038 19.248791,13.5729255 19.248791,14.47885 C19.248791,15.4241625 19.4591588,16.1707445 19.8798945,16.7185961 C20.3006302,17.2664476 20.8511673,17.5403734 21.5315058,17.5403734 C22.2190058,17.5403734 22.7614863,17.3112067 23.1589472,16.8528734 L23.1589472,16.8528734 L23.1589472,17.3523851 C23.1589472,17.8465258 23.0237747,18.2296638 22.7534296,18.5017992 C22.4830846,18.7739346 22.1062128,18.9100023 21.6228144,18.9100023 C21.006929,18.9100023 20.4859329,18.6468187 20.0598261,18.1204515 L20.0598261,18.1204515 L19.5442011,18.7166429 C19.7554641,19.0281664 20.0616165,19.2734463 20.4626581,19.4524828 C20.8636998,19.6315192 21.2736933,19.7210375 21.6926386,19.7210375 Z M21.7785761,16.6971117 C21.2951777,16.6971117 20.9192011,16.5100186 20.6506464,16.1358324 C20.3820917,15.7616462 20.2478144,15.2469164 20.2478144,14.5916429 C20.2478144,13.8540127 20.3838821,13.2972094 20.6560175,12.9212328 C20.9281529,12.5452562 21.3059199,12.3572679 21.7893183,12.3572679 C22.3980423,12.3572679 22.8545852,12.6347745 23.1589472,13.1897875 L23.1589472,13.1897875 L23.1589472,15.8431078 C22.8653274,16.4124437 22.4052037,16.6971117 21.7785761,16.6971117 Z M28.0681269,17.5403734 C29.0420852,17.5403734 29.772554,17.1661872 30.2595331,16.4178148 L30.2595331,16.4178148 L29.6525996,15.9451586 C29.4699824,16.1814867 29.256929,16.3712653 29.0134394,16.5144945 C28.7699498,16.6577237 28.4727493,16.7293383 28.1218378,16.7293383 C27.6276972,16.7293383 27.2203893,16.5529873 26.899914,16.2002855 C26.5794387,15.8475837 26.4120397,15.3847745 26.3977167,14.8118578 L26.3977167,14.8118578 L30.3347285,14.8118578 L30.3347285,14.3982836 C30.3347285,13.4708747 30.1252558,12.7583096 29.7063105,12.2605883 C29.2873652,11.7628669 28.7001256,11.5140062 27.9445917,11.5140062 C27.4826777,11.5140062 27.0538854,11.6420173 26.6582148,11.8980394 C26.2625442,12.1540616 25.9546015,12.5085538 25.7343867,12.961516 C25.5141718,13.4144782 25.4040644,13.9292081 25.4040644,14.5057054 L25.4040644,14.5057054 L25.4040644,14.6883226 C25.4040644,15.5548591 25.6511347,16.246835 26.1452753,16.7642504 C26.639416,17.2816657 27.2803665,17.5403734 28.0681269,17.5403734 Z M29.3410761,13.9954515 L26.4299433,13.9954515 C26.4943964,13.4690844 26.6626907,13.059986 26.9348261,12.7681566 C27.2069615,12.4763272 27.5435501,12.3304125 27.9445917,12.3304125 C28.3599563,12.3304125 28.6893834,12.4691657 28.932873,12.7466722 C29.1763626,13.0241788 29.3124303,13.4153734 29.3410761,13.9202562 L29.3410761,13.9202562 L29.3410761,13.9954515 Z M33.1814081,17.5403734 C33.4284785,17.5403734 33.6827102,17.5045661 33.9441035,17.4329515 L33.9441035,17.4329515 L33.9441035,16.6272875 C33.7435826,16.6702562 33.5860305,16.6917406 33.4714472,16.6917406 C33.2386998,16.6917406 33.0739863,16.6335538 32.9773066,16.5171801 C32.8806269,16.4008064 32.8322871,16.2262458 32.8322871,15.9934984 L32.8322871,15.9934984 L32.8322871,12.3894945 L33.917248,12.3894945 L33.917248,11.6214281 L32.8322871,11.6214281 L32.8322871,10.2142015 L31.8386347,10.2142015 L31.8386347,11.6214281 L30.7805292,11.6214281 L30.7805292,12.3894945 L31.8386347,12.3894945 L31.8386347,15.9934984 C31.8386347,16.487639 31.9514277,16.8689867 32.1770136,17.1375414 C32.4025996,17.4060961 32.7373977,17.5403734 33.1814081,17.5403734 Z M37.2365839,15.2308031 C37.2365839,14.6865323 37.3672805,14.2693773 37.6286738,13.9793383 L37.6286738,13.9793383 L38.214123,13.3992601 C38.7942011,12.7905362 39.0842402,12.1728604 39.0842402,11.5462328 C39.0842402,10.9124437 38.8953567,10.4138272 38.5175898,10.0503832 C38.1398229,9.68693917 37.6125605,9.50521716 36.9358027,9.50521716 C36.28411,9.50521716 35.7550572,9.68335844 35.3486445,10.039641 C34.9422317,10.3959235 34.7354446,10.8641039 34.7282831,11.444182 L34.7282831,11.444182 L35.7219355,11.444182 C35.7219355,11.1183357 35.8329381,10.8587328 36.0549433,10.6653734 C36.2769485,10.472014 36.5705683,10.3753344 36.9358027,10.3753344 C37.3117792,10.3753344 37.5982376,10.481861 37.7951777,10.6949144 C37.9921178,10.9079678 38.0905878,11.2024828 38.0905878,11.5784594 C38.0905878,11.9687588 37.9401972,12.3339932 37.639416,12.6741625 L37.639416,12.6741625 L36.9358027,13.3992601 C36.6600865,13.7000414 36.4774693,13.9739672 36.3879511,14.2210375 C36.2984329,14.4681078 36.250093,14.8046963 36.2429316,15.2308031 L36.2429316,15.2308031 L37.2365839,15.2308031 Z M36.7854121,17.4920336 C36.9787714,17.4920336 37.1255813,17.4392178 37.2258417,17.3335863 C37.3261022,17.2279548 37.3762324,17.0945726 37.3762324,16.9334398 C37.3762324,16.772307 37.3261022,16.6371345 37.2258417,16.5279222 C37.1255813,16.41871 36.9787714,16.3641039 36.7854121,16.3641039 C36.5920527,16.3641039 36.446138,16.41871 36.3476679,16.5279222 C36.2491979,16.6371345 36.1999628,16.772307 36.1999628,16.9334398 C36.1999628,17.0945726 36.2491979,17.2279548 36.3476679,17.3335863 C36.446138,17.4392178 36.5920527,17.4920336 36.7854121,17.4920336 Z" id="Budget?" transform="translate(19.804699, 14.451995) rotate(-29.000000) translate(-19.804699, -14.451995) "></path>
                </g>
            </g>
        </g>
    </g>
</svg>