<svg width="180" height="180" viewBox="0 0 180 180" xmlns="http://www.w3.org/2000/svg"><g id="Page-1" fill="none" fill-rule="evenodd"><g id="Desktop-UC-landing-page" transform="translate(-1137 -1132)"><g id="Group-10" transform="translate(90 1116)"><g id="Group-13" transform="translate(640)"><g id="Group-31" transform="translate(407 16)"><circle id="Oval-2" fill="#FFA236" opacity=".15" cx="90" cy="90" r="78"/><g id="Group-30" transform="translate(6 35)"><g id="Group-2" fill="#FFA236"><path d="M140.327 9.48a2.964 2.964 0 0 1 2.96-2.964 2.964 2.964 0 0 1 2.962 2.965v1.149h1.144a2.964 2.964 0 0 1 2.961 2.965 2.964 2.964 0 0 1-2.96 2.965h-1.145v1.149a2.964 2.964 0 0 1-2.961 2.965 2.964 2.964 0 0 1-2.961-2.965v-1.15h-1.145a2.964 2.964 0 0 1-2.96-2.964 2.964 2.964 0 0 1 2.96-2.965h1.145V9.48zm2.96-.964c-.529 0-.96.432-.96.965v3.149h-3.145c-.53 0-.96.432-.96.965 0 .532.43.965.96.965h3.145v3.149c0 .533.431.965.96.965.53 0 .962-.432.962-.965v-3.15h3.144a.964.964 0 1 0 0-1.93h-3.144V9.482a.964.964 0 0 0-.961-.965zM101.982-1c.742 0 1.46.292 1.994.828a2.828 2.828 0 0 1 0 3.991l-7.28 7.299a2.822 2.822 0 1 1-3.984-3.995l7.276-7.295A2.811 2.811 0 0 1 101.982-1zm0 2a.812.812 0 0 0-.578.24l-7.278 7.297a.82.82 0 0 0 .58 1.405.82.82 0 0 0 .578-.24l7.276-7.295a.828.828 0 0 0 0-1.167.812.812 0 0 0-.578-.24z" id="Path" fill-rule="nonzero"/><path d="M94.733-1a2.826 2.826 0 0 1 1.962 4.82 2.817 2.817 0 0 1-3.99 0 2.826 2.826 0 0 1 0-3.992A2.818 2.818 0 0 1 94.733-1zm-.024 2a.818.818 0 0 0-.588.24.826.826 0 0 0 0 1.167c.32.32.838.32 1.158 0A.826.826 0 0 0 94.709 1zM102.024 6.295a2.826 2.826 0 0 1 1.95 4.82 2.817 2.817 0 0 1-3.989 0 2.826 2.826 0 0 1 2.039-4.82zm-.032 2a.826.826 0 0 0-.592 1.407c.321.32.839.32 1.159 0a.826.826 0 0 0-.567-1.407zM156.864 37.053a2.966 2.966 0 0 1 0-4.185 2.947 2.947 0 0 1 4.181 0l.806.808.81-.808a2.953 2.953 0 0 1 4.182 0 2.966 2.966 0 0 1 0 4.185l-.809.81.809.81a2.959 2.959 0 1 1-2.09 5.053c-.78 0-1.53-.304-2.092-.868l-.806-.808-.814.812a2.959 2.959 0 0 1-2.087.864c-.779 0-1.528-.304-2.09-.868a2.966 2.966 0 0 1 0-4.185l.808-.81-.808-.81zm2.09-3.053a.947.947 0 0 0-.674.28.966.966 0 0 0 0 1.36l2.217 2.223-2.217 2.223a.966.966 0 0 0 0 1.36c.183.183.422.28.674.28.25 0 .492-.098.677-.282l2.228-2.223 2.218 2.225a.956.956 0 0 0 1.349 0 .966.966 0 0 0 0-1.36l-2.216-2.223 2.216-2.222a.966.966 0 0 0 0-1.36.954.954 0 0 0-1.35.001l-2.228 2.223-2.219-2.224a.947.947 0 0 0-.675-.281zM58.773 7.179h8.211c1.62 0 2.961 1.248 2.961 2.824 0 1.575-1.342 2.823-2.96 2.823h-8.212c-1.62 0-2.96-1.248-2.96-2.823 0-1.576 1.34-2.824 2.96-2.824zm0 2c-.546 0-.96.386-.96.824 0 .437.414.823.96.823h8.211c.546 0 .961-.386.961-.823 0-.438-.415-.824-.96-.824h-8.212zM48.305 32.04c0-3.651 2.946-6.624 6.573-6.624 3.628 0 6.574 2.973 6.574 6.624 0 3.65-2.946 6.624-6.574 6.624-.15 0-.3-.007-.451-.019l-9.014 15.903a6.542 6.542 0 0 1 1.176 3.73c0 3.65-2.946 6.623-6.574 6.623-3.627 0-6.573-2.973-6.573-6.624 0-.49.062-.974.18-1.463l-9.365-7.566a6.403 6.403 0 0 1-2.82.656c-.298 0-.595-.023-.895-.069l-8.32 12.593c.6 1.01.925 2.153.925 3.348 0 3.65-2.946 6.624-6.573 6.624C2.946 72.4 0 69.427 0 65.776s2.946-6.624 6.574-6.624c.299 0 .594.025.897.073l8.317-12.59a6.557 6.557 0 0 1-.925-3.355c0-3.65 2.946-6.624 6.574-6.624 3.627 0 6.573 2.973 6.573 6.624a6.3 6.3 0 0 1-.18 1.479l9.365 7.558a6.403 6.403 0 0 1 2.82-.656c.15 0 .3.006.452.019l9.013-15.91a6.544 6.544 0 0 1-1.175-3.73zm6.573-4.624c-2.518 0-4.573 2.073-4.573 4.624 0 1.1.405 2.147 1.132 2.997l.455.532L41.52 53.878l-.702-.132a4.328 4.328 0 0 0-.803-.085c-.848 0-1.66.244-2.393.704l-.604.379-11.51-9.29.231-.664a4.581 4.581 0 0 0 .271-1.51c0-2.55-2.055-4.624-4.573-4.624-2.519 0-4.574 2.074-4.574 4.624 0 1 .328 1.953.927 2.756l.42.563-9.838 14.889-.69-.177a4.403 4.403 0 0 0-1.108-.16C4.055 61.152 2 63.226 2 65.777c0 2.55 2.055 4.624 4.574 4.624 2.518 0 4.573-2.074 4.573-4.624 0-.997-.326-1.944-.926-2.75l-.42-.562 9.837-14.889.69.177c.393.101.756.152 1.109.152.848 0 1.66-.244 2.393-.704l.605-.38 11.505 9.295-.225.662c-.181.531-.273 1.02-.273 1.5 0 2.55 2.055 4.624 4.573 4.624 2.519 0 4.574-2.073 4.574-4.624 0-1.1-.405-2.143-1.133-2.998l-.454-.533 10.374-18.304.707.138c.29.056.544.084.795.084 2.519 0 4.574-2.074 4.574-4.624s-2.055-4.624-4.574-4.624z" id="Path" fill-rule="nonzero"/><path d="M54.992 30.063c1.005 0 1.82.817 1.82 1.824a1.822 1.822 0 0 1-1.82 1.823 1.822 1.822 0 0 1-1.82-1.823c0-1.007.816-1.824 1.82-1.824zM21.02 41.005c1.004 0 1.82.817 1.82 1.824a1.822 1.822 0 0 1-1.82 1.823 1.822 1.822 0 0 1-1.82-1.823c0-1.007.815-1.824 1.82-1.824zM40.432 56.81c1.005 0 1.82.817 1.82 1.824a1.822 1.822 0 0 1-1.82 1.824 1.822 1.822 0 0 1-1.82-1.824c0-1.007.816-1.824 1.82-1.824zM6.46 64.105c1.005 0 1.82.817 1.82 1.824a1.822 1.822 0 0 1-1.82 1.823 1.822 1.822 0 0 1-1.82-1.823c0-1.007.815-1.824 1.82-1.824z" id="Path"/></g><g id="car-(7)" transform="translate(53 36)" fill-rule="nonzero" fill="#F75D34"><path d="M88.98 28.002c-.342 0-.676.007-1 .02C80.896 6.543 57.972-5.051 36.775 2.126 25.562 5.922 16.548 14.499 12.103 25.602 4.338 30.318.42 39.538 2.375 48.495A10.16 10.16 0 0 0 0 55.06c.048 5.706 4.644 10.297 10.276 10.263.336 0 .67-.017 1-.05.353.658.746 1.293 1.177 1.901.09.129.185.251.279.378.343.462.707.906 1.092 1.331.12.133.235.27.358.4.472.493.972.958 1.498 1.393.135.111.28.21.418.317a17.875 17.875 0 0 0 1.867 1.268c.512.302 1.04.577 1.58.824.093.043.181.094.276.135.646.278 1.308.516 1.982.713.171.05.345.09.518.135.531.14 1.072.254 1.62.343.198.032.393.066.592.091 1.37.19 2.758.201 4.13.032.222-.025.438-.068.657-.102.417-.063.832-.134 1.24-.228.264-.06.523-.132.783-.204.35-.098.695-.205 1.036-.324.278-.097.554-.197.827-.307.308-.126.607-.266.906-.408.28-.133.56-.26.832-.407.302-.164.59-.35.88-.531.442-.275.87-.569 1.285-.882.277-.209.556-.414.82-.639.224-.19.435-.396.65-.598.26-.246.516-.495.762-.756a17.648 17.648 0 0 0 1.317-1.578c.097-.131.209-.248.303-.382h26.726c.094.134.205.25.303.381a17.767 17.767 0 0 0 1.316 1.578c.246.262.502.511.763.757.215.202.426.407.65.598.264.224.543.43.82.639.416.314.844.608 1.284.881.291.182.579.368.881.532.272.147.552.274.831.406.3.143.599.283.907.409.272.11.548.21.826.307.341.119.686.226 1.036.323.26.073.52.145.784.205.407.094.822.164 1.24.228.219.034.435.077.656.102 1.303.159 2.62.159 3.923 0 .222-.025.438-.068.657-.102.417-.064.832-.134 1.24-.228.264-.06.523-.132.783-.205.35-.097.695-.204 1.035-.323.279-.097.555-.197.828-.308.308-.125.607-.265.906-.408.279-.132.56-.259.831-.406.302-.164.59-.35.882-.532.44-.274.869-.568 1.284-.881.277-.21.556-.415.82-.64.224-.19.435-.395.65-.598.26-.245.516-.494.762-.755a17.648 17.648 0 0 0 1.317-1.579c.097-.13.208-.247.302-.381h3.661a3.705 3.705 0 0 0 2.239-.75c5.288-3.997 8.397-10.293 8.384-16.978-.106-11.938-9.727-21.537-21.509-21.459zM38.298 64.5c-.269.424-.56.832-.87 1.225-.022.028-.041.058-.064.086-.331.404-.685.789-1.058 1.153-.133.13-.273.253-.411.378-.25.227-.507.445-.771.652-.166.13-.333.26-.505.383-.283.202-.575.387-.871.566-.15.09-.293.19-.446.274-.434.24-.88.454-1.337.644-.169.071-.344.128-.515.192-.328.121-.658.235-.995.331a13.551 13.551 0 0 1-1.636.357c-.169.027-.335.058-.505.078-1.142.15-2.3.138-3.439-.032-.15-.02-.298-.045-.447-.07a13.656 13.656 0 0 1-1.617-.368c-.045-.013-.093-.022-.138-.036a13.636 13.636 0 0 1-1.663-.647c-.127-.059-.251-.122-.376-.184-.464-.23-.914-.486-1.349-.766-.072-.047-.149-.088-.22-.136a13.86 13.86 0 0 1-1.382-1.075c-.105-.092-.204-.187-.306-.282a13.814 13.814 0 0 1-1.146-1.192c-.03-.037-.066-.07-.097-.108a13.973 13.973 0 0 1-1.11-1.552l-.1-.167a14.12 14.12 0 0 1-.896-1.745c-.009-.02-.026-.035-.036-.055-3-7.11.255-15.338 7.27-18.378 7.016-3.04 15.136.258 18.136 7.368a14.162 14.162 0 0 1-1.1 13.106zm55.244 0c-.27.424-.56.832-.87 1.225-.023.028-.042.058-.064.086-.331.404-.685.789-1.059 1.153-.133.13-.273.253-.41.378-.25.227-.507.445-.771.652-.167.13-.333.26-.505.383-.283.202-.576.387-.872.566-.15.09-.292.19-.446.274-.433.24-.88.454-1.336.644-.169.071-.344.128-.515.192-.328.121-.658.235-.995.331a13.551 13.551 0 0 1-1.637.357c-.168.027-.334.058-.504.078a12.569 12.569 0 0 1-3.227 0c-.17-.02-.337-.051-.505-.078a13.62 13.62 0 0 1-1.636-.357c-.338-.096-.668-.21-.996-.331-.171-.064-.346-.121-.515-.192-.456-.19-.903-.405-1.336-.644-.153-.084-.297-.184-.446-.274a13.68 13.68 0 0 1-.872-.566 14.162 14.162 0 0 1-.504-.383 13.732 13.732 0 0 1-.773-.653c-.137-.125-.276-.247-.409-.377-.374-.364-.727-.75-1.059-1.153-.022-.028-.041-.058-.063-.086a14.475 14.475 0 0 1-.87-1.225c-4.142-6.491-2.307-15.155 4.098-19.352C80.85 40.95 89.4 42.809 93.543 49.3a14.153 14.153 0 0 1 0 15.2zm6.322-1.041h-1.672c3.581-9.094-.79-19.407-9.764-23.036-8.974-3.628-19.151.802-22.732 9.896a17.948 17.948 0 0 0 0 13.14H42.95c3.598-9.09-.756-19.415-9.726-23.062-8.97-3.647-19.16.765-22.758 9.855a17.957 17.957 0 0 0-.635 11.296c-3.414-.186-6.102-3.022-6.148-6.486a6.454 6.454 0 0 1 1.99-4.678c.49-.472.684-1.18.506-1.841-2.114-7.822 1.32-16.095 8.316-20.034a1.86 1.86 0 0 0 .82-.97C22.65 8.353 43.944-1.174 62.875 6.26c10.647 4.18 18.773 13.136 21.991 24.237a1.852 1.852 0 0 0 1.997 1.354c9.832-1.135 18.711 6.021 19.832 15.984.06.54.097 1.084.11 1.628.01 5.517-2.566 10.71-6.94 13.995z" id="Shape"/><path d="M80.457 29.543C75.686 16.403 63.313 7.701 49.509 7.777c-13.636-.053-25.891 8.43-30.815 21.329l-.147.373a1.876 1.876 0 0 0 1.026 2.427c.217.088.448.133.682.133H60.64c.002 2.06 1.648 3.73 3.68 3.733h5.52c2.03-.002 3.677-1.672 3.679-3.733h5.207c1.015 0 1.84-.835 1.84-1.865a1.89 1.89 0 0 0-.108-.63zm-43.735-1.237H23.02c2.864-6.072 7.703-10.959 13.702-13.837v13.837zm33.116 3.733h-5.52v-5.332a7.87 7.87 0 0 1 1.143.44c.115.053.224.114.336.172a9.712 9.712 0 0 1 1.052.628c.227.156.444.316.65.481.082.066.17.13.248.195.27.226.525.454.755.677l.141.145a14.96 14.96 0 0 1 .693.74c.107.123.209.242.295.348.052.063.106.129.15.185l.057.074v1.247zm2.757-3.733l-.056-.066a17.64 17.64 0 0 0-.529-.627l-.05-.059a18.497 18.497 0 0 0-.903-.937c-.28-.272-.578-.548-.907-.825-.032-.027-.067-.053-.1-.08a15.84 15.84 0 0 0-.979-.746c-.08-.056-.156-.112-.238-.167a13.744 13.744 0 0 0-1.199-.727c-.079-.043-.161-.08-.242-.122a12.038 12.038 0 0 0-1.226-.543c-.073-.028-.142-.06-.217-.086a10.814 10.814 0 0 0-1.473-.401c-.115-.023-.23-.041-.347-.06a9.983 9.983 0 0 0-1.65-.153c-1.016 0-1.84.836-1.84 1.867v3.732H40.402v-14.93a1.804 1.804 0 0 0-.074-.369 29.21 29.21 0 0 1 9.18-1.498c11.281-.057 21.585 6.482 26.469 16.797h-3.382zM26.471 46.659c-5.72 0-10.358 4.7-10.358 10.498 0 5.798 4.638 10.499 10.358 10.499 5.721 0 10.358-4.7 10.358-10.499-.006-5.795-4.64-10.492-10.358-10.498zm0 17.18c-3.64 0-6.592-2.992-6.592-6.682 0-3.69 2.952-6.68 6.592-6.68 3.64 0 6.592 2.99 6.592 6.68-.005 3.688-2.953 6.677-6.592 6.681zM81.715 46.659c-5.72 0-10.358 4.7-10.358 10.498 0 5.798 4.638 10.499 10.358 10.499 5.721 0 10.359-4.7 10.359-10.499-.007-5.795-4.64-10.492-10.359-10.498zm0 17.18c-3.64 0-6.591-2.992-6.591-6.682 0-3.69 2.95-6.68 6.591-6.68 3.64 0 6.592 2.99 6.592 6.68-.004 3.688-2.953 6.677-6.592 6.681z" id="Shape"/></g></g></g></g></g></g></g></svg>