<svg xmlns="http://www.w3.org/2000/svg" width="156" height="135"  xmlns:v="https://vecta.io/nano"><defs><radialGradient cx="46.7610846%" cy="26.7581567%" fx="46.7610846%" fy="26.7581567%" r="93.2571452%" gradientTransform="translate(0.467611,0.267582),scale(0.452381,1.000000),rotate(-8.226708),scale(1.000000,0.611260),translate(-0.467611,-0.267582)" id="A"><stop stop-color="#ffb834" offset="0%"/><stop stop-color="#ff8524" offset="100%"/></radialGradient><linearGradient x1="50%" y1="0%" x2="50%" y2="100%" id="B"><stop stop-color="#cd0000" offset="0%"/><stop stop-color="#e02020" offset="100%"/></linearGradient><linearGradient x1="50%" y1="0.155703671%" x2="50%" y2="100%" id="C"><stop stop-color="#3ce1ff" offset="0%"/><stop stop-color="#0ac9ff" offset="100%"/></linearGradient><linearGradient x1="50%" y1="-2.0746888%" x2="50%" y2="84.2310373%" id="D"><stop stop-color="#fff" offset="0%"/><stop stop-color="#fff" stop-opacity="0" offset="100%"/></linearGradient><radialGradient cx="-68.7531663%" cy="-837.071519%" fx="-68.7531663%" fy="-837.071519%" r="2960.00141%" gradientTransform="translate(-0.687532,-8.370715),scale(0.399043,1.000000),translate(0.687532,8.370715)" id="E"><stop stop-color="#9cc0d8" offset="0%"/><stop stop-color="#94b7d0" offset="100%"/></radialGradient><linearGradient x1="36.0429448%" y1="-6.18990617%" x2="36.0429448%" y2="94.2062787%" id="F"><stop stop-color="#83b4d6" offset="0%"/><stop stop-color="#77add2" offset="100%"/></linearGradient></defs><g fill="none" fill-rule="evenodd"><g transform="matrix(-1 0 0 1 155.4989 0)"><path d="M110.409 31.38l.468.519.23.259.453.515.442.512.432.509.422.505.412.501.598.742.386.489.56.722.537.709.514.694.491.678.468.661.446.642.423.622.529.796.37.571.348.547.219.351.409.666.281.467.419.713.421.742.425.778.388.753c-4.72-.054-8.034 1.403-10.283 3.11l-.005.001a14.26 14.26 0 0 0-2.35 2.249l-.219.27-.104.133-.196.26-.092.127-.173.248-.159.238-.144.226-.131.214-.117.201-.104.186-.091.17-.113.223-.109.23-.084.195c-3.161-.475-6.157-.317-8.834.156l-.569.106-.281.056-.553.119-.543.127-.532.135a32.61 32.61 0 0 0-1.279.363l-.491.154-.478.159-.465.162-.452.165-.221.083-.432.167-.417.168-.403.169-.388.168-.373.167-.358.166-.507.243-.47.236-.433.225-.394.213-.462.26-.389.228-.377.231-.385.25-.97-.21c-4.845-.419-9.31.266-13.012 1.295l-.594.17-.292.087-.573.177-.559.182-.274.092-.537.187-.521.189-.506.191-.49.192-.474.192-.457.192-.44.191-.214.095-.614.28-.387.183-.546.266-.503.255-.459.241-.414.224-.48.27-.559.329-.506.318-.218-.084-.308-.107-.247-.08-.293-.089-.338-.097-.383-.102-.427-.105-.309-.071-.328-.071-.347-.07-.366-.069-.19-.034-.393-.066-.412-.063-.43-.06-.448-.056-.466-.051-.483-.046-.501-.041-.518-.034-.535-.027c-.725-.032-1.494-.043-2.307-.028l-.617.016-.315.012-.641.032c-3.463.201-7.595.889-12.274 2.469l-.871.476-.152-.064-.247-.095-.36-.127-.269-.088-.308-.094-.346-.098-.252-.067-.268-.067-.285-.067-.301-.066-.317-.065-.333-.063-.348-.061-.364-.058-.379-.054-.394-.05-.409-.045-.21-.021-.431-.037-.221-.016-.452-.027-.231-.011-.473-.017c-.48-.013-.981-.014-1.502 0l-.527.019-.816.047-.56.045a31.86 31.86 0 0 0-2.672.356l-.317.057c-2.202.411-4.623 1.093-7.224 2.156l-.139-.173-.15-.175-.148-.165-.178-.19-.208-.212-.238-.23-.175-.162-.189-.168-.202-.173-.215-.178-.346-.272-.122-.092-.253-.184-.132-.092-.273-.185a14.22 14.22 0 0 0-.584-.366l-.311-.179-.324-.175c-2.748-1.444-6.806-2.403-12.044-.464l.086-.468.127-.626.155-.706.158-.678.14-.572.159-.623.179-.673.199-.72.22-.765.242-.808.265-.849.19-.588.099-.3.206-.612.107-.312.222-.635.234-.65.121-.33.251-.671.13-.34.269-.69.281-.703.293-.714.306-.725.158-.366.325-.74.339-.75.174-.378.359-.762.372-.77.386-.777a75.19 75.19 0 0 1 4.408-7.617C19.112 25.682 32.383 13.5 54.163 10.347c27.167-3.932 45.626 9.365 56.247 21.033z" fill="#e02020"/><path d="M111.216 50.37c-.373-.061-12.412-2.025-39.486.95-3.954.433-7.769 1.057-11.4 1.799-21.241 4.344-36.3 12.887-36.869 13.215h-.005c-2.202.406-4.623 1.079-7.224 2.13 0 0-5.756-7.623-16.233-3.791 0 0 2.198-13.202 11.162-26.599l7.503-4.345 91.746-1.907c7.495 8.139 11.089 15.475 11.089 15.475-4.72-.053-8.034 1.386-10.283 3.073z" fill="#cd0000"/><path d="M53.999.714l16.132 115.001 2.189-.319L55.513.493C55.208.128 54.952 0 54.74 0h0c-.498 0-.741.714-.741.714" fill="#411fbb"/><path d="M54.927 10.254l-.01.001-.755.132-.072.006c-2.009.194-45.027 4.886-54.092 54.213h0c.034-.055.063-.11.095-.166h0c.786-1.324 6.5-9.984 19.873-7.345h0S26.121 46.32 43.7 51.595h0s5.289-5.752 15.381-7.284h0c11.264-1.711 17.435 2.733 17.435 2.733h0c12.564-9.715 23.702-1.55 23.702-1.55h0c11.677-5.727 19.586.118 21.038 1.334h0a6.36 6.36 0 0 1 .243.213h0c-.038-.073-.072-.146-.11-.214h0c-.43-.84-.862-1.66-1.305-2.457h0C103.383 14.057 77.249 9.642 63.438 9.643h0c-4.138.001-7.172.397-8.511.611" fill="url(#A)"/><path d="M55.928 10.607c-14.385 10.204-11.25 41.198-11.25 41.198-17.623-5.257-23.792 5.482-23.792 5.482-13.407-2.63-19.135 6.001-19.922 7.32 6.248-10.893 15.039-8.919 15.039-8.919 8.965-41.131 37.46-44.768 39.092-44.943.05-.003.073-.006.073-.006-31.081 6.468-33.269 44.207-33.345 44.767 3.717-7.255 18.436-7.881 18.436-7.881 1.652-28.925 15.068-36.685 15.665-37.018l.005-.001z" fill="url(#B)" opacity=".25"/><path d="M121.499 47.031l-.133.001c-1.449-1.229-9.342-7.136-20.993-1.347 0 0-11.115-8.253-23.652 1.566 0 0-4.651-31.4-20.783-37.262.447.106 14.844 3.763 24.713 31.61 0 0 14.228-3.594 19.835 2.4-.231-.524-13.94-36.312-44.558-34.014 0 0 29.312-6.022 50.169 32.528 0 0 6.277-3.55 14.1 2.037.442.805.873 1.634 1.303 2.483" fill="url(#B)" opacity=".25"/></g><ellipse fill="#e0ddf1" cx="70" cy="132.5" rx="70" ry="2.5"/><g transform="translate(4 75)"><path fill="#fff" d="M34 18v3h81l-6-17-32-1-17 1-15 6z"/><path d="M80.552 1.002l1.321.013.951.015 2.049.046 1.648.046 2.91.098 3.05.12 3.136.14 3.059.152 3.202.176 2.66.161 2.465.165 2.213.166 1.393.117 1.432.138.607.067.529.066.445.064.248.042.208.041.166.04c.096.026.164.052.201.076l.101.075.224.188.422.379.4.371 1.167 1.109 2.771 2.694 6.232 6.124 1.539 1.487.329.301.07.058c.093.07.171.39.238.897l.048.414.044.478.041.535.037.587.05.964.029.689.063 1.841.06 2.324.121 5.313.036 1.056.03.633.022.335.024.258.022.152.019.078.023.076.045.198.045.253.055.386.054.452.052.507.05.551.047.584.064.914.055.924.057 1.184.02.546.018.73.004.411c0 .444-.095 1.036-.248 1.69l-.124.5-.142.515-.156.522-.166.52-.173.511-.176.493-.176.467-.172.434-.164.392-.078.178-.145.314-.111.22c-.087.162-.159.272-.209.315l-.019.011-.074.026-.121.031-.165.035-.596.104-.83.126-1.032.144-3.401.436-4.302.516-10.23 1.163H31.031l-.667-.03-2.258-.142-7.37-.526-14.274-1.093-3.189-.271C1.743 47.431.269 45.016.269 44.25c0-.306.075-.518.166-.712l.12-.247-.018.042c-.066.134-.135.264-.186.416H3.72c1.171 0 2.358-.949 2.65-2.121l.4-1.602c.293-1.171-.421-2.121-1.592-2.121H.74v-.194c0-.43.183-.795.383-1.113l.275-.419c.117-.182.207-.347.225-.501l.221-1.769.212-1.584.139-.951.063-.386.072-.378.03-.117c.095-.317.438-.557.789-.753l.566-.298c.081-.044.151-.086.206-.127.046-.035.107-.093.182-.172l.166-.183.307-.36.929-1.117.305-.359.478-.545.327-.358.252-.265.18-.177.189-.173.2-.171.213-.168.228-.167.245-.166.264-.166.285-.166.307-.168.419-.212.559-.26.738-.313.467-.185.502-.191.54-.197.579-.203.62-.21.663-.218.708-.227.755-.236.763-.23.954-.271.95-.254.753-.191.745-.181 1.097-.252 1.065-.231 1.024-.211.975-.192 1.494-.28 2.167-.396.7-.138.401-.091.109-.028c.18-.049.425-.154.725-.308l.318-.17.352-.2.385-.228.415-.254.443-.279.963-.623.781-.516 5.647-3.805 1.392-.922 1.139-.74.224-.144c4.128-2.64 8.687-4.85 12.368-6.406l.981-.408 1.378-.549c.759-.295 1.745-.563 2.902-.805l.715-.142.753-.136.789-.13.822-.123.853-.117.881-.111.907-.105.929-.098.949-.092.967-.086 1.477-.117.999-.07 1.007-.064 1.521-.084 1.017-.048 1.016-.042 1.516-.051 1.499-.037 1.515-.022h1.28zm-5.546 2.929l-.999.04-.987.045-1.454.078-1.419.09-1.379.101-1.334.111-.862.08-.838.084-.813.089-.787.093-.759.097-.73.1-1.038.157-.651.109-.617.113-.721.145-.788.18-.589.155c-.297.084-.567.169-.807.256l-.343.131-1.004.401-1.252.521-.854.368-.922.409-.982.448-.684.32-.704.337-.723.354-.739.37-1.132.585-.768.41-.775.425-.781.44-.783.455-.784.469-1.172.731-3.312 2.181-1.684 1.137-.083.059-.17.134-.174.154-.174.171-.173.185-.168.197-.082.102-.157.21-.146.216c-.63.979-.85 2.043.412 2.117l.277.004 34.922-.389c.532-.007.858-.267 1.06-.877a27.63 27.63 0 0 0 .56-1.928l.16-.659.147-.662.199-.995.119-.66.108-.655.098-.646.089-.636.116-.928.098-.889.056-.567.113-1.307.127-1.847.051-.773.021-.222c.083-.658.078-1.151-.104-1.381-.077-.098-.187-.148-.333-.144zm6.214-.094l-.703-.007-1.021-.001-.714.005-.937.018c-.081.04-.155.133-.213.339l-.035.154-.029.191-.012.111-.019.255-.007.145-.007.327.002.38.011.437c.004.11.005.232.004.364l-.011.427-.01.235-.03.508-.041.554-.079.902-.063.639-.145 1.337-.12 1.028-.291 2.346-.421 3.316-.045.417-.014.18c-.039.701.179 1.002.331 1.125l.069.048.069.032 18.62-.22 7.215-.066 4.981-.03 3.066-.008h.731c1.326 0 1.671-1.043 1.541-1.538-.305-1.164-.689-2.252-1.116-3.125l-.343-.683-.393-.752-.435-.804-.713-1.27-.504-.866c-1.025-1.734-2.134-3.45-3.04-4.574-.341-.424-1.895-1.034-2.39-1.056l-7.422-.326-5.777-.227-3.757-.129-1.974-.058-2.237-.054-1.572-.026z" fill="url(#C)"/><path d="M110.504 29.096l-.987.512-1.039.521-.535.265-4.251 2.215c-3.17 1.816-5.043 5.82-6.106 8.841l-.209.61-.186.576-.165.535-.21.713-.257.892-.075.245c-.464 1.442-1.911 1.85-2.845 1.959l-.252.024-.216.012-.173.003H73.994l-.091-3.124-.056-2.889-.027-2.376-.008-1.454-.001-1.126.068-5.473 36.626-1.48zm-36.978 1.495l-.068 5.552.007 2.249.021 2.1.079 4.04.075 2.486H41.156c-.633 0-.899-.405-1.075-1.289l-.059-.332-.028-.181-.105-.826-.096-.832-.209-1.749-.153-1.405-.13-1.309-.161-1.819-.119-1.565-.079-1.219-.046-.827-.04-.834-.032-.837 34.701-1.403zM.74 37.711c0-.491.239-.898.469-1.246l.189-.285c.117-.182.207-.347.225-.501l.241-1.921.036-.27 36.571-1.479.015.42.057 1.256.071 1.24.082 1.211.122 1.548.097 1.095.131 1.348.156 1.464.135 1.163.103.846.14 1.209.049.379.054.354c.193 1.136.518 1.829 1.47 1.829l52.232-.014.25-.022c1.017-.113 2.652-.556 3.182-2.206l.076-.249.326-1.132.229-.762.179-.565.202-.603.225-.635c1.066-2.916 2.87-6.581 5.811-8.267 1.127-.646 2.271-1.229 3.394-1.788l1.404-.696 1.099-.551c.536-.273 1.051-.544 1.535-.816l17.096-.691.044 1.697.031.873.026.534.019.291.02.235.022.175a1.22 1.22 0 0 0 .012.064l.013.049c.038.114.076.295.113.527l.055.386.054.452.052.507.05.551.047.584.064.914.055.924.057 1.184.02.546.018.73.004.411c0 .444-.095 1.036-.248 1.69l-.124.5-.142.515-.156.522-.166.52-.173.511-.176.493-.176.467-.172.434-.164.392-.078.178-.145.314c-.138.284-.25.474-.321.535-.016.014-.061.03-.134.049l-.181.041-.398.074-.344.056-1.107.164-1.408.19-2.719.344-3.459.417-11.021 1.256H31.03l-.672-.029-2.277-.143-9.231-.664-12.389-.953-3.189-.271C1.743 47.431.269 45.016.269 44.25a1.61 1.61 0 0 1 .187-.756l.12-.245c.019-.042.038-.084.055-.129-.085.22-.203.399-.281.629H3.72c1.171 0 2.358-.949 2.65-2.121l.4-1.602c.293-1.171-.421-2.121-1.592-2.121H.74v-.194z" fill="url(#D)" opacity=".4"/><path d="M35.629 49.67c.288-1.092.457-2.233.457-3.416A13.39 13.39 0 0 0 22.7 32.869 13.39 13.39 0 0 0 9.314 46.254a13.37 13.37 0 0 0 .145 1.863l21.622 1.553h4.548m77.444-16.801a13.39 13.39 0 0 0-13.386 13.385c0 1.183.169 2.324.457 3.416h6.018l20.247-2.462.048-.954a13.39 13.39 0 0 0-13.386-13.385" fill="#698ba0"/><path d="M4.545 28.637l.269-.324-.269.324m24.752-9.832l.363-.191-.363.191" fill="url(#E)"/><path d="M5.511 28.705a6.47 6.47 0 0 1-.966-.069l.269-.324a6.62 6.62 0 0 0 .708.035c.885 0 1.832-.141 2.666-.269l.392-.059c1.489-.218 12.407-2.211 14.055-2.85 1.743-.677 7.449-4.804 7.626-5.377.065-.21-.361-.6-.964-.989.112-.055.235-.119.366-.189.578.394 1.065.866.937 1.282-.257.831-6.195 4.966-7.835 5.603-1.712.665-12.599 2.645-14.133 2.871l-.39.059c-.849.129-1.816.276-2.73.276m33.36-2.352c-.115 1.738-.115 3.689-.047 5.642l-.353.014.048-5.679a32.82 32.82 0 0 1 .521-4.129l.138-.665.143-.618.073-.292.147-.551.368-.003-.149.549c-.371 1.428-.727 3.276-.889 5.731zm50.07-23.342l1.674.06 4.119.164 3.514.16 3.198.168 1.916.118.937.066 1.147.096.443.046.347.045.174.029.126.028c.566.152 1.402 1.082 2.312 2.348l.344.489.349.516.351.537.525.834.346.567.34.57.494.849.316.555.446.802.533.986.444.853.264.527c1.338 2.733 2.549 8.322 1.48 11.215-.483 1.308-1.907 2.376-3.781 3.428l-.796.033c2.115-1.129 3.748-2.238 4.245-3.584.943-2.549-.014-7.972-1.466-10.936l-.217-.437-.367-.713-.41-.769-.294-.536-.626-1.11-.494-.848-.507-.844-.342-.554-.342-.541-.34-.524-.336-.503-.33-.477-.321-.447-.31-.412c-.659-.852-1.227-1.43-1.602-1.531l-.068-.016-.188-.033-.255-.034-.502-.053-.634-.055-1.317-.096-1.943-.119-3.456-.18-2.525-.116-5.151-.208-4.298-.144-2.79-.071-1.324-.018H79.9l-1.459.008-1.528.018-.016.726-.039 1.022-.06 1.097-.07 1.019-.068.837-.083.893-.099.943-.076.654-.084.672-.142 1.038-.106.709-.116.721-.126.731-.137.739-.073.372-.154.748-.081.376-.172.754-.09.377-.093.377c-.176.698-.328 1.524-.459 2.447l-.107.814-.097.857-.045.444-.083.914-.074.947-.066.976-.058 1-.05 1.02-.022.516-.039 1.042-.033 1.052-.014.528-.353.014.047-1.591.04-1.05.047-1.036.054-1.018.062-.996.034-.488.075-.955.084-.922c.162-1.658.371-3.128.64-4.293l.257-1.059.087-.374.164-.746.153-.742.142-.737.131-.729.121-.72.111-.71.148-1.04.128-1.006.11-.967.093-.921.1-1.147.076-1.041.043-.704.049-1.008.03-.904.009-.467-1.464.031-1.499.045c-5.044.175-10.506.617-14.708 1.699-1.893.487-3.849 1.218-5.734 2.051l-.75.338-.74.347-.366.176-.722.357-.707.361-.691.363-.672.363-.652.361-.936.533-.593.347-.837.503-.77.476-.472.299-.838.546-.527.355-.556.389-.21.153c-.543.403-.812.75-.952 1.132l-.44.29c.11-.591.387-1.117 1.181-1.706l.335-.242.28-.196.687-.465.619-.405.7-.446.775-.48.843-.507.905-.527.634-.36.657-.364.677-.366.696-.366.712-.364.727-.36.74-.354 1.129-.515.763-.33c1.66-.701 3.362-1.31 5.015-1.736 4.359-1.122 10.053-1.561 15.243-1.725l1.54-.041.755-.015 1.474-.021.716-.007 1.383-.007 2.28.001 1.176.017 2.863.072 2.712.087z" fill="#77add2"/><path d="M92.999 47.372H41.156c-1.285 0-1.428-1.263-1.644-3.174l-.107-.913c-.218-1.743-.77-6.513-.932-11.277l.353-.014c.162 4.748.713 9.508.93 11.247l.107.917c.226 1.984.363 2.86 1.294 2.86h32.484c-.045-1.233-.302-8.94-.114-16.428l.353-.014c-.189 7.505.072 15.252.116 16.442h19.005c.667 0 2.889-.144 3.485-1.998.057-.177.127-.424.215-.73.716-2.51 2.621-9.176 6.993-11.681 1.418-.814 2.858-1.526 4.251-2.215l2.561-1.298.796-.033c-.969.544-2.058 1.082-3.2 1.648-1.388.686-2.823 1.396-4.232 2.204-4.248 2.435-6.124 9-6.83 11.472l-.218.742c-.669 2.081-3.093 2.242-3.821 2.242" fill="url(#F)"/><path d="M34.011 46.254c0 6.247-5.064 11.311-11.311 11.311s-11.311-5.064-11.311-11.311S16.452 34.942 22.7 34.942s11.311 5.064 11.311 11.311" fill="#3a3b38"/><path d="M30.43 46.254c0 4.269-3.46 7.731-7.73 7.731s-7.731-3.462-7.731-7.731a7.73 7.73 0 0 1 15.461 0" fill="#fff"/><path d="M25 46.5a2.5 2.5 0 1 1-5 0 2.5 2.5 0 1 1 5 0" fill="#f5f4f5"/><path d="M124.385 46.254c0 6.247-5.064 11.311-11.311 11.311s-11.311-5.064-11.311-11.311 5.065-11.311 11.311-11.311 11.311 5.064 11.311 11.311" fill="#3a3b38"/><path d="M120.461 46.73c0 4.269-3.461 7.731-7.731 7.731S105 50.999 105 46.73a7.73 7.73 0 1 1 15.461 0" fill="#fff"/><g fill="#f5f4f5"><path d="M115 46.5a2.5 2.5 0 1 1-5 0 2.5 2.5 0 1 1 5 0M57.719 5.921l9.682 13.892-3.396.022L55.07 7.017z"/><path d="M88.822 4.069l10.709 15.367-5.747.085L82.865 3.852z"/></g><path d="M128.139 19.238h-3.122c-.519 0-.915.421-.884.941l.623 10.313c.032.52.478.941.997.941h2.742c-.127-2.259-.161-8.295-.356-12.195" fill="#e1622a"/><path d="M70.763 23.223c.032.685-1.107 1.296-2.546 1.364s-2.629-.432-2.662-1.117 1.107-1.295 2.546-1.364 2.629.433 2.662 1.118" fill="#5e98c3"/><path d="M71.616 23.183c.017.349-1.519.706-3.427.797s-3.472-.12-3.488-.47 1.519-.706 3.427-.796 3.471.119 3.487.469" fill="#bfdeeb"/><path d="M110.883 22.57c.032.685-1.107 1.296-2.546 1.364s-2.629-.432-2.662-1.117 1.107-1.295 2.546-1.364 2.629.434 2.662 1.118" fill="#5e98c3"/><path d="M111.736 22.529c.017.349-1.519.706-3.427.797s-3.472-.12-3.488-.469 1.519-.706 3.427-.796 3.471.119 3.487.469" fill="#bfdeeb"/><path d="M1.839 36.149c.574.133 5.081-.574 6.053-.928s2.871-4.86 2.872-5.302.045-1.017-.839-.928-6.699.724-7.511 1.458c-.19.173-1.149 5.567-.574 5.7z" fill="#fdc53f"/><path d="M3.72 43.749c1.171 0 2.358-.949 2.65-2.121l.4-1.602c.293-1.171-.421-2.121-1.592-2.121H.74v4.636c0 .566-.255.812-.389 1.207H3.72" fill="#484846"/></g></g></svg>