<?xml version="1.0" standalone="no"?>
<!DOCTYPE svg PUBLIC "-//W3C//DTD SVG 1.1//EN" "http://www.w3.org/Graphics/SVG/1.1/DTD/svg11.dtd" >
<svg xmlns="http://www.w3.org/2000/svg">
<metadata>Generated by IcoMoon</metadata>
<defs>
<font id="icomoon" horiz-adv-x="1024">
<font-face units-per-em="1024" ascent="960" descent="-64" />
<missing-glyph horiz-adv-x="1024" />
<glyph unicode="&#x20;" glyph-name="cd_space" horiz-adv-x="0" d="" />
<glyph unicode="&#x52;" glyph-name="cd_R" horiz-adv-x="512" d="M511.979 838.398v-66.626h-187.020c46.755-21.040 75.977-58.444 88.835-108.705h98.186v-67.795h-91.173c-3.507-115.718-63.119-181.175-175.331-213.904l217.411-323.778h-120.394l-195.202 305.077h-147.278v79.484h130.914c112.212 0 178.837 40.91 182.344 153.123h-313.258v67.795h306.246c-18.702 68.964-78.315 101.693-188.189 101.693h-118.056v73.639h511.967z" />
<glyph unicode="&#x72;" glyph-name="cd_r" horiz-adv-x="512" d="M511.968 838.399v-66.625h-187.017c46.754-21.040 75.976-58.443 88.834-108.703h98.185v-67.794h-91.172c-3.507-115.716-63.118-181.172-175.328-213.901l217.408-323.773h-120.392l-195.199 305.073h-147.276v79.483h130.912c112.21 0 178.834 40.909 182.341 153.121h-313.253v67.794h306.242c-18.702 68.963-78.314 101.692-188.186 101.692h-118.054v73.638h511.96z" />
<glyph unicode="&#xe900;" glyph-name="cd_appstore" horiz-adv-x="4267" d="M843.88 483.464c0.971 71.941 39.092 134.769 96.016 170.272-35.917 53.135-95.208 87.852-162.741 90.604-69.353 7.222-135.589-41.441-171.635-41.441s-90.117 40.553-148.243 39.652c-79.163-3.216-147.139-48.162-182.819-113.313-79.873-136.311-20.846-339.977 55.303-451.722 38.3-54.521 82.457-115.35 141.034-113.097s78.402 36.498 146.891 36.498 90.117-36.498 147.793-35.146 99.579 54.521 135.176 109.493c26 36.437 47.177 78.62 61.33 123.905-70.017 33.774-118.839 102.808-119.454 183.317zM731.683 815.996c28.437 34.355 45.687 78.87 45.687 127.415 0 5.587-0.228 11.119-0.677 16.59-52.898-6.392-99.063-31.641-131.774-68.974-28.535-33.531-45.769-77.036-45.769-124.565 0-4.927 0.185-9.809 0.549-14.642 1.057 0.618 2.35 0.603 3.644 0.603 53.036 0 100.35 24.501 131.241 62.8zM1669.805 72.529h-79.754l-45.059 135.176h-150.496l-41.454-135.176h-77.050l150.045 465.456h92.82l150.946-466.808zM1534.629 267.182l-39.652 121.658c-4.055 12.617-12.166 41.905-23.431 90.117v0c-4.956-19.825-12.166-49.114-22.079-90.117l-41.454-121.207zM2055.506 245.103c0.242-3.586 0.379-7.773 0.379-11.992 0-47.138-17.194-90.262-45.651-123.439-24.647-27.47-60.58-44.834-100.568-44.834-1.003 0-2.004 0.011-3.002 0.033-2.388-0.224-5.341-0.35-8.322-0.35-36.633 0-68.827 19.007-87.257 47.697l-0.248-176.218h-76.599v360.469c0 36.047 0 72.544-2.704 110.844h65.785l3.604-49.564c24.101 36.425 64.89 60.121 111.213 60.121 40.587 0 76.926-18.191 101.307-46.864 25.556-31.349 40.941-71.546 40.941-115.337 0-3.241-0.084-6.463-0.25-9.663zM1979.358 242.399c0.109 2.033 0.171 4.412 0.171 6.806 0 27.658-8.307 53.375-22.561 74.796-13.611 20.27-36.99 33.756-63.519 33.756-0.371 0-0.741-0.002-1.111-0.007-19.219-0.103-36.847-7.068-50.53-18.573-14.512-11.931-24.975-28.56-29.066-47.557-2.056-7.35-3.35-15.216-3.698-23.325l-0.007-56.534c-0.016-0.624-0.024-1.359-0.024-2.095 0-22.912 8.551-43.828 22.636-59.729 13.689-15.44 33.694-25.181 55.973-25.181 0.886 0 1.769 0.016 2.649 0.046 0.745-0.039 1.767-0.059 2.794-0.059 25.851 0 48.729 12.731 62.705 32.265 15.218 22.514 24.2 49.979 24.2 79.542 0 2.375-0.058 4.737-0.172 7.084zM2442.56 245.103c0.242-3.586 0.379-7.773 0.379-11.992 0-47.138-17.194-90.262-45.651-123.439-24.647-27.47-60.58-44.834-100.568-44.834-1.003 0-2.004 0.011-3.002 0.033-2.388-0.224-5.341-0.35-8.322-0.35-36.633 0-68.827 19.007-87.257 47.697l-0.248-176.218h-77.050v360.469c0 36.047 0 72.544-2.704 110.844h65.785l4.055-49.564c24.101 36.425 64.89 60.121 111.213 60.121 40.587 0 76.926-18.191 101.307-46.864 25.556-31.349 40.941-71.546 40.941-115.337 0-3.241-0.084-6.463-0.25-9.663zM2366.411 242.399c0.109 2.033 0.171 4.412 0.171 6.806 0 27.658-8.307 53.375-22.561 74.796-13.611 20.274-36.992 33.763-63.523 33.763-0.528 0-1.054-0.005-1.58-0.016-19.196-0.103-36.824-7.067-50.508-18.572-14.562-12.233-25.028-29.162-29.068-48.452-2.054-7.355-3.348-15.221-3.696-23.332l-0.007-56.534c-0.016-0.624-0.024-1.359-0.024-2.095 0-22.912 8.551-43.828 22.636-59.729 13.689-15.44 33.694-25.181 55.973-25.181 0.886 0 1.769 0.016 2.649 0.046 0.812-0.044 1.914-0.069 3.021-0.069 25.786 0 48.596 12.741 62.478 32.271 15.236 22.298 24.235 49.553 24.235 78.91 0 2.599-0.071 5.181-0.21 7.745zM2875.123 203.649c0.039-1.17 0.061-2.545 0.061-3.925 0-36.867-15.985-70.001-41.401-92.849-31.412-25.579-71.771-41.011-115.734-41.011-4.027 0-8.024 0.13-11.986 0.384-2.478-0.174-6.013-0.258-9.569-0.258-40.724 0-78.888 10.959-111.705 30.087l19.982 61.162c30.588-18.405 67.508-29.291 106.971-29.291 0.411 0 0.822 0.001 1.232 0.003 1.844-0.128 4.071-0.201 6.315-0.201 22.302 0 42.929 7.17 59.703 19.329 14.315 11.196 23.622 28.806 23.622 48.589 0 0.747-0.014 1.49-0.039 2.229 0.010 0.228 0.013 0.624 0.013 1.021 0 18.224-7.41 34.718-19.382 46.631-18.043 15.774-39.539 28.105-63.161 35.695-83.733 30.994-124.737 75.602-124.737 135.53-0.003 0.347-0.005 0.757-0.005 1.168 0 37.599 17.511 71.109 44.821 92.818 29.146 23.078 66.136 36.908 106.356 36.908 3.091 0 6.162-0.081 9.212-0.243 2.050 0.115 4.956 0.171 7.875 0.171 35.486 0 69.056-8.205 98.916-22.819l-20.254-60.241c-25.273 13.637-55.314 21.65-87.229 21.65-1.016 0-2.030-0.008-3.041-0.024-1.241 0.076-2.874 0.118-4.515 0.118-21.589 0-41.465-7.334-57.271-19.648-11.158-10.112-18.272-24.905-18.272-41.36 0-0.295 0.002-0.589 0.006-0.884-0.002-0.095-0.002-0.26-0.002-0.426 0-18.031 8.406-34.099 21.513-44.499 19.602-14.962 42.148-27.185 66.463-35.625 37.103-12.715 67.299-32.169 91.765-57.239 17.996-20.644 28.941-47.757 28.941-77.426 0-1.311-0.021-2.615-0.063-3.915zM3123.396 353.244h-82.457v-163.563c0-41.454 14.418-62.181 45.059-62.181 0.554-0.008 1.209-0.013 1.865-0.013 11.165 0 22.022 1.318 32.424 3.808l-0.945-56.965c-15.745-5.198-33.868-8.196-52.691-8.196-1.911 0-3.814 0.031-5.711 0.092-1.188-0.092-2.902-0.14-4.627-0.14-25.267 0-48.107 10.399-64.47 27.151-15.862 21.535-25.375 48.564-25.375 77.816 0 4.337 0.209 8.626 0.618 12.857l-0.042 169.333h-46.861v55.873h49.114v61.73l71.643 22.079v-83.809h82.457v-55.873zM3494.229 243.751c0.073-1.932 0.114-4.201 0.114-6.48 0-46.403-17.108-88.811-45.362-121.259-28.908-31.478-70.537-51.277-116.789-51.277-2.28 0-4.547 0.049-6.804 0.144-1.504-0.090-3.647-0.134-5.799-0.134-44.25 0-84.079 18.928-111.833 49.128-28.111 31.724-45.217 73.56-45.217 119.391 0 1.628 0.021 3.251 0.064 4.868-0.1 1.967-0.154 4.556-0.154 7.156 0 46.26 17.128 88.519 45.388 120.783 28.686 30.689 69.677 49.949 115.166 49.949 2.378 0 4.744-0.053 7.097-0.156 1.524 0.092 3.705 0.138 5.895 0.138 44.497 0 84.577-18.915 112.636-49.143 28.095-31.103 45.231-72.395 45.231-117.689 0-1.905-0.031-3.804-0.091-5.694zM3416.728 243.751c0.041 1.314 0.064 2.859 0.064 4.409 0 27.554-7.383 53.383-20.277 75.617-13.149 23.068-38.331 38.853-67.2 38.853s-54.051-15.785-67.387-39.195c-12.742-21.956-20.144-47.859-20.144-75.49 0-2.109 0.043-4.208 0.129-6.296-0.055-1.082-0.081-2.707-0.081-4.337 0-27.478 7.386-53.231 20.282-75.382 12.777-23.601 38.094-39.838 67.204-39.838s54.426 16.237 67.387 40.148c12.17 21.73 19.219 47.209 19.219 74.334 0 1.889-0.034 3.771-0.102 5.645zM3737.997 343.781c-3.577 0.327-7.737 0.514-11.941 0.514s-8.363-0.187-12.471-0.552c-0.404 0.082-1.501 0.108-2.602 0.108-23.722 0-44.717-11.676-57.551-29.595-11.774-17.654-18.701-39.093-18.701-62.15 0-1.512 0.030-3.016 0.089-4.514l-0.006-176.415h-75.248v232.052c0 38.75 0 74.347 0 105.888h65.335l2.704-64.434c7.348 21.712 20.31 39.909 37.173 53.445 15.099 11.427 33.906 18.198 54.295 18.198 2.761 0.173 5.988 0.271 9.237 0.271s6.476-0.098 9.677-0.293l-0.44-71.622zM4072.331 256.818c0.021-0.996 0.033-2.169 0.033-3.346 0-10.763-0.996-21.293-2.9-31.504l-225.129 1.056c-0.037-1-0.057-2.174-0.057-3.353 0-28.871 12.512-54.819 32.411-72.717 18.871-14.753 42.819-23.608 68.835-23.608 1.653 0 3.297 0.036 4.932 0.107 0.469-0.015 1.298-0.019 2.129-0.019 31.515 0 61.678 5.788 89.485 16.359l11.337-52.394c-31.365-13.16-67.816-20.804-106.054-20.804-2.318 0-4.63 0.029-6.934 0.084-2.635-0.2-6.111-0.309-9.614-0.309-43.887 0-83.737 17.285-113.114 45.418-27.979 30.213-45.18 70.871-45.18 115.547 0 2.764 0.065 5.513 0.196 8.244-0.080 1.492-0.117 3.699-0.117 5.915 0 45.66 15.831 87.623 42.304 120.698 26.181 32.747 66.587 53.788 111.907 53.788 1.899 0 3.789-0.037 5.67-0.11 1.815 0.133 4.254 0.204 6.71 0.204 42.571 0 80.165-21.313 102.691-53.851 19.241-28.783 30.544-63.677 30.544-101.211 0-1.949-0.031-3.891-0.091-5.825zM4001.59 276.193c0.094 1.626 0.147 3.528 0.147 5.444 0 19.302-5.419 37.338-14.817 52.672-11.434 18.4-32.002 30.759-55.457 30.759-1.326 0-2.642-0.039-3.949-0.117-0.199 0.016-0.644 0.020-1.091 0.020-23.96 0-45.156-11.836-58.059-29.982-12.352-16.339-20.356-36.257-22.198-57.931l155.424-0.414zM1497.229 706.504h-39.201l-21.628 67.137h-74.347l-18.925-67.137h-37.849l73.446 229.348h45.059zM1430.092 802.028l-19.376 60.378c0 5.858-5.858 20.727-11.715 45.059v0c-2.704-9.913-5.858-23.881-11.265-45.059l-18.925-59.928zM1681.97 871.868l-62.632-165.366h-35.597l-60.378 165.366h39.652l27.936-87.413c4.956-14.418 9.011-28.387 12.166-41.905v0c2.704 12.166 6.759 26.134 12.166 41.905l27.936 87.413h38.75zM1815.344 706.504l-2.704 18.925c-10.457-14.041-27.009-23.037-45.663-23.037-0.897 0-1.789 0.021-2.675 0.062-0.955-0.091-2.212-0.139-3.483-0.139-26.628 0-48.212 21.586-48.212 48.212 0 0.206 0.001 0.412 0.004 0.617 0 40.521 35.596 61.699 96.876 61.699v3.604c0 21.628-11.715 32.442-34.245 32.442-1.012 0.048-2.197 0.075-3.388 0.075-15.48 0-29.894-4.565-41.968-12.422l-7.362 24.062c15.342 9.094 33.819 14.468 53.55 14.468 1.133 0 2.263-0.018 3.388-0.053 44.894 0.004 65.171-22.976 65.171-68.485v-61.28c-0.035-1.458-0.055-3.177-0.055-4.899 0-12.27 1.003-24.306 2.932-36.030l-33.517 1.277zM1810.388 788.961c-40.553 0-61.28-9.913-61.28-33.343-0.106-0.836-0.166-1.805-0.166-2.786 0-12.94 10.49-23.431 23.431-23.431 0.693 0 1.379 0.030 2.056 0.089 0.188-0.014 0.513-0.018 0.839-0.018 18.939 0 34.38 14.98 35.118 33.739zM1928.891 898.454c-0.001 0-0.003 0-0.004 0-11.945 0-21.628 9.683-21.628 21.628 0 0.158 0.002 0.317 0.005 0.474 0 12.419 10.086 22.506 22.529 22.506s22.529-10.086 22.529-22.529c0.004-0.156 0.006-0.341 0.006-0.526 0-11.945-9.683-21.628-21.628-21.628-0.637 0-1.267 0.027-1.889 0.081zM1911.319 871.418h36.498v-164.464h-36.498zM2012.25 948.018h36.498v-241.064h-36.498zM2205.101 706.504l-2.704 18.925c-10.457-14.041-27.009-23.037-45.663-23.037-0.897 0-1.789 0.021-2.675 0.062-0.548-0.038-1.337-0.057-2.13-0.057-26.628 0-48.212 21.586-48.212 48.212 0 0.177 0.001 0.354 0.003 0.53 0 40.526 35.596 61.704 96.876 61.704v3.604c0 21.628-11.715 32.442-34.245 32.442-1.012 0.048-2.197 0.075-3.388 0.075-15.48 0-29.894-4.565-41.968-12.422l-7.362 24.513c15.342 9.094 33.819 14.468 53.55 14.468 1.133 0 2.263-0.018 3.388-0.053 44.894 0.004 65.171-22.976 65.171-68.485v-61.28c-0.479-5.935-0.753-12.848-0.753-19.825s0.274-13.89 0.81-20.73l-32.95 0.904zM2199.243 788.961c-40.553 0-61.28-9.913-61.28-33.343-0.106-0.836-0.166-1.805-0.166-2.786 0-12.94 10.49-23.431 23.431-23.431 0.693 0 1.379 0.030 2.056 0.089 0.188-0.014 0.513-0.018 0.839-0.018 18.939 0 34.38 14.98 35.118 33.739zM2384.885 702.449c-0.241-0.003-0.524-0.005-0.808-0.005-21.375 0-39.968 11.906-49.51 29.448l-0.147 0.296v-25.683h-31.090c0 13.067 0 27.936 0 45.059v196.456h36.948v-100.481c10.095 16.663 28.127 27.627 48.72 27.627 1.407 0 2.802-0.051 4.183-0.152 39.467 0.011 67.403-34.233 67.403-83.799 0.331-2.728 0.52-5.888 0.52-9.091 0-42.803-33.719-77.731-76.044-79.669zM2379.478 846.636c-22.643-0.945-40.641-19.531-40.641-42.321 0-0.963 0.032-1.919 0.095-2.867l-0.007-29.16c-0.006-0.271-0.011-0.59-0.011-0.911 0-22.083 17.652-40.044 39.615-40.542 27.533-0.001 45.105 22.529 45.105 58.125s-19.825 57.675-44.157 57.675zM2512.401 948.018h36.498v-241.064h-36.498zM2748.959 780.4h-110.393c-0.029-0.617-0.045-1.34-0.045-2.068 0-26.129 21.182-47.312 47.312-47.312 1.762 0 3.501 0.096 5.213 0.284 0.049-0.021 0.356-0.022 0.663-0.022 15.882 0 31.068 2.977 45.032 8.403l3.207-25.974c-15.082-6.316-32.607-9.986-50.99-9.986-1.559 0-3.111 0.026-4.657 0.079-0.808-0.056-2.018-0.084-3.235-0.084-42.305 0-76.599 34.295-76.599 76.599 0 2.407 0.111 4.788 0.328 7.139-0.378 2.544-0.582 5.838-0.582 9.178 0 43.949 35.151 79.687 78.873 80.636 38.524-0.178 69.612-31.378 69.612-69.838 0-3.178-0.212-6.306-0.623-9.37 0.387-2.146 0.585-5.038 0.585-7.977s-0.199-5.832-0.582-8.666zM2715.615 808.336c0 25.683-13.067 45.059-36.498 45.059-22.661-2.581-40.103-21.646-40.103-44.785 0-0.096 0-0.192 0.001-0.288zM2971.999 702.449c-0.343-0.005-0.749-0.008-1.154-0.008-43.549 0-78.853 35.303-78.853 78.853 0 2.223 0.092 4.425 0.272 6.601-0.201 1.748-0.305 4.112-0.305 6.501 0 44.545 36.111 80.655 80.655 80.655 0.734 0 1.467-0.010 2.196-0.030 0.788 0.039 1.839 0.060 2.895 0.060 43.051 0 77.951-34.9 77.951-77.951 0-2.399-0.109-4.774-0.321-7.119 0.204-1.734 0.307-4.104 0.307-6.497 0-44.793-36.313-81.106-81.106-81.106-0.892 0-1.782 0.015-2.668 0.043zM2971.999 847.988c-26.584 0-45.059-24.783-45.059-59.477s17.573-58.577 45.059-58.577 45.059 26.584 45.059 59.928-17.122 58.577-45.059 58.577zM3251.813 706.504h-36.498v95.074c0 29.288-11.265 45.059-33.343 45.059-20.357-0.696-36.596-17.366-36.596-37.828 0-0.959 0.036-1.909 0.106-2.849l-0.007-99.004h-36.498v117.603c0 14.418 0 30.19 0 47.312h32.442v-25.683c10.532 17.655 29.532 29.297 51.252 29.297 0.358 0 0.714-0.003 1.070-0.010 34.642 0.001 57.622-26.584 57.622-69.841v-99.129zM3492.426 844.383h-40.553v-81.106c0-20.727 7.21-30.64 21.628-30.64 2.432-0.261 5.254-0.409 8.111-0.409s5.678 0.149 8.458 0.438l-0.347-27.966c-7.546-2.608-16.241-4.115-25.288-4.115-1.090 0-2.174 0.022-3.254 0.065-29.134-0.005-44.904 16.216-44.904 57.67v86.062h-23.881v27.486h23.431v30.19l36.047 11.265v-41.004h40.553v-27.936zM3686.179 706.504h-36.498v94.623c0 29.739-11.265 45.059-33.343 45.059-0.175 0.003-0.382 0.005-0.589 0.005-19.908 0-36.047-16.139-36.047-36.047 0-1.112 0.051-2.212 0.149-3.299l-0.011-99.891h-36.498v241.064h36.498v-99.129c9.842 16.322 27.477 27.069 47.621 27.069 0.683 0 1.364-0.013 2.041-0.037 35.048 0.003 56.676-27.032 56.676-70.288v-99.129zM3874.974 780.4h-110.393c-0.029-0.617-0.045-1.34-0.045-2.068 0-26.129 21.182-47.312 47.312-47.312 1.762 0 3.501 0.096 5.213 0.284 0.049-0.021 0.356-0.022 0.663-0.022 15.882 0 31.068 2.977 45.032 8.403l3.658-25.974c-15.082-6.316-32.607-9.986-50.99-9.986-1.559 0-3.111 0.026-4.657 0.079-0.808-0.056-2.018-0.084-3.235-0.084-42.305 0-76.599 34.295-76.599 76.599 0 2.407 0.111 4.788 0.328 7.139-0.378 2.544-0.582 5.838-0.582 9.178 0 43.949 35.151 79.687 78.873 80.636 38.524-0.178 69.612-31.378 69.612-69.838 0-3.178-0.212-6.306-0.623-9.37-0.32-6.203-1.612-12.35-3.707-18.11zM3841.631 808.336c0 25.683-13.067 45.059-36.498 45.059-22.661-2.581-40.103-21.646-40.103-44.785 0-0.096 0-0.192 0.001-0.288z" />
<glyph unicode="&#xe901;" glyph-name="check" d="M324.532 220.686l616.904 618.303 82.534-82.534-699.438-699.438-324.539 324.539 81.135 82.534z" />
<glyph unicode="&#xe902;" glyph-name="back" horiz-adv-x="992" d="M147.119 387.476l391.688-381.528-53.957-53.957-484.813 473.639 484.813 495.987 53.957-53.957-393.668-403.878h846.874v-76.307h-844.894z" />
<glyph unicode="&#xe903;" glyph-name="compare-car" horiz-adv-x="1008" d="M542.763 262.14h387.69c21.412 0 38.768 17.358 38.768 38.768v232.614c0 21.412-17.358 38.768-38.768 38.768h-387.69v38.768h387.69c42.823 0 77.538-34.715 77.538-77.538v-232.614c0-42.823-34.715-77.538-77.538-77.538h-387.69v38.768zM542.763 262.14h387.69c21.412 0 38.768 17.358 38.768 38.768v232.614c0 21.412-17.358 38.768-38.768 38.768h-387.69v38.768h387.69c42.823 0 77.538-34.715 77.538-77.538v-232.614c0-42.823-34.715-77.538-77.538-77.538h-387.69v38.768zM465.227 262.14h-387.69c-21.412 0-38.768 17.358-38.768 38.768v232.614c0 21.412 17.358 38.768 38.768 38.768h387.69v38.768h-387.69c-42.823 0-77.538-34.715-77.538-77.538v-232.614c0-42.823 34.715-77.538 77.538-77.538h387.69v38.768zM465.227 262.14h-387.69c-21.412 0-38.768 17.358-38.768 38.768v232.614c0 21.412 17.358 38.768 38.768 38.768h387.69v38.768h-387.69c-42.823 0-77.538-34.715-77.538-77.538v-232.614c0-42.823 34.715-77.538 77.538-77.538h387.69v38.768zM874.509 611.060l-58.929 157.144c-17.023 45.395-60.419 75.468-108.901 75.468h-158.9v38.768h158.9c64.643 0 122.504-40.098 145.202-100.625l64.034-170.757h-41.405zM874.509 611.060l-58.929 157.144c-17.023 45.395-60.419 75.468-108.901 75.468h-158.9v38.768h158.9c64.643 0 122.504-40.098 145.202-100.625l64.034-170.757h-41.405zM162.725 611.060l58.929 157.144c17.023 45.395 60.419 75.468 108.901 75.468h120.132v38.768h-120.132c-64.643 0-122.504-40.098-145.202-100.625l-64.034-170.757h41.405zM162.725 611.060l58.929 157.144c17.023 45.395 60.419 75.468 108.901 75.468h120.132v38.768h-120.132c-64.643 0-122.504-40.098-145.202-100.625l-64.034-170.757h41.405zM426.457 959.98h42v-852.916h-42v852.916zM116.305 223.37v-38.768c0-21.412 17.358-38.768 38.768-38.768h38.768c21.412 0 38.768 17.358 38.768 38.768v38.768h-116.306zM77.537 262.14h193.844v-77.538c0-42.823-34.715-77.538-77.538-77.538h-38.768c-42.823 0-77.538 34.715-77.538 77.538v77.538zM775.377 223.37v-38.768c0-21.412 17.358-38.768 38.768-38.768h38.768c21.412 0 38.768 17.358 38.768 38.768v38.768h-116.306zM736.609 262.14h193.844v-77.538c0-42.823-34.715-77.538-77.538-77.538h-38.768c-42.823 0-77.538 34.715-77.538 77.538v77.538zM852.915 397.83c0-32.117-26.036-58.154-58.154-58.154s-58.154 26.036-58.154 58.154c0 32.117 26.036 58.154 58.154 58.154s58.154-26.036 58.154-58.154zM271.381 397.83c0-32.117-26.036-58.154-58.154-58.154s-58.154 26.036-58.154 58.154c0 32.117 26.036 58.154 58.154 58.154s58.154-26.036 58.154-58.154z" />
<glyph unicode="&#xe904;" glyph-name="new-car" d="M78.771 526.764c-21.752 0-39.383-17.633-39.383-39.383v-236.303c0-21.752 17.633-39.383 39.383-39.383h866.444c21.752 0 39.383 17.633 39.383 39.383v236.303c0 21.752-17.633 39.383-39.383 39.383h-866.444zM78.771 566.149h866.444c43.502 0 78.768-35.266 78.768-78.768v-236.303c0-43.502-35.266-78.768-78.768-78.768h-866.444c-43.502 0-78.768 35.266-78.768 78.768v236.303c0 43.502 35.266 78.768 78.768 78.768zM828.52 725.786c-17.293 46.115-61.377 76.665-110.629 76.665h-411.797c-49.251 0-93.336-30.551-110.629-76.665l-59.864-159.637h752.783l-59.864 159.637zM306.094 841.836h411.797c65.668 0 124.447-40.734 147.505-102.221l79.818-212.849h-866.444l79.818 212.849c23.057 61.487 81.837 102.221 147.505 102.221zM118.154 172.31v-39.383c0-21.752 17.633-39.383 39.383-39.383h39.383c21.752 0 39.383 17.633 39.383 39.383v39.383h-118.151zM78.771 211.694h196.919v-78.768c0-43.502-35.266-78.768-78.768-78.768h-39.383c-43.502 0-78.768 35.266-78.768 78.768v78.768zM787.68 172.31v-39.383c0-21.752 17.633-39.383 39.383-39.383h39.383c21.752 0 39.383 17.633 39.383 39.383v39.383h-118.151zM748.296 211.694h196.919v-78.768c0-43.502-35.266-78.768-78.768-78.768h-39.383c-43.502 0-78.768 35.266-78.768 78.768v78.768zM866.447 349.537c0-32.626-26.449-59.076-59.076-59.076s-59.076 26.449-59.076 59.076c0 32.626 26.449 59.076 59.076 59.076s59.076-26.449 59.076-59.076zM275.69 349.537c0-32.626-26.449-59.076-59.076-59.076s-59.076 26.449-59.076 59.076c0 32.626 26.449 59.076 59.076 59.076s59.076-26.449 59.076-59.076z" />
<glyph unicode="&#xe905;" glyph-name="cd_emi" d="M0 691.778v-228.583h496.805v496.805h-228.583c-148.034-0.251-267.972-120.188-268.222-268.198zM377.449 733.618v-59.458h-83.682v-83.682h-59.017v83.682h-83.682v59.458h83.682v83.682h59.017v-83.682zM755.338 960h-228.583v-496.805h497.245v228.583c-0.251 148.189-120.439 268.222-268.661 268.222zM872.492 674.16h-228.583v59.458h226.381zM0 204.662c0-148.378 120.284-268.662 268.662-268.662h228.583v497.245h-497.245zM163.401 274.69l40.079 41.401 59.017-59.017 60.779 59.017 41.84-41.84-59.017-58.577 59.017-59.017-41.84-41.84-59.017 59.017-60.779-59.017-41.84 41.84 59.017 59.017zM526.755-63.999h228.583c148.378 0 268.662 120.284 268.662 268.662v228.583h-497.245zM646.111 288.344h226.381v-60.339h-228.583zM643.909 183.962h226.381v-59.017h-226.381z" />
<glyph unicode="&#xe906;" glyph-name="news2" d="M161.691 906.096c-59.53 0-107.787-48.258-107.787-107.787v-700.618c0-59.53 48.258-107.787 107.787-107.787h700.618c59.53 0 107.787 48.258 107.787 107.787v700.618c0 59.53-48.258 107.787-107.787 107.787h-700.618zM161.691 959.99h700.618c89.294 0 161.681-72.387 161.681-161.681v-700.618c0-89.294-72.387-161.681-161.681-161.681h-700.618c-89.294 0-161.681 72.387-161.681 161.681v700.618c0 89.294 72.387 161.681 161.681 161.681zM431.159 636.628h377.255v-53.894h-377.255v53.894zM215.584 744.416h161.681v-161.681h-161.681v161.681zM215.584 474.947h592.831v-53.894h-592.831v53.894zM215.584 313.265h431.149v-53.894h-431.149v53.894z" />
<glyph unicode="&#xe907;" glyph-name="cd_fblikes" d="M818.075 520.030h-150.117l173.046 292.88c47.587 103.828-33.744 147.089-69.219 127.189-51.049-61.864-127.622-178.238-194.677-262.597-45.218-61.113-97.773-113.394-157.157-156.907l-2.046-584.595h465.926v519.138c0.195 1.804 0.306 3.897 0.306 6.015 0 32.733-26.535 59.268-59.268 59.268-2.394 0-4.755-0.142-7.076-0.418zM135.409 518.3h179.535v-582.299h-179.535v582.299z" />
<glyph unicode="&#xe908;" glyph-name="sell-car" d="M837.812 591.512v46.544h139.633v232.722h-930.891v-232.722h139.633v-46.544h-139.633c-25.706 0-46.544 20.838-46.544 46.544v232.722c0 25.706 20.838 46.544 46.544 46.544h930.891c25.706 0 46.544-20.838 46.544-46.544v-232.722c0-25.706-20.838-46.544-46.544-46.544h-139.633zM837.812 591.512v46.544h139.633v232.722h-930.891v-232.722h139.633v-46.544h-139.633c-25.706 0-46.544 20.838-46.544 46.544v232.722c0 25.706 20.838 46.544 46.544 46.544h930.891c25.706 0 46.544-20.838 46.544-46.544v-232.722c0-25.706-20.838-46.544-46.544-46.544h-139.633zM186.188 870.78v-678.889l139.633-139.633 93.089 93.089 93.228-93.228 92.089 91.316 108.339-86.962 125.246 134.459v679.848h-651.623zM139.643 917.324h744.712v-744.712l-167.205-179.505-109.657 88.020-95.495-94.694-93.089 93.089-93.089-93.089-186.178 186.178v744.712zM355.664 731.146h295.969v-0.615c-17.434-26.869-27.279-41.226-29.535-43.072h-79.069c10.87-12.717 18.254-28.202 22.152-46.456h84.298c1.025-0.205 1.539-0.615 1.539-1.231-18.87-28.305-28.51-42.457-28.919-42.457h-54.763c-1.231-14.562-8.204-32.099-20.921-52.61-16.818-20.716-32.919-34.15-48.303-40.303-28.715-13.742-56.199-20.613-82.453-20.613v-0.615c0-2.051 59.378-72.504 178.135-211.363h-78.453c-115.68 134.756-173.521 202.44-173.521 203.056v40.919l0.615 1.539c10.256-1.436 22.254-2.153 35.997-2.153 64.813 0 105.117 21.024 120.911 63.071 2.461 6.153 3.692 12.512 3.692 19.074h-175.982c-0.82 0-1.231 0.411-1.231 1.231 19.485 28.305 29.433 42.457 29.843 42.457h139.677v0.615c-8 16.204-23.485 28.817-46.456 37.842-16.409 5.333-31.177 7.999-44.303 7.999h-78.145v1.539c18.87 28.099 28.613 42.15 29.227 42.15z" />
<glyph unicode="&#xe909;" glyph-name="used-car" d="M115.44 327.761l9.12-36.683c7.714-31.029-2.926-63.742-27.42-84.294l-45.166-37.899-10.116-135.933 135.625-13.643 407.982 342.337 23.261-9.321c92.484-37.058 198.556-21.124 276.251 44.070 115.063 96.548 130.070 268.093 33.521 383.154s-268.093 130.070-383.154 33.521c-82.174-68.953-115.344-178.576-87.546-280.264l7.069-25.855-214.9-180.323c-23.062-19.351-54.741-24.823-82.958-14.331l-41.572 15.46zM407.441 521.776c-31.314 114.549 4.078 242.012 101.011 323.348 132.764 111.402 330.699 94.085 442.102-38.679s94.085-330.699-38.679-442.102c-91.795-77.025-214.746-92.516-318.709-50.858l-388.786-326.23c-8.645-7.254-19.854-10.709-31.083-9.579l-135.625 13.643c-22.571 2.27-39.222 22.114-37.538 44.736l10.116 135.933c0.838 11.254 6.186 21.693 14.831 28.947l45.166 37.899c12.246 10.276 17.567 26.633 13.709 42.147l-10.974 44.14c-5.035 20.252 7.301 40.752 27.554 45.787 7.386 1.836 15.154 1.399 22.288-1.254l48.773-18.138c14.108-5.247 29.948-2.51 41.479 7.165l194.367 163.093zM226.22 245.905l259.367 211.642 23.943-28.536-259.367-211.642zM781.129 675.348c22.28-26.553 18.817-66.14-7.735-88.42s-66.14-18.817-88.42 7.735c-22.28 26.553-18.817 66.14 7.735 88.42s66.14 18.817 88.42-7.735z" />
<glyph unicode="&#xe90a;" glyph-name="deletearrow" d="M1023.985 856.153l-408.168-408.168 408.168-408.168-103.801-103.801-408.168 408.168-408.168-408.168-103.801 103.801 408.168 408.168-408.168 408.168 103.801 103.801 408.168-408.168 408.168 408.168z" />
<glyph unicode="&#xe90b;" glyph-name="down-arrow" horiz-adv-x="1008" d="M0.046 699.988h1007.943l-503.972-503.972z" />
<glyph unicode="&#xe90c;" glyph-name="cd_grid-view" d="M279.924 928.172c0 17.611-14.216 31.828-31.828 31.828h-214.306c-17.611 0-31.828-14.216-31.828-31.828v-214.412c0-17.611 14.216-31.828 31.828-31.828h214.412c17.611 0 31.828 14.216 31.828 31.828v214.412h-0.106zM650.928 928.172c0 17.611-14.216 31.828-31.828 31.828h-214.306c-17.611 0-31.828-14.216-31.828-31.828v-214.412c0-17.611 14.216-31.828 31.828-31.828h214.306c17.611 0 31.828 14.216 31.828 31.828v214.412zM1021.931 928.172c0 17.611-14.216 31.828-31.828 31.828h-214.306c-17.612 0-31.828-14.216-31.828-31.828v-214.412c0-17.611 14.215-31.828 31.828-31.828h214.412c17.612 0 31.828 14.216 31.828 31.828v214.412h-0.106zM279.924 555.154c0 17.611-14.216 31.828-31.828 31.828h-214.306c-17.611 0-31.828-14.216-31.828-31.828v-214.306c0-17.611 14.216-31.828 31.828-31.828h214.412c17.611 0 31.828 14.216 31.828 31.828v214.306h-0.106zM650.928 555.154c0 17.611-14.216 31.828-31.828 31.828h-214.306c-17.611 0-31.828-14.216-31.828-31.828v-214.306c0-17.611 14.216-31.828 31.828-31.828h214.306c17.611 0 31.828 14.216 31.828 31.828v214.306zM1021.931 555.154c0 17.611-14.216 31.828-31.828 31.828h-214.306c-17.612 0-31.828-14.216-31.828-31.828v-214.306c0-17.611 14.215-31.828 31.828-31.828h214.412c17.612 0 31.828 14.216 31.828 31.828v214.306h-0.106zM248.097 214.067h-214.306c-17.611 0-31.828-14.216-31.828-31.828v-214.412c0-17.613 14.216-31.828 31.828-31.828h214.412c17.611 0 31.828 14.214 31.828 31.828v214.412c-0.106 17.505-14.322 31.828-31.934 31.828zM619.101 214.067h-214.306c-17.611 0-31.828-14.216-31.828-31.828v-214.412c0-17.613 14.216-31.828 31.828-31.828h214.306c17.611 0 31.828 14.214 31.828 31.828v214.412c0 17.505-14.217 31.828-31.828 31.828zM990.104 214.067h-214.306c-17.612 0-31.828-14.216-31.828-31.828v-214.412c0-17.613 14.215-31.828 31.828-31.828h214.412c17.612 0 31.828 14.214 31.828 31.828v214.412c-0.106 17.505-14.322 31.828-31.934 31.828z" />
<glyph unicode="&#xe90d;" glyph-name="cd_comments" d="M1023.999 410.243c0 96.252-52.945 184.329-137.972 244.838 13.32-33.771 21.060-72.884 21.104-113.8 0-213.992-214.584-387.952-478.33-387.952-19.763 0-46.357 1.22-71.975 3.171 71.626-46.313 159.16-73.842 253.124-73.842 2.062 0 4.121 0.013 6.177 0.039 39.444 0.122 78.355 3.311 116.319 9.34 60.867-31.179 193.717-99.739 193.717-99.739s-39.282 97.593-59.532 169.813c97.105 61.972 157.369 145.78 157.369 248.132zM77.709 92.577l21.593 53.555c0 0.854 33.913 84.419 54.286 152.368-100.522 68.56-153.588 157.369-153.588 257.037 0 192.016 192.747 348.165 429.777 348.165s430.021-156.271 430.021-348.165-192.991-348.531-430.021-348.531c-38.717 0.226-76.553 3.101-113.589 8.451-61.956-31.874-185.901-95.675-187.12-96.285zM429.777 861.126c-213.242-0.488-387.324-136.875-387.324-305.59 0-112.233 80.026-186.892 147.244-229.71l13.419-8.539-4.27-15.37c-10.858-38.916-27.082-84.54-39.892-119.064 44.771 22.813 109.793 55.262 149.074 73.805l6.221 2.928 6.831-1.341c32.404-5.164 69.844-8.176 107.964-8.295 213.363 0 386.836 136.997 386.836 304.98s-172.863 305.711-386.104 305.711z" />
<glyph unicode="&#xe90e;" glyph-name="overview" d="M158.564 479.724c-86.088 0-158.583 72.496-158.583 158.583v163.114c0 86.088 72.496 158.583 158.583 158.583h163.114c86.088 0 158.583-72.496 158.583-158.583v-163.114c0-86.088-72.496-158.583-158.583-158.583h-163.114zM158.564 534.095h163.114c58.903 0 104.212 45.31 104.212 104.212v163.114c0 58.903-45.31 104.212-104.212 104.212h-163.114c-58.903 0-104.212-45.31-104.212-104.212v-163.114c0-58.903 49.84-104.212 104.212-104.212zM702.278 479.724c-86.088 0-158.583 72.496-158.583 158.583v163.114c0 86.088 72.496 158.583 158.583 158.583h163.114c86.088 0 158.583-72.496 158.583-158.583v-163.114c0-86.088-72.496-158.583-158.583-158.583h-163.114zM702.278 534.095h163.114c58.903 0 104.212 45.31 104.212 104.212v163.114c0 58.903-45.31 104.212-104.212 104.212h-163.114c-58.903 0-104.212-45.31-104.212-104.212v-163.114c0-58.903 45.31-104.212 104.212-104.212zM-0.019 94.593v163.114c0 86.088 72.496 158.583 158.583 158.583h163.114c86.088 0 158.583-72.496 158.583-158.583v-163.114c0-86.088-72.496-158.583-158.583-158.583h-163.114c-86.088 0-158.583 72.496-158.583 158.583zM54.352 94.593c0-58.903 45.31-104.212 104.212-104.212h163.114c58.903 0 104.212 45.31 104.212 104.212v163.114c0 58.903-45.31 104.212-104.212 104.212h-163.114c-58.903 0-104.212-45.31-104.212-104.212v-163.114zM543.695 94.593v163.114c0 86.088 72.496 158.583 158.583 158.583h163.114c86.088 0 158.583-72.496 158.583-158.583v-163.114c0-86.088-72.496-158.583-158.583-158.583h-163.114c-86.088 0-158.583 72.496-158.583 158.583zM598.066 94.593c0-58.903 45.31-104.212 104.212-104.212h163.114c58.903 0 104.212 45.31 104.212 104.212v163.114c0 58.903-45.31 104.212-104.212 104.212h-163.114c-58.903 0-104.212-45.31-104.212-104.212v-163.114z" />
<glyph unicode="&#xe90f;" glyph-name="offers" d="M766.677 773.89l6.828 12.349c2.897-1.559 6.138-2.386 9.516-2.386 35.749 0 64.825-29.077 64.825-64.827s-29.076-64.827-64.825-64.827c-35.748 0-64.825 29.077-64.825 64.827 0 8.042 1.519 16.028 4.462 23.535l2.825 7.204 6.914-3.476c10.186-5.121 19.201-10.099 26.61-14.676l11.551-7.136-12.478-5.351c-7.93-3.401-12.879-11.535-12.104-20.255 0.92-10.383 9.623-18.35 19.442-18.373 13.237 1.071 20.639 2.414 28.746 5.333 13.528 4.87 21.759 12.654 24.694 23.585 5.396 20.162-11.252 41.244-52.179 64.473zM532.419 873.349l14.841-17.933-21.58 6.093c-70.945 18.396-138.412 30.93-191.349 35.543-72.268 6.332-105.442-2.472-112.187-27.742-8.11-30.232 25.042-58.624 128.475-99.414 10.394-4.070 22.035 0.988 26.113 11.332 4.066 10.325-1.008 22.004-11.327 26.066-34.785 13.721-62.646 26.995-81.438 38.533l-20.432 12.545 23.971 0.522c36.345 0.791 96.399-6.708 162.861-20.876l12.711-2.71-437.269-436.673c-16.64-16.64-25.804-38.751-25.804-62.261 0-23.531 9.167-45.657 25.803-62.277l312.297-312.302c16.624-16.624 38.739-25.783 62.254-25.783 23.503 0 45.615 9.16 62.264 25.792l504.486 505.19c39.8 39.784 56.845 79.731 56.845 133.119v271.791c0.003 48.557-39.496 88.057-88.053 88.057h-271.787c-53.371 0-93.32-17.050-133.122-56.852-8.011-8.015-7.688-20.722 1.428-29.762zM762.913 803.96c0-7.189 3.794-13.71 9.867-17.312l-7.062-12.217c-16.907 9.521-37.76 19.313-62.805 29.555-45.382 18.56-99.168 36.277-154.4 51.429-3.168 7.602-2.992 12.18 0.527 13.732 5.279 2.329 7.498 2.645 10.383 5.531 32.489 32.489 61.673 45.070 104.689 45.070h271.787c26.372 0 47.839-21.468 47.839-47.84v-271.794c0-43.032-12.577-72.198-45.080-104.687l-504.485-505.208c-18.030-18.013-49.635-18.010-67.632 0.004l-312.306 312.311c-9.048 9.048-14.018 21.046-14.018 33.84 0 12.783 4.973 24.779 14.014 33.803l454.705 454.067 3.891-0.994c7.594-1.94 10.769-2.767 15.646-4.077 57.936-15.52 109.972-32.633 153.942-50.482l6.627-2.691-2.781-6.591c-5.463-12.949-8.285-26.663-8.285-40.386 0-57.934 47.108-105.043 105.042-105.043s105.042 47.108 105.042 105.043c0 57.934-47.108 105.043-105.042 105.043-11.11 0-20.107-9-20.107-20.107zM889.579 336.67c9.913-5.57 13.218-17.882 7.387-27.414l-201.639-329.64c-16.324-27.090-46.396-43.602-78.973-43.602-16.011 0-31.547 4.016-45.799 11.928l-39.782 24.691c-9.664 6.002-12.413 18.464-6.143 27.704 6.211 9.22 18.997 11.868 28.56 5.909l38.885-24.155c23.438-12.981 53.856-4.906 67.506 17.733l201.7 329.733c5.793 9.491 18.421 12.683 28.301 7.116zM404.916 468.329c0 6.165 7.498 12.257 18.771 12.257s18.771-6.092 18.771-12.257v-277.634c0-6.164-7.499-12.257-18.771-12.257s-18.771 6.092-18.771 12.257v277.634zM529.027 381.638c0 27.19 22.112 49.303 49.303 49.303 27.189 0 49.303-22.114 49.303-49.303 0-27.19-22.112-49.303-49.303-49.303-27.189 0-49.303 22.114-49.303 49.303zM240.098 282.35c0 27.19 22.112 49.303 49.303 49.303 27.189 0 49.303-22.114 49.303-49.303s-22.114-49.303-49.303-49.303c-27.189 0-49.303 22.114-49.303 49.303z" />
<glyph unicode="&#xe910;" glyph-name="india-no" horiz-adv-x="887" d="M875.646 107.903l-149.651 262.901c15.168 7.078 24.268 23.257 23.257 41.457l-11.123 93.027 63.703 66.736c14.156 14.156 15.168 38.424 1.011 55.613l-63.703 68.759 13.145 94.038c2.022 20.223-12.134 40.446-32.357 44.491l-92.016 18.201-44.491 81.904c-9.101 19.212-31.346 27.302-51.569 19.212h-1.011l-84.937-39.436-82.915 40.446c-9.101 5.056-20.223 6.067-30.335 3.034s-18.201-10.112-23.257-19.212l-45.502-81.904-92.016-16.179c-21.235-4.045-35.391-23.257-33.369-45.502l11.123-93.027-63.703-66.736c-14.156-14.156-15.168-38.424-1.011-55.613l63.703-68.759-13.145-94.038c-2.022-18.201 9.101-35.391 26.29-42.468l-150.662-266.946c-4.045-6.067-3.034-14.156 0-20.223 4.045-6.067 10.112-10.112 17.19-10.112h161.785l73.814-128.417c4.045-6.067 10.112-10.112 17.19-10.112s14.156 4.045 17.19 10.112l144.595 246.723 144.595-249.756c4.045-6.067 10.112-10.112 17.19-10.112s14.156 4.045 17.19 10.112l73.814 131.45h161.785c7.078 0 14.156 4.045 17.19 10.112 5.056 6.067 5.056 14.156 1.011 20.223zM282.096-0.29l-62.692 108.194c-4.045 6.067-10.112 10.112-17.19 10.112h-139.54l139.54 246.723 57.636-10.112 44.491-81.904c9.101-19.212 31.346-27.302 51.569-19.212h1.011l41.457 19.212 20.223-35.391-136.506-237.622zM340.743 289.912c-1.011 0-1.011 0-1.011 0l-44.491 83.926c-6.067 10.112-16.179 18.201-28.313 19.212l-93.027 17.19 13.145 93.027c2.022 12.134-2.022 25.279-10.112 33.369l-62.692 68.759 63.703 66.736c9.101 9.101 13.145 21.235 11.123 33.369l-11.123 92.016c0 0 0 1.011 1.011 2.022l92.016 16.179c11.123 2.022 22.246 9.101 28.313 20.223l45.502 81.904 82.915-40.446c11.123-6.067 25.279-6.067 36.402 0l83.926 38.424c1.011 0 1.011 0 1.011 0l44.491-83.926c6.067-10.112 16.179-18.201 27.302-19.212l92.016-18.201-13.145-93.027c-2.022-12.134 2.022-25.279 10.112-33.369l63.703-68.759-64.714-66.736c-9.101-9.101-13.145-21.235-11.123-33.369l11.123-93.027-91.004-15.168c-11.123-2.022-22.246-9.101-28.313-20.223l-45.502-81.904-82.915 40.446c-11.123 6.067-25.279 6.067-36.402 0l-83.926-39.436zM684.537 118.015c-7.078 0-14.156-4.045-17.19-10.112l-62.692-111.228-142.573 246.723c-1.011 3.034-2.022 5.056-4.045 7.078l-22.246 39.436 7.078 3.034 82.915-40.446c6.067-3.034 12.134-4.045 18.201-4.045 14.156 0 28.313 7.078 35.391 20.223l45.502 81.904 60.669 11.123 138.528-243.689h-139.54zM645.102 603.371c0-111.228-91.004-202.231-202.231-202.231s-202.231 91.004-202.231 202.231c0 111.228 91.004 202.231 202.231 202.231s202.231-91.004 202.231-202.231zM442.87 441.585c88.982 0 161.785 72.803 161.785 161.785s-72.803 161.785-161.785 161.785c-88.982 0-161.785-72.803-161.785-161.785s72.803-161.785 161.785-161.785z" />
<glyph unicode="&#xe911;" glyph-name="location-icon-homepage" horiz-adv-x="736" d="M368 455.964c-39.512 0-73.777 14.081-101.438 41.742s-41.742 61.926-41.742 101.438c0 25.84 6.523 50.069 19.468 72.261 12.84 22.012 30.204 39.606 51.838 52.495 21.866 13.026 45.975 19.58 71.872 19.58 25.84 0 50.069-6.523 72.261-19.468 22.091-12.886 39.722-30.518 52.608-52.608 12.945-22.191 19.468-46.421 19.468-72.261 0-25.897-6.554-50.007-19.58-71.872-12.889-21.635-30.484-38.998-52.495-51.838-22.191-12.945-46.421-19.468-72.261-19.468zM368 503.816c17.384 0 33.292 4.282 48.149 12.95 15.038 8.773 26.774 20.353 35.496 34.995 8.586 14.412 12.838 30.054 12.838 47.38 0 17.384-4.282 33.292-12.95 48.149-8.727 14.96-20.425 26.659-35.385 35.385-14.859 8.668-30.765 12.95-48.149 12.95-17.327 0-32.969-4.252-47.38-12.838-14.643-8.724-26.224-20.459-34.995-35.496-8.668-14.859-12.95-30.765-12.95-48.149 0-26.868 9.075-48.948 27.726-67.601s40.731-27.726 67.601-27.726zM384.452 28.737c28.947 34.279 56.364 69.312 82.329 105.204 37.448 51.206 70.663 100.453 99.432 147.385 34.879 59.143 62.096 113.953 81.603 164.22 22.195 58.445 33.176 109.689 33.176 153.598 0 57.555-13.949 110.129-41.826 158.023-28.049 47.469-65.673 85.092-113.006 113.062-48.029 27.957-100.604 41.906-158.159 41.906s-110.129-13.949-158.023-41.826c-47.469-28.049-85.092-65.673-113.062-113.006-27.957-48.029-41.906-100.604-41.906-158.159 0-43.908 10.981-95.152 33.113-153.435 19.569-50.427 46.784-105.238 81.456-164.033 28.979-47.281 62.191-96.528 99.715-147.835 25.892-35.791 53.31-70.825 82.142-104.97l16.568-19.329 16.453 19.195zM368 959.988c65.943 0 126.831-16.154 182.367-48.481 54.418-32.157 97.84-75.577 130.075-130.131 32.249-55.4 48.402-116.288 48.402-182.232 0-50.26-12.175-107.076-36.354-170.748-20.569-53.002-48.925-110.111-85.268-171.728-29.684-48.43-63.621-98.752-101.743-150.877-26.596-36.764-54.751-72.741-84.58-108.064l-52.9-61.717-53.015 61.852c-29.716 35.188-57.871 71.166-84.393 107.83-38.193 52.224-72.132 102.547-102.025 151.325-36.132 61.267-64.49 118.376-85.12 171.541-24.118 63.509-36.292 120.325-36.292 170.586 0 65.943 16.154 126.831 48.481 182.367 32.157 54.418 75.577 97.84 130.131 130.075 55.4 32.249 116.288 48.402 182.232 48.402z" />
<glyph unicode="&#xe912;" glyph-name="menu" d="M0.001 232.422h700.613v-107.786h-700.613v107.786zM0.001 771.355h1023.972v-107.786h-1023.972v107.786zM0.001 501.888h862.292v-107.786h-862.292v107.786z" />
<glyph unicode="&#xe913;" glyph-name="360" horiz-adv-x="1725" d="M1481.739 779.45c-44.785 0-81.090 36.305-81.090 81.090s36.305 81.090 81.090 81.090c44.785 0 81.090-36.305 81.090-81.090s-36.305-81.090-81.090-81.090zM1481.739 823.68c20.356 0 36.859 16.503 36.859 36.859s-16.503 36.859-36.859 36.859c-20.356 0-36.859-16.503-36.859-36.859s16.503-36.859 36.859-36.859zM621.505 585.246c0-21.664-4.389-40.432-13.166-56.306s-20.262-28.946-34.456-39.219c-14.193-10.271-30.161-17.928-47.902-22.971s-35.763-7.564-54.065-7.564c-17.928 0-35.39 2.054-52.384 6.163s-32.495 10.364-46.501 18.769c-14.006 8.404-26.239 19.235-36.697 32.495s-18.302 29.226-23.531 47.902l87.4 22.971c3.735-13.073 11.391-24.558 22.971-34.456s26.332-14.847 44.261-14.847c6.723 0 13.54 0.934 20.449 2.802s13.073 4.762 18.489 8.684c5.416 3.922 9.898 9.058 13.446 15.407s5.322 14.193 5.322 23.531c0 10.085-2.335 18.488-7.004 25.212s-10.831 12.046-18.489 15.967c-7.657 3.922-16.341 6.723-26.052 8.404s-19.422 2.522-29.133 2.522h-25.212v68.912h27.453c8.964 0 17.555 0.653 25.772 1.96s15.593 3.735 22.13 7.284c6.536 3.549 11.766 8.311 15.687 14.286s5.882 13.82 5.882 23.531c0 14.193-5.042 25.024-15.127 32.495s-21.664 11.205-34.736 11.205c-13.446 0-25.118-4.015-35.017-12.046s-16.341-18.769-19.329-32.215l-87.4 20.169c4.856 16.808 12.139 31.468 21.85 43.981s21.197 22.971 34.456 31.375c13.26 8.404 27.733 14.753 43.421 19.049s31.748 6.443 48.183 6.443c17.555 0 34.643-2.241 51.264-6.723s31.468-11.391 44.541-20.73c13.073-9.338 23.624-21.010 31.655-35.017s12.046-30.534 12.046-49.583c0-22.037-6.256-40.619-18.769-55.746s-28.48-25.305-47.902-30.534v-1.68c11.205-2.615 21.477-6.816 30.815-12.606s17.368-12.699 24.091-20.73c6.723-8.031 11.953-16.995 15.687-26.893s5.602-20.449 5.602-31.655zM993.517 603.174c0-22.411-4.109-42.579-12.326-60.508s-19.422-33.055-33.615-45.381c-14.193-12.326-30.814-21.757-49.863-28.293s-39.218-9.804-60.508-9.804c-21.664 0-41.926 3.268-60.788 9.804s-35.39 15.967-49.583 28.293c-14.193 12.326-25.399 27.266-33.615 44.821s-12.326 37.164-12.326 58.827c0 23.531 4.109 44.914 12.326 64.15s18.862 38.751 31.935 58.547l95.804 142.866h113.733l-97.485-135.583-1.68-2.802c3.735 1.494 8.217 2.615 13.446 3.362s10.084 1.12 14.567 1.12c17.182 0 33.708-3.082 49.583-9.244s29.694-14.94 41.459-26.332c11.766-11.392 21.197-25.024 28.293-40.899s10.645-33.522 10.645-52.945zM899.393 600.934c0 17.928-5.602 32.775-16.808 44.541s-26.146 17.648-44.821 17.648c-18.675 0-33.802-5.789-45.381-17.368s-17.368-26.706-17.368-45.381c0-17.182 5.602-31.935 16.808-44.261s26.332-18.489 45.381-18.489c18.675 0 33.708 5.789 45.101 17.368s17.088 26.892 17.088 45.941zM1354.885 669.285c0-28.013-2.802-54.719-8.404-80.118s-14.566-47.715-26.893-66.951c-12.326-19.235-28.293-34.55-47.902-45.941s-43.42-17.088-71.433-17.088c-28.013 0-51.917 5.696-71.714 17.088s-35.95 26.706-48.463 45.941c-12.513 19.235-21.57 41.552-27.173 66.951s-8.404 52.104-8.404 80.118c0 28.013 2.802 54.625 8.404 79.836s14.66 47.248 27.173 66.11c12.513 18.862 28.666 33.895 48.463 45.101s43.701 16.808 71.714 16.808c28.013 0 51.824-5.602 71.433-16.808s35.577-26.239 47.902-45.101c12.326-18.862 21.29-40.899 26.893-66.11s8.404-51.824 8.404-79.836zM1258.52 669.285c0 12.326-0.747 25.959-2.241 40.899s-4.295 28.853-8.404 41.739c-4.109 12.886-9.991 23.717-17.648 32.495s-17.648 13.166-29.974 13.166c-12.326 0-22.41-4.389-30.254-13.166s-13.913-19.609-18.208-32.495c-4.295-12.886-7.19-26.799-8.684-41.739s-2.241-28.573-2.241-40.899c0-12.699 0.747-26.612 2.241-41.739s4.389-29.133 8.684-42.019c4.295-12.886 10.364-23.717 18.208-32.495s17.928-13.166 30.254-13.166c12.326 0 22.317 4.389 29.974 13.166s13.54 19.609 17.648 32.495c4.109 12.886 6.91 26.892 8.404 42.019s2.241 29.040 2.241 41.739zM806.447 37.122c-450.221 12.097-806.447 168.86-806.447 360.469 0 82.646 66.274 158.81 177.777 219.678l16.593-26.013c-76.438-45.42-120.651-99.183-120.651-156.806 0-156.474 326.023-284.482 737.984-294.271l-5.255-103.057zM964.285 38.86c428.381 21.091 760.725 173.657 760.725 358.732 0 82.582-66.17 158.692-177.519 219.536l-17.33-25.587c76.732-45.48 121.131-99.347 121.131-157.090 0-149.961-299.449-273.777-687.006-292.441v-103.15zM751.927 233.934v-279.562l192.87 139.781z" />
<glyph unicode="&#xe914;" glyph-name="cd_call" d="M206.162 516.834c84.068-162.064 212.95-290.947 370.234-372.751l129.518 122.478c10.255 10.226 24.406 16.549 40.035 16.549 6.45 0 12.648-1.076 18.424-3.061 60.095-20.444 129.777-32.313 202.233-32.313 0.205 0 0.409 0 0.614 0 31.282 0 56.668-25.385 56.668-56.7v-198.337c0-31.315-25.385-56.7-56.7-56.7-534.076 0.259-966.945 433.207-967.073 967.288 0 31.327 25.385 56.712 56.7 56.712h199.357c31.315 0 56.7-25.385 56.7-56.7 0-0.307-0.001-0.67-0.001-1.033 0-72.299 11.87-141.825 33.767-206.736 0.408-0.65 1.413-6.646 1.413-12.876 0-15.925-6.565-30.316-17.136-40.616z" />
<glyph unicode="&#xe915;" glyph-name="big-saving" d="M886.218 448.010l108.006 132.942c5.744 7.078 7.519 16.589 4.712 25.269-2.829 8.681-9.844 15.329-18.654 17.685l-165.526 44.062 9.23 171.034c0.495 9.111-3.668 17.847-11.037 23.204-7.391 5.369-16.986 6.615-25.484 3.335l-159.814-61.63-93.052 143.807c-4.97 7.649-13.469 12.274-22.59 12.274s-17.621-4.626-22.58-12.285l-93.052-143.807-159.814 61.63c-8.499 3.281-18.105 2.022-25.484-3.335-7.379-5.369-11.533-14.103-11.037-23.204l9.23-171.034-165.526-44.062c-8.81-2.345-15.835-9.004-18.654-17.685-2.819-8.67-1.044-18.181 4.701-25.269l108.016-132.931-108.016-132.942c-5.744-7.078-7.519-16.589-4.712-25.269 2.829-8.681 9.844-15.329 18.654-17.685l165.526-44.062-9.23-171.034c-0.495-9.111 3.668-17.847 11.037-23.204 7.401-5.379 16.997-6.615 25.484-3.335l159.814 61.63 93.052-143.807c4.959-7.659 13.458-12.285 22.58-12.285s17.621 4.626 22.58 12.285l93.052 143.807 159.814-61.63c8.487-3.281 18.094-2.022 25.484 3.335 7.379 5.369 11.533 14.103 11.037 23.204l-9.23 171.034 165.526 44.062c8.81 2.345 15.835 9.004 18.654 17.685 2.819 8.67 1.044 18.181-4.712 25.269l-107.985 132.942zM779.794 274.415c-12.307-3.281-20.622-14.727-19.934-27.442l8.176-151.359-141.419 54.541c-11.877 4.561-25.323 0.215-32.251-10.478l-82.36-127.251-82.349 127.262c-5.077 7.842-13.673 12.285-22.59 12.285-3.227 0-6.498-0.591-9.661-1.808l-141.429-54.551 8.176 151.359c0.688 12.715-7.627 24.161-19.934 27.442l-146.485 38.985 95.592 117.644c8.025 9.886 8.025 24.044 0 33.919l-95.592 117.644 146.485 38.996c12.307 3.281 20.622 14.727 19.934 27.442l-8.176 151.359 141.419-54.541c11.877-4.593 25.334-0.204 32.251 10.478l82.36 127.251 82.349-127.262c6.906-10.682 20.343-15.061 32.251-10.478l141.419 54.541-8.176-151.359c-0.688-12.715 7.627-24.161 19.934-27.442l146.485-38.996-95.581-117.644c-8.025-9.875-8.025-24.032 0-33.907l95.581-117.655-146.475-38.975zM682.19 613.483l-373.255-288.377c-11.758-9.080-13.92-25.98-4.841-37.727 5.303-6.864 13.253-10.456 21.3-10.456 5.734 0 11.521 1.829 16.416 5.604l373.255 288.389c11.758 9.080 13.92 25.98 4.841 37.727-9.068 11.737-25.947 13.931-37.716 4.841zM432.83 509.112c25.152 0 48.786 9.801 66.568 27.572 36.705 36.705 36.705 96.42 0 133.114-17.771 17.782-41.416 27.572-66.557 27.572s-48.786-9.789-66.568-27.572c-36.705-36.705-36.705-96.409 0-133.114 17.771-17.771 41.416-27.572 66.557-27.572zM404.301 631.771c7.627 7.616 17.75 11.823 28.529 11.823 10.769 0 20.902-4.195 28.519-11.823 15.728-15.717 15.728-41.319 0-57.047-15.244-15.232-41.793-15.254-57.058 0-15.717 15.728-15.717 41.319 0.011 57.047zM591.181 386.907c-25.14 0-48.786-9.801-66.568-27.572-36.705-36.705-36.705-96.42 0-133.114 17.771-17.782 41.416-27.572 66.568-27.572 25.14 0 48.774 9.789 66.557 27.572 36.694 36.705 36.694 96.42 0 133.114-17.771 17.771-41.416 27.572-66.557 27.572zM619.711 264.239c-15.232-15.244-41.825-15.232-57.058 0-15.728 15.717-15.728 41.319 0 57.047 7.627 7.616 17.75 11.823 28.529 11.823 10.769 0 20.891-4.195 28.519-11.823 15.738-15.717 15.738-41.309 0.011-57.047z" />
<glyph unicode="&#xe916;" glyph-name="share" d="M812.852 302.139c-59.187 0-111.964-28.065-145.725-71.44l-282.691 157.125c6.624 18.923 10.257 39.335 10.257 60.384 0 21.262-3.633 41.461-10.47 60.596l282.476 156.913c33.547-43.587 86.538-71.865 145.939-71.865 101.281 0 183.973 82.071 183.973 183.064s-82.478 183.064-183.973 183.064c-101.494 0-183.973-82.071-183.973-183.064 0-21.262 3.633-41.673 10.47-60.596l-282.263-156.913c-33.547 43.8-86.538 71.865-145.939 71.865-101.281 0-183.973-82.071-183.973-183.064s82.692-183.064 184.187-183.064c59.401 0 112.393 28.279 146.152 72.078l282.476-157.125c-6.837-19.136-10.683-39.759-10.683-61.021 0-100.781 82.478-183.064 183.973-183.064s183.973 82.071 183.973 183.064c0 100.994-82.692 183.064-184.187 183.064zM808.413 906.088c74.32 0 134.734-60.414 134.734-134.734s-60.414-134.734-134.734-134.734c-74.32 0-134.734 60.414-134.734 134.734s60.641 134.734 134.734 134.734zM215.587 313.262c-74.32 0-134.734 60.414-134.734 134.734s60.414 134.734 134.734 134.734c74.32 0 134.734-60.414 134.734-134.734s-60.641-134.734-134.734-134.734zM808.413-10.097c-74.32 0-134.734 60.414-134.734 134.734s60.414 134.734 134.734 134.734c74.32 0 134.734-60.414 134.734-134.734s-60.414-134.734-134.734-134.734z" />
<glyph unicode="&#xe917;" glyph-name="info" d="M562.447 601.856v103.382h-100.92v-103.382h100.92zM562.447 190.788v307.685h-100.92v-307.685h100.92zM511.987 960.001c93.537 0 180.098-23.384 259.686-70.152 77.127-44.306 137.842-105.023 182.15-182.15 46.769-79.588 70.152-166.15 70.152-259.686s-23.384-180.098-70.152-259.686c-44.306-77.127-105.023-137.842-182.15-182.15-79.588-46.769-166.15-70.152-259.686-70.152s-180.098 23.384-259.686 70.152c-77.127 45.127-137.842 106.254-182.15 183.381-46.769 79.588-70.152 165.74-70.152 258.455s23.384 178.867 70.152 258.455c45.127 77.127 106.254 138.252 183.381 183.381 79.588 46.769 165.74 70.152 258.455 70.152z" />
<glyph unicode="&#xe918;" glyph-name="next" d="M0.024 510.85v-125.695h778.703l-357.161-358.694 90.44-90.44 511.982 511.982-511.982 511.982-90.44-90.44 357.161-358.694z" />
<glyph unicode="&#xe919;" glyph-name="cd_most-viewed-Model" d="M511.103 660.321c-118.361 0-215.201-95.744-215.201-212.765s96.841-212.765 215.201-212.765c118.361 0 215.201 95.744 215.201 212.765s-96.841 212.765-215.201 212.765zM511.103 270.253c-98.634 0-179.335 79.787-179.335 177.303s80.701 177.303 179.335 177.303c98.634 0 179.335-79.787 179.335-177.303s-80.701-177.303-179.335-177.303zM453.715 571.67c-8.070-3.546-14.346-7.978-19.727-11.524-8.070-5.32-10.76-16.844-5.381-24.822 3.586-5.32 8.967-7.978 15.243-7.978 3.586 0 7.174 0.886 9.864 2.66 4.483 3.546 8.967 6.206 14.346 7.978 8.967 3.546 13.45 14.184 8.967 23.050-3.586 10.638-14.346 15.072-23.313 10.638zM408.882 447.556c0 16.844 4.483 34.574 14.346 50.531 4.483 8.866 1.793 19.504-7.174 23.936s-19.727 1.774-24.21-7.092c-11.657-21.276-17.934-45.213-17.934-68.263 0-33.688 10.76-63.829 32.28-87.765 3.586-4.432 8.967-6.206 13.45-6.206s8.070 1.774 11.657 4.432c7.174 6.206 8.070 17.73 1.793 24.822-16.141 18.618-24.21 40.78-24.21 65.603zM989.030 514.045c-207.132 219.857-387.364 252.658-477.030 252.658s-269.898-32.801-477.030-252.658c-34.97-37.234-34.97-95.744 0-132.092 89.667-94.858 270.796-252.658 477.030-252.658 89.667 0 269.898 32.801 477.030 252.658 34.97 36.347 34.97 94.858 0 132.092zM962.129 405.891c-204.441-218.084-382.879-242.020-450.129-242.020-191.888 0-364.945 151.595-450.129 242.020-22.417 23.050-22.417 60.283 0 84.219 204.441 217.197 382.879 241.133 450.129 241.133s245.688-23.936 450.129-242.020c22.417-23.050 22.417-60.283 0-83.333z" />
<glyph unicode="&#xe91a;" glyph-name="cd_facebook" d="M107.788 960h808.409c59.529 0 107.787-48.258 107.787-107.787v-808.409c0-59.529-48.258-107.787-107.787-107.787h-808.409c-59.529 0-107.787 48.258-107.787 107.787v808.409c0 59.529 48.258 107.787 107.787 107.787zM591.406 582.284h55.564v82.081h-65.319v-0.296c-79.143-2.803-95.366-47.292-96.794-94.018h-0.162v-40.986h-53.894v-80.383h53.894v-215.468h81.218v215.468h66.532l12.854 80.383h-79.359v24.765c0 15.791 10.509 28.456 25.465 28.456z" />
<glyph unicode="&#xe91b;" glyph-name="cd_home" d="M1023.999 425.682l-511.999 478.741-511.999-478.741h157.976v-434.105h252.936v249.874h201.299v-249.874h256.438v434.105h155.351z" />
<glyph unicode="&#xe91c;" glyph-name="cd-feel-tha-car" d="M349.014 530.073c-51.176 28.946-85.627 83.159-85.627 145.257 0 92.535 76.497 167.516 170.846 167.516s170.801-74.982 170.801-167.516c0-63.498-36-118.752-89.080-147.176v-55.759c11.357 5.658 24.167 8.866 37.748 8.866 33.979 0 63.232-20.004 76.27-48.562 12.991 8.154 28.437 12.876 44.971 12.876 33.933 0 63.232-19.96 76.225-48.606 13.038 8.198 28.437 12.965 44.971 12.965 46.016 0 83.493-36.755 83.493-81.887v-93.114c-0.272-60.502-10.085-139.627-84.219-214.92-0.681-0.668-1.363-1.337-2.044-1.96-25.666-23.079-54.965-41.745-87.082-55.511-0.091-0.044-0.181-0.089-0.272-0.134-36.885-17.509-74.862-26.376-112.746-26.376-11.221 0-22.622 0.758-33.797 2.317-107.613 14.969-177.478 95.788-202.554 129.825-0.227 0.312-0.455 0.624-0.681 0.936l-1 1.471-0.681 0.98c-26.984 38.047-52.058 82.779-74.634 132.988-0.091 0.223-0.181 0.445-0.318 0.624-5.77 13.5-12.31 29.717-22.214 54.353l-5.087 12.564c-21.214 54.71-29.164 90.975-25.757 117.439 1.226 9.936 4.134 19.068 8.631 27.177 0.681 1.292 1.408 2.495 2.226 3.654 0.091 0.134 0.136 0.267 0.227 0.401 10.993 16.574 29.345 27.088 50.331 28.826 0.227 0 0.5 0 0.772 0.044 1.363 0.089 2.771 0.134 4.134 0.134 0.772 0 1.499 0 2.272-0.044 1.272-0.044 2.544-0.134 3.816-0.223 0.5-0.044 1-0.089 1.499-0.178 12.538-1.425 30.935-7.218 47.924-27.356 0.227-0.267 0.455-0.535 0.636-0.802v108.913zM244.579 522.082l-33.611-28.357c-42.759 50.682-66.597 114.386-66.597 181.605 0 157.31 129.869 284.666 289.863 284.666 159.955 0 289.818-127.365 289.818-284.666 0-59.352-18.53-115.976-52.527-163.511l-35.767 25.582c28.711 40.142 44.32 87.843 44.32 137.929 0 132.822-109.985 240.693-245.843 240.693-135.897 0-245.888-107.864-245.888-240.693 0-56.718 20.093-110.411 56.234-153.249zM467.93 668.821c0 19.693-16.313 35.686-36.352 35.686s-36.398-15.995-36.443-35.686v-354.279c0 0 0-32.211-11.724-32.211-5.044 0-12.269 5.97-22.585 22.989l-8.998 15.905c-2.499 4.456-4.908 8.643-7.134 12.698l-20.676 36.532c-5.044 8.554-9.27 14.969-13.269 19.826-5.589 6.594-11.224 9.89-18.086 10.603-0.273 0-0.545 0-1.726-0.044-5.771-0.445-11.588-3.074-15.314-8.777-1.636-2.896-2.771-6.46-3.318-10.782-2.318-18.222 5.18-49.408 23.039-95.475 12.587-31.187 20.222-50.299 26.675-65.313 16.405-36.399 39.852-82.332 70.252-125.236 0.636-0.892 1.226-1.782 1.863-2.718 35.807-48.606 96.064-100.688 171.087-111.112 8.815-1.247 17.905-1.872 27.129-1.872 29.083 0 60.028 6.46 93.201 22.187 27.584 11.718 53.257 28.024 75.16 47.67 66.435 67.497 70.797 137.889 70.98 183.064v92.891c0 19.693-16.313 35.686-36.352 35.686s-36.352-15.995-36.352-35.686c0-13.099-10.906-23.746-24.266-23.746s-24.266 10.648-24.266 23.746v35.686c0 19.647-16.313 35.641-36.352 35.641-20.086 0-36.398-15.995-36.398-35.641 0-13.143-10.861-23.791-24.266-23.791-13.359 0-24.221 10.648-24.221 23.791v35.641c0 19.693-16.313 35.686-36.398 35.686-20.040 0-36.352-15.995-36.352-35.686 0-13.099-10.906-23.791-24.266-23.791-13.406 0-24.266 10.693-24.266 23.791v272.124z" />
<glyph unicode="&#xe91d;" glyph-name="cd-download" d="M991.399 219.934l-97.742-97.742h-744.704l-111.706 111.706-37.235-37.235 125.669-121.014h786.594l111.706 111.706zM730.752 429.382l-27.926 37.235-172.213-153.595v507.33h-46.544v-507.33l-172.213 153.595-27.926-37.235 223.411-200.139z" />
<glyph unicode="&#xe91e;" glyph-name="cd-color" d="M982.404 352.449l-528.537-288.19 461.826 421.728c23.627 21.546 37.43 50.997 38.848 83.031 0.067 0.398-0.012 0.795-0.013 1.218l59.76-109.603c21.008-38.592 6.739-87.122-31.885-108.184v0zM893.818 628.2l-84.21 92.187c0.085-0.409 0.319-0.806 0.407-1.206 6.2-31.41-0.179-63.342-17.933-89.886l-347.913-519.718 444.539 405.98c32.514 29.632 34.743 80.194 5.109 112.642v0zM758.767 651.596c24.477 36.543 14.637 86.154-21.834 110.582l-103.809 69.475c13.437-28.044 16.165-61.198 4.712-92.662l-213.918-587.734 334.848 500.339zM600.149 752.709l-265.509-729.478c-15.026-41.285-60.853-62.654-102.138-47.628l-180.020 65.521c-41.285 15.026-62.693 60.867-47.667 102.151l265.509 729.478c15.033 41.305 60.896 62.682 102.191 47.653l180.020-65.521c41.285-15.026 62.646-60.872 47.613-102.176v0zM358.692 276.609l-209.391 76.212-84.248-231.468c-2.944-8.090 1.208-17.081 9.346-20.044l180.020-65.521c8.090-2.944 17.090 1.26 20.034 9.351l84.238 231.471zM226.101 74.447c16.612-6.047 34.991 2.548 41.020 19.111 6.054 16.631-2.519 34.98-19.131 41.027-16.592 6.039-34.95-2.497-41.007-19.139-6.038-16.56 2.517-34.957 19.119-41v0z" />
<glyph unicode="&#xe91f;" glyph-name="cd_mail" d="M645.109 426.847l378.89-276.556v593.42zM988.165 134.307l-369.682 270.258-96.297-80.486c-2.997-2.259-7.080-4.344-10.164-4.344-3.041 0-7.167 0.912-10.164 4.344l-96.297 80.486-369.682-270.258h952.287zM378.934 426.847l-378.934 316.864v-593.42zM512.021 360.086l481.269 401.608h-962.495z" />
<glyph unicode="&#xe920;" glyph-name="cd-video-play" d="M358.411 703.982l307.178-179.187-307.178-179.187v358.375zM972.768 908.768c30.718 0 51.197-20.479 51.197-51.197v-819.143c0-30.718-20.479-51.197-51.197-51.197h-921.535c-30.718 0-51.197 20.479-51.197 51.197v819.143c0 30.718 20.479 51.197 51.197 51.197h921.535zM51.232 192.018h563.16v51.197h102.392v-51.197h255.982v665.554h-921.535v-665.554zM614.392 89.625v51.197h-563.16v-102.392h921.535v102.392h-255.982v-51.197h-102.392z" />
<glyph unicode="&#xe921;" glyph-name="cd_mobile-app" d="M178.344 960v-1024h667.311v1024zM537.666 26.378h-51.332v100.908h51.332zM725.443 180.373h-427.324v655.465h427.324z" />
<glyph unicode="&#xe922;" glyph-name="cd_my-account" d="M512 333.222c-105.505 0-203.754 42.782-274.971 115.411l-161.651-253.465 434.965-205.92 438.211 206.039-161.586 253.347c-71.217-72.629-169.465-115.411-274.971-115.411zM1014.963 173.305l-504.688-237.296-501.238 237.296 219.88 362.117c60.048-92.71 164.401-154.051 283.081-154.051s223.034 61.342 283.081 154.051l219.88-362.117zM779.387 261.869c0-39.886-32.335-72.22-72.22-72.22s-72.22 32.335-72.22 72.22c0 39.886 32.335 72.22 72.22 72.22s72.22-32.335 72.22-72.22zM502.543 502.602c113.011 0 204.624 91.614 204.624 204.624s-91.614 204.624-204.624 204.624c-113.011 0-204.624-91.614-204.624-204.624s91.614-204.624 204.624-204.624zM502.543 454.455c-139.602 0-252.771 113.169-252.771 252.771s113.169 252.771 252.771 252.771c139.602 0 252.771-113.169 252.771-252.771s-113.169-252.771-252.771-252.771z" />
<glyph unicode="&#xe923;" glyph-name="dimension" d="M982.661 260.98c-3.469 8.362-13.061 12.332-21.426 8.869-8.358-3.468-12.325-13.057-8.858-21.426l23.937-57.738-104.172 43.108-5.37 8.034v373.891c0 6.894-4.305 13.045-10.783 15.405l-328.566 119.696v109.235l44.2-44.204c3.122-3.122 7.263-4.801 11.596-4.801 4.323 0 8.468 1.682 11.59 4.799 6.402 6.404 6.402 16.779 0.001 23.179l-72.185 72.183c-6.406 6.404-16.778 6.404-23.18 0.001l-72.189-72.184c-6.4-6.4-6.4-16.775-0.001-23.177 6.402-6.4 16.786-6.401 23.188-0.001l44.199 44.206v-109.236l-328.565-119.699c-6.476-2.358-10.782-8.512-10.782-15.405v-373.888l-5.37-8.034-104.172-43.108 23.937 57.74c3.469 8.367-0.5 17.957-8.857 21.424-8.375 3.469-17.957-0.499-21.426-8.865l-39.095-94.302c-1.665-4.011-1.667-8.527-0.005-12.542 1.667-4.020 4.858-7.212 8.875-8.875l94.307-39.093c2.019-0.838 4.134-1.255 6.261-1.255 6.579 0 12.59 3.939 15.152 10.128 3.467 8.357-0.501 17.947-8.866 21.416l-57.742 23.937 109.6 45.362 6.3 0.136 330.917-120.559c3.156-0.795 4.153-0.967 5.010-1.049 2.676 0.072 3.683 0.245 4.731 0.486 0.638 0.147 111.643 40.52 333.016 121.121l6.3-0.136 109.6-45.362-57.744-23.935c-8.362-3.469-12.33-13.057-8.866-21.42 2.562-6.184 8.573-10.124 15.15-10.124 2.129 0 4.242 0.417 6.266 1.257l94.307 39.093c4.014 1.663 7.205 4.854 8.871 8.869 1.664 4.021 1.664 8.538 0 12.552l-39.093 94.294zM215.625 225.672l279.013 113.136v-214.772l-279.013 101.636zM188.076 250.4v339.528l306.562-123.728v-92.064l-306.562-123.736zM477.252 691.082v0zM215.478 614.223l279.16 101.698v-214.377l-279.16 112.677zM544.81 527.314v0zM806.586 614.223l-279.163-112.677v214.377l279.163-101.698zM758.020 226.542v0zM527.422 338.809l279.013-113.136-279.013-101.636v214.772zM825.289 254.59l-3.253 0.632-294.612 118.914v92.062l306.565 123.728v-335.335h-8.699z" />
<glyph unicode="&#xe924;" glyph-name="entertainment" d="M499.219 49.262c-6.265-0.26-12.753-0.389-19.26-0.389-242.892 0-440.5 197.606-440.5 440.5s197.606 440.5 440.5 440.5c242.892 0 440.481-197.606 440.481-440.5 0-7.822 6.358-14.18 14.18-14.18 7.841 0 14.18 6.358 14.18 14.18 0 0.815-0.019 1.631-0.019 2.465l0.093 0.019c0 0-0.036 0.315-0.111 0.76-0.538 80.099-21.244 155.489-57.354 221.334-3.837 8.453-7.879 16.313-12.068 23.412-4.561 7.675-5.486 20.002-3.151 28.843 8.528 32.051 19.668 63.416 28.843 95.318 8.843 30.604-2.559 43.229-33.608 36.907-31.661-6.452-63.287-13.402-94.391-22.078-15.961-4.448-27.732-2.132-41.857 6.841-130.669 83.028-269.882 98.599-415.603 47.307-4.986-1.761-9.881-3.893-14.737-6.228-24.358-9.843-47.715-21.689-69.866-35.295-5.765-1.742-11.549-2.929-17.407-3.244-35.925-1.965-72.962 21.577-110 32.274-26.694 7.675-39.613-5.171-33.961-32.978 6.766-33.423 16.016-66.382 22.153-99.896 1.965-10.751 0.834-24.803-4.671-33.757-0.927-1.483-1.78-2.984-2.67-4.486-48.809-73.963-77.263-162.479-77.263-257.519 0-92.5 26.935-178.773 73.333-251.494 1.446-7.007 1.372-14.737-0.278-20.966-9.658-36.388-21.54-72.166-31.365-104.161 0.204-27.379 14.459-31.68 32.793-27.843 34.257 7.173 68.105 16.443 102.511 22.727 6.192 1.149 13.495 1.057 20.298-0.26 76.669-54.666 170.431-86.865 271.552-86.865 6.914 0 13.791 0.166 20.483 0.445 7.822 0.353 13.884 6.933 13.55 14.756-0.37 7.841-7.081 13.921-14.812 13.55zM358.132 489.372c0-67.197 54.666-121.864 121.845-121.864 67.197 0 121.845 54.666 121.845 121.864 0 67.179-54.629 121.826-121.845 121.826-67.197 0-121.845-54.648-121.845-121.826zM573.459 489.372c0-51.57-41.931-93.502-93.483-93.502s-93.483 41.949-93.483 93.502c0 51.551 41.931 93.483 93.483 93.483s93.483-41.931 93.483-93.483zM695.879 489.372c0-7.822 6.358-14.18 14.18-14.18 7.841 0 14.18 6.358 14.18 14.18 0 134.691-109.573 244.264-244.264 244.264s-244.264-109.573-244.264-244.264c0-134.691 109.592-244.264 244.264-244.264 50.532 0 99.007 15.275 140.215 44.229 6.414 4.505 7.952 13.329 3.467 19.742-4.505 6.395-13.329 7.952-19.742 3.467-36.407-25.582-79.247-39.077-123.921-39.077-119.064 0-215.921 96.857-215.921 215.921 0 119.046 96.857 215.921 215.921 215.921 119.046-0.019 215.885-96.894 215.885-215.94zM1019.111 416.168c-3.095 2.706-7.173 3.912-11.253 3.374l-293.239-40.392c-7.007-0.964-12.234-6.971-12.234-14.033v-293.424c-13.829 9.881-31.587 15.46-50.903 15.46-9.324 0-19-1.279-28.77-4.004-48.011-13.329-76.892-55.204-65.77-95.337 8.879-31.976 40.077-51.793 76.707-51.793 9.324 0 19.019 1.298 28.788 4.004 40.17 11.14 66.845 42.265 67.994 75.65 0.204 0.927 0.315 1.91 0.315 2.891v215.161l264.896 36.499v-151.856c-13.346 9.194-30.364 14.31-48.845 14.31-9.268 0-18.926-1.279-28.622-3.967-47.177-13.106-75.687-53.795-64.899-92.668 8.564-30.864 38.947-49.939 74.705-49.939 9.287 0 18.926 1.298 28.641 3.986 38.687 10.734 64.769 40.022 66.975 71.647 0.241 1.057 0.389 2.076 0.389 3.17v340.584c-0.019 4.097-1.798 7.99-4.875 10.677zM654.838-32.672c-7.081-1.946-14.237-2.948-21.206-2.948-24.784 0-44.155 12.179-49.383 31.032-6.896 24.821 13.329 51.366 46.028 60.432 7.081 1.965 14.218 2.984 21.187 2.984 24.784 0 44.174-12.197 49.42-31.068 6.858-24.821-13.365-51.366-46.046-60.432zM730.711 262.328v90.424l264.896 36.482v-90.406l-264.896-36.499zM987.562 43.014c-8.36-11.938-22.040-21.040-38.52-25.599-7.062-1.965-14.144-2.966-21.077-2.966-23.876 0-42.487 11.455-47.399 29.16-3.727 13.476 1.538 24.914 6.618 32.181 8.341 11.919 22.040 21.021 38.539 25.582 7.026 1.965 14.125 2.948 21.040 2.948 23.876 0 42.487-11.455 47.437-29.177 3.708-13.44-1.557-24.877-6.637-32.125z" />
<glyph unicode="&#xe925;" glyph-name="exterior" horiz-adv-x="960" d="M265.464 735.651l-9.078-3.509 36.036-171.082c3.271-13.966 14.664-23.356 28.336-23.356 3.878 0 7.754 0.772 11.412 2.223 26.425 10.291 84.476 16.667 151.475 16.667 67.018 0 125.050-6.395 151.494-16.667l1.176-0.386c2.811-0.753 5.734-1.139 8.6-1.139 13.58 0 25.672 8.251 30.78 21.003l36.477 172.369-8.6 3.694c-68.745 29.55-140.578 44.526-213.495 44.526-72.788 0.019-148.369-14.903-224.613-44.342zM654.157 567.159c-2.094-4.281-6.799-6.67-11.448-5.66-29.586 11.246-88.922 17.954-159.065 17.954-70.693 0-130.434-6.818-159.873-18.266-4.281-1.708-8.011 0.441-9.041 4.833l-31.956 151.732c70.51 26.149 140.21 39.398 207.302 39.398 66.761 0 132.602-13.139 195.854-39.050l-31.772-150.942zM646.512 253.864c-3.657 0-7.332-0.588-10.805-1.801-26.608-8.766-84.862-14.186-152.063-14.186s-125.454 5.439-151.952 14.168c-3.326 1.139-6.763 1.708-10.236 1.708-12.404 0-24.293-7.534-29.604-18.744l-37.211-148.829 9.666-3.509c68.58-24.955 140.21-37.653 212.907-37.653 72.585 0 147.965 12.642 224.043 37.525l10.107 3.308-36.624 147.34c-3.418 12.349-14.774 20.674-28.226 20.674zM477.212 67.878c-66.613 0-132.29 11.044-195.413 32.82l31.148 125.325c1.966 3.161 6.432 6.027 11.485 4.337 29.164-9.629 88.702-15.362 159.193-15.362 70.51 0 130.030 5.734 159.284 15.381 1.213 0.405 2.408 0.624 3.566 0.624 2.499 0 5.421-1.048 6.138-3.638l31.405-126.354c-70.308-21.978-139.843-33.132-206.806-33.132zM294.002 315.148v197.655l-46.272 164.229c-1.323 4.355-5.274 2.904-5.274-1.451v-495.588c0-2.904 3.969-4.355 5.293-1.451l46.272 135.158v1.451h-0.019zM673.287 511.351v-197.636l46.289-135.158c1.305-2.904 5.274-1.451 5.274 1.451v495.57c0 4.355-3.969 5.807-5.274 1.451l-46.289-164.229v-1.451zM954.351 207.997l-148.333 108.052v29.843c0 9.574-7.387 17.329-16.759 18.137v123.8c9.371 0.791 16.759 8.564 16.759 18.137v88.371l132.161-96.291c2.444-1.765 5.274-2.628 8.068-2.628 4.226 0 8.416 1.948 11.099 5.641 4.447 6.119 3.106 14.7-3.014 19.148l-148.333 108.033v29.862c0 9.574-7.387 17.347-16.759 18.137v16.115c0 147.249-120.382 267.612-267.612 267.612h-77.125c-147.249 0-267.612-120.365-267.612-267.612v-16.024c-9.831-0.293-17.733-8.325-17.733-18.23v-29.862l-148.333-108.033c-6.119-4.466-7.479-13.028-3.014-19.148 2.683-3.694 6.873-5.641 11.099-5.641 2.794 0 5.624 0.845 8.049 2.628l132.199 96.291v-88.371c0-9.905 7.902-17.935 17.733-18.23v-123.617c-9.831-0.293-17.733-8.325-17.733-18.23v-29.862l-148.333-108.033c-6.119-4.466-7.479-13.047-3.014-19.166 2.683-3.675 6.873-5.641 11.099-5.641 2.794 0 5.624 0.864 8.049 2.646l132.199 96.273v-88.371c0-9.941 7.902-17.954 17.733-18.247v-9.262c0-127.383 102.852-230.218 230.218-230.218h151.952c127.366 0 230.199 102.852 230.199 230.218v9.371c9.371 0.808 16.759 8.564 16.759 18.137v88.371l132.161-96.273c2.444-1.782 5.274-2.646 8.068-2.646 4.226 0 8.416 1.948 11.099 5.641 4.466 6.119 3.123 14.7-2.995 19.166zM761.804 166.246c0-111.819-90.963-202.8-202.762-202.8h-151.935c-111.819 0-202.8 90.98-202.8 202.8v526.129c0 132.456 107.74 240.195 240.195 240.195h77.125c132.437 0 240.177-107.74 240.177-240.195v-526.129z" />
<glyph unicode="&#xe926;" glyph-name="interior" d="M200.525 408.947l116.26-14.756v187.275l-116.996-22.161-104.287-18.164v-120.165l105.022-12.029zM288.212 426.613l-71.588 9.1v34.486h71.588v-43.586zM288.212 498.789h-71.588v34.633l71.588 13.559v-48.192zM188.035 439.139l-63.941 7.332v70.647l63.941 11.145v-89.125zM709.813 394.19l116.222 14.756 105.022 12.029v120.165l-104.249 18.164-117.014 22.161v-111.286h0.018v-75.989zM738.366 470.199h71.605v-34.504l-71.605-9.082v43.586zM838.543 528.263l63.941-11.145v-70.647l-63.941-7.332v89.125zM738.366 546.981l71.605-13.559v-34.633h-71.605v48.192zM514.229 959.977h-0.276c-281.835-0.147-511.554-230.032-511.554-511.977 0-282.515 229.903-511.977 512.863-511.977h0.276c281.226 0.147 511.093 230.861 510.817 512.769-0.295 281.686-230.236 511.187-512.125 511.187zM766.958 212.698c-25.348 37.893-19.104 71.937 18.035 98.501 40.436 28.922 88.903 38.851 135.271 45.244 19.085 2.634 38.869 4.219 58.029 5.73 3.997 0.295 7.995 0.645 11.957 0.976-15.806-88.848-56.259-171.413-118.084-239.445-39.311 22.659-78.458 49.021-105.206 88.996zM513.954 931.387h0.276c207.779 0 385.475-131.753 453.709-316.008-318.899 83.284-593.237 83.451-906.886 0.442 68.326 183.979 245.562 315.472 452.9 315.565zM50.276 583.327c322.049 88.074 600.753 87.964 928.347-0.35 12.416-42.61 19.104-87.652 19.158-134.203 0.018-19.066-1.125-37.967-3.279-56.629-6.153-0.497-12.305-1.050-18.458-1.512-19.565-1.547-39.772-3.131-59.687-5.877-49.979-6.908-102.48-17.759-147.982-50.292-49.665-35.499-59.079-86.969-25.164-137.629 28.591-42.757 68.326-70.702 108.542-94.32-16.635-16.284-34.246-31.261-52.649-44.84-76.432 77.611-178.506 119.981-288.061 119.134-107.472-0.81-209.879-44.102-281.854-118.784-18.276 13.43-35.701 28.222-52.189 44.304 38.409 22.843 74.424 47.877 102.204 84.538 22.199 29.327 30.912 59.483 25.22 87.301-5.49 26.804-24.188 49.923-54.050 66.927-27.669 15.768-60.46 28.131-94.78 35.775-29.881 6.632-60.663 10.169-90.45 13.595-10.242 1.16-20.742 2.431-31.187 3.739-1.954 17.74-2.985 35.684-2.985 53.793 0 46.958 6.761 92.366 19.307 135.327zM156.552 123.426c-62.303 68.4-102.94 151.684-118.471 241.454 8.014-0.996 15.972-1.916 23.801-2.801 30.378-3.481 59.079-6.798 87.503-13.099 31.574-7.056 61.604-18.348 86.84-32.699 22.492-12.802 36.384-29.365 40.197-47.86 3.997-19.491-2.91-41.762-20.007-64.311-26.159-34.522-61.823-58.396-99.864-80.688zM515.26-35.406c-94.393 0-184.696 26.877-262.197 76.948 66.485 67.129 159.994 105.963 258.163 106.663 99.864 0.847 193.336-37.248 263.911-107.050-76.966-49.794-166.33-76.504-259.599-76.561h-0.276zM514.341 283.788c0.295 0 0.571 0 0.847 0 79.748 0.46 143.173 64.993 142.254 144.72-0.903 77.556-65.25 140.264-143.634 140.264-0.405 0-0.81 0-1.234 0-78.329-0.663-142.16-65.637-141.277-143.874 0.903-78.458 64.531-141.11 143.044-141.11zM432.547 505.826c21.48 21.903 49.997 34.099 80.263 34.375h0.996c62.764 0 114.345-50.236 115.080-112.004 0.387-30.894-11.255-59.926-32.661-81.755-21.442-21.812-50.273-33.915-81.166-34.099h-0.7c-30.433 0-59.060 11.679-80.576 32.919-21.516 21.223-33.563 49.61-33.896 79.97-0.35 30.12 11.238 58.766 32.661 80.595z" />
<glyph unicode="&#xe927;" glyph-name="others" d="M967.248 294.342c54.455-54.67 71.479-136.508 43.374-208.487-2.639-6.762-8.5-11.734-15.586-13.22-7.085-1.488-14.449 0.715-19.569 5.852l-106.553 106.974-67.097-67.355 106.586-107.003c5.112-5.137 7.3-12.509 5.822-19.608-1.476-7.106-6.429-12.99-13.167-15.64-22.661-8.915-46.602-13.42-70.679-13.421-51.178 0-100.506 20.299-137.038 56.974-50.92 51.12-69.287 126.243-48.090 194.985l-139.1 139.643-13.77-13.825 45.735-45.914c5.252-5.273 7.41-12.898 5.704-20.153-1.706-7.257-7.036-13.113-14.090-15.476l-64.736-20.588-104.392-174.56c-1.16-1.945-2.626-3.697-4.34-5.189l-107.233-93.318c-20.523-17.86-47.093-27.408-74.624-27.408-30.357 0-59.503 11.591-80.622 32.792l-61.015 61.255c-41.338 41.5-43.9 111.262-5.719 155.683l90.756 105.582c1.474 1.715 3.211 3.185 5.15 4.365l174.61 104.673 22.348 67.311c2.35 7.077 8.185 12.431 15.432 14.149 7.246 1.7 14.841-0.463 20.1-5.735l45.713-45.893 13.77 13.825-132.064 132.584c-68.486-21.273-143.315-2.828-194.234 48.289-54.453 54.672-71.479 136.51-43.378 208.495 2.639 6.76 8.5 11.731 15.595 13.219 7.095 1.474 14.442-0.722 19.559-5.854l106.557-106.979 67.096 67.359-106.585 106.999c-5.112 5.137-7.3 12.509-5.822 19.608 1.476 7.106 6.429 12.99 13.167 15.64 71.722 28.22 153.252 11.122 207.716-43.551 50.919-51.119 69.286-126.242 48.090-194.985l132.059-132.573 166.739 167.171 60.609 108.829c2.098 3.767 5.279 6.816 9.128 8.75l97.42 48.9c8.262 4.148 18.249 2.523 24.778-4.033l60.892-61.131c6.523-6.551 8.137-16.55 4.014-24.831l-48.713-97.806c-1.927-3.86-4.961-7.050-8.715-9.158l-107.475-60.142-167.463-168.119 139.111-139.658c68.482 21.274 143.313 2.83 194.234-48.289zM118.987 656.908c42.395-42.562 105.869-55.87 161.705-33.904 7.95 3.119 16.977 1.227 23.005-4.824l141.571-142.119 67.092 67.355-141.591 142.144c-6.023 6.049-7.906 15.098-4.799 23.058 21.884 56.071 8.624 119.806-33.778 162.375-33.814 33.946-81.398 49.574-128.126 42.817l95.5-95.873c8.37-8.406 8.37-22.019 0-30.425l-97.424-97.806c-8.379-8.407-21.969-8.41-30.352 0.001l-95.46 95.836c-6.723-46.924 8.847-94.696 42.657-128.639zM349.652 422.608l-13.378-40.293c-1.612-4.854-4.894-8.974-9.259-11.62l-178.508-107.968-88.965-103.497c-23.771-27.653-22.164-71.309 3.575-97.15l61.017-61.257c25.715-25.819 69.196-27.304 96.776-3.296l104.306 90.494 106.262 177.687c2.634 4.402 6.749 7.714 11.606 9.343l40.161 13.438-133.594 134.118zM772.701 682.527c1.395 1.4 2.975 2.6 4.701 3.568l104.14 57.615 39.435 79.176-39.050 39.202-77.022-37.868-59.186-106.273c-0.964-1.732-2.158-3.318-3.552-4.718l-310.674-311.891 30.561-30.68 310.648 311.869zM936.894 263.918c-42.391 42.558-105.86 55.863-161.699 33.905-7.938-3.126-16.976-1.231-23.011 4.822l-148.613 149.196-67.092-67.356 148.636-149.219c6.023-6.049 7.906-15.098 4.799-23.058-21.885-56.068-8.624-119.806 33.778-162.375 33.8-33.934 81.386-49.56 128.124-42.815l-95.499 95.873c-4.020 4.037-6.277 9.507-6.277 15.212s2.258 11.175 6.28 15.212l97.425 97.803c8.381 8.408 21.97 8.407 30.349-0.001l95.458-95.835c6.723 46.924-8.847 94.695-42.661 128.637z" />
<glyph unicode="&#xe928;" glyph-name="performance" d="M512 959.99c-282.299 0-511.99-229.692-511.99-511.99s229.692-511.99 511.99-511.99c282.299 0 511.99 229.692 511.99 511.99s-229.692 511.99-511.99 511.99zM512-21.324c-214.418 0-395.576 144.573-451.426 341.327h303.61c35.542-53.674 90.005-85.332 147.816-85.332 57.812 0 112.275 31.657 147.816 85.332h303.61c-55.85-196.754-237.007-341.327-451.426-341.327zM647.976 362.668c-7.572 0.004-14.58-4.008-18.41-10.538-27.434-46.826-71.38-74.793-117.566-74.793s-90.133 27.967-117.566 74.793c-3.832 6.532-10.838 10.541-18.41 10.538h-325.434c-5.233 28.143-7.881 56.707-7.913 85.332-0.003 258.788 210.533 469.326 469.323 469.326s469.324-210.536 469.324-469.326c-0.032-28.626-2.683-57.188-7.915-85.332h-325.435zM667.581 655.079l-127.016-127.016c-9.145 3.396-18.809 5.179-28.565 5.271-47.127 0-85.332-38.203-85.332-85.333s38.203-85.332 85.332-85.332c46.879-0.237 85.076 37.571 85.314 84.45 0.105 20.718-7.371 40.759-21.018 56.347l121.448 121.447c8.185 8.475 7.952 21.98-0.524 30.166-8.267 7.985-21.372 7.985-29.639 0zM512 405.334c-23.564 0-42.666 19.102-42.666 42.666s19.102 42.666 42.666 42.666c23.564 0 42.666-19.101 42.666-42.666s-19.101-42.666-42.666-42.666zM512 767.994c11.781 0 21.333 9.552 21.333 21.334v85.33c0 11.782-9.552 21.334-21.333 21.334s-21.333-9.552-21.333-21.334v-85.332c0-11.78 9.552-21.332 21.333-21.332zM938.658 469.333h-85.333c-11.781 0-21.333-9.552-21.333-21.333s9.552-21.333 21.333-21.333h85.333c11.781 0 21.333 9.552 21.333 21.333s-9.552 21.333-21.333 21.333zM170.672 469.333h-85.33c-11.782 0-21.334-9.552-21.334-21.333s9.552-21.333 21.334-21.333h85.332c11.78 0 21.332 9.552 21.332 21.333s-9.552 21.333-21.334 21.333zM357.827 757.69l-36.266 62.953c-5.957 10.164-19.028 13.573-29.191 7.616-10.069-5.903-13.525-18.802-7.756-28.95l36.266-62.952c5.824-10.242 18.848-13.824 29.089-8s13.824 18.848 8 29.089c-0.048 0.083-0.093 0.164-0.141 0.244zM892.665 667.528c-5.824 10.241-18.848 13.824-29.090 8-0.081-0.047-0.161-0.095-0.244-0.14l-62.953-36.266c-10.204-5.892-13.698-18.94-7.808-29.141 3.811-6.6 10.852-10.666 18.474-10.666 3.744 0 7.424 0.987 10.666 2.859l62.952 36.265c10.244 5.824 13.826 18.848 8.003 29.090zM223.89 639.043c-0.083 0.048-0.164 0.096-0.248 0.141l-62.953 36.266c-10.164 5.957-23.233 2.548-29.191-7.616s-2.548-23.234 7.616-29.191c0.080-0.048 0.163-0.095 0.244-0.14l62.953-36.266c10.164-5.96 23.233-2.549 29.193 7.615 5.959 10.164 2.551 23.233-7.613 29.191zM731.388 828.379c-10.146 5.769-23.045 2.313-28.949-7.756l-36.266-62.953c-5.891-10.204-2.396-23.249 7.808-29.141 10.204-5.891 23.25-2.396 29.141 7.808l36.266 62.952c5.824 10.242 2.243 23.266-8 29.090z" />
<glyph unicode="&#xe929;" glyph-name="safety" d="M1017.499 922.297c8.633 8.622 8.633 22.59 0.001 31.208-8.644 8.627-22.659 8.627-31.3 0.001l-209.010-208.674-6.097 5.236c-71.93 61.783-163.324 96.352-259.927 96.352-96.191 0-187.222-34.283-259.036-95.605l-6.095-5.204-208.234 207.894c-8.638 8.627-22.658 8.626-31.299-0.001-8.633-8.618-8.633-22.589 0-31.208l208.145-207.807-5.296-6.111c-62.339-71.923-97.248-163.518-97.248-260.359 0-96.429 34.622-187.662 96.503-259.477l5.263-6.108-207.365-207.033c-8.634-8.621-8.634-22.587 0-31.208 4.211-4.205 9.81-6.472 15.648-6.472s11.438 2.267 15.648 6.472l207.345 207.014 6.097-5.236c71.93-61.783 163.321-96.352 259.92-96.352 97.011 0 188.763 34.854 260.81 97.097l6.1 5.269 208.123-207.792c4.211-4.205 9.81-6.472 15.648-6.472 5.84 0 11.437 2.267 15.648 6.472 8.634 8.619 8.634 22.589 0 31.208l-208.237 207.918 5.231 6.105c61.42 71.692 95.756 162.567 95.756 258.593 0 96.435-34.622 187.669-96.504 259.478l-5.263 6.108 209.028 208.691zM511.165 93.767c-195.651 0-354.813 158.905-354.813 354.252 0 195.345 159.164 354.255 354.813 354.255 195.655 0 354.821-158.907 354.821-354.253s-159.167-354.252-354.821-354.252zM688.377 503.573h-31.7l-0.401 8.256c-2.275 46.744-10.168 80.529-24.8 107.172-23.381 42.574-63.167 64.031-119.476 64.031s-96.092-21.455-119.472-64.031c-14.631-26.64-22.524-60.428-24.797-107.172l-0.401-8.256h-31.7c-12.223 0-22.124-9.887-22.124-22.074v-221.568c0-12.187 9.905-22.074 22.124-22.074h352.751c12.22 0 22.124 9.888 22.124 22.074v221.567c-0.001 12.189-9.903 22.075-22.126 22.075zM357.751 282.005v177.42h308.502v-177.42h-308.502zM511.999 638.885c64.294 0 94.538-33.527 99.883-126.132l0.53-9.178h-200.82l0.53 9.178c5.349 92.606 35.587 126.132 99.877 126.132z" />
<glyph unicode="&#xe92a;" glyph-name="cd_google-plus" d="M107.8 959.985h808.386c59.527 0 107.784-48.257 107.784-107.784v-808.386c0-59.527-48.257-107.784-107.784-107.784h-808.386c-59.527 0-107.784 48.257-107.784 107.784v808.386c0 59.527 48.257 107.784 107.784 107.784zM269.58 442.803c-1.444-69.554 46.474-135.904 112.333-157.538 62.093-20.871 138.402-5.277 179.668 47.881 30.185 37.257 37.011 86.896 33.775 133.301-53.16 0.458-106.317 0.317-159.406 0.215-0.071-18.932 0-37.788 0.105-56.717 31.804-0.88 63.642-0.492 95.482-1.125-8.058-27.547-26.352-53.158-54.109-63.080-53.651-23.64-122.078 7.213-138.929 63.502-20.405 53.861 12.947 118.877 68.005 134.531 34.161 12.032 69.306-1.513 98.541-19.249 14.777 13.825 28.638 28.641 42.253 43.593-33.211 27.759-75.85 44.786-119.685 41.056-86.017-1.025-161.3-80.423-158.033-166.371zM694.71 501.9c-0.176-15.872-0.317-31.77-0.386-47.599-15.936-0.146-31.768-0.207-47.599-0.317v-47.423c15.831-0.071 31.768-0.141 47.599-0.317 0.141-15.831 0.141-31.671 0.317-47.564 15.726 0 31.592 0.070 47.423 0 0.071 15.893 0.141 31.733 0.317 47.635 15.831 0.105 31.733 0.175 47.564 0.246v47.423c-15.831 0.076-31.733 0.173-47.564 0.317-0.115 15.831-0.246 31.73-0.317 47.599h-47.354z" />
<glyph unicode="&#xe92b;" glyph-name="cd_video" d="M512-64c-282.77 0-512 229.23-512 512s229.23 512 512 512c282.77 0 512-229.23 512-512v0c-0.251-282.669-229.331-511.75-511.976-512zM512 893.524c-245.867-0.251-445.084-199.622-445.084-445.523 0-246.056 199.467-445.524 445.524-445.524s445.524 199.467 445.524 445.524c-0.251 246.11-199.819 445.523-445.964 445.523 0 0-0.001 0-0.001 0zM365.4 577.431c0 52.829 37.421 74.401 82.765 47.987l224.082-129.431c20.218-6.948 34.488-25.801 34.488-47.987s-14.27-41.038-34.132-47.879l-224.438-128.216c-44.024-26.414-82.765-4.842-82.765 47.987z" />
<glyph unicode="&#xe92c;" glyph-name="suspension" d="M953.369 483.311h-105.928v35.315c29.212 0.056 52.963 23.788 52.963 52.958 0 13.571-5.186 25.927-13.625 35.308 8.44 9.382 13.625 21.738 13.625 35.309s-5.186 25.927-13.625 35.308c8.44 9.382 13.625 21.738 13.625 35.309s-5.186 25.927-13.625 35.308c8.44 9.382 13.625 21.738 13.625 35.309 0 29.203-23.804 52.963-53.066 52.963h-17.551v26.483c0 34.072-27.798 61.791-61.964 61.791h-17.309c-34.167 0-61.963-27.719-61.963-61.791v-26.48h-17.551c-29.26 0-53.066-23.759-53.066-52.965 0-13.571 5.185-25.927 13.625-35.308-8.44-9.382-13.625-21.738-13.625-35.309s5.185-25.927 13.625-35.309c-8.44-9.381-13.625-21.736-13.625-35.308s5.185-25.927 13.625-35.309c-8.44-9.381-13.625-21.736-13.625-35.308 0-29.17 23.751-52.902 52.963-52.958v-35.315h-176.545v141.236c0 9.75-7.906 17.655-17.655 17.655h-88.273v141.065c0 0.044-0.004 0.088-0.004 0.135 0 0.032-0.003 0.064-0.003 0.096-0.124 58.398-47.553 105.865-105.84 105.865h-176.713c-58.284 0-105.712-47.47-105.836-105.865 0-0.032-0.003-0.064-0.003-0.096 0.003-0.047-0.003-0.091-0.003-0.135v-741.151c0-58.502 47.479-106.096 105.84-106.096h176.713c58.363 0 105.844 47.593 105.844 106.096v105.757h88.273c9.749 0 17.655 7.906 17.655 17.655v141.237h459.018c38.938 0 70.617 31.692 70.617 70.648v35.248c0 38.954-31.679 70.648-70.617 70.648zM353.116 684.823l-85.273-85.273c-6.896-6.896-6.896-18.073 0-24.968 3.444-3.447 7.965-5.169 12.481-5.169s9.038 1.724 12.482 5.169l60.307 60.308v-55.994l-85.273-85.273c-6.896-6.896-6.896-18.073 0-24.97 3.444-3.445 7.966-5.169 12.482-5.169s9.037 1.724 12.481 5.169l60.308 60.308v-55.994l-85.273-85.273c-6.896-6.896-6.896-18.074 0-24.97 3.444-3.445 7.965-5.17 12.481-5.17s9.040 1.724 12.482 5.17l60.307 60.307v-55.994l-85.273-85.273c-6.896-6.896-6.896-18.073 0-24.967 3.444-3.448 7.966-5.172 12.482-5.172s9.040 1.724 12.481 5.172l60.308 60.306v-55.994l-85.273-85.274c-6.896-6.892-6.896-18.074 0-24.964 3.444-3.448 7.965-5.172 12.481-5.172s9.040 1.724 12.482 5.172l60.307 60.307v-55.998l-85.273-85.273c-6.896-6.892-6.896-18.074 0-24.966 3.444-3.448 7.966-5.172 12.482-5.172s9.040 1.724 12.481 5.172l60.308 60.307v-63.139c0-39.032-31.641-70.785-70.536-70.785h-176.713c-38.89 0-70.531 31.753-70.531 70.785v63.139l60.307-60.307c3.444-3.448 7.966-5.172 12.482-5.172s9.037 1.724 12.481 5.172c6.896 6.892 6.896 18.074 0 24.966l-85.273 85.273v55.998l60.308-60.307c3.444-3.448 7.965-5.172 12.481-5.172s9.038 1.724 12.482 5.172c6.896 6.892 6.896 18.074 0 24.964l-85.259 85.277v55.994l60.308-60.308c3.444-3.448 7.965-5.172 12.481-5.172s9.038 1.724 12.482 5.172c6.896 6.893 6.896 18.071 0 24.967l-85.273 85.273v55.994l60.308-60.307c3.444-3.445 7.965-5.17 12.481-5.17s9.037 1.724 12.481 5.17c6.896 6.896 6.896 18.074 0 24.97l-85.273 85.273v55.994l60.308-60.308c3.444-3.445 7.965-5.169 12.481-5.169s9.038 1.724 12.482 5.169c6.896 6.896 6.896 18.074 0 24.97l-85.273 85.273v55.994l60.314-60.307c3.444-3.447 7.965-5.169 12.481-5.169s9.038 1.724 12.482 5.169c6.896 6.896 6.896 18.074 0 24.968l-85.273 85.273v55.991l60.308-60.308c3.444-3.445 7.965-5.169 12.481-5.169s9.037 1.724 12.481 5.169c6.896 6.896 6.896 18.074 0 24.97l-84.909 84.913c3.569 35.699 33.675 63.666 70.171 63.666h176.713c36.501 0 66.607-27.964 70.175-63.666l-84.913-84.913c-6.896-6.896-6.896-18.074 0-24.968 3.444-3.447 7.965-5.17 12.481-5.17s9.038 1.724 12.481 5.17l60.308 60.307v-55.992h0.004zM459.043 465.655v-282.473h-70.617v423.709h70.617v-141.237zM723.859 862.883c0 14.603 11.956 26.48 26.655 26.48h17.309c14.698 0 26.654-11.88 26.654-26.48v-26.48h-70.617v26.48zM671 801.092h176.341c9.956 0 17.758-7.754 17.758-17.655 0-9.734-7.965-17.655-17.758-17.655h-176.341c-9.957 0-17.757 7.753-17.757 17.655 0 9.736 7.964 17.655 17.757 17.655zM671 730.473h176.337c9.957 0 17.757-7.753 17.757-17.655 0-9.736-7.965-17.655-17.757-17.655h-176.337c-9.957 0-17.757 7.754-17.757 17.655 0 9.736 7.964 17.655 17.757 17.655zM671 659.856h176.337c9.957 0 17.757-7.753 17.757-17.655 0-9.736-7.965-17.655-17.757-17.655h-176.337c-9.957 0-17.757 7.753-17.757 17.655 0 9.736 7.964 17.655 17.757 17.655zM653.243 571.585c0 9.736 7.965 17.655 17.757 17.655h176.337c9.957 0 17.757-7.754 17.757-17.655 0-9.734-7.965-17.655-17.757-17.655h-176.337c-9.956 0-17.757 7.753-17.757 17.655zM812.133 518.62v-35.309h-105.928v35.309h105.928zM988.678 377.413c0-19.485-15.839-35.339-35.308-35.339h-459.018v105.928h459.017c19.469 0 35.308-15.853 35.308-35.339v-35.251h0.003z" />
<glyph unicode="&#xe92d;" glyph-name="brake-system" d="M871.825 651.193c0.235 0.199 0.435 0.398 0.652 0.616 19.547 17.174 30.579 40.217 30.253 63.134 0 23.75-11.033 45.942-30.326 60.851-18.080 13.986-42.065 20.942-66.884 19.095-0.182 0-0.344-0.019-0.489-0.036-23.116-1.83-47.264-11.757-70.055-28.75-1.322-0.507-2.608-1.195-3.75-2.047-141.593-106.612-273.549-198.768-452.208-245.651l-53.405 43.713c-7.228 6.123-16.431 9.493-25.906 9.493-11.123 0-21.83-4.674-29.149-12.573l-159.492-163.821c-14.746-15.489-14.746-39.783-0.019-55.235l57.336-60.616c4.565-4.565 10.2-7.953 16.341-9.91 23.080-8.351 31.032-15.689 35.344-21.141 4.529-5.724 7.482-13.388 12.952-27.59 7.101-18.134 17.138-39.294 37.989-59.058 22.446-21.141 53.605-39.51 97.988-57.735 4.927-2.047 10.145-3.116 15.471-3.116 10.579 0 20.561 4.095 27.989 11.413l559.019 538.566c0.091 0.127 0.235 0.254 0.344 0.398zM853.238 672.949c-0.344-0.308-0.67-0.616-0.996-0.96-0.326-0.29-0.598-0.58-0.888-0.852l-558.838-538.439c-3.261-3.207-8.080-4.258-12.609-2.373-40.561 16.667-69.782 33.714-89.293 52.101-16.685 15.816-24.764 32.754-31.068 48.895-6.16 15.942-9.891 25.561-17.083 34.71-7.137 8.967-18.442 19.638-48.369 30.399-0.235 0.091-0.453 0.163-0.688 0.235-1.811 0.561-3.478 1.557-4.547 2.627l-57.101 60.362c-4.221 4.421-4.221 11.395-0.091 15.725l159.601 163.984c2.21 2.373 5.199 3.696 8.442 3.696 1.902 0 4.764-0.471 7.609-2.898l59.184-48.46c3.514-2.881 8.17-3.895 12.573-2.808 186.122 47.318 321.611 141.213 466.465 250.18 1.667 0.598 3.188 1.485 4.51 2.591 19.221 14.801 39.112 23.37 57.608 24.728 0.144 0 0.29 0.019 0.398 0.036 17.627 1.214 34.42-3.605 46.848-13.225 12.246-9.456 19.257-23.406 19.257-38.442 0.199-14.892-7.427-30.127-20.924-41.811zM1019.758 173.622l-269.455 268.060 148.278 148.749c5.58 5.597 5.561 14.638-0.036 20.199-5.58 5.58-14.638 5.561-20.199-0.036l-316.828-317.807c-5.58-5.597-5.58-14.655 0.019-20.199 2.79-2.771 6.431-4.167 10.090-4.167 3.678 0 7.336 1.394 10.145 4.184l148.351 148.84 269.473-268.060c2.771-2.79 6.431-4.167 10.073-4.167 3.659 0 7.336 1.394 10.145 4.203 5.544 5.58 5.525 14.638-0.055 20.199z" />
<glyph unicode="&#xe92e;" glyph-name="general-car" horiz-adv-x="816" d="M804.25 770.162l-174.897 174.897c-9.574 9.574-22.579 14.95-36.147 14.95h-541.997c-28.262 0-51.199-22.937-51.199-51.199v-921.589c0-28.262 22.937-51.199 51.199-51.199h716.792c28.262 0 51.199 22.937 51.199 51.199v746.794c0 13.568-5.376 26.572-14.95 36.147zM51.21-12.78v921.589h511.994v-153.598c0-32 19.2-51.199 51.199-51.199h153.598v-716.792h-716.792zM640.003 473.615h-358.396c-14.131 0-25.6-11.469-25.6-25.6s11.469-25.6 25.6-25.6h358.396c14.131 0 25.6 11.469 25.6 25.6s-11.469 25.6-25.6 25.6zM230.407 448.015c0-28.276-22.923-51.199-51.199-51.199s-51.199 22.923-51.199 51.199c0 28.276 22.923 51.199 51.199 51.199s51.199-22.923 51.199-51.199zM281.607 627.213h230.397c14.131 0 25.6 11.469 25.6 25.6s-11.469 25.6-25.6 25.6h-230.397c-14.131 0-25.6-11.469-25.6-25.6s11.469-25.6 25.6-25.6zM230.407 652.813c0-28.276-22.923-51.199-51.199-51.199s-51.199 22.923-51.199 51.199c0 28.276 22.923 51.199 51.199 51.199s51.199-22.923 51.199-51.199zM640.003 268.817h-358.396c-14.131 0-25.6-11.469-25.6-25.6s11.469-25.6 25.6-25.6h358.396c14.131 0 25.6 11.469 25.6 25.6s-11.469 25.6-25.6 25.6zM230.407 243.217c0-28.276-22.923-51.199-51.199-51.199s-51.199 22.923-51.199 51.199c0 28.276 22.923 51.199 51.199 51.199s51.199-22.923 51.199-51.199z" />
<glyph unicode="&#xe92f;" glyph-name="cd_phone" d="M934.432 54.177c-133.102 202.329-143.98 208.42-148.81 211.902-15.142 7.788-32.895 8.529-48.689 2.175l-6.962-4.351c0 0-14.794-13.097-56.608-43.512-12.226-9.834-27.978-14.184-43.512-12.184-49.995 5.221-107.866 63.527-142.674 107.038l-4.786 6.135c-33.895 39.030-52.997 88.807-53.955 140.499 2.697 17.666 12.662 33.461 27.412 43.512 22.321 15.142 43.424 32.025 63.092 50.473 10.268 13.532 14.228 30.806 10.878 47.428 0 5.221-4.786 17.839-160.122 198.848-9.616 17.187-29.631 25.759-48.733 20.886-5.221 0-20.886-6.527-78.321-74.405-1.305 1.741-168.825-238.009 70.489-555.686l17.839-23.452c145.329-194.541 308.062-232.874 414.231-232.874 39.247-0.609 78.365 5.135 115.74 17.013 29.936 10.704 57.174 27.63 80.062 49.647 9.181 16.578 6.483 37.159-6.571 50.909zM434.092 776.904c11.182-5.613 24.758-1.131 30.415 10.051 0.305 0.653 0.653 1.392 0.914 2.132l55.694 135.321c4.916 12.009-0.827 25.759-12.836 30.676s-25.759-0.827-30.676-12.836v0l-55.694-135.321c-5.004-11.443 0.217-24.802 11.661-29.806 0.174-0.087 0.348-0.131 0.522-0.217zM468.031 731.216c8.79-8.702 22.93-8.702 31.764 0l123.138 121.397c9.137 8.485 9.746 22.8 1.219 31.981-8.485 9.137-22.757 9.746-31.937 1.219-0.435-0.305-0.783-0.653-1-1l-123.181-121.397c-8.92-8.79-9.007-23.105-0.217-31.981 0.087-0.087 0.174-0.131 0.217-0.217zM508.931 689.445c5.308-11.27 18.71-16.142 30.023-10.878l144.024 68.314c10.965 6.005 14.968 19.755 8.963 30.72-5.482 9.964-17.448 14.359-28.109 10.182l-144.894-68.314c-10.921-5.613-15.403-18.971-10.007-30.023z" />
<glyph unicode="&#xe930;" glyph-name="payload-towing" horiz-adv-x="608" d="M549.759 591.104l45.804 109.89c2.547 6.094 3.846 12.638 3.846 19.231v189.809c0 27.572-22.378 49.949-49.949 49.949h-499.498c-27.572 0-49.949-22.378-49.949-49.949v-189.809c0-6.593 1.299-13.136 3.846-19.231l45.804-109.89c7.743-18.582 25.925-30.719 46.103-30.719h204.994c-0.5-3.996-1.049-7.843-1.049-12.488v-38.911c0-64.285 0-115.035 40.21-161.888 23.227-26.923 47.203-54.795 47.203-86.414 0-48.252-42.657-99.9-106.143-99.9-53.547 0-106.143 49.451-106.143 99.9v87.412c0 25.124-16.633 62.437-62.437 62.437-50.4 0-68.681-37.313-68.681-62.437 0-4.995-1.698-10.39-1.399-10.39 0 0 0.051 0 0.051 0.051-18.881-33.117-42.358-74.376-42.358-120.779 0-168.031 151.748-280.968 293.455-280.968 168.681 0 305.943 131.118 305.943 292.256 0 93.806-57.792 143.157-108.791 186.713-45.505 38.862-84.765 72.428-84.765 132.917 0 4.545-0.5 8.542-1.049 12.488h98.9c20.129 0 38.311 12.138 46.054 30.719zM458.202 377.019c48.951-41.858 91.258-77.972 91.258-148.751 0-149.65-132.867-242.307-255.994-242.307-117.582 0-243.506 92.807-243.506 231.018 0 33.166 18.232 65.185 37.113 98.652 1.099 2.598 6.593 16.283 6.593 32.467 0 4.696 2.448 12.488 18.731 12.488 4.196 0 12.038 0 12.488-12.488v-87.412c0-77.023 75.874-149.849 156.094-149.849 93.356 0 156.094 77.472 156.094 149.849 0 50.199-32.867 88.362-62.238 122.428-25.175 29.32-25.175 67.732-25.175 127.323v37.463c0 6.993 0.75 10.989 0.85 12.488 3.147-0.051 5.395-0.998 5.395-12.488 0-83.516 54.346-129.97 102.297-170.879zM95.764 610.335l-45.804 109.89v189.809h499.498v-189.809l-45.804-109.89h-407.89zM424.585 785.159h-249.749c-13.787 0-24.975-11.189-24.975-24.975s11.189-24.975 24.975-24.975h249.749c13.787 0 24.975 11.189 24.975 24.975s-11.189 24.975-24.975 24.975z" />
<glyph unicode="&#xe931;" glyph-name="cd_pencil" d="M633.666 781.377l206.256-206.254-522.091-522.091-206.139 206.254 521.974 522.091zM996.429 831.121l-91.982 91.982c-35.548 35.548-93.27 35.548-128.939 0l-88.11-88.11 206.256-206.256 102.775 102.775c27.571 27.573 27.571 72.037 0 99.609zM3.754-30.62c-3.754-16.893 11.499-32.030 28.394-27.922l229.838 55.726-206.139 206.254-52.093-234.059z" />
<glyph unicode="&#xe932;" glyph-name="cd_twitter" d="M107.788 960h808.409c59.529 0 107.787-48.258 107.787-107.787v-808.409c0-59.529-48.258-107.787-107.787-107.787h-808.409c-59.529 0-107.787 48.258-107.787 107.787v808.409c0 59.529 48.258 107.787 107.787 107.787zM781.463 611.722c-19.811-8.784-41.151-14.737-63.496-17.4 22.831 13.701 40.344 35.357 48.639 61.167-21.382-12.648-45.057-21.865-70.223-26.822-20.171 21.502-48.921 34.915-80.729 34.915-61.082 0-110.566-49.531-110.566-110.561 0-8.662 0.966-17.122 2.859-25.216-91.884 4.63-173.378 48.645-227.899 115.564-9.543-16.352-14.979-35.348-14.979-55.601 0-38.377 19.529-72.24 49.163-92.050-18.119 0.57-35.15 5.557-50.088 13.85v-1.41c0-53.55 38.131-98.245 88.705-108.39-9.261-2.537-19.045-3.915-29.111-3.915-7.128 0-14.052 0.694-20.817 1.982 14.093-43.928 54.921-75.9 103.318-76.784-37.848-29.675-85.522-47.311-137.342-47.311-8.939 0-17.757 0.485-26.374 1.53 48.921-31.367 107.023-49.687 169.475-49.687 203.377 0 314.626 168.507 314.626 314.621 0 4.796-0.12 9.548-0.322 14.3 21.62 15.582 40.342 35.066 55.16 57.216z" />
<glyph unicode="&#xe933;" glyph-name="star-full-empty" d="M1020.651 566.919c-3.35 10.258-12.143 17.586-22.821 19.262l-318.233 45.223-143.205 287.875c-4.815 9.631-14.655 15.702-25.333 15.702v0c-10.678 0-20.518-6.072-25.333-15.912l-141.321-288.713-318.233-47.317c-10.678-1.675-19.471-9.002-22.821-19.262s-0.418-21.565 7.328-28.893l230.929-223.81-53.388-316.977c-1.885-10.678 2.512-21.355 11.305-27.636 4.815-3.559 10.678-5.443 16.54-5.443 4.606 0 9.002 1.047 13.19 3.35l284.107 150.533 284.944-148.858c4.187-2.094 8.584-3.141 12.981-3.141v0c15.493 0 28.264 12.771 28.264 28.264 0 2.303-0.209 4.397-0.838 6.49l-55.063 315.093 229.463 225.066c8.166 7.537 10.887 18.842 7.537 29.102zM733.823 342.69c-6.699-6.49-9.631-15.912-7.956-25.124l47.944-274.895-247.468 129.178c-8.166 4.397-18.006 4.187-26.38 0l-246.631-130.643 46.27 275.314c1.465 9.212-1.465 18.424-8.166 24.914l-200.152 194.29 276.151 41.036c9.212 1.465 17.168 7.119 21.145 15.493l122.687 250.609 124.363-249.98c4.187-8.375 12.143-14.027 21.355-15.493l276.361-39.36-199.524-195.337z" />
<glyph unicode="&#xe934;" glyph-name="star-half-empty" d="M1020.298 564.364c-3.67 11.232-14.698 18.277-33.057 21.132l-307.448 44.702-137.791 278.664c-8.58 16.74-18.579 25.107-30.009 25.107-11.839 0-21.844-8.366-30.006-25.107l-137.805-278.664-307.45-44.702c-18.37-2.857-29.397-9.9-33.067-21.132-3.666-11.232 1.025-23.378 14.087-36.443l222.932-216.804-52.669-306.216c-2.038-13.484-0.817-23.967 3.679-31.537 4.487-7.559 11.433-11.333 20.823-11.333 6.944 0 15.108 2.445 24.498 7.364l274.994 144.544 274.985-144.544c9.389-4.904 17.56-7.364 24.504-7.364 9.398 0 16.35 3.774 20.828 11.333 4.479 7.57 5.704 18.053 3.664 31.537l-52.665 306.216 222.301 216.804c13.48 13.066 18.375 25.212 14.674 36.443zM728.795 367.464l-30.011-28.79 7.358-40.421 36.742-217.424-230.89 121.889v589.78l97.378-197.209 18.361-36.742 40.436-6.126 218.035-31.843-157.41-153.114z" />
<glyph unicode="&#xe935;" glyph-name="star-full-fill" d="M535.812 913.874l128.136-303.275 328.044-28.181c22.752-1.965 32.008-30.353 14.737-45.297l-248.825-215.576 74.565-320.701c5.171-22.287-18.977-39.816-38.523-27.975l-281.919 170.021-281.919-170.021c-19.598-11.79-43.695 5.74-38.523 27.975l74.565 320.701-248.877 215.628c-17.271 14.944-8.067 43.333 14.737 45.297l328.044 28.181 128.136 303.224c8.894 21.097 38.73 21.097 47.624 0z" />
<glyph unicode="&#xe936;" glyph-name="cd_top-selling-model" d="M886.536-62.538c-4.814 0-9.612 1.477-13.694 4.416l-367.609 263.622-367.624-263.622c-7.261-5.229-13.393-5.878-21.305-1.689-7.88 4.205-9.438 12.534-9.438 21.626v905.785c0 53.546 28.551 92.399 77.23 92.399h635.507c50.046 0 97.534-41.45 97.534-92.399v-905.785c0-9.092-8.341-17.421-16.22-21.626-3.463-1.834-10.629-2.728-14.378-2.728zM505.233 259.598c4.783 0 12.964-1.462 17.064-4.416l347.177-246.543v858.96c0 24.094-26.104 43.692-49.871 43.692h-635.507c-25.103 0-29.567-21.951-29.567-43.692v-858.96l340.41 246.543c4.099 2.954 5.498 4.416 10.294 4.416z" />
<glyph unicode="&#xe937;" glyph-name="steering" horiz-adv-x="992" d="M725.633 915.726c-62.216 30.062-128.085 44.268-193.769 44.268-186.245 0-370.618-114.429-463.41-306.528-0.294-0.496-0.514-0.992-0.808-1.468-0.734-1.267-1.395-2.551-2.092-3.799-50.196-89.14-67.649-187.126-57.426-281.166 9.948-98.096 49.425-187.438 109.365-259.013 41.312-50.029 93.086-92.186 153.594-122.413 11.141-5.176 22.335-9.929 33.549-14.279 55.847-22.72 116.944-35.311 180.94-35.311 30.502 0 60.326 2.881 89.25 8.332 0.643 0.11 1.304 0.257 1.927 0.385 4.221 0.789 8.423 1.67 12.627 2.588 2.478 0.55 4.955 1.137 7.396 1.689 3.028 0.734 6.075 1.468 9.084 2.239 3.524 0.899 7.029 1.872 10.498 2.844 0.403 0.11 0.808 0.221 1.211 0.349 43.772 12.406 85.432 31.071 123.79 55.444 2.239 1.395 4.442 2.826 6.625 4.239 1.486 0.992 2.937 1.927 4.405 2.937 80.789 54.123 144.235 132.159 180.189 223.941 122.341 258.829 30.337 560.073-206.946 674.724zM531.881 931.417c63.41 0 124.414-13.948 181.326-41.422 148.052-71.521 235.76-221.353 244.093-385.503-41.55 222.767-236.917 391.393-471.723 391.393-82.918 0-160.917-21.033-228.951-58.032 80.698 59.537 176.629 93.563 275.255 93.563zM770.34 66.080c-2.625-2.129-5.231-4.221-7.929-6.331-76.072 85.12-175.050 131.314-280.156 130.636-103.253-0.734-202.322-48.103-273.897-130.378-24.886 19.436-47.699 41.422-68.015 65.556 34.834 21.602 111.035 71.136 138.582 107.511 23.602 31.126 32.888 63.17 26.813 92.664-5.818 28.373-25.676 52.948-57.61 71.118-52.875 28.851-143.133 48.929-212.452 55.517 2.404 30.025 7.745 59.225 15.765 87.304 301.023 81.891 562.11 81.872 868.199 0 8.020-28.080 13.379-57.261 15.783-87.267-69.447-6.625-159.689-26.722-212.692-55.682-31.732-18.022-51.571-42.596-57.408-70.971-6.038-29.475 3.23-61.537 26.832-92.664 31.017-40.926 93.673-76.256 139.39-102.042 0.771-0.422 1.486-0.862 2.257-1.284-17.123-20.977-35.99-40.266-56.399-57.811-1.395-1.156-2.753-2.35-4.202-3.505-0.918-0.789-1.908-1.579-2.863-2.367zM485.577 867.31c194.007 0 359.825-123.075 423.491-295.242-297.499 76.972-554.201 77.009-846.965 0.11 63.702 172.113 229.484 295.131 423.473 295.131zM34.227 415.96c0 2.606 0.054 5.213 0.11 7.819 65.006-6.35 151.502-25.438 199.918-51.866 24.355-13.875 39.404-31.806 43.533-51.883 4.332-21.197-3.121-45.295-21.583-69.667-25.401-33.53-103.18-83.377-133.59-102.152-30.521 41.808-54.214 89.047-69.429 139.812-6.534 21.804-11.397 43.753-14.628 65.721-2.844 20.353-4.332 41.129-4.332 62.216zM904.756 248.967l-0.349-0.68-0.331-0.715c-14.187-34.008-31.97-65.721-52.819-94.811-1.891 1.064-3.725 2.11-5.671 3.212-43.57 24.556-103.216 58.179-130.654 94.407-18.481 24.372-25.932 48.47-21.62 69.667 4.148 20.078 19.179 38.009 43.331 51.736 48.543 26.538 135.003 45.662 200.138 52.085 0.037-2.643 0.091-5.248 0.091-7.892 0-58.288-11.085-114.008-31.292-165.175-0.257-0.624-0.533-1.23-0.825-1.835zM574.681-26.509c-2.441-0.514-4.919-0.973-7.377-1.432-26.062-4.698-52.654-7.102-79.522-7.102-55.572 0-110.741 10.039-164.515 29.86-32.557 12.59-63.299 28.851-91.727 48.286 66.052 74.935 156.696 118.046 250.939 118.743 0.789 0 1.579 0 2.367 0 95.012 0 184.685-42.102 254.37-119.018-47.937-32.687-102.501-56.399-161.192-68.677-1.12-0.221-2.22-0.459-3.34-0.661z" />
<glyph unicode="&#xe938;" glyph-name="quote" horiz-adv-x="1317" d="M588.469 846.432c-59.305-34.070-107.254-63.405-143.847-88.011s-73.815-57.096-111.67-97.475c-35.331-37.854-62.459-77.601-81.387-119.242s-32.176-95.267-39.747-160.882h90.851c78.232 0 139.746-19.242 184.54-57.728s67.191-94.951 67.191-169.398c0-52.997-19.873-102.522-59.621-148.579s-94.32-69.084-163.72-69.084c-108.517 0-186.117 35.646-232.804 106.939s-70.031 164.981-70.031 281.069c0 82.019 17.664 156.78 52.997 224.287s78.232 127.757 128.704 180.754c51.734 54.258 106.623 100.314 164.666 138.169s106.623 68.768 145.739 92.744l68.138-113.563zM1288.776 846.432c-59.305-34.070-107.254-63.405-143.847-88.011s-73.815-57.096-111.67-97.475c-36.593-39.117-64.037-79.178-82.334-120.187s-31.23-94.32-38.801-159.935h90.851c78.232 0 139.746-19.242 184.54-57.728s67.191-94.951 67.191-169.398c0-52.997-19.873-102.522-59.621-148.579s-94.32-69.084-163.72-69.084c-108.517 0-186.117 35.646-232.804 106.939s-70.031 164.981-70.031 281.069c0 82.019 17.664 156.78 52.997 224.287s78.232 127.757 128.704 180.754c51.734 54.258 106.623 100.314 164.667 138.169s106.623 68.768 145.739 92.744l68.138-113.563z" />
<glyph unicode="&#xe939;" glyph-name="fulscreen" d="M616.335 959.992l155.568-126.315-195.996-190.135 129.413-129.82 189.733 196.821 128.934-159.484v408.934h-407.651zM317.079 383.902l-189.629-196.717-127.433 157.771v-408.934h407.651l-157.275 127.835 196.1 190.226-129.413 129.82z" />
<glyph unicode="&#xe93a;" glyph-name="view" d="M511.989 586.881c24.54 0 47.592-6.32 69.157-18.962s38.669-29.744 51.311-51.311c12.642-21.565 18.962-44.618 18.962-69.157s-6.32-47.592-18.962-69.157c-12.642-21.565-29.744-38.669-51.311-51.311s-44.618-18.962-69.157-18.962c-24.54 0-47.592 6.32-69.157 18.962s-38.669 29.744-51.311 51.311c-12.642 21.565-18.962 44.618-18.962 69.157s6.32 47.592 18.962 69.157c12.642 21.565 29.744 38.669 51.311 51.311s44.618 18.962 69.157 18.962zM511.989 214.326c42.386 0 81.427 10.41 117.121 31.233s63.951 49.079 84.774 84.774c20.821 35.693 31.233 74.735 31.233 117.121s-10.41 81.427-31.233 117.121c-20.821 35.693-49.079 63.951-84.774 84.774s-74.735 31.233-117.121 31.233c-42.386 0-81.427-10.41-117.121-31.233s-63.951-49.079-84.774-84.774c-20.821-35.693-31.233-74.735-31.233-117.121s10.41-81.427 31.233-117.121c20.821-35.693 49.079-63.951 84.774-84.774s74.735-31.233 117.121-31.233zM511.989 796.584c76.594 0 149.468-14.872 218.626-44.618 66.926-29.001 125.858-69.9 176.797-122.698s89.793-113.402 116.564-181.817c-26.77-68.413-65.624-128.833-116.564-181.258s-109.869-93.14-176.797-122.14c-69.158-29.746-142.032-44.618-218.626-44.618s-149.468 14.872-218.626 44.618c-66.926 29.001-125.858 69.714-176.797 122.14s-89.793 112.845-116.564 181.258c26.77 68.413 65.624 129.019 116.564 181.817s109.869 93.697 176.797 122.698c69.158 29.746 142.032 44.618 218.626 44.618z" />
<glyph unicode="&#xe93b;" glyph-name="time" horiz-adv-x="656" d="M345.35 612.779v-172.664l147.435-87.515-24.441-41.786-172.664 104.86v197.105h49.67zM328.005 184.668c47.305 0 91.456 12.088 132.454 36.268 39.947 23.127 71.483 54.663 94.61 94.61 24.178 40.998 36.268 85.149 36.268 132.454s-12.088 91.456-36.268 132.454c-23.127 39.947-54.663 71.483-94.61 94.61-40.998 24.178-85.149 36.268-132.454 36.268s-91.456-12.088-132.454-36.268c-39.947-23.127-71.483-54.663-94.61-94.61-24.178-40.998-36.268-85.149-36.268-132.454s12.088-91.456 36.268-132.454c23.127-39.947 54.663-71.483 94.61-94.61 40.998-24.178 85.149-36.268 132.454-36.268zM328.005 775.982c59.92 0 115.372-14.98 166.357-44.94 49.408-28.383 88.303-67.278 116.686-116.686 29.96-50.985 44.94-106.437 44.94-166.357s-14.98-115.372-44.94-166.357c-28.383-49.408-67.278-88.303-116.686-116.686-50.985-29.96-106.437-44.94-166.357-44.94s-115.372 14.98-166.357 44.94c-49.408 28.909-88.303 68.067-116.686 117.474-29.96 50.985-44.94 106.173-44.94 165.568s14.98 114.583 44.94 165.568c28.909 49.408 68.067 88.565 117.474 117.474 50.985 29.96 106.173 44.94 165.568 44.94z" />
<glyph unicode="&#xe93c;" glyph-name="brochure" d="M133.226 891.612v-955.599h757.565v934.827l-133.703-0.979v90.116l-623.861-68.364zM177.704 826.272h668.519v-846.79h-668.519v846.79zM712.52 869.861l-534.814 0.979c0 0 524.006 44.567 534.814 44.567v-45.548zM442.445 767.605c-4.061 9.581-13.47 15.792-23.881 15.792h-172.933c-14.321 0-25.941-11.603-25.941-25.944v-179.415c0-10.581 6.418-20.097 16.22-24.061 3.167-1.258 6.434-1.883 9.719-1.883 6.899 0 13.694 2.77 18.677 7.939l172.933 179.419c7.215 7.491 9.274 18.575 5.204 28.153zM271.572 642.327v89.186h85.971l-85.971-89.186zM791.661 245.321c-9.694 4.019-20.842 1.822-28.272-5.608l-172.933-172.933c-7.43-7.43-9.661-18.578-5.642-28.288 4.055-9.691 13.511-16.010 23.981-16.010h172.933c19.929 0 19.929 31.795 19.929 46.135v133.703c0 10.485-0.304 38.979-9.995 43zM755.789 68.618l-87.837-1.838 87.837 90.974v-89.136zM749.302 470.179c0 14.332-11.618 25.941-25.941 25.941h-402.072c-14.321 0-25.941-11.609-25.941-25.941 0-14.327 11.618-25.95 25.941-25.95h402.072c14.321 0 25.941 11.621 25.941 25.95z" />
</font>
</defs>
</svg>
