<svg width="72" height="72" viewBox="0 0 72 72" xmlns="http://www.w3.org/2000/svg"><defs><radialGradient cy="14.988%" fx="50%" fy="14.988%" r="61.168%" id="radialGradient-1"><stop stop-color="#F7AB12" offset=".026%"/><stop stop-color="#F23D18" offset="100%"/></radialGradient></defs><g id="Page-1" fill="none" fill-rule="evenodd"><g id="chrome" transform="translate(-811 -16)"><g id="Group-5" transform="translate(551)"><g id="cd-icon" transform="translate(260 16)"><circle id="Mask" fill="url(#radialGradient-1)" cx="36" cy="36" r="36"/><g id="Group-2" transform="translate(10 24)" fill="#FFF"><g id="Group-15"><path d="M4.4 4.788c.121-.449.279-.814.466-1.085.178-.257.368-.45.581-.588.223-.144.471-.245.737-.302.31-.065.635-.099.966-.099h7.482L16.299.147H7.594c-.853 0-1.606.105-2.24.312a4.848 4.848 0 0 0-1.78 1.023 5.665 5.665 0 0 0-1.247 1.671c-.31.613-.583 1.345-.81 2.176L.595 8.712c-.226.83-.353 1.564-.377 2.178-.03.673.087 1.25.346 1.716.265.478.692.834 1.268 1.06.533.21 1.234.317 2.084.317h8.467v-2.567h-7.7c-.327 0-.631-.033-.905-.097a1.093 1.093 0 0 1-.535-.28c-.124-.124-.201-.3-.236-.535-.038-.266.005-.627.126-1.072l1.266-4.644z" id="Fill-9"/><path d="M52.286 8.712l-.922-3.382a11.689 11.689 0 0 0-.81-2.176 5.672 5.672 0 0 0-1.247-1.672A4.874 4.874 0 0 0 47.527.46c-.634-.207-1.387-.312-2.24-.312h-9.655l4.678 7.248v-4.68h5.42c.328 0 .653.033.967.098.267.056.514.158.736.302.213.14.404.331.583.588.186.27.343.635.466 1.085l1.266 4.644c.122.446.164.807.127 1.071-.035.236-.112.411-.237.536a1.086 1.086 0 0 1-.533.28 3.995 3.995 0 0 1-.907.097h-8.5v2.568h9.267c.847 0 1.549-.107 2.084-.318.577-.226 1.004-.583 1.269-1.06.257-.466.374-1.043.345-1.715-.024-.615-.15-1.348-.377-2.18" id="Fill-11"/><path d="M33.47 9.788h-2.302a.72.72 0 0 1-.724-.711.72.72 0 0 1 .724-.711h2.302a.72.72 0 0 1 .724.711.72.72 0 0 1-.724.711zm-12.928 0H18.24a.72.72 0 0 1-.723-.711.72.72 0 0 1 .723-.711h2.302a.72.72 0 0 1 .724.711.72.72 0 0 1-.724.711zm.401-8.43h9.931l1.834 3.27H19.11l1.833-3.27zM36.21 8.772c.024-.228.047-1.516-1.831-4.581-1.503-2.45-1.795-2.993-1.797-2.993-.018-.048-.43-1.085-2.026-1.085h-9.254c-1.597 0-2.009 1.041-2.017 1.066-.002.005-.281.528-1.804 3.012-1.883 3.073-1.857 4.356-1.833 4.548a1.053 1.053 0 0 0-.004.095v4.069c0 .58.48 1.051 1.07 1.051h1.972c.59 0 1.07-.472 1.07-1.051v-1.11h12.348v1.11c0 .58.48 1.051 1.069 1.051h1.972c.591 0 1.072-.472 1.072-1.051v-4.07c0-.03-.003-.061-.007-.061z" id="Fill-13"/></g><g id="Group-3" transform="translate(2.178 18.571)" fill-rule="nonzero"><path d="M4.97 4.714H2.099c-.119 0-.238-.02-.337-.039-.099-.02-.178-.058-.257-.097-.06-.059-.119-.117-.159-.214a.968.968 0 0 1-.059-.37v-1.52c0-.156.02-.273.06-.37.04-.098.098-.156.158-.214a.59.59 0 0 1 .257-.098c.1-.02.218-.039.337-.039H4.97l.574-.72H2.04c-.297 0-.534.038-.732.097a1.34 1.34 0 0 0-.515.312 1.339 1.339 0 0 0-.277.526c-.06.194-.08.428-.08.7V3.78c0 .273.02.507.08.702.06.214.138.39.277.525.139.137.297.254.515.312.198.059.455.098.732.098H4.97v-.702z" id="Shape"/><path d="M4.97 4.714H2.099c-.119 0-.238-.02-.337-.039-.099-.02-.178-.058-.257-.097-.06-.059-.119-.117-.159-.214a.968.968 0 0 1-.059-.37v-1.52c0-.156.02-.273.06-.37.04-.098.098-.156.158-.214a.59.59 0 0 1 .257-.098c.1-.02.218-.039.337-.039H4.97l.574-.72H2.04c-.297 0-.534.038-.732.097a1.34 1.34 0 0 0-.515.312 1.339 1.339 0 0 0-.277.526c-.06.194-.08.428-.08.7V3.78c0 .273.02.507.08.702.06.214.138.39.277.525.139.137.297.254.515.312.198.059.455.098.732.098H4.97v-.702zM27.681 3.545h3.327v-.72h-3.327V1.812h3.466V1.09H26.83v4.305h4.336v-.72h-3.485zM36.83 1.364l.395-.273H35.8l-2.574 1.714h-.515V1.091h-.832v4.305h.832v-1.87h.475l2.812 1.87h1.505l-3.426-2.22zM42.116 2.825H38.71V1.09h-.851v4.305h.851v-1.85h3.406v1.85h.832V1.091h-.832zM49.027 1.987c-.06-.214-.139-.39-.278-.526a1.14 1.14 0 0 0-.514-.312 2.662 2.662 0 0 0-.733-.097h-2.356c-.297 0-.535.039-.733.097a1.34 1.34 0 0 0-.515.312 1.339 1.339 0 0 0-.277.526c-.06.195-.08.429-.08.701v1.11c0 .273.02.507.08.702.06.214.139.39.277.526.139.136.297.253.515.312.198.058.455.097.733.097h2.356c.297 0 .535-.039.733-.097a1.34 1.34 0 0 0 .514-.312c.12-.136.218-.312.278-.526.06-.195.079-.429.079-.701v-1.11c0-.254-.02-.488-.08-.702zm-.753 2.007c0 .155-.02.272-.06.37a.611.611 0 0 1-.158.214.59.59 0 0 1-.257.097c-.099.02-.218.04-.337.04h-2.237c-.119 0-.238-.02-.337-.04a1.005 1.005 0 0 1-.257-.097.611.611 0 0 1-.159-.214.968.968 0 0 1-.059-.37v-1.52c0-.156.02-.273.06-.37a.611.611 0 0 1 .158-.214.59.59 0 0 1 .257-.098c.1-.02.218-.039.337-.039h2.237c.12 0 .238.02.337.04.099.019.178.058.257.097.06.058.12.116.159.214.04.097.06.214.06.37v1.52zM25.444.818a1.72 1.72 0 0 0-.871-.526C24.236.195 23.8.156 23.305.156h-4.91v6.136h4.89c.515 0 .951-.058 1.288-.156.356-.117.653-.292.871-.545.218-.253.356-.585.436-.974.079-.37.118-.838.118-1.383 0-.585-.04-1.072-.118-1.442-.08-.39-.218-.72-.436-.974zm-.634 2.727c0 .41-.04.74-.099.974-.06.215-.158.39-.277.487a1.054 1.054 0 0 1-.416.215 2.982 2.982 0 0 1-.614.058h-3.801V1.208h3.94c.218 0 .416.02.594.058a.831.831 0 0 1 .357.215c.099.116.178.292.237.525.06.234.1.565.1.955v.584h-.02zM17.068 3.097c.04-.116.06-.253.06-.409v-.33c0-.196-.02-.371-.06-.527a.838.838 0 0 0-.237-.428 1.101 1.101 0 0 0-.476-.254c-.198-.058-.435-.078-.752-.078h-3.406v4.306h.832V3.779h2.554c.119 0 .218 0 .317.02.08.02.139.039.198.078.04.039.08.078.119.155.04.078.04.195.04.332v1.013h.811v-1.17c0-.097-.02-.194-.04-.291a.516.516 0 0 0-.138-.273.559.559 0 0 0-.198-.175.432.432 0 0 0 .158-.098c.1-.058.159-.156.218-.273zm-4.02-1.285h2.377c.198 0 .356 0 .475.02.119.019.198.038.257.077.06.04.08.059.1.117.02.058.039.136.039.234v.37c0 .156-.04.273-.139.331-.079.058-.237.117-.594.117H13.05V1.812zM9.148 1.09h-.851L5.703 5.397h.95l.515-.857h3.109l.514.857h.95L9.149 1.091zm.693 2.728H7.584l1.128-1.87 1.129 1.87z" id="Shape"/></g></g></g></g></g></g></svg>