<?xml version="1.0" encoding="UTF-8"?>
<svg width="80px" height="29px" viewBox="0 0 80 29" version="1.1" xmlns="http://www.w3.org/2000/svg" xmlns:xlink="http://www.w3.org/1999/xlink">
    <title>Path</title>
    <g id="Entry-Points" stroke="none" stroke-width="1" fill="none" fill-rule="evenodd">
        <g id="Mobile-Recommender-Entry-Points-V2" transform="translate(-237.000000, -335.000000)" fill="#FFFFFF" fill-rule="nonzero">
            <path d="M260.488063,343.501031 L260.552243,344.498969 L259.089286,344.59842 C245.590477,345.566282 236.5,347.629057 236.5,349.495627 C236.5,352.304268 254.890958,354.995627 277,354.995627 L278.321963,354.992418 C299.837324,354.887926 317.5,352.248095 317.5,349.495627 C317.5,347.747707 309.381755,345.782381 297.027617,344.760911 L295.583562,344.647304 L295.658085,343.650084 L297.129024,343.765224 C310.346993,344.848027 318.5,346.850124 318.5,349.495627 C318.5,353.314404 300.178308,355.995627 277,355.995627 L275.615237,355.992422 C253.096153,355.887923 235.5,353.238029 235.5,349.495627 C235.5,346.686939 244.804112,344.578447 259.46829,343.568907 L260.488063,343.501031 Z" id="Path" transform="translate(277.000000, 349.748329) rotate(-17.000000) translate(-277.000000, -349.748329) "></path>
        </g>
    </g>
</svg>