<svg xmlns="http://www.w3.org/2000/svg" xmlns:xlink="http://www.w3.org/1999/xlink" width="196" height="196" xmlns:v="https://vecta.io/nano"><defs><circle id="A" cx="69" cy="69" r="68.5"/></defs><g transform="matrix(.777146 -.62932 .62932 .777146 .953822 87.800036)" fill-rule="evenodd"><mask id="B" fill="#fff"><use xlink:href="#A"/></mask><path d="M157.735 164.066a1.11 1.11 0 1 1 0 2.222 1.11 1.11 0 1 1 0-2.222zm-10 0a1.11 1.11 0 1 1 0 2.222 1.11 1.11 0 1 1 0-2.222zm-7.778 0a1.11 1.11 0 1 1 0 2.222 1.11 1.11 0 1 1 0-2.222zm-8.89 0a1.11 1.11 0 1 1 0 2.222 1.11 1.11 0 1 1 0-2.222zm-8.89 0a1.11 1.11 0 1 1 0 2.222 1.11 1.11 0 1 1 0-2.222zm-8.89 0a1.11 1.11 0 1 1 0 2.222 1.11 1.11 0 1 1 0-2.222zm-8.89 0a1.11 1.11 0 1 1 0 2.222 1.11 1.11 0 1 1 0-2.222zm-8.89 0a1.11 1.11 0 1 1 0 2.222 1.11 1.11 0 1 1 0-2.222zm-7.778 0a1.11 1.11 0 1 1 0 2.222 1.11 1.11 0 1 1 0-2.222zm-10 0a1.11 1.11 0 1 1 0 2.222 1.11 1.11 0 1 1 0-2.222zm-7.778 0a1.11 1.11 0 1 1 0 2.222 1.11 1.11 0 1 1 0-2.222zm-10 0a1.11 1.11 0 1 1 0 2.222 1.11 1.11 0 1 1 0-2.222zm-7.778 0a1.11 1.11 0 1 1 0 2.222 1.11 1.11 0 1 1 0-2.222zm-8.89 0a1.11 1.11 0 1 1 0 2.222 1.11 1.11 0 1 1 0-2.222zm-8.89 0a1.11 1.11 0 1 1 0 2.222 1.11 1.11 0 1 1 0-2.222zm-8.89 0a1.11 1.11 0 1 1 0 2.222 1.11 1.11 0 1 1 0-2.222zm-8.89 0a1.11 1.11 0 1 1 0 2.222 1.11 1.11 0 1 1 0-2.222zm-8.89 0a1.11 1.11 0 1 1 0 2.222 1.11 1.11 0 1 1 0-2.222zm-7.778 0a1.11 1.11 0 1 1 0 2.222 1.11 1.11 0 1 1 0-2.222zm-10 0a1.11 1.11 0 1 1 0 2.222 1.11 1.11 0 1 1 0-2.222zm167.778-10a1.11 1.11 0 1 1 0 2.222 1.11 1.11 0 1 1 0-2.222zm-10 0a1.11 1.11 0 1 1 0 2.222 1.11 1.11 0 1 1 0-2.222zm-7.778 0a1.11 1.11 0 1 1 0 2.222 1.11 1.11 0 1 1 0-2.222zm-8.89 0a1.11 1.11 0 1 1 0 2.222 1.11 1.11 0 1 1 0-2.222zm-8.89 0a1.11 1.11 0 1 1 0 2.222 1.11 1.11 0 1 1 0-2.222zm-8.89 0a1.11 1.11 0 1 1 0 2.222 1.11 1.11 0 1 1 0-2.222zm-8.89 0a1.11 1.11 0 1 1 0 2.222 1.11 1.11 0 1 1 0-2.222zm-8.89 0a1.11 1.11 0 1 1 0 2.222 1.11 1.11 0 1 1 0-2.222zm-7.778 0a1.11 1.11 0 1 1 0 2.222 1.11 1.11 0 1 1 0-2.222zm-10 0a1.11 1.11 0 1 1 0 2.222 1.11 1.11 0 1 1 0-2.222zm-7.778 0a1.11 1.11 0 1 1 0 2.222 1.11 1.11 0 1 1 0-2.222zm-10 0a1.11 1.11 0 1 1 0 2.222 1.11 1.11 0 1 1 0-2.222zm-7.778 0a1.11 1.11 0 1 1 0 2.222 1.11 1.11 0 1 1 0-2.222zm-8.89 0a1.11 1.11 0 1 1 0 2.222 1.11 1.11 0 1 1 0-2.222zm-8.89 0a1.11 1.11 0 1 1 0 2.222 1.11 1.11 0 1 1 0-2.222zm-8.89 0a1.11 1.11 0 1 1 0 2.222 1.11 1.11 0 1 1 0-2.222zm-8.89 0a1.11 1.11 0 1 1 0 2.222 1.11 1.11 0 1 1 0-2.222zm-8.89 0a1.11 1.11 0 1 1 0 2.222 1.11 1.11 0 1 1 0-2.222zm-7.778 0a1.11 1.11 0 1 1 0 2.222 1.11 1.11 0 1 1 0-2.222zm-10 0a1.11 1.11 0 1 1 0 2.222 1.11 1.11 0 1 1 0-2.222zm167.778-7.778a1.11 1.11 0 1 1 0 2.222 1.11 1.11 0 1 1 0-2.222zm-10 0a1.11 1.11 0 1 1 0 2.222 1.11 1.11 0 1 1 0-2.222zm-7.778 0a1.11 1.11 0 1 1 0 2.222 1.11 1.11 0 1 1 0-2.222zm-8.89 0a1.11 1.11 0 1 1 0 2.222 1.11 1.11 0 1 1 0-2.222zm-8.89 0a1.11 1.11 0 1 1 0 2.222 1.11 1.11 0 1 1 0-2.222zm-8.89 0a1.11 1.11 0 1 1 0 2.222 1.11 1.11 0 1 1 0-2.222zm-8.89 0a1.11 1.11 0 1 1 0 2.222 1.11 1.11 0 1 1 0-2.222zm-8.89 0a1.11 1.11 0 1 1 0 2.222 1.11 1.11 0 1 1 0-2.222zm-7.778 0a1.11 1.11 0 1 1 0 2.222 1.11 1.11 0 1 1 0-2.222zm-10 0a1.11 1.11 0 1 1 0 2.222 1.11 1.11 0 1 1 0-2.222zm-7.778 0a1.11 1.11 0 1 1 0 2.222 1.11 1.11 0 1 1 0-2.222zm-10 0a1.11 1.11 0 1 1 0 2.222 1.11 1.11 0 1 1 0-2.222zm-7.778 0a1.11 1.11 0 1 1 0 2.222 1.11 1.11 0 1 1 0-2.222zm-8.89 0a1.11 1.11 0 1 1 0 2.222 1.11 1.11 0 1 1 0-2.222zm-8.89 0a1.11 1.11 0 1 1 0 2.222 1.11 1.11 0 1 1 0-2.222zm-8.89 0a1.11 1.11 0 1 1 0 2.222 1.11 1.11 0 1 1 0-2.222zm-8.89 0a1.11 1.11 0 1 1 0 2.222 1.11 1.11 0 1 1 0-2.222zm-8.89 0a1.11 1.11 0 1 1 0 2.222 1.11 1.11 0 1 1 0-2.222zm-7.778 0a1.11 1.11 0 1 1 0 2.222 1.11 1.11 0 1 1 0-2.222zm-10 0a1.11 1.11 0 1 1 0 2.222 1.11 1.11 0 1 1 0-2.222zm167.778-8.89a1.11 1.11 0 1 1 0 2.222 1.11 1.11 0 1 1 0-2.222zm-10 0a1.11 1.11 0 1 1 0 2.222 1.11 1.11 0 1 1 0-2.222zm-7.778 0a1.11 1.11 0 1 1 0 2.222 1.11 1.11 0 1 1 0-2.222zm-8.89 0a1.11 1.11 0 1 1 0 2.222 1.11 1.11 0 1 1 0-2.222zm-8.89 0a1.11 1.11 0 1 1 0 2.222 1.11 1.11 0 1 1 0-2.222zm-8.89 0a1.11 1.11 0 1 1 0 2.222 1.11 1.11 0 1 1 0-2.222zm-8.89 0a1.11 1.11 0 1 1 0 2.222 1.11 1.11 0 1 1 0-2.222zm-8.89 0a1.11 1.11 0 1 1 0 2.222 1.11 1.11 0 1 1 0-2.222zm-7.778 0a1.11 1.11 0 1 1 0 2.222 1.11 1.11 0 1 1 0-2.222zm-10 0a1.11 1.11 0 1 1 0 2.222 1.11 1.11 0 1 1 0-2.222zm-7.778 0a1.11 1.11 0 1 1 0 2.222 1.11 1.11 0 1 1 0-2.222zm-10 0a1.11 1.11 0 1 1 0 2.222 1.11 1.11 0 1 1 0-2.222zm-7.778 0a1.11 1.11 0 1 1 0 2.222 1.11 1.11 0 1 1 0-2.222zm-8.89 0a1.11 1.11 0 1 1 0 2.222 1.11 1.11 0 1 1 0-2.222zm-8.89 0a1.11 1.11 0 1 1 0 2.222 1.11 1.11 0 1 1 0-2.222zm-8.89 0a1.11 1.11 0 1 1 0 2.222 1.11 1.11 0 1 1 0-2.222zm-8.89 0a1.11 1.11 0 1 1 0 2.222 1.11 1.11 0 1 1 0-2.222zm-8.89 0a1.11 1.11 0 1 1 0 2.222 1.11 1.11 0 1 1 0-2.222zm-7.778 0a1.11 1.11 0 1 1 0 2.222 1.11 1.11 0 1 1 0-2.222zm-10 0a1.11 1.11 0 1 1 0 2.222 1.11 1.11 0 1 1 0-2.222zm167.778-8.89a1.11 1.11 0 1 1 0 2.222 1.11 1.11 0 1 1 0-2.222zm-10 0a1.11 1.11 0 1 1 0 2.222 1.11 1.11 0 1 1 0-2.222zm-7.778 0a1.11 1.11 0 1 1 0 2.222 1.11 1.11 0 1 1 0-2.222zm-8.89 0a1.11 1.11 0 1 1 0 2.222 1.11 1.11 0 1 1 0-2.222zm-8.89 0a1.11 1.11 0 1 1 0 2.222 1.11 1.11 0 1 1 0-2.222zm-8.89 0a1.11 1.11 0 1 1 0 2.222 1.11 1.11 0 1 1 0-2.222zm-8.89 0a1.11 1.11 0 1 1 0 2.222 1.11 1.11 0 1 1 0-2.222zm-8.89 0a1.11 1.11 0 1 1 0 2.222 1.11 1.11 0 1 1 0-2.222zm-7.778 0a1.11 1.11 0 1 1 0 2.222 1.11 1.11 0 1 1 0-2.222zm-10 0a1.11 1.11 0 1 1 0 2.222 1.11 1.11 0 1 1 0-2.222zm-7.778 0a1.11 1.11 0 1 1 0 2.222 1.11 1.11 0 1 1 0-2.222zm-10 0a1.11 1.11 0 1 1 0 2.222 1.11 1.11 0 1 1 0-2.222zm-7.778 0a1.11 1.11 0 1 1 0 2.222 1.11 1.11 0 1 1 0-2.222zm-8.89 0a1.11 1.11 0 1 1 0 2.222 1.11 1.11 0 1 1 0-2.222zm-8.89 0a1.11 1.11 0 1 1 0 2.222 1.11 1.11 0 1 1 0-2.222zm-8.89 0a1.11 1.11 0 1 1 0 2.222 1.11 1.11 0 1 1 0-2.222zm-8.89 0a1.11 1.11 0 1 1 0 2.222 1.11 1.11 0 1 1 0-2.222zm-8.89 0a1.11 1.11 0 1 1 0 2.222 1.11 1.11 0 1 1 0-2.222zm-7.778 0a1.11 1.11 0 1 1 0 2.222 1.11 1.11 0 1 1 0-2.222zm-10 0a1.11 1.11 0 1 1 0 2.222 1.11 1.11 0 1 1 0-2.222zm167.778-8.89a1.11 1.11 0 1 1 0 2.222 1.11 1.11 0 1 1 0-2.222zm-10 0a1.11 1.11 0 1 1 0 2.222 1.11 1.11 0 1 1 0-2.222zm-7.778 0a1.11 1.11 0 1 1 0 2.222 1.11 1.11 0 1 1 0-2.222zm-8.89 0a1.11 1.11 0 1 1 0 2.222 1.11 1.11 0 1 1 0-2.222zm-8.89 0a1.11 1.11 0 1 1 0 2.222 1.11 1.11 0 1 1 0-2.222zm-8.89 0a1.11 1.11 0 1 1 0 2.222 1.11 1.11 0 1 1 0-2.222zm-8.89 0a1.11 1.11 0 1 1 0 2.222 1.11 1.11 0 1 1 0-2.222zm-8.89 0a1.11 1.11 0 1 1 0 2.222 1.11 1.11 0 1 1 0-2.222zm-7.778 0a1.11 1.11 0 1 1 0 2.222 1.11 1.11 0 1 1 0-2.222zm-10 0a1.11 1.11 0 1 1 0 2.222 1.11 1.11 0 1 1 0-2.222zm-7.778 0a1.11 1.11 0 1 1 0 2.222 1.11 1.11 0 1 1 0-2.222zm-10 0a1.11 1.11 0 1 1 0 2.222 1.11 1.11 0 1 1 0-2.222zm-7.778 0a1.11 1.11 0 1 1 0 2.222 1.11 1.11 0 1 1 0-2.222zm-8.89 0a1.11 1.11 0 1 1 0 2.222 1.11 1.11 0 1 1 0-2.222zm-8.89 0a1.11 1.11 0 1 1 0 2.222 1.11 1.11 0 1 1 0-2.222zm-8.89 0a1.11 1.11 0 1 1 0 2.222 1.11 1.11 0 1 1 0-2.222zm-8.89 0a1.11 1.11 0 1 1 0 2.222 1.11 1.11 0 1 1 0-2.222zm-8.89 0a1.11 1.11 0 1 1 0 2.222 1.11 1.11 0 1 1 0-2.222zm-7.778 0a1.11 1.11 0 1 1 0 2.222 1.11 1.11 0 1 1 0-2.222zm-10 0a1.11 1.11 0 1 1 0 2.222 1.11 1.11 0 1 1 0-2.222zm167.778-8.89a1.11 1.11 0 1 1 0 2.222 1.11 1.11 0 1 1 0-2.222zm-10 0a1.11 1.11 0 1 1 0 2.222 1.11 1.11 0 1 1 0-2.222zm-7.778 0a1.11 1.11 0 1 1 0 2.222 1.11 1.11 0 1 1 0-2.222zm-8.89 0a1.11 1.11 0 1 1 0 2.222 1.11 1.11 0 1 1 0-2.222zm-8.89 0a1.11 1.11 0 1 1 0 2.222 1.11 1.11 0 1 1 0-2.222zm-8.89 0a1.11 1.11 0 1 1 0 2.222 1.11 1.11 0 1 1 0-2.222zm-8.89 0a1.11 1.11 0 1 1 0 2.222 1.11 1.11 0 1 1 0-2.222zm-8.89 0a1.11 1.11 0 1 1 0 2.222 1.11 1.11 0 1 1 0-2.222zm-7.778 0a1.11 1.11 0 1 1 0 2.222 1.11 1.11 0 1 1 0-2.222zm-10 0a1.11 1.11 0 1 1 0 2.222 1.11 1.11 0 1 1 0-2.222zm-7.778 0a1.11 1.11 0 1 1 0 2.222 1.11 1.11 0 1 1 0-2.222zm-10 0a1.11 1.11 0 1 1 0 2.222 1.11 1.11 0 1 1 0-2.222zm-7.778 0a1.11 1.11 0 1 1 0 2.222 1.11 1.11 0 1 1 0-2.222zm-8.89 0a1.11 1.11 0 1 1 0 2.222 1.11 1.11 0 1 1 0-2.222zm-8.89 0a1.11 1.11 0 1 1 0 2.222 1.11 1.11 0 1 1 0-2.222zm-8.89 0a1.11 1.11 0 1 1 0 2.222 1.11 1.11 0 1 1 0-2.222zm-8.89 0a1.11 1.11 0 1 1 0 2.222 1.11 1.11 0 1 1 0-2.222zm-8.89 0a1.11 1.11 0 1 1 0 2.222 1.11 1.11 0 1 1 0-2.222zm-7.778 0a1.11 1.11 0 1 1 0 2.222 1.11 1.11 0 1 1 0-2.222zm-10 0a1.11 1.11 0 1 1 0 2.222 1.11 1.11 0 1 1 0-2.222zm167.778-8.89a1.11 1.11 0 1 1 0 2.222 1.11 1.11 0 1 1 0-2.222zm-10 0a1.11 1.11 0 1 1 0 2.222 1.11 1.11 0 1 1 0-2.222zm-7.778 0a1.11 1.11 0 1 1 0 2.222 1.11 1.11 0 1 1 0-2.222zm-8.89 0a1.11 1.11 0 1 1 0 2.222 1.11 1.11 0 1 1 0-2.222zm-8.89 0a1.11 1.11 0 1 1 0 2.222 1.11 1.11 0 1 1 0-2.222zm-8.89 0a1.11 1.11 0 1 1 0 2.222 1.11 1.11 0 1 1 0-2.222zm-8.89 0a1.11 1.11 0 1 1 0 2.222 1.11 1.11 0 1 1 0-2.222zm-8.89 0a1.11 1.11 0 1 1 0 2.222 1.11 1.11 0 1 1 0-2.222zm-7.778 0a1.11 1.11 0 1 1 0 2.222 1.11 1.11 0 1 1 0-2.222zm-10 0a1.11 1.11 0 1 1 0 2.222 1.11 1.11 0 1 1 0-2.222zm-7.778 0a1.11 1.11 0 1 1 0 2.222 1.11 1.11 0 1 1 0-2.222zm-10 0a1.11 1.11 0 1 1 0 2.222 1.11 1.11 0 1 1 0-2.222zm-7.778 0a1.11 1.11 0 1 1 0 2.222 1.11 1.11 0 1 1 0-2.222zm-8.89 0a1.11 1.11 0 1 1 0 2.222 1.11 1.11 0 1 1 0-2.222zm-8.89 0a1.11 1.11 0 1 1 0 2.222 1.11 1.11 0 1 1 0-2.222zm-8.89 0a1.11 1.11 0 1 1 0 2.222 1.11 1.11 0 1 1 0-2.222zm-8.89 0a1.11 1.11 0 1 1 0 2.222 1.11 1.11 0 1 1 0-2.222zm-8.89 0a1.11 1.11 0 1 1 0 2.222 1.11 1.11 0 1 1 0-2.222zm-7.778 0a1.11 1.11 0 1 1 0 2.222 1.11 1.11 0 1 1 0-2.222zm-10 0a1.11 1.11 0 1 1 0 2.222 1.11 1.11 0 1 1 0-2.222zm167.778-7.778a1.11 1.11 0 1 1 0 2.222 1.11 1.11 0 1 1 0-2.222zm-10 0a1.11 1.11 0 1 1 0 2.222 1.11 1.11 0 1 1 0-2.222zm-7.778 0a1.11 1.11 0 1 1 0 2.222 1.11 1.11 0 1 1 0-2.222zm-8.89 0a1.11 1.11 0 1 1 0 2.222 1.11 1.11 0 1 1 0-2.222zm-8.89 0a1.11 1.11 0 1 1 0 2.222 1.11 1.11 0 1 1 0-2.222zm-8.89 0a1.11 1.11 0 1 1 0 2.222 1.11 1.11 0 1 1 0-2.222zm-8.89 0a1.11 1.11 0 1 1 0 2.222 1.11 1.11 0 1 1 0-2.222zm-8.89 0a1.11 1.11 0 1 1 0 2.222 1.11 1.11 0 1 1 0-2.222zm-7.778 0a1.11 1.11 0 1 1 0 2.222 1.11 1.11 0 1 1 0-2.222zm-10 0a1.11 1.11 0 1 1 0 2.222 1.11 1.11 0 1 1 0-2.222zm-7.778 0a1.11 1.11 0 1 1 0 2.222 1.11 1.11 0 1 1 0-2.222zm-10 0a1.11 1.11 0 1 1 0 2.222 1.11 1.11 0 1 1 0-2.222zm-7.778 0a1.11 1.11 0 1 1 0 2.222 1.11 1.11 0 1 1 0-2.222zm-8.89 0a1.11 1.11 0 1 1 0 2.222 1.11 1.11 0 1 1 0-2.222zm-8.89 0a1.11 1.11 0 1 1 0 2.222 1.11 1.11 0 1 1 0-2.222zm-8.89 0a1.11 1.11 0 1 1 0 2.222 1.11 1.11 0 1 1 0-2.222zm-8.89 0a1.11 1.11 0 1 1 0 2.222 1.11 1.11 0 1 1 0-2.222zm-8.89 0a1.11 1.11 0 1 1 0 2.222 1.11 1.11 0 1 1 0-2.222zm-7.778 0a1.11 1.11 0 1 1 0 2.222 1.11 1.11 0 1 1 0-2.222zm-10 0a1.11 1.11 0 1 1 0 2.222 1.11 1.11 0 1 1 0-2.222zm167.778-10a1.11 1.11 0 1 1 0 2.222 1.11 1.11 0 1 1 0-2.222zm-10 0a1.11 1.11 0 1 1 0 2.222 1.11 1.11 0 1 1 0-2.222zm-7.778 0a1.11 1.11 0 1 1 0 2.222 1.11 1.11 0 1 1 0-2.222zm-8.89 0a1.11 1.11 0 1 1 0 2.222 1.11 1.11 0 1 1 0-2.222zm-8.89 0a1.11 1.11 0 1 1 0 2.222 1.11 1.11 0 1 1 0-2.222zm-8.89 0a1.11 1.11 0 1 1 0 2.222 1.11 1.11 0 1 1 0-2.222zm-8.89 0a1.11 1.11 0 1 1 0 2.222 1.11 1.11 0 1 1 0-2.222zm-8.89 0a1.11 1.11 0 1 1 0 2.222 1.11 1.11 0 1 1 0-2.222zm-7.778 0a1.11 1.11 0 1 1 0 2.222 1.11 1.11 0 1 1 0-2.222zm-10 0a1.11 1.11 0 1 1 0 2.222 1.11 1.11 0 1 1 0-2.222zm-7.778 0a1.11 1.11 0 1 1 0 2.222 1.11 1.11 0 1 1 0-2.222zm-10 0a1.11 1.11 0 1 1 0 2.222 1.11 1.11 0 1 1 0-2.222zm-7.778 0a1.11 1.11 0 1 1 0 2.222 1.11 1.11 0 1 1 0-2.222zm-8.89 0a1.11 1.11 0 1 1 0 2.222 1.11 1.11 0 1 1 0-2.222zm-8.89 0a1.11 1.11 0 1 1 0 2.222 1.11 1.11 0 1 1 0-2.222zm-8.89 0a1.11 1.11 0 1 1 0 2.222 1.11 1.11 0 1 1 0-2.222zm-8.89 0a1.11 1.11 0 1 1 0 2.222 1.11 1.11 0 1 1 0-2.222zm-8.89 0a1.11 1.11 0 1 1 0 2.222 1.11 1.11 0 1 1 0-2.222zm-7.778 0a1.11 1.11 0 1 1 0 2.222 1.11 1.11 0 1 1 0-2.222zm-10 0a1.11 1.11 0 1 1 0 2.222 1.11 1.11 0 1 1 0-2.222zm167.778-7.778a1.11 1.11 0 1 1 0 2.222 1.11 1.11 0 1 1 0-2.222zm-10 0a1.11 1.11 0 1 1 0 2.222 1.11 1.11 0 1 1 0-2.222zm-7.778 0a1.11 1.11 0 1 1 0 2.222 1.11 1.11 0 1 1 0-2.222zm-8.89 0a1.11 1.11 0 1 1 0 2.222 1.11 1.11 0 1 1 0-2.222zm-8.89 0a1.11 1.11 0 1 1 0 2.222 1.11 1.11 0 1 1 0-2.222zm-8.89 0a1.11 1.11 0 1 1 0 2.222 1.11 1.11 0 1 1 0-2.222zm-8.89 0a1.11 1.11 0 1 1 0 2.222 1.11 1.11 0 1 1 0-2.222zm-8.89 0a1.11 1.11 0 1 1 0 2.222 1.11 1.11 0 1 1 0-2.222zm-7.778 0a1.11 1.11 0 1 1 0 2.222 1.11 1.11 0 1 1 0-2.222zm-10 0a1.11 1.11 0 1 1 0 2.222 1.11 1.11 0 1 1 0-2.222zm-7.778 0a1.11 1.11 0 1 1 0 2.222 1.11 1.11 0 1 1 0-2.222zm-10 0a1.11 1.11 0 1 1 0 2.222 1.11 1.11 0 1 1 0-2.222zm-7.778 0a1.11 1.11 0 1 1 0 2.222 1.11 1.11 0 1 1 0-2.222zm-8.89 0a1.11 1.11 0 1 1 0 2.222 1.11 1.11 0 1 1 0-2.222zm-8.89 0a1.11 1.11 0 1 1 0 2.222 1.11 1.11 0 1 1 0-2.222zm-8.89 0a1.11 1.11 0 1 1 0 2.222 1.11 1.11 0 1 1 0-2.222zm-8.89 0a1.11 1.11 0 1 1 0 2.222 1.11 1.11 0 1 1 0-2.222zm-8.89 0a1.11 1.11 0 1 1 0 2.222 1.11 1.11 0 1 1 0-2.222zm-7.778 0a1.11 1.11 0 1 1 0 2.222 1.11 1.11 0 1 1 0-2.222zm-10 0a1.11 1.11 0 1 1 0 2.222 1.11 1.11 0 1 1 0-2.222zm167.778-10a1.11 1.11 0 1 1 0 2.222 1.11 1.11 0 1 1 0-2.222zm-10 0a1.11 1.11 0 1 1 0 2.222 1.11 1.11 0 1 1 0-2.222zm-7.778 0a1.11 1.11 0 1 1 0 2.222 1.11 1.11 0 1 1 0-2.222zm-8.89 0a1.11 1.11 0 1 1 0 2.222 1.11 1.11 0 1 1 0-2.222zm-8.89 0a1.11 1.11 0 1 1 0 2.222 1.11 1.11 0 1 1 0-2.222zm-8.89 0a1.11 1.11 0 1 1 0 2.222 1.11 1.11 0 1 1 0-2.222zm-8.89 0a1.11 1.11 0 1 1 0 2.222 1.11 1.11 0 1 1 0-2.222zm-8.89 0a1.11 1.11 0 1 1 0 2.222 1.11 1.11 0 1 1 0-2.222zm-7.778 0a1.11 1.11 0 1 1 0 2.222 1.11 1.11 0 1 1 0-2.222zm-10 0a1.11 1.11 0 1 1 0 2.222 1.11 1.11 0 1 1 0-2.222zm-7.778 0a1.11 1.11 0 1 1 0 2.222 1.11 1.11 0 1 1 0-2.222zm-10 0a1.11 1.11 0 1 1 0 2.222 1.11 1.11 0 1 1 0-2.222zm-7.778 0a1.11 1.11 0 1 1 0 2.222 1.11 1.11 0 1 1 0-2.222zm-8.89 0a1.11 1.11 0 1 1 0 2.222 1.11 1.11 0 1 1 0-2.222zm-8.89 0a1.11 1.11 0 1 1 0 2.222 1.11 1.11 0 1 1 0-2.222zm-8.89 0a1.11 1.11 0 1 1 0 2.222 1.11 1.11 0 1 1 0-2.222zm-8.89 0a1.11 1.11 0 1 1 0 2.222 1.11 1.11 0 1 1 0-2.222zm-8.89 0a1.11 1.11 0 1 1 0 2.222 1.11 1.11 0 1 1 0-2.222zm-7.778 0a1.11 1.11 0 1 1 0 2.222 1.11 1.11 0 1 1 0-2.222zm-10 0a1.11 1.11 0 1 1 0 2.222 1.11 1.11 0 1 1 0-2.222zm167.778-7.778a1.11 1.11 0 1 1 0 2.222 1.11 1.11 0 1 1 0-2.222zm-10 0a1.11 1.11 0 1 1 0 2.222 1.11 1.11 0 1 1 0-2.222zm-7.778 0a1.11 1.11 0 1 1 0 2.222 1.11 1.11 0 1 1 0-2.222zm-8.89 0a1.11 1.11 0 1 1 0 2.222 1.11 1.11 0 1 1 0-2.222zm-8.89 0a1.11 1.11 0 1 1 0 2.222 1.11 1.11 0 1 1 0-2.222zm-8.89 0a1.11 1.11 0 1 1 0 2.222 1.11 1.11 0 1 1 0-2.222zm-8.89 0a1.11 1.11 0 1 1 0 2.222 1.11 1.11 0 1 1 0-2.222zm-8.89 0a1.11 1.11 0 1 1 0 2.222 1.11 1.11 0 1 1 0-2.222zm-7.778 0a1.11 1.11 0 1 1 0 2.222 1.11 1.11 0 1 1 0-2.222zm-10 0a1.11 1.11 0 1 1 0 2.222 1.11 1.11 0 1 1 0-2.222zm-7.778 0a1.11 1.11 0 1 1 0 2.222 1.11 1.11 0 1 1 0-2.222zm-10 0a1.11 1.11 0 1 1 0 2.222 1.11 1.11 0 1 1 0-2.222zm-7.778 0a1.11 1.11 0 1 1 0 2.222 1.11 1.11 0 1 1 0-2.222zm-8.89 0a1.11 1.11 0 1 1 0 2.222 1.11 1.11 0 1 1 0-2.222zm-8.89 0a1.11 1.11 0 1 1 0 2.222 1.11 1.11 0 1 1 0-2.222zm-8.89 0a1.11 1.11 0 1 1 0 2.222 1.11 1.11 0 1 1 0-2.222zm-8.89 0a1.11 1.11 0 1 1 0 2.222 1.11 1.11 0 1 1 0-2.222zm-8.89 0a1.11 1.11 0 1 1 0 2.222 1.11 1.11 0 1 1 0-2.222zm-7.778 0a1.11 1.11 0 1 1 0 2.222 1.11 1.11 0 1 1 0-2.222zm-10 0a1.11 1.11 0 1 1 0 2.222 1.11 1.11 0 1 1 0-2.222zm167.778-8.89a1.11 1.11 0 1 1 0 2.222 1.11 1.11 0 1 1 0-2.222zm-10 0a1.11 1.11 0 1 1 0 2.222 1.11 1.11 0 1 1 0-2.222zm-7.778 0a1.11 1.11 0 1 1 0 2.222 1.11 1.11 0 1 1 0-2.222zm-8.89 0a1.11 1.11 0 1 1 0 2.222 1.11 1.11 0 1 1 0-2.222zm-8.89 0a1.11 1.11 0 1 1 0 2.222 1.11 1.11 0 1 1 0-2.222zm-8.89 0a1.11 1.11 0 1 1 0 2.222 1.11 1.11 0 1 1 0-2.222zm-8.89 0a1.11 1.11 0 1 1 0 2.222 1.11 1.11 0 1 1 0-2.222zm-8.89 0a1.11 1.11 0 1 1 0 2.222 1.11 1.11 0 1 1 0-2.222zm-7.778 0a1.11 1.11 0 1 1 0 2.222 1.11 1.11 0 1 1 0-2.222zm-10 0a1.11 1.11 0 1 1 0 2.222 1.11 1.11 0 1 1 0-2.222zm-7.778 0a1.11 1.11 0 1 1 0 2.222 1.11 1.11 0 1 1 0-2.222zm-10 0a1.11 1.11 0 1 1 0 2.222 1.11 1.11 0 1 1 0-2.222zm-7.778 0a1.11 1.11 0 1 1 0 2.222 1.11 1.11 0 1 1 0-2.222zm-8.89 0a1.11 1.11 0 1 1 0 2.222 1.11 1.11 0 1 1 0-2.222zm-8.89 0a1.11 1.11 0 1 1 0 2.222 1.11 1.11 0 1 1 0-2.222zm-8.89 0a1.11 1.11 0 1 1 0 2.222 1.11 1.11 0 1 1 0-2.222zm-8.89 0a1.11 1.11 0 1 1 0 2.222 1.11 1.11 0 1 1 0-2.222zm-8.89 0a1.11 1.11 0 1 1 0 2.222 1.11 1.11 0 1 1 0-2.222zm-7.778 0a1.11 1.11 0 1 1 0 2.222 1.11 1.11 0 1 1 0-2.222zm-10 0a1.11 1.11 0 1 1 0 2.222 1.11 1.11 0 1 1 0-2.222zm167.778-8.89a1.11 1.11 0 1 1 0 2.222 1.11 1.11 0 1 1 0-2.222zm-10 0a1.11 1.11 0 1 1 0 2.222 1.11 1.11 0 1 1 0-2.222zm-7.778 0a1.11 1.11 0 1 1 0 2.222 1.11 1.11 0 1 1 0-2.222zm-8.89 0a1.11 1.11 0 1 1 0 2.222 1.11 1.11 0 1 1 0-2.222zm-8.89 0a1.11 1.11 0 1 1 0 2.222 1.11 1.11 0 1 1 0-2.222zm-8.89 0a1.11 1.11 0 1 1 0 2.222 1.11 1.11 0 1 1 0-2.222zm-8.89 0a1.11 1.11 0 1 1 0 2.222 1.11 1.11 0 1 1 0-2.222zm-8.89 0a1.11 1.11 0 1 1 0 2.222 1.11 1.11 0 1 1 0-2.222zm-7.778 0a1.11 1.11 0 1 1 0 2.222 1.11 1.11 0 1 1 0-2.222zm-10 0a1.11 1.11 0 1 1 0 2.222 1.11 1.11 0 1 1 0-2.222zm-7.778 0a1.11 1.11 0 1 1 0 2.222 1.11 1.11 0 1 1 0-2.222zm-10 0a1.11 1.11 0 1 1 0 2.222 1.11 1.11 0 1 1 0-2.222zm-7.778 0a1.11 1.11 0 1 1 0 2.222 1.11 1.11 0 1 1 0-2.222zm-8.89 0a1.11 1.11 0 1 1 0 2.222 1.11 1.11 0 1 1 0-2.222zm-8.89 0a1.11 1.11 0 1 1 0 2.222 1.11 1.11 0 1 1 0-2.222zm-8.89 0a1.11 1.11 0 1 1 0 2.222 1.11 1.11 0 1 1 0-2.222zm-8.89 0a1.11 1.11 0 1 1 0 2.222 1.11 1.11 0 1 1 0-2.222zm-8.89 0a1.11 1.11 0 1 1 0 2.222 1.11 1.11 0 1 1 0-2.222zm-7.778 0a1.11 1.11 0 1 1 0 2.222 1.11 1.11 0 1 1 0-2.222zm-10 0a1.11 1.11 0 1 1 0 2.222 1.11 1.11 0 1 1 0-2.222zm167.778-8.89a1.11 1.11 0 1 1 0 2.222 1.11 1.11 0 1 1 0-2.222zm-10 0a1.11 1.11 0 1 1 0 2.222 1.11 1.11 0 1 1 0-2.222zm-7.778 0a1.11 1.11 0 1 1 0 2.222 1.11 1.11 0 1 1 0-2.222zm-8.89 0a1.11 1.11 0 1 1 0 2.222 1.11 1.11 0 1 1 0-2.222zm-8.89 0a1.11 1.11 0 1 1 0 2.222 1.11 1.11 0 1 1 0-2.222zm-8.89 0a1.11 1.11 0 1 1 0 2.222 1.11 1.11 0 1 1 0-2.222zm-8.89 0a1.11 1.11 0 1 1 0 2.222 1.11 1.11 0 1 1 0-2.222zm-8.89 0a1.11 1.11 0 1 1 0 2.222 1.11 1.11 0 1 1 0-2.222zm-7.778 0a1.11 1.11 0 1 1 0 2.222 1.11 1.11 0 1 1 0-2.222zm-10 0a1.11 1.11 0 1 1 0 2.222 1.11 1.11 0 1 1 0-2.222zm-7.778 0a1.11 1.11 0 1 1 0 2.222 1.11 1.11 0 1 1 0-2.222zm-10 0a1.11 1.11 0 1 1 0 2.222 1.11 1.11 0 1 1 0-2.222zm-7.778 0a1.11 1.11 0 1 1 0 2.222 1.11 1.11 0 1 1 0-2.222zm-8.89 0a1.11 1.11 0 1 1 0 2.222 1.11 1.11 0 1 1 0-2.222zm-8.89 0a1.11 1.11 0 1 1 0 2.222 1.11 1.11 0 1 1 0-2.222zm-8.89 0a1.11 1.11 0 1 1 0 2.222 1.11 1.11 0 1 1 0-2.222zm-8.89 0a1.11 1.11 0 1 1 0 2.222 1.11 1.11 0 1 1 0-2.222zm-8.89 0a1.11 1.11 0 1 1 0 2.222 1.11 1.11 0 1 1 0-2.222zm-7.778 0a1.11 1.11 0 1 1 0 2.222 1.11 1.11 0 1 1 0-2.222zm-10 0a1.11 1.11 0 1 1 0 2.222 1.11 1.11 0 1 1 0-2.222zm167.778-8.89a1.11 1.11 0 1 1 0 2.222 1.11 1.11 0 1 1 0-2.222zm-10 0a1.11 1.11 0 1 1 0 2.222 1.11 1.11 0 1 1 0-2.222zm-7.778 0a1.11 1.11 0 1 1 0 2.222 1.11 1.11 0 1 1 0-2.222zm-8.89 0a1.11 1.11 0 1 1 0 2.222 1.11 1.11 0 1 1 0-2.222zm-8.89 0a1.11 1.11 0 1 1 0 2.222 1.11 1.11 0 1 1 0-2.222zm-8.89 0a1.11 1.11 0 1 1 0 2.222 1.11 1.11 0 1 1 0-2.222zm-8.89 0a1.11 1.11 0 1 1 0 2.222 1.11 1.11 0 1 1 0-2.222zm-8.89 0a1.11 1.11 0 1 1 0 2.222 1.11 1.11 0 1 1 0-2.222zm-7.778 0a1.11 1.11 0 1 1 0 2.222 1.11 1.11 0 1 1 0-2.222zm-10 0a1.11 1.11 0 1 1 0 2.222 1.11 1.11 0 1 1 0-2.222zm-7.778 0a1.11 1.11 0 1 1 0 2.222 1.11 1.11 0 1 1 0-2.222zm-10 0a1.11 1.11 0 1 1 0 2.222 1.11 1.11 0 1 1 0-2.222zm-7.778 0a1.11 1.11 0 1 1 0 2.222 1.11 1.11 0 1 1 0-2.222zm-8.89 0a1.11 1.11 0 1 1 0 2.222 1.11 1.11 0 1 1 0-2.222zm-8.89 0a1.11 1.11 0 1 1 0 2.222 1.11 1.11 0 1 1 0-2.222zm-8.89 0a1.11 1.11 0 1 1 0 2.222 1.11 1.11 0 1 1 0-2.222zm-8.89 0a1.11 1.11 0 1 1 0 2.222 1.11 1.11 0 1 1 0-2.222zm-8.89 0a1.11 1.11 0 1 1 0 2.222 1.11 1.11 0 1 1 0-2.222zm-7.778 0a1.11 1.11 0 1 1 0 2.222 1.11 1.11 0 1 1 0-2.222zm-10 0a1.11 1.11 0 1 1 0 2.222 1.11 1.11 0 1 1 0-2.222zm167.778-8.89a1.11 1.11 0 1 1 0 2.222 1.11 1.11 0 1 1 0-2.222zm-10 0a1.11 1.11 0 1 1 0 2.222 1.11 1.11 0 1 1 0-2.222zm-7.778 0a1.11 1.11 0 1 1 0 2.222 1.11 1.11 0 1 1 0-2.222zm-8.89 0a1.11 1.11 0 1 1 0 2.222 1.11 1.11 0 1 1 0-2.222zm-8.89 0a1.11 1.11 0 1 1 0 2.222 1.11 1.11 0 1 1 0-2.222zm-8.89 0a1.11 1.11 0 1 1 0 2.222 1.11 1.11 0 1 1 0-2.222zm-8.89 0a1.11 1.11 0 1 1 0 2.222 1.11 1.11 0 1 1 0-2.222zm-8.89 0a1.11 1.11 0 1 1 0 2.222 1.11 1.11 0 1 1 0-2.222zm-7.778 0a1.11 1.11 0 1 1 0 2.222 1.11 1.11 0 1 1 0-2.222zm-10 0a1.11 1.11 0 1 1 0 2.222 1.11 1.11 0 1 1 0-2.222zm-7.778 0a1.11 1.11 0 1 1 0 2.222 1.11 1.11 0 1 1 0-2.222zm-10 0a1.11 1.11 0 1 1 0 2.222 1.11 1.11 0 1 1 0-2.222zm-7.778 0a1.11 1.11 0 1 1 0 2.222 1.11 1.11 0 1 1 0-2.222zm-8.89 0a1.11 1.11 0 1 1 0 2.222 1.11 1.11 0 1 1 0-2.222zm-8.89 0a1.11 1.11 0 1 1 0 2.222 1.11 1.11 0 1 1 0-2.222zm-8.89 0a1.11 1.11 0 1 1 0 2.222 1.11 1.11 0 1 1 0-2.222zm-8.89 0a1.11 1.11 0 1 1 0 2.222 1.11 1.11 0 1 1 0-2.222zm-8.89 0a1.11 1.11 0 1 1 0 2.222 1.11 1.11 0 1 1 0-2.222zm-7.778 0a1.11 1.11 0 1 1 0 2.222 1.11 1.11 0 1 1 0-2.222zm-10 0a1.11 1.11 0 1 1 0 2.222 1.11 1.11 0 1 1 0-2.222zM157.735 6.29a1.11 1.11 0 1 1 0 2.222 1.11 1.11 0 1 1 0-2.222zm-10 0a1.11 1.11 0 1 1 0 2.222 1.11 1.11 0 1 1 0-2.222zm-7.778 0a1.11 1.11 0 1 1 0 2.222 1.11 1.11 0 1 1 0-2.222zm-8.89 0a1.11 1.11 0 1 1 0 2.222 1.11 1.11 0 1 1 0-2.222zm-8.89 0a1.11 1.11 0 1 1 0 2.222 1.11 1.11 0 1 1 0-2.222zm-8.89 0a1.11 1.11 0 1 1 0 2.222 1.11 1.11 0 1 1 0-2.222zm-8.89 0a1.11 1.11 0 1 1 0 2.222 1.11 1.11 0 1 1 0-2.222zm-8.89 0a1.11 1.11 0 1 1 0 2.222 1.11 1.11 0 1 1 0-2.222zm-7.778 0a1.11 1.11 0 1 1 0 2.222 1.11 1.11 0 1 1 0-2.222zm-10 0a1.11 1.11 0 1 1 0 2.222 1.11 1.11 0 1 1 0-2.222zm-7.778 0a1.11 1.11 0 1 1 0 2.222 1.11 1.11 0 1 1 0-2.222zm-10 0a1.11 1.11 0 1 1 0 2.222 1.11 1.11 0 1 1 0-2.222zm-7.778 0a1.11 1.11 0 1 1 0 2.222 1.11 1.11 0 1 1 0-2.222zm-8.89 0a1.11 1.11 0 1 1 0 2.222 1.11 1.11 0 1 1 0-2.222zm-8.89 0a1.11 1.11 0 1 1 0 2.222 1.11 1.11 0 1 1 0-2.222zm-8.89 0a1.11 1.11 0 1 1 0 2.222 1.11 1.11 0 1 1 0-2.222zm-8.89 0a1.11 1.11 0 1 1 0 2.222 1.11 1.11 0 1 1 0-2.222zm-8.89 0a1.11 1.11 0 1 1 0 2.222 1.11 1.11 0 1 1 0-2.222zm-7.778 0a1.11 1.11 0 1 1 0 2.222 1.11 1.11 0 1 1 0-2.222zm-10 0a1.11 1.11 0 1 1 0 2.222 1.11 1.11 0 1 1 0-2.222zm167.778-10a1.11 1.11 0 1 1 0 2.222 1.11 1.11 0 1 1 0-2.222zm-10 0a1.11 1.11 0 1 1 0 2.222 1.11 1.11 0 1 1 0-2.222zm-7.778 0a1.11 1.11 0 1 1 0 2.222 1.11 1.11 0 1 1 0-2.222zm-8.89 0a1.11 1.11 0 1 1 0 2.222 1.11 1.11 0 1 1 0-2.222zm-8.89 0a1.11 1.11 0 1 1 0 2.222 1.11 1.11 0 1 1 0-2.222zm-8.89 0a1.11 1.11 0 1 1 0 2.222 1.11 1.11 0 1 1 0-2.222zm-8.89 0a1.11 1.11 0 1 1 0 2.222 1.11 1.11 0 1 1 0-2.222zm-8.89 0a1.11 1.11 0 1 1 0 2.222 1.11 1.11 0 1 1 0-2.222zm-7.778 0a1.11 1.11 0 1 1 0 2.222 1.11 1.11 0 1 1 0-2.222zm-10 0a1.11 1.11 0 1 1 0 2.222 1.11 1.11 0 1 1 0-2.222zm-7.778 0a1.11 1.11 0 1 1 0 2.222 1.11 1.11 0 1 1 0-2.222zm-10 0a1.11 1.11 0 1 1 0 2.222 1.11 1.11 0 1 1 0-2.222zm-7.778 0a1.11 1.11 0 1 1 0 2.222 1.11 1.11 0 1 1 0-2.222zm-8.89 0a1.11 1.11 0 1 1 0 2.222 1.11 1.11 0 1 1 0-2.222zm-8.89 0a1.11 1.11 0 1 1 0 2.222 1.11 1.11 0 1 1 0-2.222zm-8.89 0a1.11 1.11 0 1 1 0 2.222 1.11 1.11 0 1 1 0-2.222zm-8.89 0a1.11 1.11 0 1 1 0 2.222 1.11 1.11 0 1 1 0-2.222zm-8.89 0a1.11 1.11 0 1 1 0 2.222 1.11 1.11 0 1 1 0-2.222zm-7.778 0a1.11 1.11 0 1 1 0 2.222 1.11 1.11 0 1 1 0-2.222zm-10 0a1.11 1.11 0 1 1 0 2.222 1.11 1.11 0 1 1 0-2.222z" fill="#d5d5d5" mask="url(#B)"/></g></svg>