<?xml version="1.0" encoding="UTF-8"?>
<svg width="526px" height="228px" viewBox="0 0 526 228" version="1.1" xmlns="http://www.w3.org/2000/svg" xmlns:xlink="http://www.w3.org/1999/xlink">
    <!-- Generator: Sketch 55.2 (78181) - https://sketchapp.com -->
    <title>Path 25 + Group 32 + Path 2 + Path 2 + Combined Shape + Group 10 + Group 10 + Combined Shape Mask</title>
    <desc>Created with Sketch.</desc>
    <defs>
        <linearGradient x1="50%" y1="0%" x2="50%" y2="100%" id="linearGradient-1">
            <stop stop-color="#FFFFFF" stop-opacity="0.5" offset="0%"></stop>
            <stop stop-color="#FFFFFF" offset="100%"></stop>
        </linearGradient>
        <linearGradient x1="0%" y1="0%" x2="100%" y2="100%" id="linearGradient-2">
            <stop stop-color="#FDD339" offset="0%"></stop>
            <stop stop-color="#FCA222" offset="100%"></stop>
        </linearGradient>
        <linearGradient x1="50%" y1="0%" x2="50%" y2="95.836046%" id="linearGradient-3">
            <stop stop-color="#EAF7FF" offset="0%"></stop>
            <stop stop-color="#FFFFFF" offset="100%"></stop>
        </linearGradient>
        <linearGradient x1="50%" y1="0%" x2="50%" y2="100%" id="linearGradient-4">
            <stop stop-color="#DBE5F8" offset="0%"></stop>
            <stop stop-color="#EDF3FB" offset="100%"></stop>
        </linearGradient>
        <linearGradient x1="50%" y1="0%" x2="50%" y2="100%" id="linearGradient-5">
            <stop stop-color="#78D695" offset="0%"></stop>
            <stop stop-color="#A6F693" offset="100%"></stop>
        </linearGradient>
        <linearGradient x1="50%" y1="0%" x2="50%" y2="95.836046%" id="linearGradient-6">
            <stop stop-color="#EAF7FF" offset="0%"></stop>
            <stop stop-color="#FFFFFF" offset="100%"></stop>
        </linearGradient>
        <linearGradient x1="50%" y1="0%" x2="50%" y2="100%" id="linearGradient-7">
            <stop stop-color="#DBE5F8" offset="0%"></stop>
            <stop stop-color="#EDF3FB" offset="100%"></stop>
        </linearGradient>
        <linearGradient x1="50%" y1="0%" x2="50%" y2="95.836046%" id="linearGradient-8">
            <stop stop-color="#EAF7FF" offset="0%"></stop>
            <stop stop-color="#FFFFFF" offset="100%"></stop>
        </linearGradient>
    </defs>
    <g id="update-10-sep" stroke="none" stroke-width="1" fill="none" fill-rule="evenodd">
        <g id="Desktop-Home" transform="translate(-824.000000, -3324.000000)">
            <g id="Group-53" transform="translate(90.000000, 3067.000000)">
                <g id="Path-25-+-Group-32-+-Path-2-+-Path-2-+-Combined-Shape-+-Group-10-+-Group-10-+-Combined-Shape-Mask" transform="translate(734.000000, 257.000000)">
                    <path d="M185.078252,92.383515 C185.911134,70.2556948 205.483865,57.6594261 243.796444,54.5947089 C301.265313,49.9976332 299.183108,11.8227637 337.495687,2.27174676 C375.808266,-7.27927015 444.104603,13.4838101 452.016984,60.823633 C459.929364,108.163456 517.398233,162.147465 452.016984,168.79165 C386.635734,175.435836 369.56165,198.275224 322.087367,191.631038 C274.613084,184.986853 202.985218,183.741068 191.324868,148.443832 C183.551301,124.912341 181.469096,106.225568 185.078252,92.383515 Z" id="Path-25" fill="url(#linearGradient-1)"></path>
                    <g id="Group-32" transform="translate(222.000000, 82.000000)">
                        <circle id="Oval-6" fill="url(#linearGradient-2)" cx="209" cy="9" r="9"></circle>
                        <path d="M37.9236908,39 L112,39 C111.314379,37.0790835 108.785426,35.0704505 104.41314,32.9741009 C104.41314,28.7549823 100.759217,25.7413262 97.7142817,24.8496403 C95.4983682,24.2007271 93.0348215,24.2007271 90.3236415,24.8496403 C85.5069415,20.2204269 80.4903853,20.5176556 75.273973,25.7413262 C73.354798,17.9058202 70.3098626,16.7003578 66.65594,15.4948953 C63.0020175,14.2894329 53.294533,14.5591345 47.9460978,24.8496403 C38.5288659,25.1990319 35.1880636,29.9158184 37.9236908,39 Z" id="Path-6" fill="#EAF6FE"></path>
                        <path d="M0.541898627,17 L44,17 C43.5977692,15.8794654 42.1141165,14.7077628 39.5490419,13.4848922 C39.5490419,11.0237397 37.4054074,9.2657736 35.6190452,8.74562349 C34.3190427,8.36709079 32.8737619,8.36709079 31.283203,8.74562349 C28.4574057,6.04524904 25.5143594,6.21863241 22.4540642,9.2657736 C21.3281482,4.69506181 19.541786,3.99187538 17.3981515,3.28868895 C15.2545169,2.58550252 9.55945934,2.74282844 6.42171074,8.74562349 C0.896934673,8.94943526 -1.0630027,11.7008941 0.541898627,17 Z" id="Path-6" fill="#EAF6FE"></path>
                    </g>
                    <path d="M450.170213,60.6382979 C455.515366,62.5248227 458.187943,64.5685579 458.187943,66.7695035 C458.502364,65.1973995 461.803783,63.6252955 468.092199,62.0531915 C461.803783,65.5118203 458.345154,67.8699764 457.716312,69.1276596 C456.77305,65.9834515 454.257683,63.1536643 450.170213,60.6382979 Z" id="Path-2" fill="#967146"></path>
                    <path d="M469.574468,66.7021277 C473.392435,68.0496454 475.301418,69.5094563 475.301418,71.0815603 C475.526005,69.9586288 477.884161,68.8356974 482.375887,67.712766 C477.884161,70.1832151 475.413712,71.8676123 474.964539,72.7659574 C474.29078,70.5200946 472.49409,68.498818 469.574468,66.7021277 Z" id="Path-2" fill="#967146"></path>
                    <path d="M293.723404,226.787234 L293.723404,201.793866 L338.081828,201.793866 L338.081828,182.264689 L346.710205,182.264689 L346.710205,145.27376 L360.112244,145.27376 L368.767884,128.435749 L377.150075,145.000226 L386.689997,145.000226 L386.689997,134.092494 L397.589252,134.092494 L397.589252,121.276596 L417.094883,121.276596 L417.094883,182.718329 L430.301055,182.718329 L430.301055,172.696208 L442.041208,172.696208 L442.041208,182.253598 L465.269545,182.253598 L465.269545,154.098713 L475.270756,154.098713 L475.270756,148.881206 L478.000665,148.881206 L479.363511,139.792709 L480.726356,148.881206 L482.981084,148.881206 L482.981084,153.528381 L492.079372,153.528381 L492.079372,180.245303 L500.707416,180.245303 L500.707416,170.392759 L512.071809,170.392759 L512.071809,204.073138 L525.626995,204.073138 L525.626995,226.787234 L293.723404,226.787234 Z M401.681303,124.996061 L401.681303,129.54031 L406.224122,129.54031 L406.224122,124.996061 L401.681303,124.996061 Z M408.949814,124.996061 L408.949814,129.54031 L413.492633,129.54031 L413.492633,124.996061 L408.949814,124.996061 Z M401.681303,132.266859 L401.681303,136.811108 L406.224122,136.811108 L406.224122,132.266859 L401.681303,132.266859 Z M408.949814,132.266859 L408.949814,136.811108 L413.492633,136.811108 L413.492633,132.266859 L408.949814,132.266859 Z M351.710293,152.261554 L351.710293,156.805803 L356.253112,156.805803 L356.253112,152.261554 L351.710293,152.261554 Z M358.978803,152.261554 L358.978803,156.805803 L363.521622,156.805803 L363.521622,152.261554 L358.978803,152.261554 Z M351.710293,159.532352 L351.710293,164.076601 L356.253112,164.076601 L356.253112,159.532352 L351.710293,159.532352 Z M358.978803,159.532352 L358.978803,164.076601 L363.521622,164.076601 L363.521622,159.532352 L358.978803,159.532352 Z M367.155878,152.261554 L367.155878,156.805803 L371.698697,156.805803 L371.698697,152.261554 L367.155878,152.261554 Z M374.424388,152.261554 L374.424388,156.805803 L378.967207,156.805803 L378.967207,152.261554 L374.424388,152.261554 Z M367.155878,159.532352 L367.155878,164.076601 L371.698697,164.076601 L371.698697,159.532352 L367.155878,159.532352 Z M374.424388,159.532352 L374.424388,164.076601 L378.967207,164.076601 L378.967207,159.532352 L374.424388,159.532352 Z M382.601463,152.261554 L382.601463,156.805803 L387.144282,156.805803 L387.144282,152.261554 L382.601463,152.261554 Z M382.601463,159.532352 L382.601463,164.076601 L387.144282,164.076601 L387.144282,159.532352 L382.601463,159.532352 Z" id="Combined-Shape" fill="url(#linearGradient-3)" transform="translate(409.675199, 174.031915) scale(-1, 1) translate(-409.675199, -174.031915) "></path>
                    <g id="Group-10" transform="translate(439.255319, 192.829787)">
                        <path d="M7.58541047,30.8418613 C11.9448418,31.01622 14.2989347,30.1444262 14.6476892,28.2264799 C15.1708209,25.3495605 11.8685517,22.472641 11.5088986,21.4264885 C11.1492456,20.380336 12.0320304,19.0726453 13.3398598,17.5034165 C14.6476892,15.9341877 16.4786503,13.3188064 13.3398598,10.9649632 C10.2010692,8.61112005 13.6014257,5.7342006 11.5088986,3.90343368 C9.41637161,2.07266675 4.44661993,-1.58886709 3.40035642,0.764976094 C2.3540929,3.11881928 4.18505405,5.21112434 4.70818581,7.30342939 C5.23131756,9.39573445 2.61565878,10.1803488 1.83096115,11.7495776 C1.04626351,13.3188064 0.523131756,14.6264971 2.61565878,16.9803403 C4.70818581,19.3341835 0,21.4264885 0,23.5187936 C0,25.6110986 2.92616096,28.7495562 5.23131756,29.7957087 C6.76808863,30.4931437 7.55278626,30.8418613 7.58541047,30.8418613 Z" id="Path-15" fill="url(#linearGradient-4)"></path>
                        <path d="M7.63711544,35.1702128 C6.97144823,32.1059321 6.38898941,29.8077215 5.889739,28.2755812 C5.14086338,25.9773707 4.39198776,24.1898736 5.889739,21.3809496 C6.16191504,20.8705031 6.43409107,20.2167005 6.69278489,19.4716438 C6.73412752,19.3525741 4.98441299,17.1634036 5.02501192,17.0398853 C5.07343536,16.8925615 6.91200351,18.8099948 6.9591973,18.6570059 C7.98729906,15.3241903 8.70146463,10.732717 8.13636585,8.61311333 C8.50200372,9.82872088 8.51061439,11.6264339 8.33582763,13.504701 C8.32519255,13.6189861 9.13538056,13.4354783 10.7663917,12.9541777 C9.09279324,13.8285269 8.25107015,14.3065768 8.24122241,14.3883272 C7.88247293,17.3664614 7.13615053,20.350193 6.68028422,21.3809496 C6.09464538,22.7051341 5.85159385,23.7490441 6.15393826,25.7584499 C6.17427005,25.8935767 9.24331421,24.5563491 9.26864042,24.700587 C9.28974324,24.8207718 6.26635526,26.4209714 6.29100414,26.5479641 C6.39068765,27.0615401 6.51966104,27.6325805 6.68028422,28.2755812 C7.3181717,30.8291484 7.80353225,33.127359 8.13636585,35.1702128 L7.63711544,35.1702128 Z" id="Path-16" fill="#D7DBE4"></path>
                    </g>
                    <g id="Group-10" transform="translate(464.723404, 180.702128)">
                        <path d="M9.82697121,39.9601627 C15.4746558,40.1860701 18.5244055,39.0565332 18.9762203,36.5715519 C19.6539424,32.8440801 15.3758213,29.1166083 14.9098874,27.761164 C14.4439534,26.4057197 15.5876095,24.7114143 17.2819149,22.6782478 C18.9762203,20.6450814 21.3482478,17.2564706 17.2819149,14.2067209 C13.215582,11.1569712 17.620776,7.42949937 14.9098874,5.05747184 C12.1989987,2.68544431 5.7606383,-2.05861076 4.40519399,0.991138924 C3.04974969,4.04088861 5.42177722,6.75177722 6.09949937,9.46266583 C6.77722153,12.1735544 3.38861076,13.1901377 2.37202753,15.2233041 C1.35544431,17.2564706 0.677722153,18.950776 3.38861076,22.0005257 C6.09949937,25.0502753 0,27.761164 0,30.4720526 C0,33.1829412 3.79086928,37.2492741 6.77722153,38.6047184 C8.76812302,39.5083479 9.78470625,39.9601627 9.82697121,39.9601627 Z" id="Path-15" fill="url(#linearGradient-5)"></path>
                        <path d="M10.3230983,46.0851064 C9.41946873,42.0187735 8.62879288,38.9690238 7.95107073,36.9358573 C6.9344875,33.8861076 5.91790427,31.5140801 7.95107073,27.7866083 C8.32054409,27.1092404 8.69001746,26.2416373 9.04118898,25.2529393 C9.09731076,25.0949325 6.72210931,22.1898802 6.77722153,22.02597 C6.84295536,21.8304698 9.33877375,24.3749241 9.40283835,24.1719061 C10.7984653,19.7492246 11.7679304,13.6562909 11.0008204,10.8435544 C11.4971663,12.4566785 11.5088551,14.8422627 11.2715857,17.334743 C11.2571488,17.4864005 12.3569623,17.2428838 14.5710263,16.6041927 C12.2991509,17.7644635 11.1565291,18.3988407 11.143161,18.5073243 C10.656166,22.45934 9.64304871,26.4187834 9.02421959,27.7866083 C8.22922692,29.5438151 7.89928948,30.9290947 8.30971578,33.5955975 C8.33731577,33.7749122 12.50348,32.000397 12.5378598,32.1918023 C12.5665065,32.3512887 8.46231955,34.4747705 8.4957799,34.6432911 C8.63109821,35.324812 8.80617693,36.0825886 9.02421959,36.9358573 C9.89013871,40.3244681 10.5490056,43.3742178 11.0008204,46.0851064 L10.3230983,46.0851064 Z" id="Path-16" fill="#53B973"></path>
                    </g>
                    <path d="M41,225.95777 L151.001999,227.592684 L100.175051,193.753171 C98.5669606,192.682539 96.4859691,192.634102 94.8298073,193.628757 L41,225.95777 Z" id="Path-4" fill="url(#linearGradient-6)"></path>
                    <g id="Group-10" transform="translate(0.000000, 197.519108)">
                        <path d="M6.2546367,25.4310084 C9.84925549,25.5747779 11.7903496,24.8559304 12.0779191,23.2744659 C12.5092734,20.9022692 9.78634966,18.5300724 9.48979361,17.6674554 C9.19323756,16.8048384 9.92114787,15.7265672 10.9995335,14.4326417 C12.0779191,13.1387162 13.587659,10.9821737 10.9995335,9.04128548 C8.41140798,7.10039723 11.2152106,4.72820049 9.48979361,3.21862075 C7.76437659,1.70904101 3.66651117,-1.31011848 2.80380266,0.630769762 C1.94109415,2.571658 3.45083404,4.296892 3.8821883,6.02212599 C4.31354255,7.74735998 2.15677128,8.39432273 1.50973989,9.68824822 C0.86270851,10.9821737 0.431354255,12.060445 2.15677128,14.0013332 C3.8821883,15.9422214 0,17.6674554 0,19.3926894 C0,21.1179234 2.41279939,23.7057744 4.31354255,24.5683914 C5.58070466,25.1434694 6.22773604,25.4310084 6.2546367,25.4310084 Z" id="Path-15" fill="url(#linearGradient-7)"></path>
                        <path d="M6.29727063,29 C5.74838713,26.4733124 5.26811408,24.5782967 4.85645145,23.3149529 C4.23895752,21.4199372 3.62146359,19.9460361 4.85645145,17.6299058 C5.08087731,17.2090114 5.30530317,16.6699109 5.5186121,16.0555659 C5.55270164,15.9573856 4.10995457,14.1522802 4.14343088,14.0504317 C4.18335898,13.9289543 5.69937131,15.5099957 5.73828549,15.3838469 C6.58601853,12.6357359 7.17489189,8.84978418 6.70893325,7.10204082 C7.01042412,8.10438388 7.01752415,9.58670866 6.87340173,11.1354552 C6.86463245,11.2296903 7.53268222,11.0783768 8.87755102,10.6815149 C7.49756635,11.4024696 6.80351398,11.796651 6.79539391,11.8640592 C6.49958294,14.3197138 5.8841943,16.7799837 5.50830453,17.6299058 C5.02540935,18.7217772 4.82499844,19.5825451 5.07429997,21.2394236 C5.09106478,21.3508439 7.62168013,20.2482177 7.64256316,20.3671507 C7.65996372,20.4662504 5.16699469,21.7857133 5.18731921,21.8904265 C5.26951438,22.3139015 5.37586086,22.7847593 5.50830453,23.3149529 C6.03428193,25.4205259 6.4344915,27.3155416 6.70893325,29 L6.29727063,29 Z" id="Path-16" fill="#D7DBE4"></path>
                    </g>
                    <path d="M135,226.76527 L204.729689,226.76527 L172.385185,205.777187 C170.721,204.697311 168.575782,204.703465 166.91782,205.79287 L135,226.76527 Z" id="Path-4" fill="url(#linearGradient-8)"></path>
                </g>
            </g>
        </g>
    </g>
</svg>