<svg xmlns="http://www.w3.org/2000/svg" xmlns:xlink="http://www.w3.org/1999/xlink" width="227" height="120"><defs><path id="A" d="M0 0h940v140H0z"/><path d="M738.813 55.053c-.92-4.6-4.96-8.053-9.813-8.053-3.853 0-7.2 2.187-8.867 5.387-4.013.427-7.133 3.827-7.133 7.947a8.01 8.01 0 0 0 8 8h17.333A6.67 6.67 0 0 0 745 61.667c0-3.52-2.733-6.373-6.187-6.613h0z" id="B"/></defs><g transform="translate(-713 -20)" fill-rule="evenodd"><mask id="C" fill="#fff"><use xlink:href="#A"/></mask><circle fill="#2176ae" opacity=".082" mask="url(#C)" cx="859" cy="210" r="160"/><path d="M789.473 68a5.39 5.39 0 0 0 2.763-.744c.85-.496 1.523-1.16 2.02-1.993s.744-1.745.744-2.737a5.39 5.39 0 0 0-.744-2.763 5.52 5.52 0 0 0-2.019-2.019 5.39 5.39 0 0 0-2.763-.744c-.992 0-1.904.248-2.737.744s-1.497 1.17-1.993 2.02a5.39 5.39 0 0 0-.744 2.763c0 1.523.53 2.816 1.594 3.88S787.95 68 789.473 68zM789 47c2.932 0 5.627.72 8.082 2.156a16.18 16.18 0 0 1 5.773 5.805c1.43 2.47 2.144 5.18 2.144 8.127 0 2.248-.55 4.83-1.65 7.74-.953 2.47-2.273 5.142-3.96 8.017l-4.784 7.132-3.96 5.087L789 93l-1.65-1.935-3.96-5.087-4.784-7.132c-1.686-2.875-3.006-5.547-3.96-8.017-1.1-2.912-1.65-5.492-1.65-7.74 0-2.95.715-5.658 2.144-8.127a16.18 16.18 0 0 1 5.773-5.805C783.373 47.72 786.068 47 789 47z" fill="#d4dadf"/><g fill="#2176ae"><use opacity=".082" xlink:href="#B"/><path d="M852.813 28.053c-.92-4.6-4.96-8.053-9.813-8.053-3.853 0-7.2 2.187-8.867 5.387-4.013.427-7.133 3.827-7.133 7.947a8.01 8.01 0 0 0 8 8h17.333A6.67 6.67 0 0 0 859 34.667c0-3.52-2.733-6.373-6.187-6.613h0z" opacity=".045"/></g></g></svg>