<svg id="Layer_1" data-name="Layer 1" xmlns="http://www.w3.org/2000/svg" xmlns:xlink="http://www.w3.org/1999/xlink" viewBox="0 0 80 80"><defs><style>.cls-1{fill:none;}.cls-2{fill:url(#linear-gradient);}.cls-3{clip-path:url(#clip-path);}.cls-4{fill:#91c5e6;}.cls-5,.cls-6{fill:#ceecff;}.cls-6{fill-rule:evenodd;}.cls-7{fill:#57a2d4;}</style><linearGradient id="linear-gradient" x1="-452.76" y1="535.26" x2="-452.76" y2="534.3" gradientTransform="matrix(80, 0, 0, -80, 36261, 42821)" gradientUnits="userSpaceOnUse"><stop offset="0" stop-color="#eaf7ff"/><stop offset="1" stop-color="#fff"/></linearGradient><clipPath id="clip-path"><circle class="cls-1" cx="40" cy="40" r="40"/></clipPath></defs><title>Delhi NCR1</title><g id="Oval-2"><circle class="cls-2" cx="40" cy="40" r="40"/></g><g class="cls-3"><polygon class="cls-4" points="12.76 59.13 11.56 59.13 11.56 60.34 28.48 60.34 28.48 57.92 12.76 57.92 12.76 59.13"/><rect class="cls-4" x="36.34" y="24.07" width="6.04" height="2.42"/><polygon class="cls-4" points="36.34 22.86 36.94 22.86 36.94 21.65 38.15 21.65 38.15 22.86 38.76 22.86 38.76 21.65 39.96 21.65 39.96 22.86 40.57 22.86 40.57 21.65 41.78 21.65 41.78 22.86 42.38 22.86 42.38 21.65 42.99 21.65 42.99 21.05 42.38 21.05 42.38 20.44 41.78 20.44 41.78 21.05 40.57 21.05 40.57 20.44 39.96 20.44 39.96 21.05 38.76 21.05 38.76 20.44 38.15 20.44 38.15 21.05 36.94 21.05 36.94 20.44 36.34 20.44 36.34 21.05 35.73 21.05 35.73 21.65 36.34 21.65 36.34 22.86"/><polygon class="cls-4" points="41.27 45.23 43.59 45.23 45.4 42.81 45.4 41 41.06 41 40.57 30.72 43.59 30.72 43.59 28.91 35.13 28.91 35.13 30.72 38.15 30.72 37.66 41 33.32 41 33.32 42.81 35.13 45.23 37.45 45.23 36.93 56.11 30.9 56.11 30.9 57.92 32.71 60.34 36.72 60.34 35.73 80.89 42.99 80.89 42 60.34 46.01 60.34 47.82 57.92 47.82 56.11 41.79 56.11 41.27 45.23"/><polygon class="cls-4" points="66.53 58.92 66.53 57.71 50.82 57.71 50.82 60.13 67.74 60.13 67.74 58.92 66.53 58.92"/><rect class="cls-5" x="23.64" y="53.08" width="4.84" height="1.21"/><polygon class="cls-6" points="43.76 45 43.59 45.23 41.27 45.23 41.79 56.11 44.83 56.11 43.76 45"/><polygon class="cls-6" points="42.38 30.72 40.57 30.72 41.06 41 43.37 41 42.38 30.72"/><polygon class="cls-6" points="42 60.34 42.99 80.89 47.22 80.89 45.24 60.34 42 60.34"/><rect class="cls-5" x="50.82" y="52.87" width="4.84" height="1.21"/><rect class="cls-7" x="35.73" y="22.86" width="7.25" height="1.21"/><rect class="cls-7" x="36.34" y="26.49" width="6.04" height="2.42"/><polygon class="cls-7" points="35.45 41 37.66 41 38.15 30.72 36.47 30.72 35.45 41"/><polygon class="cls-7" points="13.71 74.29 28.48 80.89 28.48 61.33 13.97 61.33 13.71 74.29"/><rect class="cls-7" x="21.23" y="54.29" width="7.25" height="2.42"/><polygon class="cls-7" points="65.33 61.12 50.82 61.12 50.82 80.68 65.58 74.08 65.33 61.12"/><rect class="cls-7" x="50.82" y="54.08" width="7.25" height="2.42"/><polygon class="cls-7" points="33.54 60.34 31.5 80.89 36.57 81.14 36.58 80.89 35.73 80.89 36.72 60.34 33.54 60.34"/><polygon class="cls-7" points="35.05 45.12 33.96 56.11 36.93 56.11 37.45 45.23 35.13 45.23 35.05 45.12"/></g></svg>