<?xml version="1.0" encoding="UTF-8"?>
<svg width="28px" height="20px" viewBox="0 0 28 20" version="1.1" xmlns="http://www.w3.org/2000/svg" xmlns:xlink="http://www.w3.org/1999/xlink">
    <title>Shape</title>
    <g id="Online-Booking-Inventory-Designs-FINAL-8-may-2020" stroke="none" stroke-width="1" fill="none" fill-rule="evenodd" opacity="0.75">
        <g id="Online-booking-Form-Inventory-Designs" transform="translate(-31.000000, -739.000000)" fill="#007FFF">
            <g id="Group-9" transform="translate(20.000000, 632.000000)">
                <g id="Group-8">
                    <g id="Group-3">
                        <g id="Group-40">
                            <path d="M15,114 C15.5746692,112.825503 16.1134216,111.61745 16.831758,110.275168 C17.2268431,109.637584 17.657845,109.067114 18.4480151,109 L30.5519849,109 C31.342155,109.067114 31.7731569,109.637584 32.168242,110.275168 C32.8865784,111.61745 33.4253308,112.825503 34,114 L15,114 Z M20.8023256,119 L28.1976744,119 C28.6511628,119 29,119.468085 29,120.021277 C29,120.531915 28.6511628,121 28.1976744,121 L20.8023256,121 C20.3837209,121 20,120.531915 20,120.021277 C20,119.468085 20.3837209,119 20.8023256,119 Z M19.0272048,107 C17.7492274,107 16.9682412,107.452174 15.9032601,108.913043 L14.1282915,112.843478 L11.4303393,112.843478 C11.0043469,112.843478 10.2233607,115 13.0633104,115.069565 L12.1048274,117.330435 C12.1403267,120.217391 12.1403267,123.069565 12.1403267,125.921739 C12.1403267,126.513043 12.6373179,127 13.2408073,127 L16.9327419,127 C17.5362312,127 17.997723,126.513043 17.997723,125.921739 L17.997723,123.556522 L31.9844753,123.556522 L31.9844753,125.921739 C31.9844753,126.513043 32.4814665,127 33.0849558,127 L36.7768904,127 C37.3803797,127 37.8418715,126.513043 37.8418715,125.921739 C37.8418715,123.069565 37.8773709,120.217391 37.8773709,117.330435 L36.9188879,115.069565 C39.7943369,115 38.9778514,112.843478 38.5873583,112.843478 L35.8894061,112.843478 L34.1144375,108.913043 C33.0494564,107.452174 32.2684702,107 30.9904929,107 L19.0272048,107 Z M33,118 C31.92,118 31,118.88 31,120 C31,121.08 31.92,122 33,122 C34.12,122 35,121.08 35,120 C35,118.88 34.12,118 33,118 Z M17,118 C18.08,118 19,118.88 19,120 C19,121.08 18.08,122 17,122 C15.88,122 15,121.08 15,120 C15,118.88 15.88,118 17,118 Z" id="Shape"></path>
                        </g>
                    </g>
                </g>
            </g>
        </g>
    </g>
</svg>