<?xml version="1.0" encoding="UTF-8"?>
<svg width="24px" height="22px" viewBox="0 0 24 22" version="1.1" xmlns="http://www.w3.org/2000/svg" xmlns:xlink="http://www.w3.org/1999/xlink">
    <title>noun_Home_1221664</title>
    <g id="Online-Booking-Inventory-Designs-FINAL-8-may-2020" stroke="none" stroke-width="1" fill="none" fill-rule="evenodd" opacity="0.75">
        <g id="noun_Home_1221664" fill="#007FFF">
            <path d="M23.7647059,11.2941176 C23.7877406,11.4579861 23.7324769,11.6231594 23.6154652,11.7401711 C23.4984535,11.8571828 23.3332802,11.9124465 23.1694118,11.8894118 C22.4635294,11.8894118 21.7411765,11.8894118 21.0258824,11.8894118 C20.6847059,11.8894118 20.6305882,11.9482353 20.6305882,12.2941176 C20.6305882,14.7003922 20.6305882,17.1066667 20.6305882,19.5129412 C20.6625118,19.9410828 20.5081309,20.3621756 20.2070379,20.6682268 C19.9059448,20.974278 19.4874294,21.1355154 19.0588235,21.1105882 L15.0588235,21.1105882 C14.52,21.1105882 14.3741176,20.9552941 14.3741176,20.4047059 C14.3741176,19.1717647 14.3741176,17.9388235 14.3741176,16.7058824 C14.3705602,15.5330616 13.5038395,14.5419376 12.3419634,14.3820464 C11.1800873,14.2221552 10.0778676,14.9423241 9.75764706,16.0705882 C9.68398888,16.3316657 9.64677392,16.6016721 9.64705882,16.8729412 C9.64705882,18.0494118 9.64705882,19.2258824 9.64705882,20.4188235 C9.64705882,20.9529412 9.48470588,21.1247059 8.94117647,21.1247059 L5.00470588,21.1247059 C3.98352941,21.1247059 3.35764706,20.5129412 3.37176471,19.4941176 C3.37176471,18.3176471 3.37176471,17.1647059 3.37176471,16 C3.37176471,14.7670588 3.37176471,13.5341176 3.37176471,12.3011765 C3.37176471,11.9741176 3.31058824,11.9129412 2.98588235,11.9129412 C2.3145098,11.9129412 1.64313725,11.9129412 0.971764706,11.9129412 C0.402352941,11.9129412 0.235294118,11.7552941 0.235294118,11.2070588 C0.235294118,10.7364706 0.235294118,10.2658824 0.235294118,9.77882353 C0.213358566,9.39101624 0.381978622,9.01689049 0.687058824,8.77647059 C3.68,6.2854902 6.67137255,3.79372549 9.66117647,1.30117647 L10.4847059,0.616470588 C11.3632424,-0.129990745 12.6532282,-0.129990745 13.5317647,0.616470588 L23.3058824,8.76941176 C23.5968122,8.99452149 23.7657041,9.3427522 23.7623529,9.71058824 C23.7647059,10.2470588 23.7647059,10.7741176 23.7647059,11.2941176 Z" id="Path"></path>
            <path d="M20,5.17647059 L18.1647059,3.65176471 C17.4588235,3.06588235 16.7529412,2.47529412 16.0470588,1.89411765 C15.9262284,1.81413056 15.8600002,1.67350906 15.8752941,1.52941176 C15.8894118,1.36941176 15.8752941,1.20705882 15.8752941,1.04470588 C15.8615399,0.837651955 15.934663,0.634227482 16.0770919,0.483315274 C16.2195209,0.332403066 16.4183796,0.247646219 16.6258824,0.249411765 C17.5011765,0.235294118 18.3764706,0.235294118 19.2517647,0.249411765 C19.6527299,0.241353247 19.9869058,0.554643123 20.0047059,0.955294118 C20.0141176,2.35294118 20,3.73647059 20,5.17647059 Z" id="Path"></path>
        </g>
    </g>
</svg>