<svg xmlns="http://www.w3.org/2000/svg" width="180" height="180" xmlns:v="https://vecta.io/nano"><path d="M177.5 175a2.5 2.5 0 1 1 0 5 2.5 2.5 0 1 1 0-5zm-25 0a2.5 2.5 0 1 1 0 5 2.5 2.5 0 1 1 0-5zm-25 0a2.5 2.5 0 1 1 0 5 2.5 2.5 0 1 1 0-5zm-25 0a2.5 2.5 0 1 1 0 5 2.5 2.5 0 1 1 0-5zm-25 0a2.5 2.5 0 1 1 0 5 2.5 2.5 0 1 1 0-5zm-25 0a2.5 2.5 0 1 1 0 5 2.5 2.5 0 1 1 0-5zm-25 0a2.5 2.5 0 1 1 0 5 2.5 2.5 0 1 1 0-5zm-25 0a2.5 2.5 0 1 1 0 5 2.5 2.5 0 1 1 0-5zm175-25a2.5 2.5 0 1 1 0 5 2.5 2.5 0 1 1 0-5zm-25 0a2.5 2.5 0 1 1 0 5 2.5 2.5 0 1 1 0-5zm-25 0a2.5 2.5 0 1 1 0 5 2.5 2.5 0 1 1 0-5zm-25 0a2.5 2.5 0 1 1 0 5 2.5 2.5 0 1 1 0-5zm-25 0a2.5 2.5 0 1 1 0 5 2.5 2.5 0 1 1 0-5zm-25 0a2.5 2.5 0 1 1 0 5 2.5 2.5 0 1 1 0-5zm-25 0a2.5 2.5 0 1 1 0 5 2.5 2.5 0 1 1 0-5zm-25 0a2.5 2.5 0 1 1 0 5 2.5 2.5 0 1 1 0-5zm175-25a2.5 2.5 0 1 1 0 5 2.5 2.5 0 1 1 0-5zm-25 0a2.5 2.5 0 1 1 0 5 2.5 2.5 0 1 1 0-5zm-25 0a2.5 2.5 0 1 1 0 5 2.5 2.5 0 1 1 0-5zm-25 0a2.5 2.5 0 1 1 0 5 2.5 2.5 0 1 1 0-5zm-25 0a2.5 2.5 0 1 1 0 5 2.5 2.5 0 1 1 0-5zm-25 0a2.5 2.5 0 1 1 0 5 2.5 2.5 0 1 1 0-5zm-25 0a2.5 2.5 0 1 1 0 5 2.5 2.5 0 1 1 0-5zm-25 0a2.5 2.5 0 1 1 0 5 2.5 2.5 0 1 1 0-5zm175-25a2.5 2.5 0 1 1 0 5 2.5 2.5 0 1 1 0-5zm-25 0a2.5 2.5 0 1 1 0 5 2.5 2.5 0 1 1 0-5zm-25 0a2.5 2.5 0 1 1 0 5 2.5 2.5 0 1 1 0-5zm-25 0a2.5 2.5 0 1 1 0 5 2.5 2.5 0 1 1 0-5zm-25 0a2.5 2.5 0 1 1 0 5 2.5 2.5 0 1 1 0-5zm-25 0a2.5 2.5 0 1 1 0 5 2.5 2.5 0 1 1 0-5zm-25 0a2.5 2.5 0 1 1 0 5 2.5 2.5 0 1 1 0-5zm-25 0a2.5 2.5 0 1 1 0 5 2.5 2.5 0 1 1 0-5zm175-25a2.5 2.5 0 1 1 0 5 2.5 2.5 0 1 1 0-5zm-25 0a2.5 2.5 0 1 1 0 5 2.5 2.5 0 1 1 0-5zm-25 0a2.5 2.5 0 1 1 0 5 2.5 2.5 0 1 1 0-5zm-25 0a2.5 2.5 0 1 1 0 5 2.5 2.5 0 1 1 0-5zm-25 0a2.5 2.5 0 1 1 0 5 2.5 2.5 0 1 1 0-5zm-25 0a2.5 2.5 0 1 1 0 5 2.5 2.5 0 1 1 0-5zm-25 0a2.5 2.5 0 1 1 0 5 2.5 2.5 0 1 1 0-5zm-25 0a2.5 2.5 0 1 1 0 5 2.5 2.5 0 1 1 0-5zm175-25a2.5 2.5 0 1 1 0 5 2.5 2.5 0 1 1 0-5zm-25 0a2.5 2.5 0 1 1 0 5 2.5 2.5 0 1 1 0-5zm-25 0a2.5 2.5 0 1 1 0 5 2.5 2.5 0 1 1 0-5zm-25 0a2.5 2.5 0 1 1 0 5 2.5 2.5 0 1 1 0-5zm-25 0a2.5 2.5 0 1 1 0 5 2.5 2.5 0 1 1 0-5zm-25 0a2.5 2.5 0 1 1 0 5 2.5 2.5 0 1 1 0-5zm-25 0a2.5 2.5 0 1 1 0 5 2.5 2.5 0 1 1 0-5zm-25 0a2.5 2.5 0 1 1 0 5 2.5 2.5 0 1 1 0-5zm175-25a2.5 2.5 0 1 1 0 5 2.5 2.5 0 1 1 0-5zm-25 0a2.5 2.5 0 1 1 0 5 2.5 2.5 0 1 1 0-5zm-25 0a2.5 2.5 0 1 1 0 5 2.5 2.5 0 1 1 0-5zm-25 0a2.5 2.5 0 1 1 0 5 2.5 2.5 0 1 1 0-5zm-25 0a2.5 2.5 0 1 1 0 5 2.5 2.5 0 1 1 0-5zm-25 0a2.5 2.5 0 1 1 0 5 2.5 2.5 0 1 1 0-5zm-25 0a2.5 2.5 0 1 1 0 5 2.5 2.5 0 1 1 0-5zm-25 0a2.5 2.5 0 1 1 0 5 2.5 2.5 0 1 1 0-5zm175-25a2.5 2.5 0 1 1 0 5 2.5 2.5 0 1 1 0-5zm-25 0a2.5 2.5 0 1 1 0 5 2.5 2.5 0 1 1 0-5zm-25 0a2.5 2.5 0 1 1 0 5 2.5 2.5 0 1 1 0-5zm-25 0a2.5 2.5 0 1 1 0 5 2.5 2.5 0 1 1 0-5zm-25 0a2.5 2.5 0 1 1 0 5 2.5 2.5 0 1 1 0-5zm-25 0a2.5 2.5 0 1 1 0 5 2.5 2.5 0 1 1 0-5zm-25 0a2.5 2.5 0 1 1 0 5 2.5 2.5 0 1 1 0-5zm-25 0a2.5 2.5 0 1 1 0 5 2.5 2.5 0 1 1 0-5z" fill="#90d2ff" fill-rule="evenodd"/></svg>