<svg xmlns="http://www.w3.org/2000/svg" width="32" height="53" xmlns:v="https://vecta.io/nano"><path d="M2 50.556a1.11 1.11 0 1 1 0 2.222 1.11 1.11 0 1 1 0-2.222zm7.222 0a1.11 1.11 0 1 1 0 2.222 1.11 1.11 0 1 1 0-2.222zm7.222 0a1.11 1.11 0 1 1 0 2.222 1.11 1.11 0 1 1 0-2.222zm7.222 0a1.11 1.11 0 1 1 0 2.222 1.11 1.11 0 1 1 0-2.222zm7.222 0a1.11 1.11 0 1 1 0 2.222 1.11 1.11 0 1 1 0-2.222zM2 43.333a1.11 1.11 0 1 1 0 2.222 1.11 1.11 0 1 1 0-2.222zm7.222 0a1.11 1.11 0 1 1 0 2.222 1.11 1.11 0 1 1 0-2.222zm7.222 0a1.11 1.11 0 1 1 0 2.222 1.11 1.11 0 1 1 0-2.222zm7.222 0a1.11 1.11 0 1 1 0 2.222 1.11 1.11 0 1 1 0-2.222zm7.222 0a1.11 1.11 0 1 1 0 2.222 1.11 1.11 0 1 1 0-2.222zM2 36.11a1.11 1.11 0 1 1 0 2.222 1.11 1.11 0 1 1 0-2.222zm7.222 0a1.11 1.11 0 1 1 0 2.222 1.11 1.11 0 1 1 0-2.222zm7.222 0a1.11 1.11 0 1 1 0 2.222 1.11 1.11 0 1 1 0-2.222zm7.222 0a1.11 1.11 0 1 1 0 2.222 1.11 1.11 0 1 1 0-2.222zm7.222 0a1.11 1.11 0 1 1 0 2.222 1.11 1.11 0 1 1 0-2.222zM2 28.89a1.11 1.11 0 1 1 0 2.222 1.11 1.11 0 1 1 0-2.222zm7.222 0a1.11 1.11 0 1 1 0 2.222 1.11 1.11 0 1 1 0-2.222zm7.222 0a1.11 1.11 0 1 1 0 2.222 1.11 1.11 0 1 1 0-2.222zm7.222 0a1.11 1.11 0 1 1 0 2.222 1.11 1.11 0 1 1 0-2.222zm7.222 0a1.11 1.11 0 1 1 0 2.222 1.11 1.11 0 1 1 0-2.222zM2 21.667a1.11 1.11 0 1 1 0 2.222 1.11 1.11 0 1 1 0-2.222zm7.222 0a1.11 1.11 0 1 1 0 2.222 1.11 1.11 0 1 1 0-2.222zm7.222 0a1.11 1.11 0 1 1 0 2.222 1.11 1.11 0 1 1 0-2.222zm7.222 0a1.11 1.11 0 1 1 0 2.222 1.11 1.11 0 1 1 0-2.222zm7.222 0a1.11 1.11 0 1 1 0 2.222 1.11 1.11 0 1 1 0-2.222zM2 14.444a1.11 1.11 0 1 1 0 2.222 1.11 1.11 0 1 1 0-2.222zm7.222 0a1.11 1.11 0 1 1 0 2.222 1.11 1.11 0 1 1 0-2.222zm7.222 0a1.11 1.11 0 1 1 0 2.222 1.11 1.11 0 1 1 0-2.222zm7.222 0a1.11 1.11 0 1 1 0 2.222 1.11 1.11 0 1 1 0-2.222zm7.222 0a1.11 1.11 0 1 1 0 2.222 1.11 1.11 0 1 1 0-2.222zM2 7.222a1.11 1.11 0 1 1 0 2.222 1.11 1.11 0 1 1 0-2.222zm7.222 0a1.11 1.11 0 1 1 0 2.222 1.11 1.11 0 1 1 0-2.222zm7.222 0a1.11 1.11 0 1 1 0 2.222 1.11 1.11 0 1 1 0-2.222zm7.222 0a1.11 1.11 0 1 1 0 2.222 1.11 1.11 0 1 1 0-2.222zm7.222 0a1.11 1.11 0 1 1 0 2.222 1.11 1.11 0 1 1 0-2.222zM2 0a1.11 1.11 0 1 1 0 2.222A1.11 1.11 0 1 1 2 0zm7.222 0a1.11 1.11 0 1 1 0 2.222 1.11 1.11 0 1 1 0-2.222zm7.222 0a1.11 1.11 0 1 1 0 2.222 1.11 1.11 0 1 1 0-2.222zm7.222 0a1.11 1.11 0 1 1 0 2.222 1.11 1.11 0 1 1 0-2.222zm7.222 0a1.11 1.11 0 1 1 0 2.222 1.11 1.11 0 1 1 0-2.222z" fill="#90d2ff" fill-rule="evenodd"/></svg>