<svg width="54" height="173" viewBox="0 0 54 173" fill="none" xmlns="http://www.w3.org/2000/svg">
<g opacity="0.15">
<path fill-rule="evenodd" clip-rule="evenodd" d="M50.625 67.9012C50.625 67.0474 51.3805 66.3553 52.3125 66.3553C53.2445 66.3553 54 67.0474 54 67.9012C54 68.755 53.2445 69.4471 52.3125 69.4471C51.3805 69.4471 50.625 68.755 50.625 67.9012ZM50.625 75.6308C50.625 74.777 51.3805 74.0848 52.3125 74.0848C53.2445 74.0848 54 74.777 54 75.6308C54 76.4846 53.2445 77.1767 52.3125 77.1767C51.3805 77.1767 50.625 76.4846 50.625 75.6308ZM50.625 83.3604C50.625 82.5066 51.3805 81.8145 52.3125 81.8145C53.2445 81.8145 54 82.5066 54 83.3604C54 84.2142 53.2445 84.9063 52.3125 84.9063C51.3805 84.9063 50.625 84.2142 50.625 83.3604ZM50.625 91.0899C50.625 90.2361 51.3805 89.544 52.3125 89.544C53.2445 89.544 54 90.2361 54 91.0899C54 91.9437 53.2445 92.6359 52.3125 92.6359C51.3805 92.6359 50.625 91.9437 50.625 91.0899ZM50.625 98.8195C50.625 97.9657 51.3805 97.2736 52.3125 97.2736C53.2445 97.2736 54 97.9657 54 98.8195C54 99.6733 53.2445 100.365 52.3125 100.365C51.3805 100.365 50.625 99.6733 50.625 98.8195ZM50.625 106.549C50.625 105.695 51.3805 105.003 52.3125 105.003C53.2445 105.003 54 105.695 54 106.549C54 107.403 53.2445 108.095 52.3125 108.095C51.3805 108.095 50.625 107.403 50.625 106.549ZM50.625 114.279C50.625 113.425 51.3805 112.733 52.3125 112.733C53.2445 112.733 54 113.425 54 114.279C54 115.132 53.2445 115.825 52.3125 115.825C51.3805 115.825 50.625 115.132 50.625 114.279ZM50.625 122.008C50.625 121.154 51.3805 120.462 52.3125 120.462C53.2445 120.462 54 121.154 54 122.008C54 122.862 53.2445 123.554 52.3125 123.554C51.3805 123.554 50.625 122.862 50.625 122.008ZM50.625 129.738C50.625 128.884 51.3805 128.192 52.3125 128.192C53.2445 128.192 54 128.884 54 129.738C54 130.592 53.2445 131.284 52.3125 131.284C51.3805 131.284 50.625 130.592 50.625 129.738ZM50.625 137.467C50.625 136.614 51.3805 135.922 52.3125 135.922C53.2445 135.922 54 136.614 54 137.467C54 138.321 53.2445 139.013 52.3125 139.013C51.3805 139.013 50.625 138.321 50.625 137.467ZM50.625 145.197C50.625 144.343 51.3805 143.651 52.3125 143.651C53.2445 143.651 54 144.343 54 145.197C54 146.051 53.2445 146.743 52.3125 146.743C51.3805 146.743 50.625 146.051 50.625 145.197ZM50.625 152.927C50.625 152.073 51.3805 151.381 52.3125 151.381C53.2445 151.381 54 152.073 54 152.927C54 153.78 53.2445 154.473 52.3125 154.473C51.3805 154.473 50.625 153.78 50.625 152.927ZM50.625 160.656C50.625 159.802 51.3805 159.11 52.3125 159.11C53.2445 159.11 54 159.802 54 160.656C54 161.51 53.2445 162.202 52.3125 162.202C51.3805 162.202 50.625 161.51 50.625 160.656ZM50.625 168.386C50.625 167.532 51.3805 166.84 52.3125 166.84C53.2445 166.84 54 167.532 54 168.386C54 169.24 53.2445 169.932 52.3125 169.932C51.3805 169.932 50.625 169.24 50.625 168.386ZM50.625 176.115C50.625 175.262 51.3805 174.569 52.3125 174.569C53.2445 174.569 54 175.262 54 176.115C54 176.969 53.2445 177.661 52.3125 177.661C51.3805 177.661 50.625 176.969 50.625 176.115ZM50.625 183.845C50.625 182.991 51.3805 182.299 52.3125 182.299C53.2445 182.299 54 182.991 54 183.845C54 184.699 53.2445 185.391 52.3125 185.391C51.3805 185.391 50.625 184.699 50.625 183.845ZM42.1875 67.9012C42.1875 67.0474 42.943 66.3553 43.875 66.3553C44.807 66.3553 45.5625 67.0474 45.5625 67.9012C45.5625 68.755 44.807 69.4471 43.875 69.4471C42.943 69.4471 42.1875 68.755 42.1875 67.9012ZM42.1875 183.845C42.1875 182.991 42.943 182.299 43.875 182.299C44.807 182.299 45.5625 182.991 45.5625 183.845C45.5625 184.699 44.807 185.391 43.875 185.391C42.943 185.391 42.1875 184.699 42.1875 183.845ZM42.1875 176.115C42.1875 175.262 42.943 174.569 43.875 174.569C44.807 174.569 45.5625 175.262 45.5625 176.115C45.5625 176.969 44.807 177.661 43.875 177.661C42.943 177.661 42.1875 176.969 42.1875 176.115ZM42.1875 168.386C42.1875 167.532 42.943 166.84 43.875 166.84C44.807 166.84 45.5625 167.532 45.5625 168.386C45.5625 169.24 44.807 169.932 43.875 169.932C42.943 169.932 42.1875 169.24 42.1875 168.386ZM42.1875 160.656C42.1875 159.802 42.943 159.11 43.875 159.11C44.807 159.11 45.5625 159.802 45.5625 160.656C45.5625 161.51 44.807 162.202 43.875 162.202C42.943 162.202 42.1875 161.51 42.1875 160.656ZM42.1875 152.927C42.1875 152.073 42.943 151.381 43.875 151.381C44.807 151.381 45.5625 152.073 45.5625 152.927C45.5625 153.78 44.807 154.473 43.875 154.473C42.943 154.473 42.1875 153.78 42.1875 152.927ZM42.1875 145.197C42.1875 144.343 42.943 143.651 43.875 143.651C44.807 143.651 45.5625 144.343 45.5625 145.197C45.5625 146.051 44.807 146.743 43.875 146.743C42.943 146.743 42.1875 146.051 42.1875 145.197ZM42.1875 137.467C42.1875 136.614 42.943 135.922 43.875 135.922C44.807 135.922 45.5625 136.614 45.5625 137.467C45.5625 138.321 44.807 139.013 43.875 139.013C42.943 139.013 42.1875 138.321 42.1875 137.467ZM42.1875 129.738C42.1875 128.884 42.943 128.192 43.875 128.192C44.807 128.192 45.5625 128.884 45.5625 129.738C45.5625 130.592 44.807 131.284 43.875 131.284C42.943 131.284 42.1875 130.592 42.1875 129.738ZM42.1875 122.008C42.1875 121.154 42.943 120.462 43.875 120.462C44.807 120.462 45.5625 121.154 45.5625 122.008C45.5625 122.862 44.807 123.554 43.875 123.554C42.943 123.554 42.1875 122.862 42.1875 122.008ZM42.1875 114.279C42.1875 113.425 42.943 112.733 43.875 112.733C44.807 112.733 45.5625 113.425 45.5625 114.279C45.5625 115.132 44.807 115.825 43.875 115.825C42.943 115.825 42.1875 115.132 42.1875 114.279ZM42.1875 106.549C42.1875 105.695 42.943 105.003 43.875 105.003C44.807 105.003 45.5625 105.695 45.5625 106.549C45.5625 107.403 44.807 108.095 43.875 108.095C42.943 108.095 42.1875 107.403 42.1875 106.549ZM42.1875 98.8195C42.1875 97.9657 42.943 97.2736 43.875 97.2736C44.807 97.2736 45.5625 97.9657 45.5625 98.8195C45.5625 99.6733 44.807 100.365 43.875 100.365C42.943 100.365 42.1875 99.6733 42.1875 98.8195ZM42.1875 91.0899C42.1875 90.2361 42.943 89.544 43.875 89.544C44.807 89.544 45.5625 90.2361 45.5625 91.0899C45.5625 91.9437 44.807 92.6359 43.875 92.6359C42.943 92.6359 42.1875 91.9437 42.1875 91.0899ZM42.1875 83.3604C42.1875 82.5066 42.943 81.8145 43.875 81.8145C44.807 81.8145 45.5625 82.5066 45.5625 83.3604C45.5625 84.2142 44.807 84.9063 43.875 84.9063C42.943 84.9063 42.1875 84.2142 42.1875 83.3604ZM42.1875 75.6308C42.1875 74.777 42.943 74.0848 43.875 74.0848C44.807 74.0848 45.5625 74.777 45.5625 75.6308C45.5625 76.4846 44.807 77.1767 43.875 77.1767C42.943 77.1767 42.1875 76.4846 42.1875 75.6308ZM33.75 183.845C33.75 182.991 34.5055 182.299 35.4375 182.299C36.3695 182.299 37.125 182.991 37.125 183.845C37.125 184.699 36.3695 185.391 35.4375 185.391C34.5055 185.391 33.75 184.699 33.75 183.845ZM33.75 75.6308C33.75 74.777 34.5055 74.0848 35.4375 74.0848C36.3695 74.0848 37.125 74.777 37.125 75.6308C37.125 76.4846 36.3695 77.1767 35.4375 77.1767C34.5055 77.1767 33.75 76.4846 33.75 75.6308ZM33.75 176.115C33.75 175.262 34.5055 174.569 35.4375 174.569C36.3695 174.569 37.125 175.262 37.125 176.115C37.125 176.969 36.3695 177.661 35.4375 177.661C34.5055 177.661 33.75 176.969 33.75 176.115ZM33.75 168.386C33.75 167.532 34.5055 166.84 35.4375 166.84C36.3695 166.84 37.125 167.532 37.125 168.386C37.125 169.24 36.3695 169.932 35.4375 169.932C34.5055 169.932 33.75 169.24 33.75 168.386ZM33.75 160.656C33.75 159.802 34.5055 159.11 35.4375 159.11C36.3695 159.11 37.125 159.802 37.125 160.656C37.125 161.51 36.3695 162.202 35.4375 162.202C34.5055 162.202 33.75 161.51 33.75 160.656ZM33.75 152.927C33.75 152.073 34.5055 151.381 35.4375 151.381C36.3695 151.381 37.125 152.073 37.125 152.927C37.125 153.78 36.3695 154.473 35.4375 154.473C34.5055 154.473 33.75 153.78 33.75 152.927ZM33.75 145.197C33.75 144.343 34.5055 143.651 35.4375 143.651C36.3695 143.651 37.125 144.343 37.125 145.197C37.125 146.051 36.3695 146.743 35.4375 146.743C34.5055 146.743 33.75 146.051 33.75 145.197ZM33.75 137.467C33.75 136.614 34.5055 135.922 35.4375 135.922C36.3695 135.922 37.125 136.614 37.125 137.467C37.125 138.321 36.3695 139.013 35.4375 139.013C34.5055 139.013 33.75 138.321 33.75 137.467ZM33.75 67.9012C33.75 67.0474 34.5055 66.3553 35.4375 66.3553C36.3695 66.3553 37.125 67.0474 37.125 67.9012C37.125 68.755 36.3695 69.4471 35.4375 69.4471C34.5055 69.4471 33.75 68.755 33.75 67.9012ZM33.75 129.738C33.75 128.884 34.5055 128.192 35.4375 128.192C36.3695 128.192 37.125 128.884 37.125 129.738C37.125 130.592 36.3695 131.284 35.4375 131.284C34.5055 131.284 33.75 130.592 33.75 129.738ZM33.75 122.008C33.75 121.154 34.5055 120.462 35.4375 120.462C36.3695 120.462 37.125 121.154 37.125 122.008C37.125 122.862 36.3695 123.554 35.4375 123.554C34.5055 123.554 33.75 122.862 33.75 122.008ZM33.75 114.279C33.75 113.425 34.5055 112.733 35.4375 112.733C36.3695 112.733 37.125 113.425 37.125 114.279C37.125 115.132 36.3695 115.825 35.4375 115.825C34.5055 115.825 33.75 115.132 33.75 114.279ZM33.75 106.549C33.75 105.695 34.5055 105.003 35.4375 105.003C36.3695 105.003 37.125 105.695 37.125 106.549C37.125 107.403 36.3695 108.095 35.4375 108.095C34.5055 108.095 33.75 107.403 33.75 106.549ZM33.75 98.8195C33.75 97.9657 34.5055 97.2736 35.4375 97.2736C36.3695 97.2736 37.125 97.9657 37.125 98.8195C37.125 99.6733 36.3695 100.365 35.4375 100.365C34.5055 100.365 33.75 99.6733 33.75 98.8195ZM33.75 91.0899C33.75 90.2361 34.5055 89.544 35.4375 89.544C36.3695 89.544 37.125 90.2361 37.125 91.0899C37.125 91.9437 36.3695 92.6359 35.4375 92.6359C34.5055 92.6359 33.75 91.9437 33.75 91.0899ZM33.75 83.3604C33.75 82.5066 34.5055 81.8145 35.4375 81.8145C36.3695 81.8145 37.125 82.5066 37.125 83.3604C37.125 84.2142 36.3695 84.9063 35.4375 84.9063C34.5055 84.9063 33.75 84.2142 33.75 83.3604ZM25.3125 67.9012C25.3125 67.0474 26.068 66.3553 27 66.3553C27.932 66.3553 28.6875 67.0474 28.6875 67.9012C28.6875 68.755 27.932 69.4471 27 69.4471C26.068 69.4471 25.3125 68.755 25.3125 67.9012ZM25.3125 183.845C25.3125 182.991 26.068 182.299 27 182.299C27.932 182.299 28.6875 182.991 28.6875 183.845C28.6875 184.699 27.932 185.391 27 185.391C26.068 185.391 25.3125 184.699 25.3125 183.845ZM25.3125 83.3604C25.3125 82.5066 26.068 81.8145 27 81.8145C27.932 81.8145 28.6875 82.5066 28.6875 83.3604C28.6875 84.2142 27.932 84.9063 27 84.9063C26.068 84.9063 25.3125 84.2142 25.3125 83.3604ZM25.3125 91.0899C25.3125 90.2361 26.068 89.544 27 89.544C27.932 89.544 28.6875 90.2361 28.6875 91.0899C28.6875 91.9437 27.932 92.6359 27 92.6359C26.068 92.6359 25.3125 91.9437 25.3125 91.0899ZM25.3125 98.8195C25.3125 97.9657 26.068 97.2736 27 97.2736C27.932 97.2736 28.6875 97.9657 28.6875 98.8195C28.6875 99.6733 27.932 100.365 27 100.365C26.068 100.365 25.3125 99.6733 25.3125 98.8195ZM25.3125 106.549C25.3125 105.695 26.068 105.003 27 105.003C27.932 105.003 28.6875 105.695 28.6875 106.549C28.6875 107.403 27.932 108.095 27 108.095C26.068 108.095 25.3125 107.403 25.3125 106.549ZM25.3125 114.279C25.3125 113.425 26.068 112.733 27 112.733C27.932 112.733 28.6875 113.425 28.6875 114.279C28.6875 115.132 27.932 115.825 27 115.825C26.068 115.825 25.3125 115.132 25.3125 114.279ZM25.3125 122.008C25.3125 121.154 26.068 120.462 27 120.462C27.932 120.462 28.6875 121.154 28.6875 122.008C28.6875 122.862 27.932 123.554 27 123.554C26.068 123.554 25.3125 122.862 25.3125 122.008ZM25.3125 75.6308C25.3125 74.777 26.068 74.0848 27 74.0848C27.932 74.0848 28.6875 74.777 28.6875 75.6308C28.6875 76.4846 27.932 77.1767 27 77.1767C26.068 77.1767 25.3125 76.4846 25.3125 75.6308ZM25.3125 137.467C25.3125 136.614 26.068 135.922 27 135.922C27.932 135.922 28.6875 136.614 28.6875 137.467C28.6875 138.321 27.932 139.013 27 139.013C26.068 139.013 25.3125 138.321 25.3125 137.467ZM25.3125 145.197C25.3125 144.343 26.068 143.651 27 143.651C27.932 143.651 28.6875 144.343 28.6875 145.197C28.6875 146.051 27.932 146.743 27 146.743C26.068 146.743 25.3125 146.051 25.3125 145.197ZM25.3125 152.927C25.3125 152.073 26.068 151.381 27 151.381C27.932 151.381 28.6875 152.073 28.6875 152.927C28.6875 153.78 27.932 154.473 27 154.473C26.068 154.473 25.3125 153.78 25.3125 152.927ZM25.3125 160.656C25.3125 159.802 26.068 159.11 27 159.11C27.932 159.11 28.6875 159.802 28.6875 160.656C28.6875 161.51 27.932 162.202 27 162.202C26.068 162.202 25.3125 161.51 25.3125 160.656ZM25.3125 168.386C25.3125 167.532 26.068 166.84 27 166.84C27.932 166.84 28.6875 167.532 28.6875 168.386C28.6875 169.24 27.932 169.932 27 169.932C26.068 169.932 25.3125 169.24 25.3125 168.386ZM25.3125 176.115C25.3125 175.262 26.068 174.569 27 174.569C27.932 174.569 28.6875 175.262 28.6875 176.115C28.6875 176.969 27.932 177.661 27 177.661C26.068 177.661 25.3125 176.969 25.3125 176.115ZM25.3125 129.738C25.3125 128.884 26.068 128.192 27 128.192C27.932 128.192 28.6875 128.884 28.6875 129.738C28.6875 130.592 27.932 131.284 27 131.284C26.068 131.284 25.3125 130.592 25.3125 129.738ZM16.875 75.6308C16.875 74.777 17.6305 74.0848 18.5625 74.0848C19.4945 74.0848 20.25 74.777 20.25 75.6308C20.25 76.4846 19.4945 77.1767 18.5625 77.1767C17.6305 77.1767 16.875 76.4846 16.875 75.6308ZM16.875 83.3604C16.875 82.5066 17.6305 81.8145 18.5625 81.8145C19.4945 81.8145 20.25 82.5066 20.25 83.3604C20.25 84.2142 19.4945 84.9063 18.5625 84.9063C17.6305 84.9063 16.875 84.2142 16.875 83.3604ZM16.875 183.845C16.875 182.991 17.6305 182.299 18.5625 182.299C19.4945 182.299 20.25 182.991 20.25 183.845C20.25 184.699 19.4945 185.391 18.5625 185.391C17.6305 185.391 16.875 184.699 16.875 183.845ZM16.875 176.115C16.875 175.262 17.6305 174.569 18.5625 174.569C19.4945 174.569 20.25 175.262 20.25 176.115C20.25 176.969 19.4945 177.661 18.5625 177.661C17.6305 177.661 16.875 176.969 16.875 176.115ZM16.875 168.386C16.875 167.532 17.6305 166.84 18.5625 166.84C19.4945 166.84 20.25 167.532 20.25 168.386C20.25 169.24 19.4945 169.932 18.5625 169.932C17.6305 169.932 16.875 169.24 16.875 168.386ZM16.875 160.656C16.875 159.802 17.6305 159.11 18.5625 159.11C19.4945 159.11 20.25 159.802 20.25 160.656C20.25 161.51 19.4945 162.202 18.5625 162.202C17.6305 162.202 16.875 161.51 16.875 160.656ZM16.875 152.927C16.875 152.073 17.6305 151.381 18.5625 151.381C19.4945 151.381 20.25 152.073 20.25 152.927C20.25 153.78 19.4945 154.473 18.5625 154.473C17.6305 154.473 16.875 153.78 16.875 152.927ZM16.875 145.197C16.875 144.343 17.6305 143.651 18.5625 143.651C19.4945 143.651 20.25 144.343 20.25 145.197C20.25 146.051 19.4945 146.743 18.5625 146.743C17.6305 146.743 16.875 146.051 16.875 145.197ZM16.875 137.467C16.875 136.614 17.6305 135.922 18.5625 135.922C19.4945 135.922 20.25 136.614 20.25 137.467C20.25 138.321 19.4945 139.013 18.5625 139.013C17.6305 139.013 16.875 138.321 16.875 137.467ZM16.875 129.738C16.875 128.884 17.6305 128.192 18.5625 128.192C19.4945 128.192 20.25 128.884 20.25 129.738C20.25 130.592 19.4945 131.284 18.5625 131.284C17.6305 131.284 16.875 130.592 16.875 129.738ZM16.875 122.008C16.875 121.154 17.6305 120.462 18.5625 120.462C19.4945 120.462 20.25 121.154 20.25 122.008C20.25 122.862 19.4945 123.554 18.5625 123.554C17.6305 123.554 16.875 122.862 16.875 122.008ZM16.875 114.279C16.875 113.425 17.6305 112.733 18.5625 112.733C19.4945 112.733 20.25 113.425 20.25 114.279C20.25 115.132 19.4945 115.825 18.5625 115.825C17.6305 115.825 16.875 115.132 16.875 114.279ZM16.875 106.549C16.875 105.695 17.6305 105.003 18.5625 105.003C19.4945 105.003 20.25 105.695 20.25 106.549C20.25 107.403 19.4945 108.095 18.5625 108.095C17.6305 108.095 16.875 107.403 16.875 106.549ZM16.875 98.8195C16.875 97.9657 17.6305 97.2736 18.5625 97.2736C19.4945 97.2736 20.25 97.9657 20.25 98.8195C20.25 99.6733 19.4945 100.365 18.5625 100.365C17.6305 100.365 16.875 99.6733 16.875 98.8195ZM16.875 91.0899C16.875 90.2361 17.6305 89.544 18.5625 89.544C19.4945 89.544 20.25 90.2361 20.25 91.0899C20.25 91.9437 19.4945 92.6359 18.5625 92.6359C17.6305 92.6359 16.875 91.9437 16.875 91.0899ZM16.875 67.9012C16.875 67.0474 17.6305 66.3553 18.5625 66.3553C19.4945 66.3553 20.25 67.0474 20.25 67.9012C20.25 68.755 19.4945 69.4471 18.5625 69.4471C17.6305 69.4471 16.875 68.755 16.875 67.9012ZM8.4375 137.467C8.4375 136.614 9.19302 135.922 10.125 135.922C11.057 135.922 11.8125 136.614 11.8125 137.467C11.8125 138.321 11.057 139.013 10.125 139.013C9.19302 139.013 8.4375 138.321 8.4375 137.467ZM8.4375 122.008C8.4375 121.154 9.19302 120.462 10.125 120.462C11.057 120.462 11.8125 121.154 11.8125 122.008C11.8125 122.862 11.057 123.554 10.125 123.554C9.19302 123.554 8.4375 122.862 8.4375 122.008ZM8.4375 75.6308C8.4375 74.777 9.19302 74.0848 10.125 74.0848C11.057 74.0848 11.8125 74.777 11.8125 75.6308C11.8125 76.4846 11.057 77.1767 10.125 77.1767C9.19302 77.1767 8.4375 76.4846 8.4375 75.6308ZM8.4375 183.845C8.4375 182.991 9.19302 182.299 10.125 182.299C11.057 182.299 11.8125 182.991 11.8125 183.845C11.8125 184.699 11.057 185.391 10.125 185.391C9.19302 185.391 8.4375 184.699 8.4375 183.845ZM8.4375 67.9012C8.4375 67.0474 9.19302 66.3553 10.125 66.3553C11.057 66.3553 11.8125 67.0474 11.8125 67.9012C11.8125 68.755 11.057 69.4471 10.125 69.4471C9.19302 69.4471 8.4375 68.755 8.4375 67.9012ZM8.4375 176.115C8.4375 175.262 9.19302 174.569 10.125 174.569C11.057 174.569 11.8125 175.262 11.8125 176.115C11.8125 176.969 11.057 177.661 10.125 177.661C9.19302 177.661 8.4375 176.969 8.4375 176.115ZM8.4375 168.386C8.4375 167.532 9.19302 166.84 10.125 166.84C11.057 166.84 11.8125 167.532 11.8125 168.386C11.8125 169.24 11.057 169.932 10.125 169.932C9.19302 169.932 8.4375 169.24 8.4375 168.386ZM8.4375 160.656C8.4375 159.802 9.19302 159.11 10.125 159.11C11.057 159.11 11.8125 159.802 11.8125 160.656C11.8125 161.51 11.057 162.202 10.125 162.202C9.19302 162.202 8.4375 161.51 8.4375 160.656ZM8.4375 152.927C8.4375 152.073 9.19302 151.381 10.125 151.381C11.057 151.381 11.8125 152.073 11.8125 152.927C11.8125 153.78 11.057 154.473 10.125 154.473C9.19302 154.473 8.4375 153.78 8.4375 152.927ZM8.4375 145.197C8.4375 144.343 9.19302 143.651 10.125 143.651C11.057 143.651 11.8125 144.343 11.8125 145.197C11.8125 146.051 11.057 146.743 10.125 146.743C9.19302 146.743 8.4375 146.051 8.4375 145.197ZM8.4375 129.738C8.4375 128.884 9.19302 128.192 10.125 128.192C11.057 128.192 11.8125 128.884 11.8125 129.738C11.8125 130.592 11.057 131.284 10.125 131.284C9.19302 131.284 8.4375 130.592 8.4375 129.738ZM8.4375 114.279C8.4375 113.425 9.19302 112.733 10.125 112.733C11.057 112.733 11.8125 113.425 11.8125 114.279C11.8125 115.132 11.057 115.825 10.125 115.825C9.19302 115.825 8.4375 115.132 8.4375 114.279ZM8.4375 106.549C8.4375 105.695 9.19302 105.003 10.125 105.003C11.057 105.003 11.8125 105.695 11.8125 106.549C11.8125 107.403 11.057 108.095 10.125 108.095C9.19302 108.095 8.4375 107.403 8.4375 106.549ZM8.4375 98.8195C8.4375 97.9657 9.19302 97.2736 10.125 97.2736C11.057 97.2736 11.8125 97.9657 11.8125 98.8195C11.8125 99.6733 11.057 100.365 10.125 100.365C9.19302 100.365 8.4375 99.6733 8.4375 98.8195ZM8.4375 91.0899C8.4375 90.2361 9.19302 89.544 10.125 89.544C11.057 89.544 11.8125 90.2361 11.8125 91.0899C11.8125 91.9437 11.057 92.6359 10.125 92.6359C9.19302 92.6359 8.4375 91.9437 8.4375 91.0899ZM8.4375 83.3604C8.4375 82.5066 9.19302 81.8145 10.125 81.8145C11.057 81.8145 11.8125 82.5066 11.8125 83.3604C11.8125 84.2142 11.057 84.9063 10.125 84.9063C9.19302 84.9063 8.4375 84.2142 8.4375 83.3604ZM0 91.0899C0 90.2361 0.75552 89.544 1.6875 89.544C2.61948 89.544 3.375 90.2361 3.375 91.0899C3.375 91.9437 2.61948 92.6359 1.6875 92.6359C0.75552 92.6359 0 91.9437 0 91.0899ZM0 75.6308C0 74.777 0.75552 74.0848 1.6875 74.0848C2.61948 74.0848 3.375 74.777 3.375 75.6308C3.375 76.4846 2.61948 77.1767 1.6875 77.1767C0.75552 77.1767 0 76.4846 0 75.6308ZM0 183.845C0 182.991 0.75552 182.299 1.6875 182.299C2.61948 182.299 3.375 182.991 3.375 183.845C3.375 184.699 2.61948 185.391 1.6875 185.391C0.75552 185.391 0 184.699 0 183.845ZM0 176.115C0 175.262 0.75552 174.569 1.6875 174.569C2.61948 174.569 3.375 175.262 3.375 176.115C3.375 176.969 2.61948 177.661 1.6875 177.661C0.75552 177.661 0 176.969 0 176.115ZM0 168.386C0 167.532 0.75552 166.84 1.6875 166.84C2.61948 166.84 3.375 167.532 3.375 168.386C3.375 169.24 2.61948 169.932 1.6875 169.932C0.75552 169.932 0 169.24 0 168.386ZM0 160.656C0 159.802 0.75552 159.11 1.6875 159.11C2.61948 159.11 3.375 159.802 3.375 160.656C3.375 161.51 2.61948 162.202 1.6875 162.202C0.75552 162.202 0 161.51 0 160.656ZM0 152.927C0 152.073 0.75552 151.381 1.6875 151.381C2.61948 151.381 3.375 152.073 3.375 152.927C3.375 153.78 2.61948 154.473 1.6875 154.473C0.75552 154.473 0 153.78 0 152.927ZM0 145.197C0 144.343 0.75552 143.651 1.6875 143.651C2.61948 143.651 3.375 144.343 3.375 145.197C3.375 146.051 2.61948 146.743 1.6875 146.743C0.75552 146.743 0 146.051 0 145.197ZM0 129.738C0 128.884 0.75552 128.192 1.6875 128.192C2.61948 128.192 3.375 128.884 3.375 129.738C3.375 130.592 2.61948 131.284 1.6875 131.284C0.75552 131.284 0 130.592 0 129.738ZM0 83.3604C0 82.5066 0.75552 81.8145 1.6875 81.8145C2.61948 81.8145 3.375 82.5066 3.375 83.3604C3.375 84.2142 2.61948 84.9063 1.6875 84.9063C0.75552 84.9063 0 84.2142 0 83.3604ZM0 67.9012C0 67.0474 0.75552 66.3553 1.6875 66.3553C2.61948 66.3553 3.375 67.0474 3.375 67.9012C3.375 68.755 2.61948 69.4471 1.6875 69.4471C0.75552 69.4471 0 68.755 0 67.9012ZM0 122.008C0 121.154 0.75552 120.462 1.6875 120.462C2.61948 120.462 3.375 121.154 3.375 122.008C3.375 122.862 2.61948 123.554 1.6875 123.554C0.75552 123.554 0 122.862 0 122.008ZM0 114.279C0 113.425 0.75552 112.733 1.6875 112.733C2.61948 112.733 3.375 113.425 3.375 114.279C3.375 115.132 2.61948 115.825 1.6875 115.825C0.75552 115.825 0 115.132 0 114.279ZM0 106.549C0 105.695 0.75552 105.003 1.6875 105.003C2.61948 105.003 3.375 105.695 3.375 106.549C3.375 107.403 2.61948 108.095 1.6875 108.095C0.75552 108.095 0 107.403 0 106.549ZM0 98.8195C0 97.9657 0.75552 97.2736 1.6875 97.2736C2.61948 97.2736 3.375 97.9657 3.375 98.8195C3.375 99.6733 2.61948 100.365 1.6875 100.365C0.75552 100.365 0 99.6733 0 98.8195ZM0 137.467C0 136.614 0.75552 135.922 1.6875 135.922C2.61948 135.922 3.375 136.614 3.375 137.467C3.375 138.321 2.61948 139.013 1.6875 139.013C0.75552 139.013 0 138.321 0 137.467Z" fill="white"/>
<path fill-rule="evenodd" clip-rule="evenodd" d="M50.625 -55.7722C50.625 -56.626 51.3805 -57.3181 52.3125 -57.3181C53.2445 -57.3181 54 -56.626 54 -55.7722C54 -54.9184 53.2445 -54.2263 52.3125 -54.2263C51.3805 -54.2263 50.625 -54.9184 50.625 -55.7722ZM50.625 -48.0426C50.625 -48.8964 51.3805 -49.5885 52.3125 -49.5885C53.2445 -49.5885 54 -48.8964 54 -48.0426C54 -47.1888 53.2445 -46.4967 52.3125 -46.4967C51.3805 -46.4967 50.625 -47.1888 50.625 -48.0426ZM50.625 -40.313C50.625 -41.1668 51.3805 -41.8589 52.3125 -41.8589C53.2445 -41.8589 54 -41.1668 54 -40.313C54 -39.4592 53.2445 -38.7671 52.3125 -38.7671C51.3805 -38.7671 50.625 -39.4592 50.625 -40.313ZM50.625 -32.5835C50.625 -33.4373 51.3805 -34.1294 52.3125 -34.1294C53.2445 -34.1294 54 -33.4373 54 -32.5835C54 -31.7297 53.2445 -31.0375 52.3125 -31.0375C51.3805 -31.0375 50.625 -31.7297 50.625 -32.5835ZM50.625 -24.8539C50.625 -25.7076 51.3805 -26.3998 52.3125 -26.3998C53.2445 -26.3998 54 -25.7076 54 -24.8539C54 -24.0001 53.2445 -23.3079 52.3125 -23.3079C51.3805 -23.3079 50.625 -24.0001 50.625 -24.8539ZM50.625 -17.1243C50.625 -17.9781 51.3805 -18.6702 52.3125 -18.6702C53.2445 -18.6702 54 -17.9781 54 -17.1243C54 -16.2705 53.2445 -15.5783 52.3125 -15.5783C51.3805 -15.5783 50.625 -16.2705 50.625 -17.1243ZM50.625 -9.39465C50.625 -10.2485 51.3805 -10.9406 52.3125 -10.9406C53.2445 -10.9406 54 -10.2485 54 -9.39465C54 -8.54084 53.2445 -7.84869 52.3125 -7.84869C51.3805 -7.84869 50.625 -8.54084 50.625 -9.39465ZM50.625 -1.66507C50.625 -2.51886 51.3805 -3.211 52.3125 -3.211C53.2445 -3.211 54 -2.51886 54 -1.66507C54 -0.811275 53.2445 -0.119141 52.3125 -0.119141C51.3805 -0.119141 50.625 -0.811275 50.625 -1.66507ZM50.625 6.06445C50.625 5.21068 51.3805 4.51855 52.3125 4.51855C53.2445 4.51855 54 5.21068 54 6.06445C54 6.91823 53.2445 7.61035 52.3125 7.61035C51.3805 7.61035 50.625 6.91823 50.625 6.06445ZM50.625 13.7941C50.625 12.9403 51.3805 12.2482 52.3125 12.2482C53.2445 12.2482 54 12.9403 54 13.7941C54 14.6479 53.2445 15.34 52.3125 15.34C51.3805 15.34 50.625 14.6479 50.625 13.7941ZM50.625 21.5237C50.625 20.6699 51.3805 19.9778 52.3125 19.9778C53.2445 19.9778 54 20.6699 54 21.5237C54 22.3774 53.2445 23.0695 52.3125 23.0695C51.3805 23.0695 50.625 22.3774 50.625 21.5237ZM50.625 29.2532C50.625 28.3995 51.3805 27.7073 52.3125 27.7073C53.2445 27.7073 54 28.3995 54 29.2532C54 30.107 53.2445 30.7991 52.3125 30.7991C51.3805 30.7991 50.625 30.107 50.625 29.2532ZM50.625 36.9828C50.625 36.1291 51.3805 35.437 52.3125 35.437C53.2445 35.437 54 36.1291 54 36.9828C54 37.8366 53.2445 38.5287 52.3125 38.5287C51.3805 38.5287 50.625 37.8366 50.625 36.9828ZM50.625 44.7125C50.625 43.8587 51.3805 43.1666 52.3125 43.1666C53.2445 43.1666 54 43.8587 54 44.7125C54 45.5662 53.2445 46.2584 52.3125 46.2584C51.3805 46.2584 50.625 45.5662 50.625 44.7125ZM50.625 52.442C50.625 51.5882 51.3805 50.8961 52.3125 50.8961C53.2445 50.8961 54 51.5882 54 52.442C54 53.2958 53.2445 53.988 52.3125 53.988C51.3805 53.988 50.625 53.2958 50.625 52.442ZM50.625 60.1716C50.625 59.3178 51.3805 58.6257 52.3125 58.6257C53.2445 58.6257 54 59.3178 54 60.1716C54 61.0254 53.2445 61.7175 52.3125 61.7175C51.3805 61.7175 50.625 61.0254 50.625 60.1716ZM42.1875 -55.7722C42.1875 -56.626 42.943 -57.3181 43.875 -57.3181C44.807 -57.3181 45.5625 -56.626 45.5625 -55.7722C45.5625 -54.9184 44.807 -54.2263 43.875 -54.2263C42.943 -54.2263 42.1875 -54.9184 42.1875 -55.7722ZM42.1875 60.1716C42.1875 59.3178 42.943 58.6257 43.875 58.6257C44.807 58.6257 45.5625 59.3178 45.5625 60.1716C45.5625 61.0254 44.807 61.7175 43.875 61.7175C42.943 61.7175 42.1875 61.0254 42.1875 60.1716ZM42.1875 52.442C42.1875 51.5882 42.943 50.8961 43.875 50.8961C44.807 50.8961 45.5625 51.5882 45.5625 52.442C45.5625 53.2958 44.807 53.988 43.875 53.988C42.943 53.988 42.1875 53.2958 42.1875 52.442ZM42.1875 44.7125C42.1875 43.8587 42.943 43.1666 43.875 43.1666C44.807 43.1666 45.5625 43.8587 45.5625 44.7125C45.5625 45.5662 44.807 46.2584 43.875 46.2584C42.943 46.2584 42.1875 45.5662 42.1875 44.7125ZM42.1875 36.9828C42.1875 36.1291 42.943 35.437 43.875 35.437C44.807 35.437 45.5625 36.1291 45.5625 36.9828C45.5625 37.8366 44.807 38.5287 43.875 38.5287C42.943 38.5287 42.1875 37.8366 42.1875 36.9828ZM42.1875 29.2532C42.1875 28.3995 42.943 27.7073 43.875 27.7073C44.807 27.7073 45.5625 28.3995 45.5625 29.2532C45.5625 30.107 44.807 30.7991 43.875 30.7991C42.943 30.7991 42.1875 30.107 42.1875 29.2532ZM42.1875 21.5237C42.1875 20.6699 42.943 19.9778 43.875 19.9778C44.807 19.9778 45.5625 20.6699 45.5625 21.5237C45.5625 22.3774 44.807 23.0695 43.875 23.0695C42.943 23.0695 42.1875 22.3774 42.1875 21.5237ZM42.1875 13.7941C42.1875 12.9403 42.943 12.2482 43.875 12.2482C44.807 12.2482 45.5625 12.9403 45.5625 13.7941C45.5625 14.6479 44.807 15.34 43.875 15.34C42.943 15.34 42.1875 14.6479 42.1875 13.7941ZM42.1875 6.06445C42.1875 5.21068 42.943 4.51855 43.875 4.51855C44.807 4.51855 45.5625 5.21068 45.5625 6.06445C45.5625 6.91823 44.807 7.61035 43.875 7.61035C42.943 7.61035 42.1875 6.91823 42.1875 6.06445ZM42.1875 -1.66507C42.1875 -2.51886 42.943 -3.211 43.875 -3.211C44.807 -3.211 45.5625 -2.51886 45.5625 -1.66507C45.5625 -0.811275 44.807 -0.119141 43.875 -0.119141C42.943 -0.119141 42.1875 -0.811275 42.1875 -1.66507ZM42.1875 -9.39465C42.1875 -10.2485 42.943 -10.9406 43.875 -10.9406C44.807 -10.9406 45.5625 -10.2485 45.5625 -9.39465C45.5625 -8.54084 44.807 -7.84869 43.875 -7.84869C42.943 -7.84869 42.1875 -8.54084 42.1875 -9.39465ZM42.1875 -17.1243C42.1875 -17.9781 42.943 -18.6702 43.875 -18.6702C44.807 -18.6702 45.5625 -17.9781 45.5625 -17.1243C45.5625 -16.2705 44.807 -15.5783 43.875 -15.5783C42.943 -15.5783 42.1875 -16.2705 42.1875 -17.1243ZM42.1875 -24.8539C42.1875 -25.7076 42.943 -26.3998 43.875 -26.3998C44.807 -26.3998 45.5625 -25.7076 45.5625 -24.8539C45.5625 -24.0001 44.807 -23.3079 43.875 -23.3079C42.943 -23.3079 42.1875 -24.0001 42.1875 -24.8539ZM42.1875 -32.5835C42.1875 -33.4373 42.943 -34.1294 43.875 -34.1294C44.807 -34.1294 45.5625 -33.4373 45.5625 -32.5835C45.5625 -31.7297 44.807 -31.0375 43.875 -31.0375C42.943 -31.0375 42.1875 -31.7297 42.1875 -32.5835ZM42.1875 -40.313C42.1875 -41.1668 42.943 -41.8589 43.875 -41.8589C44.807 -41.8589 45.5625 -41.1668 45.5625 -40.313C45.5625 -39.4592 44.807 -38.7671 43.875 -38.7671C42.943 -38.7671 42.1875 -39.4592 42.1875 -40.313ZM42.1875 -48.0426C42.1875 -48.8964 42.943 -49.5885 43.875 -49.5885C44.807 -49.5885 45.5625 -48.8964 45.5625 -48.0426C45.5625 -47.1888 44.807 -46.4967 43.875 -46.4967C42.943 -46.4967 42.1875 -47.1888 42.1875 -48.0426ZM33.75 60.1716C33.75 59.3178 34.5055 58.6257 35.4375 58.6257C36.3695 58.6257 37.125 59.3178 37.125 60.1716C37.125 61.0254 36.3695 61.7175 35.4375 61.7175C34.5055 61.7175 33.75 61.0254 33.75 60.1716ZM33.75 -48.0426C33.75 -48.8964 34.5055 -49.5885 35.4375 -49.5885C36.3695 -49.5885 37.125 -48.8964 37.125 -48.0426C37.125 -47.1888 36.3695 -46.4967 35.4375 -46.4967C34.5055 -46.4967 33.75 -47.1888 33.75 -48.0426ZM33.75 52.442C33.75 51.5882 34.5055 50.8961 35.4375 50.8961C36.3695 50.8961 37.125 51.5882 37.125 52.442C37.125 53.2958 36.3695 53.988 35.4375 53.988C34.5055 53.988 33.75 53.2958 33.75 52.442ZM33.75 44.7125C33.75 43.8587 34.5055 43.1666 35.4375 43.1666C36.3695 43.1666 37.125 43.8587 37.125 44.7125C37.125 45.5662 36.3695 46.2584 35.4375 46.2584C34.5055 46.2584 33.75 45.5662 33.75 44.7125ZM33.75 36.9828C33.75 36.1291 34.5055 35.437 35.4375 35.437C36.3695 35.437 37.125 36.1291 37.125 36.9828C37.125 37.8366 36.3695 38.5287 35.4375 38.5287C34.5055 38.5287 33.75 37.8366 33.75 36.9828ZM33.75 29.2532C33.75 28.3995 34.5055 27.7073 35.4375 27.7073C36.3695 27.7073 37.125 28.3995 37.125 29.2532C37.125 30.107 36.3695 30.7991 35.4375 30.7991C34.5055 30.7991 33.75 30.107 33.75 29.2532ZM33.75 21.5237C33.75 20.6699 34.5055 19.9778 35.4375 19.9778C36.3695 19.9778 37.125 20.6699 37.125 21.5237C37.125 22.3774 36.3695 23.0695 35.4375 23.0695C34.5055 23.0695 33.75 22.3774 33.75 21.5237ZM33.75 13.7941C33.75 12.9403 34.5055 12.2482 35.4375 12.2482C36.3695 12.2482 37.125 12.9403 37.125 13.7941C37.125 14.6479 36.3695 15.34 35.4375 15.34C34.5055 15.34 33.75 14.6479 33.75 13.7941ZM33.75 -55.7722C33.75 -56.626 34.5055 -57.3181 35.4375 -57.3181C36.3695 -57.3181 37.125 -56.626 37.125 -55.7722C37.125 -54.9184 36.3695 -54.2263 35.4375 -54.2263C34.5055 -54.2263 33.75 -54.9184 33.75 -55.7722ZM33.75 6.06445C33.75 5.21068 34.5055 4.51855 35.4375 4.51855C36.3695 4.51855 37.125 5.21068 37.125 6.06445C37.125 6.91823 36.3695 7.61035 35.4375 7.61035C34.5055 7.61035 33.75 6.91823 33.75 6.06445ZM33.75 -1.66507C33.75 -2.51886 34.5055 -3.211 35.4375 -3.211C36.3695 -3.211 37.125 -2.51886 37.125 -1.66507C37.125 -0.811275 36.3695 -0.119141 35.4375 -0.119141C34.5055 -0.119141 33.75 -0.811275 33.75 -1.66507ZM33.75 -9.39465C33.75 -10.2485 34.5055 -10.9406 35.4375 -10.9406C36.3695 -10.9406 37.125 -10.2485 37.125 -9.39465C37.125 -8.54084 36.3695 -7.84869 35.4375 -7.84869C34.5055 -7.84869 33.75 -8.54084 33.75 -9.39465ZM33.75 -17.1243C33.75 -17.9781 34.5055 -18.6702 35.4375 -18.6702C36.3695 -18.6702 37.125 -17.9781 37.125 -17.1243C37.125 -16.2705 36.3695 -15.5783 35.4375 -15.5783C34.5055 -15.5783 33.75 -16.2705 33.75 -17.1243ZM33.75 -24.8539C33.75 -25.7076 34.5055 -26.3998 35.4375 -26.3998C36.3695 -26.3998 37.125 -25.7076 37.125 -24.8539C37.125 -24.0001 36.3695 -23.3079 35.4375 -23.3079C34.5055 -23.3079 33.75 -24.0001 33.75 -24.8539ZM33.75 -32.5835C33.75 -33.4373 34.5055 -34.1294 35.4375 -34.1294C36.3695 -34.1294 37.125 -33.4373 37.125 -32.5835C37.125 -31.7297 36.3695 -31.0375 35.4375 -31.0375C34.5055 -31.0375 33.75 -31.7297 33.75 -32.5835ZM33.75 -40.313C33.75 -41.1668 34.5055 -41.8589 35.4375 -41.8589C36.3695 -41.8589 37.125 -41.1668 37.125 -40.313C37.125 -39.4592 36.3695 -38.7671 35.4375 -38.7671C34.5055 -38.7671 33.75 -39.4592 33.75 -40.313ZM25.3125 -55.7722C25.3125 -56.626 26.068 -57.3181 27 -57.3181C27.932 -57.3181 28.6875 -56.626 28.6875 -55.7722C28.6875 -54.9184 27.932 -54.2263 27 -54.2263C26.068 -54.2263 25.3125 -54.9184 25.3125 -55.7722ZM25.3125 60.1716C25.3125 59.3178 26.068 58.6257 27 58.6257C27.932 58.6257 28.6875 59.3178 28.6875 60.1716C28.6875 61.0254 27.932 61.7175 27 61.7175C26.068 61.7175 25.3125 61.0254 25.3125 60.1716ZM25.3125 -40.313C25.3125 -41.1668 26.068 -41.8589 27 -41.8589C27.932 -41.8589 28.6875 -41.1668 28.6875 -40.313C28.6875 -39.4592 27.932 -38.7671 27 -38.7671C26.068 -38.7671 25.3125 -39.4592 25.3125 -40.313ZM25.3125 -32.5835C25.3125 -33.4373 26.068 -34.1294 27 -34.1294C27.932 -34.1294 28.6875 -33.4373 28.6875 -32.5835C28.6875 -31.7297 27.932 -31.0375 27 -31.0375C26.068 -31.0375 25.3125 -31.7297 25.3125 -32.5835ZM25.3125 -24.8539C25.3125 -25.7076 26.068 -26.3998 27 -26.3998C27.932 -26.3998 28.6875 -25.7076 28.6875 -24.8539C28.6875 -24.0001 27.932 -23.3079 27 -23.3079C26.068 -23.3079 25.3125 -24.0001 25.3125 -24.8539ZM25.3125 -17.1243C25.3125 -17.9781 26.068 -18.6702 27 -18.6702C27.932 -18.6702 28.6875 -17.9781 28.6875 -17.1243C28.6875 -16.2705 27.932 -15.5783 27 -15.5783C26.068 -15.5783 25.3125 -16.2705 25.3125 -17.1243ZM25.3125 -9.39465C25.3125 -10.2485 26.068 -10.9406 27 -10.9406C27.932 -10.9406 28.6875 -10.2485 28.6875 -9.39465C28.6875 -8.54084 27.932 -7.84869 27 -7.84869C26.068 -7.84869 25.3125 -8.54084 25.3125 -9.39465ZM25.3125 -1.66507C25.3125 -2.51886 26.068 -3.211 27 -3.211C27.932 -3.211 28.6875 -2.51886 28.6875 -1.66507C28.6875 -0.811275 27.932 -0.119141 27 -0.119141C26.068 -0.119141 25.3125 -0.811275 25.3125 -1.66507ZM25.3125 -48.0426C25.3125 -48.8964 26.068 -49.5885 27 -49.5885C27.932 -49.5885 28.6875 -48.8964 28.6875 -48.0426C28.6875 -47.1888 27.932 -46.4967 27 -46.4967C26.068 -46.4967 25.3125 -47.1888 25.3125 -48.0426ZM25.3125 13.7941C25.3125 12.9403 26.068 12.2482 27 12.2482C27.932 12.2482 28.6875 12.9403 28.6875 13.7941C28.6875 14.6479 27.932 15.34 27 15.34C26.068 15.34 25.3125 14.6479 25.3125 13.7941ZM25.3125 21.5237C25.3125 20.6699 26.068 19.9778 27 19.9778C27.932 19.9778 28.6875 20.6699 28.6875 21.5237C28.6875 22.3774 27.932 23.0695 27 23.0695C26.068 23.0695 25.3125 22.3774 25.3125 21.5237ZM25.3125 29.2532C25.3125 28.3995 26.068 27.7073 27 27.7073C27.932 27.7073 28.6875 28.3995 28.6875 29.2532C28.6875 30.107 27.932 30.7991 27 30.7991C26.068 30.7991 25.3125 30.107 25.3125 29.2532ZM25.3125 36.9828C25.3125 36.1291 26.068 35.437 27 35.437C27.932 35.437 28.6875 36.1291 28.6875 36.9828C28.6875 37.8366 27.932 38.5287 27 38.5287C26.068 38.5287 25.3125 37.8366 25.3125 36.9828ZM25.3125 44.7125C25.3125 43.8587 26.068 43.1666 27 43.1666C27.932 43.1666 28.6875 43.8587 28.6875 44.7125C28.6875 45.5662 27.932 46.2584 27 46.2584C26.068 46.2584 25.3125 45.5662 25.3125 44.7125ZM25.3125 52.442C25.3125 51.5882 26.068 50.8961 27 50.8961C27.932 50.8961 28.6875 51.5882 28.6875 52.442C28.6875 53.2958 27.932 53.988 27 53.988C26.068 53.988 25.3125 53.2958 25.3125 52.442ZM25.3125 6.06445C25.3125 5.21068 26.068 4.51855 27 4.51855C27.932 4.51855 28.6875 5.21068 28.6875 6.06445C28.6875 6.91823 27.932 7.61035 27 7.61035C26.068 7.61035 25.3125 6.91823 25.3125 6.06445ZM16.875 -48.0426C16.875 -48.8964 17.6305 -49.5885 18.5625 -49.5885C19.4945 -49.5885 20.25 -48.8964 20.25 -48.0426C20.25 -47.1888 19.4945 -46.4967 18.5625 -46.4967C17.6305 -46.4967 16.875 -47.1888 16.875 -48.0426ZM16.875 -40.313C16.875 -41.1668 17.6305 -41.8589 18.5625 -41.8589C19.4945 -41.8589 20.25 -41.1668 20.25 -40.313C20.25 -39.4592 19.4945 -38.7671 18.5625 -38.7671C17.6305 -38.7671 16.875 -39.4592 16.875 -40.313ZM16.875 60.1716C16.875 59.3178 17.6305 58.6257 18.5625 58.6257C19.4945 58.6257 20.25 59.3178 20.25 60.1716C20.25 61.0254 19.4945 61.7175 18.5625 61.7175C17.6305 61.7175 16.875 61.0254 16.875 60.1716ZM16.875 52.442C16.875 51.5882 17.6305 50.8961 18.5625 50.8961C19.4945 50.8961 20.25 51.5882 20.25 52.442C20.25 53.2958 19.4945 53.988 18.5625 53.988C17.6305 53.988 16.875 53.2958 16.875 52.442ZM16.875 44.7125C16.875 43.8587 17.6305 43.1666 18.5625 43.1666C19.4945 43.1666 20.25 43.8587 20.25 44.7125C20.25 45.5662 19.4945 46.2584 18.5625 46.2584C17.6305 46.2584 16.875 45.5662 16.875 44.7125ZM16.875 36.9828C16.875 36.1291 17.6305 35.437 18.5625 35.437C19.4945 35.437 20.25 36.1291 20.25 36.9828C20.25 37.8366 19.4945 38.5287 18.5625 38.5287C17.6305 38.5287 16.875 37.8366 16.875 36.9828ZM16.875 29.2532C16.875 28.3995 17.6305 27.7073 18.5625 27.7073C19.4945 27.7073 20.25 28.3995 20.25 29.2532C20.25 30.107 19.4945 30.7991 18.5625 30.7991C17.6305 30.7991 16.875 30.107 16.875 29.2532ZM16.875 21.5237C16.875 20.6699 17.6305 19.9778 18.5625 19.9778C19.4945 19.9778 20.25 20.6699 20.25 21.5237C20.25 22.3774 19.4945 23.0695 18.5625 23.0695C17.6305 23.0695 16.875 22.3774 16.875 21.5237ZM16.875 13.7941C16.875 12.9403 17.6305 12.2482 18.5625 12.2482C19.4945 12.2482 20.25 12.9403 20.25 13.7941C20.25 14.6479 19.4945 15.34 18.5625 15.34C17.6305 15.34 16.875 14.6479 16.875 13.7941ZM16.875 6.06445C16.875 5.21068 17.6305 4.51855 18.5625 4.51855C19.4945 4.51855 20.25 5.21068 20.25 6.06445C20.25 6.91823 19.4945 7.61035 18.5625 7.61035C17.6305 7.61035 16.875 6.91823 16.875 6.06445ZM16.875 -1.66507C16.875 -2.51886 17.6305 -3.211 18.5625 -3.211C19.4945 -3.211 20.25 -2.51886 20.25 -1.66507C20.25 -0.811275 19.4945 -0.119141 18.5625 -0.119141C17.6305 -0.119141 16.875 -0.811275 16.875 -1.66507ZM16.875 -9.39465C16.875 -10.2485 17.6305 -10.9406 18.5625 -10.9406C19.4945 -10.9406 20.25 -10.2485 20.25 -9.39465C20.25 -8.54084 19.4945 -7.84869 18.5625 -7.84869C17.6305 -7.84869 16.875 -8.54084 16.875 -9.39465ZM16.875 -17.1243C16.875 -17.9781 17.6305 -18.6702 18.5625 -18.6702C19.4945 -18.6702 20.25 -17.9781 20.25 -17.1243C20.25 -16.2705 19.4945 -15.5783 18.5625 -15.5783C17.6305 -15.5783 16.875 -16.2705 16.875 -17.1243ZM16.875 -24.8539C16.875 -25.7076 17.6305 -26.3998 18.5625 -26.3998C19.4945 -26.3998 20.25 -25.7076 20.25 -24.8539C20.25 -24.0001 19.4945 -23.3079 18.5625 -23.3079C17.6305 -23.3079 16.875 -24.0001 16.875 -24.8539ZM16.875 -32.5835C16.875 -33.4373 17.6305 -34.1294 18.5625 -34.1294C19.4945 -34.1294 20.25 -33.4373 20.25 -32.5835C20.25 -31.7297 19.4945 -31.0375 18.5625 -31.0375C17.6305 -31.0375 16.875 -31.7297 16.875 -32.5835ZM16.875 -55.7722C16.875 -56.626 17.6305 -57.3181 18.5625 -57.3181C19.4945 -57.3181 20.25 -56.626 20.25 -55.7722C20.25 -54.9184 19.4945 -54.2263 18.5625 -54.2263C17.6305 -54.2263 16.875 -54.9184 16.875 -55.7722ZM8.4375 13.7941C8.4375 12.9403 9.19302 12.2482 10.125 12.2482C11.057 12.2482 11.8125 12.9403 11.8125 13.7941C11.8125 14.6479 11.057 15.34 10.125 15.34C9.19302 15.34 8.4375 14.6479 8.4375 13.7941ZM8.4375 -1.66507C8.4375 -2.51886 9.19302 -3.211 10.125 -3.211C11.057 -3.211 11.8125 -2.51886 11.8125 -1.66507C11.8125 -0.811275 11.057 -0.119141 10.125 -0.119141C9.19302 -0.119141 8.4375 -0.811275 8.4375 -1.66507ZM8.4375 -48.0426C8.4375 -48.8964 9.19302 -49.5885 10.125 -49.5885C11.057 -49.5885 11.8125 -48.8964 11.8125 -48.0426C11.8125 -47.1888 11.057 -46.4967 10.125 -46.4967C9.19302 -46.4967 8.4375 -47.1888 8.4375 -48.0426ZM8.4375 60.1716C8.4375 59.3178 9.19302 58.6257 10.125 58.6257C11.057 58.6257 11.8125 59.3178 11.8125 60.1716C11.8125 61.0254 11.057 61.7175 10.125 61.7175C9.19302 61.7175 8.4375 61.0254 8.4375 60.1716ZM8.4375 -55.7722C8.4375 -56.626 9.19302 -57.3181 10.125 -57.3181C11.057 -57.3181 11.8125 -56.626 11.8125 -55.7722C11.8125 -54.9184 11.057 -54.2263 10.125 -54.2263C9.19302 -54.2263 8.4375 -54.9184 8.4375 -55.7722ZM8.4375 52.442C8.4375 51.5882 9.19302 50.8961 10.125 50.8961C11.057 50.8961 11.8125 51.5882 11.8125 52.442C11.8125 53.2958 11.057 53.988 10.125 53.988C9.19302 53.988 8.4375 53.2958 8.4375 52.442ZM8.4375 44.7125C8.4375 43.8587 9.19302 43.1666 10.125 43.1666C11.057 43.1666 11.8125 43.8587 11.8125 44.7125C11.8125 45.5662 11.057 46.2584 10.125 46.2584C9.19302 46.2584 8.4375 45.5662 8.4375 44.7125ZM8.4375 36.9828C8.4375 36.1291 9.19302 35.437 10.125 35.437C11.057 35.437 11.8125 36.1291 11.8125 36.9828C11.8125 37.8366 11.057 38.5287 10.125 38.5287C9.19302 38.5287 8.4375 37.8366 8.4375 36.9828ZM8.4375 29.2532C8.4375 28.3995 9.19302 27.7073 10.125 27.7073C11.057 27.7073 11.8125 28.3995 11.8125 29.2532C11.8125 30.107 11.057 30.7991 10.125 30.7991C9.19302 30.7991 8.4375 30.107 8.4375 29.2532ZM8.4375 21.5237C8.4375 20.6699 9.19302 19.9778 10.125 19.9778C11.057 19.9778 11.8125 20.6699 11.8125 21.5237C11.8125 22.3774 11.057 23.0695 10.125 23.0695C9.19302 23.0695 8.4375 22.3774 8.4375 21.5237ZM8.4375 6.06445C8.4375 5.21068 9.19302 4.51855 10.125 4.51855C11.057 4.51855 11.8125 5.21068 11.8125 6.06445C11.8125 6.91823 11.057 7.61035 10.125 7.61035C9.19302 7.61035 8.4375 6.91823 8.4375 6.06445ZM8.4375 -9.39465C8.4375 -10.2485 9.19302 -10.9406 10.125 -10.9406C11.057 -10.9406 11.8125 -10.2485 11.8125 -9.39465C11.8125 -8.54084 11.057 -7.84869 10.125 -7.84869C9.19302 -7.84869 8.4375 -8.54084 8.4375 -9.39465ZM8.4375 -17.1243C8.4375 -17.9781 9.19302 -18.6702 10.125 -18.6702C11.057 -18.6702 11.8125 -17.9781 11.8125 -17.1243C11.8125 -16.2705 11.057 -15.5783 10.125 -15.5783C9.19302 -15.5783 8.4375 -16.2705 8.4375 -17.1243ZM8.4375 -24.8539C8.4375 -25.7076 9.19302 -26.3998 10.125 -26.3998C11.057 -26.3998 11.8125 -25.7076 11.8125 -24.8539C11.8125 -24.0001 11.057 -23.3079 10.125 -23.3079C9.19302 -23.3079 8.4375 -24.0001 8.4375 -24.8539ZM8.4375 -32.5835C8.4375 -33.4373 9.19302 -34.1294 10.125 -34.1294C11.057 -34.1294 11.8125 -33.4373 11.8125 -32.5835C11.8125 -31.7297 11.057 -31.0375 10.125 -31.0375C9.19302 -31.0375 8.4375 -31.7297 8.4375 -32.5835ZM8.4375 -40.313C8.4375 -41.1668 9.19302 -41.8589 10.125 -41.8589C11.057 -41.8589 11.8125 -41.1668 11.8125 -40.313C11.8125 -39.4592 11.057 -38.7671 10.125 -38.7671C9.19302 -38.7671 8.4375 -39.4592 8.4375 -40.313ZM0 -32.5835C0 -33.4373 0.75552 -34.1294 1.6875 -34.1294C2.61948 -34.1294 3.375 -33.4373 3.375 -32.5835C3.375 -31.7297 2.61948 -31.0375 1.6875 -31.0375C0.75552 -31.0375 0 -31.7297 0 -32.5835ZM0 -48.0426C0 -48.8964 0.75552 -49.5885 1.6875 -49.5885C2.61948 -49.5885 3.375 -48.8964 3.375 -48.0426C3.375 -47.1888 2.61948 -46.4967 1.6875 -46.4967C0.75552 -46.4967 0 -47.1888 0 -48.0426ZM0 60.1716C0 59.3178 0.75552 58.6257 1.6875 58.6257C2.61948 58.6257 3.375 59.3178 3.375 60.1716C3.375 61.0254 2.61948 61.7175 1.6875 61.7175C0.75552 61.7175 0 61.0254 0 60.1716ZM0 52.442C0 51.5882 0.75552 50.8961 1.6875 50.8961C2.61948 50.8961 3.375 51.5882 3.375 52.442C3.375 53.2958 2.61948 53.988 1.6875 53.988C0.75552 53.988 0 53.2958 0 52.442ZM0 44.7125C0 43.8587 0.75552 43.1666 1.6875 43.1666C2.61948 43.1666 3.375 43.8587 3.375 44.7125C3.375 45.5662 2.61948 46.2584 1.6875 46.2584C0.75552 46.2584 0 45.5662 0 44.7125ZM0 36.9828C0 36.1291 0.75552 35.437 1.6875 35.437C2.61948 35.437 3.375 36.1291 3.375 36.9828C3.375 37.8366 2.61948 38.5287 1.6875 38.5287C0.75552 38.5287 0 37.8366 0 36.9828ZM0 29.2532C0 28.3995 0.75552 27.7073 1.6875 27.7073C2.61948 27.7073 3.375 28.3995 3.375 29.2532C3.375 30.107 2.61948 30.7991 1.6875 30.7991C0.75552 30.7991 0 30.107 0 29.2532ZM0 21.5237C0 20.6699 0.75552 19.9778 1.6875 19.9778C2.61948 19.9778 3.375 20.6699 3.375 21.5237C3.375 22.3774 2.61948 23.0695 1.6875 23.0695C0.75552 23.0695 0 22.3774 0 21.5237ZM0 6.06445C0 5.21068 0.75552 4.51855 1.6875 4.51855C2.61948 4.51855 3.375 5.21068 3.375 6.06445C3.375 6.91823 2.61948 7.61035 1.6875 7.61035C0.75552 7.61035 0 6.91823 0 6.06445ZM0 -40.313C0 -41.1668 0.75552 -41.8589 1.6875 -41.8589C2.61948 -41.8589 3.375 -41.1668 3.375 -40.313C3.375 -39.4592 2.61948 -38.7671 1.6875 -38.7671C0.75552 -38.7671 0 -39.4592 0 -40.313ZM0 -55.7722C0 -56.626 0.75552 -57.3181 1.6875 -57.3181C2.61948 -57.3181 3.375 -56.626 3.375 -55.7722C3.375 -54.9184 2.61948 -54.2263 1.6875 -54.2263C0.75552 -54.2263 0 -54.9184 0 -55.7722ZM0 -1.66507C0 -2.51886 0.75552 -3.211 1.6875 -3.211C2.61948 -3.211 3.375 -2.51886 3.375 -1.66507C3.375 -0.811275 2.61948 -0.119141 1.6875 -0.119141C0.75552 -0.119141 0 -0.811275 0 -1.66507ZM0 -9.39465C0 -10.2485 0.75552 -10.9406 1.6875 -10.9406C2.61948 -10.9406 3.375 -10.2485 3.375 -9.39465C3.375 -8.54084 2.61948 -7.84869 1.6875 -7.84869C0.75552 -7.84869 0 -8.54084 0 -9.39465ZM0 -17.1243C0 -17.9781 0.75552 -18.6702 1.6875 -18.6702C2.61948 -18.6702 3.375 -17.9781 3.375 -17.1243C3.375 -16.2705 2.61948 -15.5783 1.6875 -15.5783C0.75552 -15.5783 0 -16.2705 0 -17.1243ZM0 -24.8539C0 -25.7076 0.75552 -26.3998 1.6875 -26.3998C2.61948 -26.3998 3.375 -25.7076 3.375 -24.8539C3.375 -24.0001 2.61948 -23.3079 1.6875 -23.3079C0.75552 -23.3079 0 -24.0001 0 -24.8539ZM0 13.7941C0 12.9403 0.75552 12.2482 1.6875 12.2482C2.61948 12.2482 3.375 12.9403 3.375 13.7941C3.375 14.6479 2.61948 15.34 1.6875 15.34C0.75552 15.34 0 14.6479 0 13.7941Z" fill="white"/>
</g>
</svg>
