<svg xmlns="http://www.w3.org/2000/svg" width="54" height="5" xmlns:v="https://vecta.io/nano"><path d="M47.246 5c-1.96 0-2.955-1.105-3.833-2.08-.807-.897-1.505-1.672-2.92-1.672s-2.11.774-2.918 1.672c-.877.973-1.87 2.08-3.83 2.08s-2.955-1.105-3.832-2.08c-.807-.897-1.504-1.672-2.92-1.672s-2.11.774-2.918 1.672c-.878.973-1.87 2.08-3.83 2.08s-2.954-1.105-3.83-2.08c-.807-.897-1.503-1.67-2.917-1.67s-2.11.774-2.918 1.672C9.702 3.895 8.708 5 6.75 5s-2.954-1.105-3.83-2.08C2.11 2.024 1.414 1.25 0 1.25V0c1.96 0 2.953 1.105 3.83 2.08.807.897 1.504 1.672 2.918 1.672s2.1-.774 2.916-1.67c.877-.974 1.87-2.08 3.83-2.08s2.953 1.105 3.83 2.08c.807.897 1.503 1.672 2.918 1.672s2.11-.774 2.918-1.672c.877-.973 1.87-2.08 3.83-2.08s2.955 1.105 3.833 2.08c.807.897 1.504 1.672 2.92 1.672s2.11-.774 2.918-1.672c.877-.973 1.87-2.08 3.83-2.08s2.956 1.105 3.834 2.08c.807.897 1.505 1.672 2.92 1.672s2.113-.774 2.92-1.672C51.044 1.105 52.04 0 54 0v1.25c-1.416 0-2.113.774-2.92 1.672-.878.973-1.873 2.08-3.834 2.08" fill="#ffb86f" fill-rule="evenodd"/></svg>