<svg xmlns="http://www.w3.org/2000/svg" xmlns:xlink="http://www.w3.org/1999/xlink" width="264" height="264" xmlns:v="https://vecta.io/nano"><defs><circle id="A" cx="93.074" cy="93.703" r="93"/></defs><g transform="matrix(.777146 -.62932 .62932 .777146 .698629 117.752222)" fill-rule="evenodd" opacity=".3"><mask id="B" fill="#fff"><use xlink:href="#A"/></mask><use fill="#f4f6f8" opacity=".297" xlink:href="#A"/><g mask="url(#B)" fill="#24272c"><circle cx="153.84" cy="223.487" r="1.503"/><circle cx="141.814" cy="223.487" r="1.503"/><circle cx="129.788" cy="223.487" r="1.503"/><circle cx="119.265" cy="223.487" r="1.503"/><circle cx="105.735" cy="223.487" r="1.503"/><circle cx="95.213" cy="223.487" r="1.503"/><circle cx="81.683" cy="223.487" r="1.503"/><circle cx="71.16" cy="223.487" r="1.503"/><circle cx="59.134" cy="223.487" r="1.503"/><circle cx="47.108" cy="223.487" r="1.503"/><circle cx="165.866" cy="209.957" r="1.503"/><circle cx="153.84" cy="209.957" r="1.503"/><circle cx="141.814" cy="209.957" r="1.503"/><circle cx="129.788" cy="209.957" r="1.503"/><circle cx="119.265" cy="209.957" r="1.503"/><circle cx="105.735" cy="209.957" r="1.503"/><circle cx="95.213" cy="209.957" r="1.503"/><circle cx="81.683" cy="209.957" r="1.503"/><circle cx="71.16" cy="209.957" r="1.503"/><circle cx="59.134" cy="209.957" r="1.503"/><circle cx="47.108" cy="209.957" r="1.503"/><circle cx="35.082" cy="209.957" r="1.503"/><circle cx="177.892" cy="199.434" r="1.503"/><circle cx="165.866" cy="199.434" r="1.503"/><circle cx="153.84" cy="199.434" r="1.503"/><circle cx="141.814" cy="199.434" r="1.503"/><circle cx="129.788" cy="199.434" r="1.503"/><circle cx="119.265" cy="199.434" r="1.503"/><circle cx="105.735" cy="199.434" r="1.503"/><circle cx="95.213" cy="199.434" r="1.503"/><circle cx="81.683" cy="199.434" r="1.503"/><circle cx="71.16" cy="199.434" r="1.503"/><circle cx="59.134" cy="199.434" r="1.503"/><circle cx="47.108" cy="199.434" r="1.503"/><circle cx="35.082" cy="199.434" r="1.503"/><circle cx="23.056" cy="199.434" r="1.503"/><circle cx="11.03" cy="199.434" r="1.503"/><circle cx="177.892" cy="187.408" r="1.503"/><circle cx="165.866" cy="187.408" r="1.503"/><circle cx="153.84" cy="187.408" r="1.503"/><circle cx="141.814" cy="187.408" r="1.503"/><circle cx="129.788" cy="187.408" r="1.503"/><circle cx="119.265" cy="187.408" r="1.503"/><circle cx="105.735" cy="187.408" r="1.503"/><circle cx="95.213" cy="187.408" r="1.503"/><circle cx="81.683" cy="187.408" r="1.503"/><circle cx="71.16" cy="187.408" r="1.503"/><circle cx="59.134" cy="187.408" r="1.503"/><circle cx="47.108" cy="187.408" r="1.503"/><circle cx="35.082" cy="187.408" r="1.503"/><circle cx="23.056" cy="187.408" r="1.503"/><circle cx="11.03" cy="187.408" r="1.503"/><circle cx=".507" cy="187.408" r="1.503"/><circle cx="189.918" cy="175.382" r="1.503"/><circle cx="177.892" cy="175.382" r="1.503"/><circle cx="165.866" cy="175.382" r="1.503"/><circle cx="153.84" cy="175.382" r="1.503"/><circle cx="141.814" cy="175.382" r="1.503"/><circle cx="129.788" cy="175.382" r="1.503"/><circle cx="119.265" cy="175.382" r="1.503"/><circle cx="105.735" cy="175.382" r="1.503"/><circle cx="95.213" cy="175.382" r="1.503"/><circle cx="81.683" cy="175.382" r="1.503"/><circle cx="71.16" cy="175.382" r="1.503"/><circle cx="59.134" cy="175.382" r="1.503"/><circle cx="47.108" cy="175.382" r="1.503"/><circle cx="35.082" cy="175.382" r="1.503"/><circle cx="23.056" cy="175.382" r="1.503"/><circle cx="11.03" cy="175.382" r="1.503"/><circle cx=".507" cy="175.382" r="1.503"/><circle cx="-13.023" cy="175.382" r="1.503"/><circle cx="200.441" cy="163.356" r="1.503"/><circle cx="189.918" cy="163.356" r="1.503"/><circle cx="177.892" cy="163.356" r="1.503"/><circle cx="165.866" cy="163.356" r="1.503"/><circle cx="153.84" cy="163.356" r="1.503"/><circle cx="141.814" cy="163.356" r="1.503"/><circle cx="129.788" cy="163.356" r="1.503"/><circle cx="119.265" cy="163.356" r="1.503"/><circle cx="105.735" cy="163.356" r="1.503"/><circle cx="95.213" cy="163.356" r="1.503"/><circle cx="81.683" cy="163.356" r="1.503"/><circle cx="71.16" cy="163.356" r="1.503"/><circle cx="59.134" cy="163.356" r="1.503"/><circle cx="47.108" cy="163.356" r="1.503"/><circle cx="35.082" cy="163.356" r="1.503"/><circle cx="23.056" cy="163.356" r="1.503"/><circle cx="11.03" cy="163.356" r="1.503"/><circle cx=".507" cy="163.356" r="1.503"/><circle cx="-13.023" cy="163.356" r="1.503"/><circle cx="213.971" cy="151.33" r="1.503"/><circle cx="200.441" cy="151.33" r="1.503"/><circle cx="189.918" cy="151.33" r="1.503"/><circle cx="177.892" cy="151.33" r="1.503"/><circle cx="165.866" cy="151.33" r="1.503"/><circle cx="153.84" cy="151.33" r="1.503"/><circle cx="141.814" cy="151.33" r="1.503"/><circle cx="129.788" cy="151.33" r="1.503"/><circle cx="119.265" cy="151.33" r="1.503"/><circle cx="105.735" cy="151.33" r="1.503"/><circle cx="95.213" cy="151.33" r="1.503"/><circle cx="81.683" cy="151.33" r="1.503"/><circle cx="71.16" cy="151.33" r="1.503"/><circle cx="59.134" cy="151.33" r="1.503"/><circle cx="47.108" cy="151.33" r="1.503"/><circle cx="35.082" cy="151.33" r="1.503"/><circle cx="23.056" cy="151.33" r="1.503"/><circle cx="11.03" cy="151.33" r="1.503"/><circle cx=".507" cy="151.33" r="1.503"/><circle cx="-13.023" cy="151.33" r="1.503"/><circle cx="213.971" cy="139.304" r="1.503"/><circle cx="200.441" cy="139.304" r="1.503"/><circle cx="189.918" cy="139.304" r="1.503"/><circle cx="177.892" cy="139.304" r="1.503"/><circle cx="165.866" cy="139.304" r="1.503"/><circle cx="153.84" cy="139.304" r="1.503"/><circle cx="141.814" cy="139.304" r="1.503"/><circle cx="129.788" cy="139.304" r="1.503"/><circle cx="119.265" cy="139.304" r="1.503"/><circle cx="105.735" cy="139.304" r="1.503"/><circle cx="95.213" cy="139.304" r="1.503"/><circle cx="81.683" cy="139.304" r="1.503"/><circle cx="71.16" cy="139.304" r="1.503"/><circle cx="59.134" cy="139.304" r="1.503"/><circle cx="47.108" cy="139.304" r="1.503"/><circle cx="35.082" cy="139.304" r="1.503"/><circle cx="23.056" cy="139.304" r="1.503"/><circle cx="11.03" cy="139.304" r="1.503"/><circle cx=".507" cy="139.304" r="1.503"/><circle cx="-13.023" cy="139.304" r="1.503"/><circle cx="213.971" cy="128.781" r="1.503"/><circle cx="200.441" cy="128.781" r="1.503"/><circle cx="189.918" cy="128.781" r="1.503"/><circle cx="177.892" cy="128.781" r="1.503"/><circle cx="165.866" cy="128.781" r="1.503"/><circle cx="153.84" cy="128.781" r="1.503"/><circle cx="141.814" cy="128.781" r="1.503"/><circle cx="129.788" cy="128.781" r="1.503"/><circle cx="119.265" cy="128.781" r="1.503"/><circle cx="105.735" cy="128.781" r="1.503"/><circle cx="95.213" cy="128.781" r="1.503"/><circle cx="81.683" cy="128.781" r="1.503"/><circle cx="71.16" cy="128.781" r="1.503"/><circle cx="59.134" cy="128.781" r="1.503"/><circle cx="47.108" cy="128.781" r="1.503"/><circle cx="35.082" cy="128.781" r="1.503"/><circle cx="23.056" cy="128.781" r="1.503"/><circle cx="11.03" cy="128.781" r="1.503"/><circle cx=".507" cy="128.781" r="1.503"/><circle cx="-13.023" cy="128.781" r="1.503"/><circle cx="213.971" cy="115.251" r="1.503"/><circle cx="200.441" cy="115.251" r="1.503"/><circle cx="189.918" cy="115.251" r="1.503"/><circle cx="177.892" cy="115.251" r="1.503"/><circle cx="165.866" cy="115.251" r="1.503"/><circle cx="153.84" cy="115.251" r="1.503"/><circle cx="141.814" cy="115.251" r="1.503"/><circle cx="129.788" cy="115.251" r="1.503"/><circle cx="119.265" cy="115.251" r="1.503"/><circle cx="105.735" cy="115.251" r="1.503"/><circle cx="95.213" cy="115.251" r="1.503"/><circle cx="81.683" cy="115.251" r="1.503"/><circle cx="71.16" cy="115.251" r="1.503"/><circle cx="59.134" cy="115.251" r="1.503"/><circle cx="47.108" cy="115.251" r="1.503"/><circle cx="35.082" cy="115.251" r="1.503"/><circle cx="23.056" cy="115.251" r="1.503"/><circle cx="11.03" cy="115.251" r="1.503"/><circle cx=".507" cy="115.251" r="1.503"/><circle cx="-13.023" cy="115.251" r="1.503"/><circle cx="213.971" cy="104.729" r="1.503"/><circle cx="200.441" cy="104.729" r="1.503"/><circle cx="189.918" cy="104.729" r="1.503"/><circle cx="177.892" cy="104.729" r="1.503"/><circle cx="165.866" cy="104.729" r="1.503"/><circle cx="153.84" cy="104.729" r="1.503"/><circle cx="141.814" cy="104.729" r="1.503"/><circle cx="129.788" cy="104.729" r="1.503"/><circle cx="119.265" cy="104.729" r="1.503"/><circle cx="105.735" cy="104.729" r="1.503"/><circle cx="95.213" cy="104.729" r="1.503"/><circle cx="81.683" cy="104.729" r="1.503"/><circle cx="71.16" cy="104.729" r="1.503"/><circle cx="59.134" cy="104.729" r="1.503"/><circle cx="47.108" cy="104.729" r="1.503"/><circle cx="35.082" cy="104.729" r="1.503"/><circle cx="23.056" cy="104.729" r="1.503"/><circle cx="11.03" cy="104.729" r="1.503"/><circle cx=".507" cy="104.729" r="1.503"/><circle cx="-13.023" cy="104.729" r="1.503"/><circle cx="213.971" cy="91.199" r="1.503"/><circle cx="200.441" cy="91.199" r="1.503"/><circle cx="189.918" cy="91.199" r="1.503"/><circle cx="177.892" cy="91.199" r="1.503"/><circle cx="165.866" cy="91.199" r="1.503"/><circle cx="153.84" cy="91.199" r="1.503"/><circle cx="141.814" cy="91.199" r="1.503"/><circle cx="129.788" cy="91.199" r="1.503"/><circle cx="119.265" cy="91.199" r="1.503"/><circle cx="105.735" cy="91.199" r="1.503"/><circle cx="95.213" cy="91.199" r="1.503"/><circle cx="81.683" cy="91.199" r="1.503"/><circle cx="71.16" cy="91.199" r="1.503"/><circle cx="59.134" cy="91.199" r="1.503"/><circle cx="47.108" cy="91.199" r="1.503"/><circle cx="35.082" cy="91.199" r="1.503"/><circle cx="23.056" cy="91.199" r="1.503"/><circle cx="11.03" cy="91.199" r="1.503"/><circle cx=".507" cy="91.199" r="1.503"/><circle cx="-13.023" cy="91.199" r="1.503"/><circle cx="213.971" cy="80.676" r="1.503"/><circle cx="200.441" cy="80.676" r="1.503"/><circle cx="189.918" cy="80.676" r="1.503"/><circle cx="177.892" cy="80.676" r="1.503"/><circle cx="165.866" cy="80.676" r="1.503"/><circle cx="153.84" cy="80.676" r="1.503"/><circle cx="141.814" cy="80.676" r="1.503"/><circle cx="129.788" cy="80.676" r="1.503"/><circle cx="119.265" cy="80.676" r="1.503"/><circle cx="105.735" cy="80.676" r="1.503"/><circle cx="95.213" cy="80.676" r="1.503"/><circle cx="81.683" cy="80.676" r="1.503"/><circle cx="71.16" cy="80.676" r="1.503"/><circle cx="59.134" cy="80.676" r="1.503"/><circle cx="47.108" cy="80.676" r="1.503"/><circle cx="35.082" cy="80.676" r="1.503"/><circle cx="23.056" cy="80.676" r="1.503"/><circle cx="11.03" cy="80.676" r="1.503"/><circle cx=".507" cy="80.676" r="1.503"/><circle cx="-13.023" cy="80.676" r="1.503"/><circle cx="213.971" cy="68.65" r="1.503"/><circle cx="200.441" cy="68.65" r="1.503"/><circle cx="189.918" cy="68.65" r="1.503"/><circle cx="177.892" cy="68.65" r="1.503"/><circle cx="165.866" cy="68.65" r="1.503"/><circle cx="153.84" cy="68.65" r="1.503"/><circle cx="141.814" cy="68.65" r="1.503"/><circle cx="129.788" cy="68.65" r="1.503"/><circle cx="119.265" cy="68.65" r="1.503"/><circle cx="105.735" cy="68.65" r="1.503"/><circle cx="95.213" cy="68.65" r="1.503"/><circle cx="81.683" cy="68.65" r="1.503"/><circle cx="71.16" cy="68.65" r="1.503"/><circle cx="59.134" cy="68.65" r="1.503"/><circle cx="47.108" cy="68.65" r="1.503"/><circle cx="35.082" cy="68.65" r="1.503"/><circle cx="23.056" cy="68.65" r="1.503"/><circle cx="11.03" cy="68.65" r="1.503"/><circle cx=".507" cy="68.65" r="1.503"/><circle cx="-13.023" cy="68.65" r="1.503"/><circle cx="213.971" cy="56.624" r="1.503"/><circle cx="200.441" cy="56.624" r="1.503"/><circle cx="189.918" cy="56.624" r="1.503"/><circle cx="177.892" cy="56.624" r="1.503"/><circle cx="165.866" cy="56.624" r="1.503"/><circle cx="153.84" cy="56.624" r="1.503"/><circle cx="141.814" cy="56.624" r="1.503"/><circle cx="129.788" cy="56.624" r="1.503"/><circle cx="119.265" cy="56.624" r="1.503"/><circle cx="105.735" cy="56.624" r="1.503"/><circle cx="95.213" cy="56.624" r="1.503"/><circle cx="81.683" cy="56.624" r="1.503"/><circle cx="71.16" cy="56.624" r="1.503"/><circle cx="59.134" cy="56.624" r="1.503"/><circle cx="47.108" cy="56.624" r="1.503"/><circle cx="35.082" cy="56.624" r="1.503"/><circle cx="23.056" cy="56.624" r="1.503"/><circle cx="11.03" cy="56.624" r="1.503"/><circle cx=".507" cy="56.624" r="1.503"/><circle cx="-13.023" cy="56.624" r="1.503"/><circle cx="213.971" cy="44.598" r="1.503"/><circle cx="200.441" cy="44.598" r="1.503"/><circle cx="189.918" cy="44.598" r="1.503"/><circle cx="177.892" cy="44.598" r="1.503"/><circle cx="165.866" cy="44.598" r="1.503"/><circle cx="153.84" cy="44.598" r="1.503"/><circle cx="141.814" cy="44.598" r="1.503"/><circle cx="129.788" cy="44.598" r="1.503"/><circle cx="119.265" cy="44.598" r="1.503"/><circle cx="105.735" cy="44.598" r="1.503"/><circle cx="95.213" cy="44.598" r="1.503"/><circle cx="81.683" cy="44.598" r="1.503"/><circle cx="71.16" cy="44.598" r="1.503"/><circle cx="59.134" cy="44.598" r="1.503"/><circle cx="47.108" cy="44.598" r="1.503"/><circle cx="35.082" cy="44.598" r="1.503"/><circle cx="23.056" cy="44.598" r="1.503"/><circle cx="11.03" cy="44.598" r="1.503"/><circle cx=".507" cy="44.598" r="1.503"/><circle cx="-13.023" cy="44.598" r="1.503"/><circle cx="213.971" cy="32.572" r="1.503"/><circle cx="200.441" cy="32.572" r="1.503"/><circle cx="189.918" cy="32.572" r="1.503"/><circle cx="177.892" cy="32.572" r="1.503"/><circle cx="165.866" cy="32.572" r="1.503"/><circle cx="153.84" cy="32.572" r="1.503"/><circle cx="141.814" cy="32.572" r="1.503"/><circle cx="129.788" cy="32.572" r="1.503"/><circle cx="119.265" cy="32.572" r="1.503"/><circle cx="105.735" cy="32.572" r="1.503"/><circle cx="95.213" cy="32.572" r="1.503"/><circle cx="81.683" cy="32.572" r="1.503"/><circle cx="71.16" cy="32.572" r="1.503"/><circle cx="59.134" cy="32.572" r="1.503"/><circle cx="47.108" cy="32.572" r="1.503"/><circle cx="35.082" cy="32.572" r="1.503"/><circle cx="23.056" cy="32.572" r="1.503"/><circle cx="11.03" cy="32.572" r="1.503"/><circle cx=".507" cy="32.572" r="1.503"/><circle cx="-13.023" cy="32.572" r="1.503"/><circle cx="213.971" cy="20.546" r="1.503"/><circle cx="200.441" cy="20.546" r="1.503"/><circle cx="189.918" cy="20.546" r="1.503"/><circle cx="177.892" cy="20.546" r="1.503"/><circle cx="165.866" cy="20.546" r="1.503"/><circle cx="153.84" cy="20.546" r="1.503"/><circle cx="141.814" cy="20.546" r="1.503"/><circle cx="129.788" cy="20.546" r="1.503"/><circle cx="119.265" cy="20.546" r="1.503"/><circle cx="105.735" cy="20.546" r="1.503"/><circle cx="95.213" cy="20.546" r="1.503"/><circle cx="81.683" cy="20.546" r="1.503"/><circle cx="71.16" cy="20.546" r="1.503"/><circle cx="59.134" cy="20.546" r="1.503"/><circle cx="47.108" cy="20.546" r="1.503"/><circle cx="35.082" cy="20.546" r="1.503"/><circle cx="23.056" cy="20.546" r="1.503"/><circle cx="11.03" cy="20.546" r="1.503"/><circle cx=".507" cy="20.546" r="1.503"/><circle cx="-13.023" cy="20.546" r="1.503"/><circle cx="200.441" cy="10.023" r="1.503"/><circle cx="189.918" cy="10.023" r="1.503"/><circle cx="177.892" cy="10.023" r="1.503"/><circle cx="165.866" cy="10.023" r="1.503"/><circle cx="153.84" cy="10.023" r="1.503"/><circle cx="141.814" cy="10.023" r="1.503"/><circle cx="129.788" cy="10.023" r="1.503"/><circle cx="119.265" cy="10.023" r="1.503"/><circle cx="105.735" cy="10.023" r="1.503"/><circle cx="95.213" cy="10.023" r="1.503"/><circle cx="81.683" cy="10.023" r="1.503"/><circle cx="71.16" cy="10.023" r="1.503"/><circle cx="59.134" cy="10.023" r="1.503"/><circle cx="47.108" cy="10.023" r="1.503"/><circle cx="35.082" cy="10.023" r="1.503"/><circle cx="23.056" cy="10.023" r="1.503"/><circle cx="11.03" cy="10.023" r="1.503"/><circle cx=".507" cy="10.023" r="1.503"/><circle cx="177.892" cy="-3.507" r="1.503"/><circle cx="165.866" cy="-3.507" r="1.503"/><circle cx="153.84" cy="-3.507" r="1.503"/><circle cx="141.814" cy="-3.507" r="1.503"/><circle cx="129.788" cy="-3.507" r="1.503"/><circle cx="119.265" cy="-3.507" r="1.503"/><circle cx="105.735" cy="-3.507" r="1.503"/><circle cx="95.213" cy="-3.507" r="1.503"/><circle cx="81.683" cy="-3.507" r="1.503"/><circle cx="71.16" cy="-3.507" r="1.503"/><circle cx="59.134" cy="-3.507" r="1.503"/><circle cx="47.108" cy="-3.507" r="1.503"/><circle cx="35.082" cy="-3.507" r="1.503"/><circle cx="23.056" cy="-3.507" r="1.503"/><circle cx="11.03" cy="-3.507" r="1.503"/><circle cx=".507" cy="-3.507" r="1.503"/></g></g></svg>