<?xml version="1.0" encoding="UTF-8"?>
<svg width="155px" height="109px" viewBox="0 0 155 109" version="1.1" xmlns="http://www.w3.org/2000/svg" xmlns:xlink="http://www.w3.org/1999/xlink">
    <!-- Generator: Sketch 63.1 (92452) - https://sketch.com -->
    <title>Group 98</title>
    <desc>Created with Sketch.</desc>
    <defs>
        <polygon id="path-1" points="0.00903956669 0.0734948551 209.987958 0.0734948551 209.987958 164.035027 0.00903956669 164.035027"></polygon>
        <path d="M16.8161289,0.518080247 C14.7370206,1.0271358 12.7918144,1.9692716 10.9325567,2.98538889 L10.9325567,2.98538889 C9.31934536,3.86718519 7.34014948,4.62651852 6.55687113,6.26754321 L6.55687113,6.26754321 C4.65918557,10.2440741 2.97463918,14.392179 1.57759794,18.5583333 L1.57759794,18.5583333 C0.408634021,22.043963 -0.87442268,25.6975988 0.967515464,29.2302407 L0.967515464,29.2302407 C1.56428351,30.3750123 2.43123711,31.354821 3.11384536,32.4483827 L3.11384536,32.4483827 C3.87417526,33.6666111 4.158,34.810963 4.25769588,36.2162963 L4.25769588,36.2162963 C4.48512371,39.4224753 4.39668557,42.6386235 4.38726804,45.8495247 L4.38726804,45.8495247 C4.38445361,46.7747654 4.39701031,47.7366296 4.81495361,48.5686852 L4.81495361,48.5686852 C5.63893299,50.2088704 7.87803093,50.2317469 9.49113402,50.2291235 L9.49113402,50.2291235 C14.8075979,50.2202037 20.1239536,50.211179 25.4404175,50.2022593 L25.4404175,50.2022593 C27.6525619,50.1985864 29.3425206,50.461142 31.4191392,50.8749136 L31.4191392,50.8749136 C33.1667938,51.2230988 34.6671031,50.3681667 35.5054794,48.791784 L35.5054794,48.791784 C36.2991495,47.2994568 36.3595515,45.556537 36.444634,43.8796235 L36.444634,43.8796235 C36.7755464,37.3549815 37.7303969,30.8603519 39.2928402,24.5058148 L39.2928402,24.5058148 C39.7352474,22.7065432 40.5111649,20.3534074 41.1137784,17.8792778 L41.1137784,17.8792778 C42.1135515,13.7748272 42.6320567,9.57551235 40.3661134,6.77953704 L40.3661134,6.77953704 C39.3427423,5.51691975 37.5196392,4.63764198 36.0275567,4.01241975 L36.0275567,4.01241975 C33.1173247,2.79303704 30.1421443,1.15390123 27.0268918,0.622493827 L27.0268918,0.622493827 C25.1274742,0.298444444 23.1042216,0.0461728395 21.1029433,0.0461728395 L21.1029433,0.0461728395 C19.643768,0.0461728395 18.1965,0.180179012 16.8161289,0.518080247" id="path-3"></path>
        <path d="M16.8161289,0.518080247 C14.7370206,1.0271358 12.7918144,1.9692716 10.9325567,2.98538889 L10.9325567,2.98538889 C9.31934536,3.86718519 7.34014948,4.62651852 6.55687113,6.26754321 L6.55687113,6.26754321 C4.65918557,10.2440741 2.97463918,14.392179 1.57759794,18.5583333 L1.57759794,18.5583333 C0.408634021,22.043963 -0.87442268,25.6975988 0.967515464,29.2302407 L0.967515464,29.2302407 C1.56428351,30.3750123 2.43123711,31.354821 3.11384536,32.4483827 L3.11384536,32.4483827 C3.87417526,33.6666111 4.158,34.810963 4.25769588,36.2162963 L4.25769588,36.2162963 C4.48512371,39.4224753 4.39668557,42.6386235 4.38726804,45.8495247 L4.38726804,45.8495247 C4.38445361,46.7747654 4.39701031,47.7366296 4.81495361,48.5686852 L4.81495361,48.5686852 C5.63893299,50.2088704 7.87803093,50.2317469 9.49113402,50.2291235 L9.49113402,50.2291235 C14.8075979,50.2202037 20.1239536,50.211179 25.4404175,50.2022593 L25.4404175,50.2022593 C27.6525619,50.1985864 29.3425206,50.461142 31.4191392,50.8749136 L31.4191392,50.8749136 C33.1667938,51.2230988 34.6671031,50.3681667 35.5054794,48.791784 L35.5054794,48.791784 C36.2991495,47.2994568 36.3595515,45.556537 36.444634,43.8796235 L36.444634,43.8796235 C36.7755464,37.3549815 37.7303969,30.8603519 39.2928402,24.5058148 L39.2928402,24.5058148 C39.7352474,22.7065432 40.5111649,20.3534074 41.1137784,17.8792778 L41.1137784,17.8792778 C42.1135515,13.7748272 42.6320567,9.57551235 40.3661134,6.77953704 L40.3661134,6.77953704 C39.3427423,5.51691975 37.5196392,4.63764198 36.0275567,4.01241975 L36.0275567,4.01241975 C33.1173247,2.79303704 30.1421443,1.15390123 27.0268918,0.622493827 L27.0268918,0.622493827 C25.1274742,0.298444444 23.1042216,0.0461728395 21.1029433,0.0461728395 L21.1029433,0.0461728395 C19.643768,0.0461728395 18.1965,0.180179012 16.8161289,0.518080247" id="path-5"></path>
    </defs>
    <g id="final-for-amit" stroke="none" stroke-width="1" fill="none" fill-rule="evenodd">
        <g id="Lp-ServiceFlow-08-Pay-success" transform="translate(-205.000000, -175.000000)">
            <g id="Group-2" transform="translate(0.000000, 171.000000)">
                <g id="Group-98" transform="translate(109.000000, -18.000000)">
                    <g id="Group-53" transform="translate(71.000000, 0.000000)">
                        <g id="Group-3">
                            <mask id="mask-2" fill="white">
                                <use xlink:href="#path-1"></use>
                            </mask>
                            <g id="Clip-2"></g>
                        </g>
                        <path d="M157.395866,35.0067185 C157.465479,34.5846115 156.908155,33.7330904 156.300021,33.7467512 C156.05812,33.7521519 155.8215,33.8151609 155.580127,33.8033004 C154.936606,33.7717429 154.60312,33.2694715 154.354986,32.8536124 C154.106958,32.4377533 153.613014,31.9635447 152.985972,32.0690185 C152.083014,32.2208754 151.627838,33.4153982 150.601606,32.5186589 C149.929669,31.9315637 149.879282,31.1108587 149.118507,30.5415543 C148.596359,30.1508987 147.747169,29.919407 147.047028,30.1353318 C146.133401,30.4170189 145.793577,31.3251951 144.82069,31.4832999 C143.74312,31.6582424 142.968296,30.8363726 142.624246,30.2436648 C142.206887,29.5245155 142.051817,28.7470168 141.694246,28.0150539 C141.363401,27.3376281 140.697908,26.4300873 139.505408,26.4496783 C138.497134,26.4664101 138.052944,27.1062423 137.557944,27.6141263 C136.914211,28.2748202 135.57657,30.6470281 134.07657,30.3609992 C133.49157,30.2494892 133.199493,29.7837524 132.671641,29.5752404 C131.82319,29.2399692 130.741606,29.7008347 130.230444,30.280623 C129.719176,30.8603055 129.51657,31.5599696 128.938754,32.1084123 C128.789282,32.2503149 128.608014,32.3841692 128.373296,32.4486607 C127.566254,32.6699863 126.815092,31.989066 125.951218,31.938447 C125.354915,31.9035008 124.801606,32.1843408 124.45893,32.5269189 C124.116254,32.869497 123.929387,33.2742369 123.667099,33.649855 C123.594106,33.7543758 123.511183,33.8602732 123.379246,33.9312244 C123.000232,34.1348652 122.466993,33.9632055 122.002627,33.8830411 C120.855549,33.6852248 119.552345,34.2130175 119.228894,35.0067185 L157.395866,35.0067185 Z" id="Fill-4" fill="#FFFFFF"></path>
                        <g id="Group-40" transform="translate(37.500000, 48.924603)" fill="#DFF3FD">
                            <polygon id="Fill-6" points="140.597324 80.9536985 152.496972 80.9536985 152.496972 26.3120117 140.597324 26.3120117"></polygon>
                            <polygon id="Fill-8" points="122.640423 80.9536985 140.597324 80.9536985 140.597324 43.0815019 122.640423 43.0815019"></polygon>
                            <polygon id="Fill-10" points="140.597324 26.3120117 150.26081 26.3120117 150.26081 23.6410672 140.597324 23.6410672"></polygon>
                            <polygon id="Fill-11" points="140.597324 23.6410672 148.503908 23.6410672 148.503908 20.9702287 140.597324 20.9702287"></polygon>
                            <polygon id="Fill-12" points="140.597324 20.9702287 146.826761 20.9702287 146.826761 18.2993901 140.597324 18.2993901"></polygon>
                            <polygon id="Fill-13" points="93.6212324 80.9536985 105.52088 80.9536985 105.52088 26.3120117 93.6212324 26.3120117"></polygon>
                            <polygon id="Fill-14" points="126.1725 80.9536985 138.072042 80.9536985 138.072042 8.62121403 126.1725 8.62121403"></polygon>
                            <polygon id="Fill-15" points="69.821831 80.9536985 93.6212324 80.9536985 93.6212324 59.8091627 69.821831 59.8091627"></polygon>
                            <polygon id="Fill-16" points="99.5710563 80.9536985 123.477782 80.9536985 123.477782 0.0888479268 99.5710563 0.0888479268"></polygon>
                            <polygon id="Fill-17" points="93.6212324 26.3120117 103.284613 26.3120117 103.284613 23.6410672 93.6212324 23.6410672"></polygon>
                            <polygon id="Fill-18" points="93.6212324 23.6410672 101.527711 23.6410672 101.527711 20.9702287 93.6212324 20.9702287"></polygon>
                            <polygon id="Fill-19" points="93.6212324 20.9702287 99.8505634 20.9702287 99.8505634 18.2993901 93.6212324 18.2993901"></polygon>
                            <polygon id="Fill-20" points="70.8218662 80.9536985 82.7215141 80.9536985 82.7215141 26.3120117 70.8218662 26.3120117"></polygon>
                            <polygon id="Fill-21" points="82.7216197 80.9536985 94.621162 80.9536985 94.621162 35.5488074 82.7216197 35.5488074"></polygon>
                            <polygon id="Fill-22" points="52.8649648 80.9536985 70.8218662 80.9536985 70.8218662 14.0583047 52.8649648 14.0583047"></polygon>
                            <polygon id="Fill-23" points="70.8218662 26.3120117 80.4853521 26.3120117 80.4853521 23.6410672 70.8218662 23.6410672"></polygon>
                            <polygon id="Fill-24" points="70.8218662 23.6410672 78.7284507 23.6410672 78.7284507 20.9702287 70.8218662 20.9702287"></polygon>
                            <polygon id="Fill-25" points="70.8218662 20.9702287 77.0513028 20.9702287 77.0513028 18.2993901 70.8218662 18.2993901"></polygon>
                            <polygon id="Fill-26" points="23.845669 80.9536985 35.7453169 80.9536985 35.7453169 26.3120117 23.845669 26.3120117"></polygon>
                            <polygon id="Fill-27" points="11.9460211 80.9536985 23.845669 80.9536985 23.845669 35.5488074 11.9460211 35.5488074"></polygon>
                            <polygon id="Fill-28" points="38.546831 80.9536985 50.4464789 80.9536985 50.4464789 27.9714241 38.546831 27.9714241"></polygon>
                            <polygon id="Fill-29" points="0.0463732394 80.9536985 11.9460211 80.9536985 11.9460211 54.5769835 0.0463732394 54.5769835"></polygon>
                            <polygon id="Fill-30" points="29.795493 80.9536985 53.7022183 80.9536985 53.7022183 41.0574847 29.795493 41.0574847"></polygon>
                            <polygon id="Fill-31" points="23.845669 26.3120117 33.5091549 26.3120117 33.5091549 23.6410672 23.845669 23.6410672"></polygon>
                            <polygon id="Fill-32" points="10.9877113 72.0507973 20.6511972 72.0507973 20.6511972 69.3798529 10.9877113 69.3798529"></polygon>
                            <polygon id="Fill-33" points="23.845669 23.6410672 31.7521479 23.6410672 31.7521479 20.9702287 23.845669 20.9702287"></polygon>
                            <polygon id="Fill-34" points="23.845669 20.9702287 30.075 20.9702287 30.075 18.2993901 23.845669 18.2993901"></polygon>
                            <polygon id="Fill-35" points="75.2208803 43.3388326 90.8651408 43.3388326 90.8651408 40.6679941 75.2208803 40.6679941"></polygon>
                            <polygon id="Fill-36" points="75.2208803 52.9095228 90.8651408 52.9095228 90.8651408 50.2385784 75.2208803 50.2385784"></polygon>
                            <polygon id="Fill-37" points="75.2208803 62.4801071 90.8651408 62.4801071 90.8651408 59.8091627 75.2208803 59.8091627"></polygon>
                            <polygon id="Fill-38" points="15.2612324 62.4801071 30.9053873 62.4801071 30.9053873 59.8091627 15.2612324 59.8091627"></polygon>
                            <polygon id="Fill-39" points="15.2612324 72.0507973 30.9053873 72.0507973 30.9053873 69.3798529 15.2612324 69.3798529"></polygon>
                        </g>
                        <path d="M141.703363,109.430465 C137.547518,110.904557 132.535616,110.753759 128.754349,108.322143 C125.037412,105.932038 121.651215,104.206016 117.077799,104.289569 C112.991356,104.364333 109.61213,106.578648 105.654137,107.049997 C102.515229,107.423815 99.3261444,106.051808 97.0512148,103.851578 C94.8303697,101.703872 93.3555106,98.4292067 94.3211092,95.491189 C94.8267782,93.9528173 95.9318134,92.683531 96.5624472,91.1922836 C98.0168134,87.7531594 94.1873768,85.6782055 95.1395599,82.0581026 C95.9495599,78.9790295 99.3197007,76.7830349 99.269419,73.5991234 C99.2325528,71.2686391 97.4328697,69.4622411 96.7990669,67.3060639 C96.1596655,65.1307193 96.3008979,62.6940199 97.4288556,60.7066432 C98.2576585,59.2465297 99.5890669,58.0510539 101.13206,57.3920543 C102.517658,56.8000878 104.065616,56.7889685 105.137165,55.5750665 C107.046602,53.4119002 107.74706,51.0673315 110.367095,49.4857537 C112.585194,48.1467868 115.514313,48.0616453 118.058926,48.2954668 C123.713292,48.8151054 129.20118,51.8070249 132.386144,56.5721966 C133.514736,58.2610484 134.329384,59.9891883 134.357799,61.996156 C134.38875,64.1902444 134.388011,66.3973582 135.728926,68.2627411 C136.854877,69.8289638 138.66206,70.7452941 140.454137,71.4519475 C142.246215,72.1586009 144.124384,72.7304469 145.697588,73.8438523 C147.270792,74.9572577 148.520018,76.7737159 148.336532,78.6954362 C148.18294,80.3038061 147.072306,81.7014401 146.924525,83.3104453 C146.655687,86.2360731 149.46713,88.3610105 151.20037,90.7302532 C153.627201,94.0471719 154.029454,98.7377918 152.20294,102.421327 C150.099982,106.662413 146.279313,107.618772 142.276109,109.214858 C142.087236,109.290151 141.896144,109.362055 141.703363,109.430465" id="Fill-41" fill="#0B2D4E"></path>
                        <path d="M111.488694,54.7309371 C112.863095,53.9260109 114.460278,53.5570643 116.047004,53.4936318 C117.639644,53.432529 119.23556,53.637864 120.781933,54.0237542 C123.883025,54.8063361 126.707144,56.6566815 128.676898,59.201714 C129.650525,60.4814841 130.403799,61.9373617 130.85063,63.490559 C131.299574,65.0484158 131.39137,66.6773298 131.372989,68.2710858 C131.357144,69.8682306 131.243799,71.4565858 131.296299,73.0281034 C131.329046,73.8081437 131.425384,74.5869132 131.66232,75.3147461 C131.895137,76.0398257 132.298975,76.7089914 132.896546,77.1455005 C133.486299,77.5938702 134.243694,77.7835324 135.009222,77.8754514 C135.777285,77.9666291 136.579046,77.9712886 137.379539,78.0785626 C138.963306,78.2920518 140.573694,78.6697879 141.953694,79.5805056 C142.631651,80.0345937 143.241898,80.6674366 143.538306,81.4663267 C143.845595,82.2652167 143.783905,83.1374937 143.578236,83.9336304 C143.338975,84.7386625 142.883694,85.4138644 142.566898,86.1178704 C142.249363,86.8225118 142.045806,87.5810549 141.976827,88.3529411 C141.830419,89.9071974 142.228342,91.465266 142.779539,92.9395697 C143.321018,94.4256281 143.971405,95.8904011 144.351053,97.4514348 C144.536651,98.230522 144.650102,99.0326949 144.637215,99.8367739 C144.627602,100.640641 144.481405,101.440908 144.220173,102.196909 C143.699187,103.711031 142.716898,105.053492 141.446335,106.00551 C142.694398,105.024053 143.636123,103.666236 144.114961,102.161752 C144.616511,100.655149 144.549856,99.0209403 144.135665,97.5055483 C143.738905,95.9772369 143.077849,94.5298311 142.511229,93.0400664 C141.936158,91.5598324 141.497461,89.9577105 141.629187,88.3233957 C141.691194,87.5113744 141.894539,86.709731 142.220102,85.9618835 C142.551053,85.2174247 142.992813,84.5522831 143.201863,83.8232853 C143.385982,83.0879337 143.434891,82.3053518 143.162144,81.6096059 C142.900173,80.9120596 142.357426,80.3452967 141.72394,79.9242486 C140.437743,79.079399 138.867285,78.7081227 137.326827,78.5098828 C136.554011,78.4088566 135.764715,78.408539 134.957039,78.3172554 C134.15982,78.2241716 133.314116,78.0284732 132.62644,77.5099994 C131.936018,77.0007388 131.488236,76.2346769 131.241475,75.4530481 C130.989327,74.665595 130.894996,73.8502908 130.864046,73.0445175 C130.817567,71.4361476 130.93894,69.8477924 130.960912,68.2662145 C130.985947,66.6878136 130.901335,65.1044356 130.473835,63.5971977 C130.042637,62.0936663 129.330982,60.6733703 128.400243,59.412238 C126.513835,56.9058581 123.766827,55.0523357 120.725947,54.237667 C119.207461,53.8208548 117.629504,53.58015 116.050384,53.6040828 C114.476018,53.630663 112.881687,53.9585214 111.488694,54.7309371" id="Fill-43" fill="#73B8D4"></path>
                        <path d="M63.5113944,30.7280608 C63.5815352,30.3024591 63.0195634,29.4440547 62.4064648,29.4577154 C62.1625563,29.4632221 61.9240352,29.5266547 61.6806549,29.5146883 C61.0318521,29.4830249 60.6955141,28.9765176 60.4454789,28.5572698 C60.1954437,28.137916 59.6974859,27.6597892 59.065162,27.7662161 C58.1548099,27.9194497 57.6959366,29.1236091 56.6611479,28.2195629 C55.9838239,27.6277023 55.9329085,26.8001141 55.166007,26.226256 C54.6394225,25.8324235 53.7833662,25.5989197 53.0775211,25.8166448 C52.1562887,26.1006617 51.8136127,27.0162507 50.8328028,27.1756263 C49.7463592,27.3521572 48.9650915,26.5234041 48.6182958,25.925825 C48.1974507,25.2007455 48.0412183,24.4168928 47.6806901,23.6788938 C47.3470986,22.9958555 46.676007,22.0809019 45.4737887,22.1007047 C44.4572746,22.1174365 44.0093873,22.7626694 43.5103732,23.2747893 C42.8613592,23.9407781 41.5127324,26.332577 40.0002676,26.0442183 C39.4105141,25.9317553 39.1161127,25.4621003 38.5839296,25.2518939 C37.7284014,24.9138694 36.6379437,25.3785472 36.1225563,25.962995 C35.607169,26.5475487 35.4028732,27.2530373 34.8204085,27.8059276 C34.669669,27.9489951 34.4868169,28.0840142 34.2500915,28.1489294 C33.4365,28.3721611 32.6792113,27.6856282 31.8081549,27.6345856 C31.206993,27.5993218 30.6492465,27.8824915 30.3037183,28.2279288 C29.9581901,28.5732603 29.7697394,28.981283 29.505338,29.360078 C29.4317113,29.465446 29.3480493,29.5721905 29.2149507,29.6436713 C28.8328732,29.8490064 28.2953028,29.6758641 27.8271338,29.5951703 C26.6706549,29.3956596 25.3567817,29.9278999 25.0305845,30.7280608 L63.5113944,30.7280608 Z" id="Fill-45" fill="#DFF3FD"></path>
                        <path d="M131.492366,89.9930167 C131.639831,93.5882337 130.808493,96.2884059 127.528775,98.0666352 C124.916556,99.4829071 121.788739,99.9474791 118.906099,100.018748 C114.071345,100.1382 108.684338,98.8881873 105.067754,95.4836915 C104.411345,94.8657801 103.781451,94.1082959 103.734021,93.207003 C103.690817,92.3875689 104.140394,91.6155768 104.180113,90.7960367 C104.246873,89.4138637 103.175007,88.2690068 102.695746,86.9712341 C102.062789,85.2571786 102.493141,83.3438242 103.061556,81.6073185 C103.630077,79.8709186 104.341838,78.1176811 104.25638,76.2921157 C104.14557,73.9240378 102.726169,71.8564968 101.589761,69.7775188 C100.453246,67.698435 99.5588451,65.1692871 100.529937,63.0077092 C101.169761,61.5831773 102.696063,60.4878804 104.25543,60.3145263 C105.903,60.1313238 107.383458,62.0185215 108.438739,63.0582223 C109.858775,64.4573389 111.441063,65.6910437 113.143246,66.7265086 C115.497296,68.1585592 118.081838,69.2148859 120.296239,70.8558722 C121.636099,71.8488722 123.073458,73.2120895 123.713176,74.793985 C124.434127,76.5765561 123.171697,78.3021544 124.698106,79.9416581 C125.682718,80.9994673 127.194761,81.3593067 128.385465,82.1769406 C130.934303,83.9275307 131.375852,87.1545425 131.492366,89.9930167" id="Fill-47" fill="#061F33"></path>
                        <path d="M104.792704,110.110115 C108.187246,104.865969 110.299711,98.4296303 107.349993,92.5086943 C107.051049,91.9085737 106.691577,91.2537041 106.056507,91.0420152 C104.690979,90.5869741 102.83869,91.0764319 101.651261,91.7747194 C97.5323873,94.1974403 95.0119648,98.7563238 92.6980563,102.812512 C90.2940423,107.026594 88.2062958,111.413288 85.7903451,115.620592 C84.8119648,117.324693 83.8237606,119.051668 83.2989718,120.946279 C82.8392535,122.605797 82.7888662,124.505914 83.4161197,126.129745 C86.1279507,133.149896 93.5848521,124.550709 95.8546056,121.952728 C99.0935493,118.245471 102.118056,114.244244 104.792704,110.110115" id="Fill-49" fill="#EFB126"></path>
                        <path d="M135.508415,104.243155 C136.484049,100.101189 136.990035,95.8634925 134.778803,93.0420678 C133.780246,91.7678043 132.001056,90.8804899 130.545106,90.2495531 C127.705141,89.0190252 124.801796,87.3649077 121.761655,86.8286432 C118.556514,86.263151 114.991796,85.9146427 111.79743,86.7233812 C109.768521,87.2369836 107.870176,88.1877306 106.056021,89.2131352 C104.481655,90.103097 102.550246,90.8692648 101.785986,92.5252885 C99.9340141,96.5381649 98.2901408,100.72429 96.9269366,104.928417 C95.7861972,108.446011 94.5340141,112.133041 96.3314789,115.697866 C96.9139437,116.8531 97.7598592,117.841865 98.4259859,118.945421 C99.1680634,120.174784 99.4449296,121.329702 99.5422183,122.747774 C99.7641549,125.983363 99.6778521,129.228801 99.668662,132.46905 C99.6659155,133.402748 99.678169,134.373403 100.086021,135.213064 C100.890106,136.868346 103.075246,136.891432 104.649296,136.888679 C109.837289,136.879677 115.025493,136.870676 120.213486,136.861675 C122.372218,136.857862 124.021373,137.122818 126.047746,137.540477 C127.75331,137.891739 129.217289,137.028993 130.035528,135.438202 C130.810035,133.932235 130.868979,132.17349 130.952007,130.48125 C131.275035,123.896973 132.206725,117.342876 133.731549,110.930258 C134.163275,109.114541 134.920352,106.739898 135.508415,104.243155" id="Fill-51" fill="#FFC73C"></path>
                    </g>
                    <g id="Group-60" transform="translate(166.000000, 86.000000)">
                        <g id="Group-56">
                            <mask id="mask-4" fill="white">
                                <use xlink:href="#path-3"></use>
                            </mask>
                            <g id="Clip-55"></g>
                            <path d="M28.8005258,5.93953765 C30.0519742,3.89869815 30.336232,1.34869815 28.696933,-0.617530247 C27.9473196,-1.5167463 26.6216134,-1.6173821 25.4879381,-1.63784506 C23.2565258,-1.67835123 21.0200258,-1.44853642 18.8468505,-0.955641358 C16.7756443,-0.485937654 14.6635206,0.309599383 13.766366,2.33700679 C13.0998866,3.84329074 13.3326186,5.58600062 14.2108299,6.96384012 C15.0083969,8.21533395 16.3313969,9.14183395 17.8076753,9.48256852 C20.1916082,10.0326549 22.9817938,9.95867346 25.2563969,9.03301296 C26.6811495,8.45322901 27.9593351,7.31139568 28.8005258,5.93953765" id="Fill-54" fill="#EFB126" mask="url(#mask-4)"></path>
                        </g>
                        <g id="Group-59">
                            <mask id="mask-6" fill="white">
                                <use xlink:href="#path-5"></use>
                            </mask>
                            <g id="Clip-58"></g>
                            <path d="M42.9971103,36.6970185 C42.9807649,33.5498148 42.9642031,30.4025062 42.9478577,27.2551975 C42.9421206,26.159642 43.6759299,19.4901852 41.917667,19.5660556 C41.7281258,19.5742407 41.5542804,19.669 41.3999196,19.776142 C40.5252804,20.3825802 40.0757289,21.3983827 39.6669866,22.3625556 C38.3855536,25.3858272 37.3095742,30.2255802 34.6422495,32.3420802 C31.9309763,34.4935247 27.7616103,35.4005062 24.3924093,35.9168025 C20.4576155,36.5199877 16.4583062,36.5646914 12.4820536,36.7993333 C9.9099866,36.9509691 7.07238866,37.309963 5.38286289,39.1959136 C4.17622887,40.5425864 3.56192474,42.5617037 2.91752784,44.2072407 C2.35453299,45.6452099 1.90595567,47.3536049 3.04872371,48.6558889 C3.53637835,49.211642 4.21314124,49.5764074 4.89380103,49.8874444 C7.37526495,51.0216173 10.0876206,51.593216 12.7934814,52.0322778 C20.3657134,53.2608951 28.0839711,53.5162099 35.752868,53.1618333 C37.3927082,53.0861728 39.1705639,52.927821 40.3800124,51.851784 C41.2799814,51.0512099 41.7040948,49.872858 42.0056722,48.725463 C43.0330485,44.8165123 43.0181103,40.7308457 42.9971103,36.6970185" id="Fill-57" fill="#EFB126" mask="url(#mask-6)"></path>
                        </g>
                    </g>
                    <g id="Group-97" transform="translate(0.000000, 40.000000)">
                        <path d="M172.842832,30.0597395 C170.015406,32.9879885 172.580125,40.1432047 177.089193,39.1077559 C181.9344,37.9950999 181.205573,30.3944815 176.824165,29.146633 C175.115619,28.6600252 173.752917,29.1172157 172.842832,30.0597395" id="Fill-61" fill="#57B8E8"></path>
                        <path d="M211.4395,70.132614 C214.273361,70.4963485 217.258517,70.2460354 219.78979,68.9126961 C223.012438,67.2150912 224.624764,64.1025854 224.691443,60.521632 C224.739869,57.9277002 224.241042,55.2236392 222.685372,53.1550781 C220.993812,50.9057649 218.158896,49.5229364 217.107012,46.9080832 C216.425767,45.2148325 216.589088,42.9093396 217.936175,41.5991518 C218.793719,40.7651642 219.464519,39.8246582 219.354583,38.5742609 C219.192527,36.7349854 217.855675,34.967501 216.362358,33.9740012 C214.17271,32.5172576 211.449101,31.9843466 208.886914,31.6566138 C207.151675,31.4347623 205.422555,30.9438003 204.885746,29.0625758 C204.596135,28.0477299 204.653425,26.9770228 204.599195,25.9339277 C204.483878,23.7097838 204.321928,21.4852152 203.991909,19.2816741 C203.611353,16.7411608 201.972545,14.2840145 200.144673,12.5337344 C199.882282,12.2824655 199.609868,12.0417104 199.328276,11.8122125 C194.61611,7.96990125 185.893598,6.60863133 180.696005,10.1697253 C178.923945,11.3839084 177.682363,13.2420875 177.287564,15.3664035 C177.023696,16.7859772 176.641452,17.0916204 175.263452,17.5220485 C172.760243,18.3039981 169.919312,18.8589986 167.931389,20.7071949 C166.376247,22.153 165.66124,24.3422041 165.868135,26.4426251 C166.132425,29.1240656 167.995009,30.4070662 169.328591,32.5321256 C170.690131,34.7014703 169.619679,37.4314441 168.038371,39.2218677 C166.820528,40.6006606 165.092569,41.607754 164.404466,43.3176781 C163.771436,44.8909229 164.190713,46.7095957 164.955201,48.222519 C165.264964,48.8355047 165.629378,49.4208783 165.903163,50.050856 C166.736335,51.968507 166.650349,54.2666722 165.676116,56.1156119" id="Stroke-63" stroke="#0B2D4E" stroke-width="4"></path>
                        <path d="M219.472812,74.2819809 C220.33964,75.8557568 221.200876,77.4320814 222.046709,79.0183889 C223.763379,82.2378379 226.950682,89.3912487 221.848043,91.1585207 C219.277205,92.0489004 217.806467,91.1783801 216.1071,89.2929076 C209.677948,82.1605244 204.195913,74.1656921 199.851749,65.5872915 C198.234886,62.3943924 193.94147,54.0741637 199.156366,52.1729736 C200.802665,51.5727319 202.700803,51.712491 204.243074,52.5474343 C204.948374,52.9292229 205.573807,53.4435488 206.171387,53.9799644 C209.934747,57.3583946 212.614571,61.7171558 214.998771,66.1381502 C216.472147,68.8703542 217.98055,71.5723975 219.472812,74.2819809" id="Fill-67" fill="#FFC73C"></path>
                        <path d="M194.373977,85.5227804 C194.812877,85.4472723 195.252305,85.3744192 195.692788,85.3048583 C197.833799,84.9668241 199.966053,84.5653886 202.08649,84.1012952 C206.28548,83.1822415 210.509368,82.3927517 214.784005,81.985369 C215.237043,81.9421456 215.690503,81.9033827 216.14428,81.8687615 C218.060671,81.7231615 220.068745,81.6756902 221.822975,82.5979298 C223.5771,83.5202757 224.972508,85.7024706 224.543947,87.8061838 C224.242836,89.2841674 223.120158,90.396611 221.872668,90.9573463 C220.625178,91.5180816 219.251715,91.6156793 217.904418,91.706905 C213.539891,92.0027778 209.175576,92.2984383 204.811049,92.5942049 C202.649992,92.7392739 200.489463,92.8895467 198.328828,93.0407753 C196.265574,93.185101 194.17088,93.4785312 192.101823,93.4764187 C191.226554,93.4754514 190.249474,93.3103106 189.514104,92.7224943 C188.491762,91.9052863 187.876457,90.1656263 187.777599,88.8061618 C187.726113,88.100145 187.862953,87.2431121 188.400184,86.8062058 C188.68779,86.5723537 189.053365,86.5008812 189.405223,86.4357807 C191.063866,86.1283321 192.71449,85.8079271 194.373977,85.5227804" id="Fill-68" fill="#FFC73C"></path>
                        <polygon id="Fill-69" fill="#2F95D2" points="156.071604 91.2781018 177.242956 91.2781018 177.242956 87.1058275 156.071604 87.1058275"></polygon>
                        <path d="M159.704592,87.5107145 L154.361507,60.1297333 C154.220447,59.4062998 153.590477,58.8847522 152.858168,58.8847522 L117.338255,58.8847522 C116.823919,58.8847522 116.383436,59.1408001 116.107119,59.5205708 L116.102476,59.5160042 L114.462297,61.4679578 L115.917421,61.1467032 L121.178106,88.1051152 C121.319272,88.8283363 121.949136,89.34999 122.681445,89.34999 L158.201358,89.34999 C159.165989,89.34999 159.890597,88.4634335 159.704592,87.5107145" id="Fill-70" fill="#2F95D2"></path>
                        <path d="M121.057345,91.2781124 L156.577258,91.2781124 C157.541995,91.2781124 158.266497,90.3915559 158.080597,89.4388369 L152.737407,62.0577494 C152.596347,61.3345283 151.966377,60.8129808 151.234068,60.8129808 L115.714155,60.8129808 C114.749629,60.8129808 114.025022,61.6994311 114.210921,62.6522563 L119.554006,90.0332375 C119.695172,90.7565648 120.325036,91.2781124 121.057345,91.2781124" id="Fill-71" fill="#0B2D4E"></path>
                        <path d="M132.230093,75.3672162 C132.557685,77.2142443 134.31086,78.71145 136.145696,78.71145 C137.980532,78.71145 139.181177,77.2142443 138.827419,75.3672162 C138.473451,73.520188 136.720381,72.0230885 134.911711,72.0230885 C133.10304,72.0230885 131.9025,73.520188 132.230093,75.3672162" id="Fill-72" fill="#2F95D2"></path>
                        <path d="M189.477684,92.216898 C188.422319,92.4362007 187.597587,93.3691666 186.54718,93.6816066 C185.797568,93.9046263 184.995309,93.7854701 184.274921,93.5134922 C183.612667,93.2633915 182.939124,93.1297921 182.259355,92.9104893 C181.72951,92.7397199 181.013976,92.3801272 180.444777,92.4993896 C178.952832,92.8120421 177.465002,93.8807313 176.112746,94.5744289 C175.808575,94.7304365 175.475601,94.8911169 175.140201,94.8270784 C174.805012,94.7631461 174.525319,94.353958 174.716072,94.0689175 C174.327075,94.4348823 173.812,95.1664932 173.184246,94.8828333 C172.927658,94.7667568 172.772777,94.4244747 172.915103,94.1801088 C172.699345,94.4183151 172.472721,94.6641678 172.174986,94.7824744 C171.877146,94.9007811 171.486567,94.8494865 171.311112,94.5798451 C171.228396,94.4530424 171.203603,94.2968224 171.196112,94.1452752 C171.170368,93.6241525 171.326727,93.1090831 171.542695,92.6347945 C172.607873,90.294999 175.016339,88.5592683 177.065771,87.1651826 C177.428286,86.9185865 177.797764,86.6686982 178.216197,86.5400902 C178.590634,86.4249695 178.987754,86.4122256 179.379283,86.4104202 C181.920896,86.3987382 184.46388,86.8122805 186.872452,87.6291698 C187.39354,87.8058864 187.967382,87.6554012 188.486888,87.5573787 C188.87177,87.4848442 189.273532,87.4130531 189.649235,87.523501 C190.069567,87.6471176 190.395471,87.9823906 190.651532,88.3398594 C191.1224,88.9975552 191.482383,89.8682879 191.426254,90.6944167 C191.383525,91.3217393 191.336258,91.9984449 190.602999,92.1302389 C190.305792,92.1836574 189.999722,92.1505231 189.699561,92.1821706 C189.624441,92.1900294 189.550483,92.2017114 189.477684,92.216898" id="Fill-73" fill="#F8A17A"></path>
                        <path d="M189.928137,54.38123 C191.480853,53.8798604 192.759783,52.9082378 193.238881,51.3638793 C193.673772,49.9621472 192.988201,48.3853977 192.866027,46.9710279 C192.749022,45.615599 192.733829,44.2523112 192.822348,42.8950769 C192.90422,41.6401131 193.023335,40.3331113 192.831632,39.0822892 C192.722646,38.3674579 192.332805,38.4898002 191.614317,38.2057155 C190.896461,37.9219495 190.090298,37.9190821 189.309457,37.9209937 C187.710952,37.924923 183.544458,37.8081032 182.556616,39.2200305 C182.103155,39.8681683 182.067495,40.6837832 182.045972,41.4553253 C182.019912,42.3871229 181.856063,43.5934473 181.704452,44.8931213 C181.636824,45.4718043 181.678604,46.0484696 181.590507,46.6231171 C181.49186,47.2666883 181.249199,47.883391 181.036501,48.4999874 C180.232554,50.8310745 180.985331,53.048103 183.489806,54.1155179 C185.286766,54.8812189 187.852117,55.0515635 189.928137,54.38123" id="Fill-74" fill="#F8A17A"></path>
                        <path d="M192.823445,39.0823211 C192.714669,38.3674898 192.324723,38.4897258 191.60634,38.2057474 C190.88838,37.9218751 190.082322,37.9190077 189.301375,37.9209193 C187.702976,37.9249549 183.536376,37.8081351 182.548534,39.2200623 C182.095074,39.8680939 182.059519,40.6838151 182.037785,41.4553572 C182.01183,42.3869424 181.847981,43.5934791 181.696265,44.8931531 C181.628848,45.4718362 181.670522,46.0485015 181.582425,46.623149 C181.507411,47.1131552 181.348732,47.58755 181.183511,48.0582278 C182.732851,48.6373357 184.482755,48.7664747 186.099196,48.3658888 C189.01092,47.6443669 191.216078,45.8201718 192.788839,43.4481977 C192.796963,43.2637285 192.802344,43.0792594 192.814266,42.8948964 C192.896138,41.6401449 193.015253,40.3330369 192.823445,39.0823211" id="Fill-75" fill="#E5785C"></path>
                        <path d="M195.144036,29.8972325 C195.131375,27.7489153 194.836806,25.7109398 194.287653,24.0186449 C191.918329,16.7170853 182.86949,14.9132805 177.420584,20.1543503 C171.344135,25.9992725 173.669463,39.974007 180.069812,44.883096 C181.781102,46.1956202 184.106641,46.6568462 186.184982,46.0957923 C192.47339,44.3981874 195.183706,36.6087456 195.144036,29.8972325" id="Fill-76" fill="#F8A17A"></path>
                        <path d="M193.954837,30.0776342 C196.73869,28.5454887 197.595706,32.4252885 197.116714,34.3562145 C196.918892,35.1534569 196.605964,35.931371 196.114312,36.5874738 C195.452057,37.4711629 193.557611,38.9370397 192.46648,37.9703023 C191.97124,37.5315906 191.920281,36.7862799 191.904983,36.1225307 C191.864258,34.3426209 192.067777,31.1162689 193.954837,30.0776342" id="Fill-77" fill="#F8A17A"></path>
                        <path d="M235.230749,74.9311064 C235.622172,74.1164472 235.552222,73.2601577 235.305341,72.483518 C235.068061,71.689674 234.644458,71.005853 234.185934,70.2583122 C233.722557,69.5213913 233.249473,68.7178831 232.959862,67.7504022 C232.665925,66.7720891 232.749907,65.6754692 233.020105,64.7478133 C233.603547,62.8555441 234.798495,61.4610336 235.621539,60.034557 C236.033958,59.3128227 236.371574,58.5796188 236.504932,57.768358 C236.65496,56.9647435 236.603473,56.1088788 236.211312,55.3019722 C236.891291,55.9008333 237.220677,56.8713939 237.2652,57.8112627 C237.307824,58.7609019 237.069594,59.7244533 236.707818,60.5716097 C235.993338,62.2898174 234.922253,63.6847527 234.505508,65.1930032 C234.269072,65.9395883 234.210939,66.6629156 234.378797,67.3869863 C234.519013,68.1292172 234.904633,68.8784573 235.251428,69.6907801 C235.619535,70.4840931 235.971604,71.4009165 236.049784,72.343759 C236.12944,73.2726892 235.918324,74.3225811 235.230749,74.9311064" id="Fill-78" fill="#FFFFFF"></path>
                        <path d="M238.235993,91.1906887 L232.955367,91.1906887 C231.498766,91.1906887 230.317745,90.0020997 230.317745,88.5356919 L230.317745,75.9711854 L240.873615,75.9711854 L240.873615,88.5356919 C240.873615,90.0020997 239.692699,91.1906887 238.235993,91.1906887" id="Fill-79" fill="#57B8E8"></path>
                        <path d="M241.610704,87.1064435 C239.982025,87.1064435 238.661948,85.7580237 238.661948,84.0946152 C238.661948,82.4313128 239.982025,81.0827869 241.610704,81.0827869 C243.239383,81.0827869 244.559461,82.4313128 244.559461,84.0946152 C244.559461,85.7580237 243.239383,87.1064435 241.610704,87.1064435 M241.610704,79.4135374 C239.079536,79.4135374 237.027466,81.5092856 237.027466,84.0946152 C237.027466,86.6799448 239.079536,88.7757992 241.610704,88.7757992 C244.141872,88.7757992 246.193837,86.6799448 246.193837,84.0946152 C246.193837,81.5092856 244.141872,79.4135374 241.610704,79.4135374" id="Fill-80" fill="#57B8E8"></path>
                        <path d="M231.896214,85.4138831 L231.896214,85.4138831 C231.582231,85.4138831 231.325538,85.1553926 231.325538,84.839448 L231.325538,77.4326443 C231.325538,77.1166997 231.582231,76.858103 231.896214,76.858103 C232.210091,76.858103 232.466784,77.1166997 232.466784,77.4326443 L232.466784,84.839448 C232.466784,85.1553926 232.210091,85.4138831 231.896214,85.4138831" id="Fill-81" fill="#FFFFFF"></path>
                        <path d="M238.435872,75.9712279 L238.435872,88.4998389 C238.435872,89.9858936 237.238919,91.1907311 235.762483,91.1907311 L238.200385,91.1907311 C239.67682,91.1907311 240.873563,89.9858936 240.873563,88.4998389 L240.873563,75.9712279 L238.435872,75.9712279 Z" id="Fill-82" fill="#2F95D2"></path>
                        <path d="M184.887082,42.8582256 C184.204676,42.8582256 183.517522,42.807462 182.829525,42.7055102 L182.952544,41.8649382 C185.451216,42.2358943 187.94282,41.8854348 190.158423,40.8518976 C190.760223,40.5713176 191.270234,40.2762943 191.71768,39.9501546 C192.531334,39.3568159 193.229776,38.5818754 193.737255,37.7090187 L194.46566,38.1381724 C193.899627,39.111919 193.120473,39.9763859 192.212814,40.6383297 C191.720739,40.9968605 191.164834,41.3188585 190.513236,41.6228025 C188.759428,42.4407539 186.844725,42.8582256 184.887082,42.8582256" id="Fill-83" fill="#2F95D2"></path>
                        <path d="M180.389218,41.1952206 C181.407024,40.3159919 183.670948,40.3912876 184.417395,41.3039692 C184.970663,41.9806748 184.801644,42.8396193 184.192669,43.4116118 C183.472176,44.0884236 182.580977,44.0490235 181.682286,43.8451197 C180.557076,43.5898152 179.162301,42.2549891 180.389218,41.1952206" id="Fill-84" fill="#2F95D2"></path>
                        <path d="M195.158258,24.319456 C192.663595,16.6321785 183.136924,14.7331125 177.400095,20.2510453 C176.13277,21.4701136 175.217832,23.0281718 174.60928,24.7782395 C174.737152,24.9774704 174.880216,25.1771262 175.051767,25.3769943 C175.838728,26.2947736 176.925323,26.8943781 178.018459,27.4030754 C181.211987,28.8891302 184.654085,29.7612435 188.112324,30.4134169 C188.367119,30.4614193 188.623495,30.5088906 188.879239,30.5596542 C189.831315,30.7486899 190.776323,30.9848784 191.60749,31.4780706 C193.957718,32.8724749 192.946981,35.9395271 194.668715,37.2834865 C194.824546,37.4051915 194.981854,37.4836732 195.139161,37.5394281 C195.775251,35.2500776 196.073513,32.8191626 196.059797,30.5086782 C196.046398,28.2467272 195.736319,26.1011712 195.158258,24.319456" id="Fill-85" fill="#E5785C"></path>
                        <path d="M189.125825,29.6818273 C190.0357,30.0212421 190.93112,30.4062166 191.673558,31.0264238 C193.772789,32.7803147 192.288968,35.6457995 193.775743,37.2489927 C195.093182,38.6696284 197.093661,36.7924395 197.617493,35.4805525 C198.582968,33.0634435 198.526206,30.373507 198.454991,27.76938 C198.415321,26.317203 198.37238,24.8442108 197.949411,23.455329 C197.488038,21.9401754 196.589242,20.5881449 195.519211,19.4257873 C192.4295,16.0698715 187.766606,14.3253262 183.252157,14.6116411 C179.721857,14.8354042 173.52872,17.8216383 176.29643,22.3456465 C176.927982,23.3780154 177.905485,24.1442475 178.904194,24.8220151 C181.82151,26.8016868 185.081295,28.2152071 188.391828,29.4143098 C188.635755,29.5026681 188.88137,29.5906016 189.125825,29.6818273" id="Fill-86" fill="#0B2D4E"></path>
                        <path d="M195.124148,28.9739414 C191.194513,29.9882564 189.675875,37.4397702 194.059815,38.9232762 C198.770503,40.51723 202.086205,33.6493907 198.994384,30.2847664 C197.788569,28.972667 196.389046,28.647483 195.124148,28.9739414" id="Fill-87" fill="#57B8E8"></path>
                        <path d="M196.412363,29.9302606 C193.699621,30.3689723 192.028634,36.1699277 194.824303,37.7666428 C197.828239,39.4820892 200.647435,34.316209 198.880228,31.3408073 C198.190965,30.1804675 197.285416,29.7890148 196.412363,29.9302606" id="Fill-88" fill="#2F95D2"></path>
                        <path d="M196.95987,29.4952978 L195.911784,29.3732742 C196.622782,23.1889372 196.319877,15.2871359 190.839847,12.7632961 C188.244743,11.5681227 180.812451,10.2421112 177.541799,14.6850889 C177.148477,15.1298539 176.885031,15.5027217 176.885031,15.5027217 C178.913363,9.20230825 188.477698,10.5075046 191.278748,11.7975145 C197.335151,14.586854 197.710959,22.9612447 196.95987,29.4952978" id="Fill-89" fill="#57B8E8"></path>
                        <g id="Group-17" transform="translate(218.175217, 0.638977)">
                            <path d="M4.32570089,26.4338908 L38.921496,26.4338908 C41.3006315,26.4338908 43.2471969,24.4745032 43.2471969,22.0796962 L43.2471969,4.35419463 C43.2471969,1.95938758 41.3006315,-5.86197757e-14 38.921496,-5.86197757e-14 L4.32570089,-5.86197757e-14 C1.9465654,-5.86197757e-14 -1.09423581e-12,1.95938758 -1.09423581e-12,4.35419463 L-1.09423581e-12,22.0796962 C-1.09423581e-12,24.4745032 1.9465654,26.4338908 4.32570089,26.4338908" id="Fill-90" fill="#0098D7"></path>
                            <polygon id="Fill-91" fill="#0098D7" points="5.69232695 33.3920637 5.69232695 21.2446041 15.1436669 26.4338483"></polygon>
                            <path d="M27.0465503,14.4073822 L7.53679526,14.4073822 C7.01465151,14.4073822 6.58725116,13.9772727 6.58725116,13.4515834 L6.58725116,13.0568385 C6.58725116,12.5311491 7.01465151,12.1010397 7.53679526,12.1010397 L27.0465503,12.1010397 C27.5687995,12.1010397 27.9960944,12.5311491 27.9960944,13.0568385 L27.9960944,13.4515834 C27.9960944,13.9772727 27.5687995,14.4073822 27.0465503,14.4073822" id="Fill-92" fill="#E1F4FD"></path>
                            <path d="M35.7103172,14.4073822 L30.5924856,14.4073822 C30.0702363,14.4073822 29.6429415,13.9772727 29.6429415,13.4515834 L29.6429415,13.0568385 C29.6429415,12.5311491 30.0702363,12.1010397 30.5924856,12.1010397 L35.7103172,12.1010397 C36.2325665,12.1010397 36.6598613,12.5311491 36.6598613,13.0568385 L36.6598613,13.4515834 C36.6598613,13.9772727 36.2325665,14.4073822 35.7103172,14.4073822" id="Fill-93" fill="#E1F4FD"></path>
                            <path d="M16.2005728,6.86371878 L35.7103278,6.86371878 C36.232577,6.86371878 36.6598719,7.29382824 36.6598719,7.8195176 L36.6598719,8.21426251 C36.6598719,8.73995186 36.232577,9.17006133 35.7103278,9.17006133 L16.2005728,9.17006133 C15.678429,9.17006133 15.2510287,8.73995186 15.2510287,8.21426251 L15.2510287,7.8195176 C15.2510287,7.29382824 15.678429,6.86371878 16.2005728,6.86371878" id="Fill-94" fill="#E1F4FD"></path>
                            <path d="M7.53680581,6.86371878 L12.654743,6.86371878 C13.1769922,6.86371878 13.6042871,7.29382824 13.6042871,7.8195176 L13.6042871,8.21426251 C13.6042871,8.73995186 13.1769922,9.17006133 12.654743,9.17006133 L7.53680581,9.17006133 C7.01466206,9.17006133 6.58726171,8.73995186 6.58726171,8.21426251 L6.58726171,7.8195176 C6.58726171,7.29382824 7.01466206,6.86371878 7.53680581,6.86371878" id="Fill-95" fill="#E1F4FD"></path>
                            <path d="M20.6740227,19.1954033 L7.53676361,19.1954033 C7.01461986,19.1954033 6.58721951,18.7652938 6.58721951,18.2396045 L6.58721951,17.8448596 C6.58721951,17.3191702 7.01461986,16.8890608 7.53676361,16.8890608 L20.6740227,16.8890608 C21.196272,16.8890608 21.6235668,17.3191702 21.6235668,17.8448596 L21.6235668,18.2396045 C21.6235668,18.7652938 21.196272,19.1954033 20.6740227,19.1954033" id="Fill-96" fill="#E1F4FD"></path>
                        </g>
                    </g>
                </g>
            </g>
        </g>
    </g>
</svg>