<?xml version="1.0" encoding="UTF-8"?>
<svg width="24px" height="27px" viewBox="0 0 24 27" version="1.1" xmlns="http://www.w3.org/2000/svg" xmlns:xlink="http://www.w3.org/1999/xlink">
    <title>noun_consultant_2192062 (1)</title>
    <g id="Online-Booking-Inventory-Designs-FINAL-8-may-2020" stroke="none" stroke-width="1" fill="none" fill-rule="evenodd" opacity="0.75">
        <g id="noun_consultant_2192062-(1)" fill="#007FFF">
            <path d="M22.35,20.07 C21.06,19.2 19.2,18.48 17.13,17.85 C17.01,17.82 16.89,17.88 16.86,18 L14.88,23.67 C14.82,23.88 14.55,23.88 14.46,23.7 L12.87,20.85 C12.81,20.73 12.84,20.61 12.93,20.52 C14.91,18.66 14.07,17.13 12.03,16.95 C12.03,16.95 12.03,16.95 12,16.95 C12,16.95 12,16.95 11.97,16.95 C9.96,17.1 9.12,18.66 11.07,20.52 C11.16,20.61 11.16,20.73 11.13,20.85 L9.54,23.7 C9.45,23.88 9.18,23.85 9.12,23.67 L7.14,18 C7.11,17.88 6.96,17.82 6.87,17.85 C4.8,18.48 2.97,19.2 1.65,20.07 C0.36,20.91 -0.12,22.8 0.12,24.69 C0.12,24.72 0.12,24.72 0.12,24.75 C0.36,25.59 0.75,26.13 1.29,26.25 C1.32,26.25 1.32,26.28 1.35,26.28 L22.56,26.28 C22.59,26.28 22.59,26.25 22.62,26.25 C23.19,26.13 23.55,25.59 23.82,24.78 C23.82,24.75 23.82,24.75 23.82,24.72 C24.12,22.8 23.64,20.91 22.35,20.07 Z" id="Path"></path>
            <path d="M5.25,11.34 L6.21,11.34 C6.27,11.34 6.3,11.31 6.33,11.28 C6.57,11.85 6.87,12.36 7.2,12.87 C7.2,12.87 7.23,12.9 7.23,12.9 C7.32,13.05 7.47,13.23 7.62,13.44 C7.65,13.47 7.68,13.53 7.71,13.56 C7.71,13.56 7.71,13.59 7.71,13.59 C7.74,13.62 7.77,13.65 7.8,13.71 C7.8,13.71 7.83,13.74 7.83,13.74 C8.4,14.43 9.24,15.21 10.29,15.69 C11.79,16.38 13.23,16.32 14.88,15.15 C15.27,14.88 15.66,14.49 16.02,14.04 L16.44,14.04 C17.52,14.04 18.42,13.17 18.42,12.06 L18.42,11.34 L18.72,11.34 C19.26,11.34 19.71,10.89 19.71,10.35 L19.71,8.46 C19.71,7.92 19.26,7.47 18.72,7.47 L18.66,7.47 C18.96,3.69 16.05,0.33 12.24,0.18 C12.21,0.18 12.18,0.15 12.18,0.15 L12.18,0.15 C10.41,0.15 8.97,0.69 7.77,1.65 C6.03,3.06 5.16,5.28 5.37,7.5 L5.28,7.5 C4.74,7.5 4.29,7.95 4.29,8.49 L4.29,10.38 C4.29,10.89 4.71,11.34 5.25,11.34 Z M16.62,13.29 C16.8,13.02 16.98,12.75 17.16,12.45 C17.37,12.09 17.55,11.7 17.73,11.31 C17.73,11.31 17.76,11.31 17.76,11.34 L17.76,12.12 C17.73,12.75 17.25,13.26 16.62,13.29 Z M6.96,8.07 C6.96,8.01 7.02,7.95 7.11,7.92 C8.52,7.71 9.51,6.81 10.08,5.28 C10.11,5.16 10.29,5.13 10.35,5.25 C11.82,7.26 13.38,8.1 17.13,7.95 C17.22,7.95 17.28,8.01 17.31,8.1 C17.46,9.42 17.13,11.1 16.38,12.51 C16.23,12.78 16.08,13.05 15.9,13.29 L13.59,13.29 L13.59,12.75 C13.59,12.42 13.32,12.12 12.96,12.12 L12.15,12.12 C11.82,12.12 11.52,12.39 11.52,12.75 L11.52,13.65 C11.52,13.86 11.67,14.01 11.88,14.01 L15.27,14.01 C14.67,14.64 13.95,15.12 13.08,15.42 C12.72,15.54 12.33,15.6 11.94,15.54 C10.65,15.39 9.48,14.67 8.58,13.59 C7.5,12.27 6.81,10.32 6.96,8.07 Z" id="Shape"></path>
        </g>
    </g>
</svg>