<?xml version="1.0" encoding="UTF-8"?>
<svg width="21px" height="20px" viewBox="0 0 21 20" version="1.1" xmlns="http://www.w3.org/2000/svg" xmlns:xlink="http://www.w3.org/1999/xlink">
    <!-- Generator: Sketch 63.1 (92452) - https://sketch.com -->
    <title>Group 52</title>
    <desc>Created with Sketch.</desc>
    <g id="online-booking" stroke="none" stroke-width="1" fill="none" fill-rule="evenodd">
        <g id="Online-booking-Benefits" transform="translate(-50.000000, -512.000000)">
            <g id="Group-51" transform="translate(28.000000, 109.000000)">
                <g id="Group-42" transform="translate(22.000000, 403.000000)">
                    <g id="Group-46">
                        <g id="Group-52">
                            <path d="M18,0.5 L3,0.5 C2.30964406,0.5 1.68464406,0.779822031 1.23223305,1.23223305 C0.779822031,1.68464406 0.5,2.30964406 0.5,3 L0.5,13.9882307 C0.5,14.6785866 0.779822031,15.3035866 1.23223305,15.7559976 C1.68464406,16.2084086 2.30964406,16.4882307 3,16.4882307 L15.4116633,16.4882307 C15.740835,16.4882307 16.0608671,16.5965093 16.3224178,16.7963723 L20.5,18.9773147 L20.5,3 C20.5,2.30964406 20.220178,1.68464406 19.767767,1.23223305 C19.3153559,0.779822031 18.6903559,0.5 18,0.5 Z" id="Path-13" stroke="#007FFF" transform="translate(10.500000, 9.828863) scale(-1, 1) translate(-10.500000, -9.828863) "></path>
                            <path d="M12.7355866,7.52245691 C12.7355866,8.16914273 12.4557814,8.69646231 11.8411231,9.27525392 C11.7413671,9.369189 11.663916,9.43793301 11.4689552,9.60610005 C11.3493691,9.70888514 11.2915901,9.75925845 11.2278693,9.81650148 C11.200481,9.84123575 11.200481,9.84123575 11.1847592,9.8555542 C11.1684831,9.87050709 11.1684831,9.87050709 11.141307,9.89568903 C10.8479218,10.1697013 10.7893186,10.2578549 10.7905847,10.4076875 C10.7935728,10.7891495 10.4916785,11.0930889 10.1074542,11.0930889 C9.72904619,11.0930889 9.42767841,10.7955331 9.42471134,10.4186704 C9.42000379,9.82192766 9.68260457,9.36150986 10.3119217,8.79441699 C10.3835447,8.72987586 10.4213942,8.696808 10.5848522,8.55580981 C11.2408521,7.98986979 11.3697283,7.81772215 11.3697283,7.52582446 C11.3697283,6.92898507 10.9007882,6.44596298 10.3267692,6.44596298 C9.75256867,6.44596298 9.28352082,6.92897149 9.28352082,7.52582446 C9.28352082,7.90792866 8.97863681,8.21917841 8.60059168,8.21917841 C8.22254656,8.21917841 7.91766255,7.90792866 7.91766255,7.52582446 C7.91766255,6.16701853 8.9974248,5.0592551 10.3265633,5.0592551 C11.6566015,5.05916299 12.7355866,6.16435738 12.7355866,7.52245691 Z" id="Combined-Shape" fill="#007FFF"></path>
                            <path d="M10.2437323,13.3097128 C9.78843125,13.3097128 9.41933681,12.937564 9.41933681,12.4784952 C9.41933681,12.0194263 9.78843125,11.6472775 10.2437323,11.6472775 C10.6990334,11.6472775 11.0681278,12.0194263 11.0681278,12.4784952 C11.0681278,12.937564 10.6990334,13.3097128 10.2437323,13.3097128 Z" id="Combined-Shape" fill="#007FFF"></path>
                        </g>
                    </g>
                </g>
            </g>
        </g>
    </g>
</svg>