<?xml version="1.0" encoding="UTF-8"?>
<svg width="40px" height="25px" viewBox="0 0 40 25" version="1.1" xmlns="http://www.w3.org/2000/svg" xmlns:xlink="http://www.w3.org/1999/xlink">
    <title>Feature?</title>
    <g id="Entry-Points" stroke="none" stroke-width="1" fill="none" fill-rule="evenodd" opacity="0.8">
        <g id="Mobile-Recommender-Entry-Points-V2" transform="translate(-316.000000, -327.000000)" fill="#9E9E9E" fill-rule="nonzero">
            <path d="M316.938965,344 L316.938965,340.546387 L320.220703,340.546387 L320.220703,339.703125 L316.938965,339.703125 L316.938965,337.02832 L320.752441,337.02832 L320.752441,336.179688 L315.907715,336.179688 L315.907715,344 L316.938965,344 Z M324.130859,344.107422 C325.104818,344.107422 325.835286,343.733236 326.322266,342.984863 L326.322266,342.984863 L325.715332,342.512207 C325.532715,342.748535 325.319661,342.938314 325.076172,343.081543 C324.832682,343.224772 324.535482,343.296387 324.18457,343.296387 C323.69043,343.296387 323.283122,343.120036 322.962646,342.767334 C322.642171,342.414632 322.474772,341.951823 322.460449,341.378906 L322.460449,341.378906 L326.397461,341.378906 L326.397461,340.965332 C326.397461,340.037923 326.187988,339.325358 325.769043,338.827637 C325.350098,338.329915 324.762858,338.081055 324.007324,338.081055 C323.54541,338.081055 323.116618,338.209066 322.720947,338.465088 C322.325277,338.72111 322.017334,339.075602 321.797119,339.528564 C321.576904,339.981527 321.466797,340.496257 321.466797,341.072754 L321.466797,341.072754 L321.466797,341.255371 C321.466797,342.121908 321.713867,342.813883 322.208008,343.331299 C322.702148,343.848714 323.343099,344.107422 324.130859,344.107422 Z M325.403809,340.5625 L322.492676,340.5625 C322.557129,340.036133 322.725423,339.627035 322.997559,339.335205 C323.269694,339.043376 323.606283,338.897461 324.007324,338.897461 C324.422689,338.897461 324.752116,339.036214 324.995605,339.313721 C325.239095,339.591227 325.375163,339.982422 325.403809,340.487305 L325.403809,340.487305 L325.403809,340.5625 Z M329.34082,344.107422 C329.981771,344.107422 330.533203,343.867513 330.995117,343.387695 C331.030924,343.681315 331.077474,343.885417 331.134766,344 L331.134766,344 L332.176758,344 L332.176758,343.914062 C332.04069,343.598958 331.972656,343.174642 331.972656,342.641113 L331.972656,342.641113 L331.972656,339.966309 C331.958333,339.379069 331.761393,338.91805 331.381836,338.583252 C331.002279,338.248454 330.477702,338.081055 329.808105,338.081055 C329.385579,338.081055 328.997965,338.159831 328.645264,338.317383 C328.292562,338.474935 328.013265,338.688883 327.807373,338.959229 C327.601481,339.229574 327.498535,339.509766 327.498535,339.799805 L327.498535,339.799805 L328.497559,339.799805 C328.497559,339.545573 328.617513,339.328939 328.857422,339.149902 C329.097331,338.970866 329.394531,338.881348 329.749023,338.881348 C330.153646,338.881348 330.459798,338.984294 330.66748,339.190186 C330.875163,339.396077 330.979004,339.672689 330.979004,340.02002 L330.979004,340.02002 L330.979004,340.476562 L330.012207,340.476562 C329.177897,340.476562 328.53068,340.643962 328.070557,340.97876 C327.610433,341.313558 327.380371,341.783529 327.380371,342.388672 C327.380371,342.886393 327.563883,343.297282 327.930908,343.621338 C328.297933,343.945394 328.767904,344.107422 329.34082,344.107422 Z M329.48584,343.242676 C329.159993,343.242676 328.893229,343.154948 328.685547,342.979492 C328.477865,342.804036 328.374023,342.560547 328.374023,342.249023 C328.374023,341.536458 328.982747,341.180176 330.200195,341.180176 L330.200195,341.180176 L330.979004,341.180176 L330.979004,342.372559 C330.853678,342.630371 330.651367,342.839844 330.37207,343.000977 C330.092773,343.162109 329.797363,343.242676 329.48584,343.242676 Z M335.227539,344.107422 C335.474609,344.107422 335.728841,344.071615 335.990234,344 L335.990234,344 L335.990234,343.194336 C335.789714,343.237305 335.632161,343.258789 335.517578,343.258789 C335.284831,343.258789 335.120117,343.200602 335.023438,343.084229 C334.926758,342.967855 334.878418,342.793294 334.878418,342.560547 L334.878418,342.560547 L334.878418,338.956543 L335.963379,338.956543 L335.963379,338.188477 L334.878418,338.188477 L334.878418,336.78125 L333.884766,336.78125 L333.884766,338.188477 L332.82666,338.188477 L332.82666,338.956543 L333.884766,338.956543 L333.884766,342.560547 C333.884766,343.054688 333.997559,343.436035 334.223145,343.70459 C334.44873,343.973145 334.783529,344.107422 335.227539,344.107422 Z M339.008789,344.107422 C339.757161,344.107422 340.324707,343.880046 340.711426,343.425293 L340.711426,343.425293 L340.73291,344 L341.678223,344 L341.678223,338.188477 L340.68457,338.188477 L340.68457,342.415527 C340.433919,342.981283 339.929036,343.26416 339.169922,343.26416 C338.453776,343.26416 338.095703,342.82373 338.095703,341.942871 L338.095703,341.942871 L338.095703,338.188477 L337.102051,338.188477 L337.102051,341.969727 C337.105632,342.67513 337.26945,343.207764 337.593506,343.567627 C337.917562,343.92749 338.389323,344.107422 339.008789,344.107422 Z M344.181152,344 L344.181152,339.875 C344.4139,339.319987 344.85612,339.04248 345.507812,339.04248 C345.683268,339.04248 345.846191,339.055013 345.996582,339.080078 L345.996582,339.080078 L345.996582,338.15625 C345.896322,338.10612 345.749512,338.081055 345.556152,338.081055 C344.958171,338.081055 344.496257,338.340658 344.17041,338.859863 L344.17041,338.859863 L344.154297,338.188477 L343.1875,338.188477 L343.1875,344 L344.181152,344 Z M349.219238,344.107422 C350.193197,344.107422 350.923665,343.733236 351.410645,342.984863 L351.410645,342.984863 L350.803711,342.512207 C350.621094,342.748535 350.40804,342.938314 350.164551,343.081543 C349.921061,343.224772 349.623861,343.296387 349.272949,343.296387 C348.778809,343.296387 348.371501,343.120036 348.051025,342.767334 C347.73055,342.414632 347.563151,341.951823 347.548828,341.378906 L347.548828,341.378906 L351.48584,341.378906 L351.48584,340.965332 C351.48584,340.037923 351.276367,339.325358 350.857422,338.827637 C350.438477,338.329915 349.851237,338.081055 349.095703,338.081055 C348.633789,338.081055 348.204997,338.209066 347.809326,338.465088 C347.413656,338.72111 347.105713,339.075602 346.885498,339.528564 C346.665283,339.981527 346.555176,340.496257 346.555176,341.072754 L346.555176,341.072754 L346.555176,341.255371 C346.555176,342.121908 346.802246,342.813883 347.296387,343.331299 C347.790527,343.848714 348.431478,344.107422 349.219238,344.107422 Z M350.492188,340.5625 L347.581055,340.5625 C347.645508,340.036133 347.813802,339.627035 348.085938,339.335205 C348.358073,339.043376 348.694661,338.897461 349.095703,338.897461 C349.511068,338.897461 349.840495,339.036214 350.083984,339.313721 C350.327474,339.591227 350.463542,339.982422 350.492188,340.487305 L350.492188,340.487305 L350.492188,340.5625 Z M354.794434,341.797852 C354.794434,341.253581 354.92513,340.836426 355.186523,340.546387 L355.186523,340.546387 L355.771973,339.966309 C356.352051,339.357585 356.64209,338.739909 356.64209,338.113281 C356.64209,337.479492 356.453206,336.980876 356.075439,336.617432 C355.697673,336.253988 355.17041,336.072266 354.493652,336.072266 C353.84196,336.072266 353.312907,336.250407 352.906494,336.606689 C352.500081,336.962972 352.293294,337.431152 352.286133,338.01123 L352.286133,338.01123 L353.279785,338.01123 C353.279785,337.685384 353.390788,337.425781 353.612793,337.232422 C353.834798,337.039062 354.128418,336.942383 354.493652,336.942383 C354.869629,336.942383 355.156087,337.04891 355.353027,337.261963 C355.549967,337.475016 355.648438,337.769531 355.648438,338.145508 C355.648438,338.535807 355.498047,338.901042 355.197266,339.241211 L355.197266,339.241211 L354.493652,339.966309 C354.217936,340.26709 354.035319,340.541016 353.945801,340.788086 C353.856283,341.035156 353.807943,341.371745 353.800781,341.797852 L353.800781,341.797852 L354.794434,341.797852 Z M354.343262,344.059082 C354.536621,344.059082 354.683431,344.006266 354.783691,343.900635 C354.883952,343.795003 354.934082,343.661621 354.934082,343.500488 C354.934082,343.339355 354.883952,343.204183 354.783691,343.094971 C354.683431,342.985758 354.536621,342.931152 354.343262,342.931152 C354.149902,342.931152 354.003988,342.985758 353.905518,343.094971 C353.807048,343.204183 353.757812,343.339355 353.757812,343.500488 C353.757812,343.661621 353.807048,343.795003 353.905518,343.900635 C354.003988,344.006266 354.149902,344.059082 354.343262,344.059082 Z" id="Feature?" transform="translate(336.274902, 340.089844) rotate(27.000000) translate(-336.274902, -340.089844) "></path>
        </g>
    </g>
</svg>