<?xml version="1.0" encoding="UTF-8"?>
<svg width="212px" height="104px" viewBox="0 0 212 104" version="1.1" xmlns="http://www.w3.org/2000/svg" xmlns:xlink="http://www.w3.org/1999/xlink">
    <!-- Generator: Sketch 61.2 (89653) - https://sketch.com -->
    <title>Artboard</title>
    <desc>Created with Sketch.</desc>
    <defs>
        <linearGradient x1="50%" y1="0%" x2="50%" y2="87.9575503%" id="linearGradient-1">
            <stop stop-color="#FFFFFF" stop-opacity="0.5" offset="0%"></stop>
            <stop stop-color="#F3F3F3" stop-opacity="0.801145981" offset="60.2291961%"></stop>
            <stop stop-color="#FFFFFF" offset="100%"></stop>
        </linearGradient>
        <linearGradient x1="74.5837109%" y1="47.5243085%" x2="0%" y2="55.2457617%" id="linearGradient-2">
            <stop stop-color="#F06B4E" offset="0%"></stop>
            <stop stop-color="#DD3926" offset="100%"></stop>
        </linearGradient>
        <linearGradient x1="74.5837109%" y1="38.982582%" x2="0%" y2="73.3448916%" id="linearGradient-3">
            <stop stop-color="#F06B4E" offset="0%"></stop>
            <stop stop-color="#DD3926" offset="100%"></stop>
        </linearGradient>
        <linearGradient x1="86.9071742%" y1="40.6142767%" x2="50%" y2="69.0866399%" id="linearGradient-4">
            <stop stop-color="#EDF3FD" offset="0%"></stop>
            <stop stop-color="#D1DDF5" offset="100%"></stop>
        </linearGradient>
        <linearGradient x1="85.4684012%" y1="50%" x2="15.7599749%" y2="50%" id="linearGradient-5">
            <stop stop-color="#B1C3EB" offset="0%"></stop>
            <stop stop-color="#D4E0F7" offset="100%"></stop>
        </linearGradient>
        <linearGradient x1="50%" y1="0%" x2="50%" y2="100%" id="linearGradient-6">
            <stop stop-color="#78D695" offset="0%"></stop>
            <stop stop-color="#A6F693" offset="100%"></stop>
        </linearGradient>
        <linearGradient x1="50%" y1="0%" x2="50%" y2="100%" id="linearGradient-7">
            <stop stop-color="#78D695" offset="0%"></stop>
            <stop stop-color="#A6F693" offset="100%"></stop>
        </linearGradient>
        <linearGradient x1="50%" y1="0%" x2="50%" y2="100%" id="linearGradient-8">
            <stop stop-color="#78D695" offset="0%"></stop>
            <stop stop-color="#A6F693" offset="100%"></stop>
        </linearGradient>
    </defs>
    <g id="Artboard" stroke="none" stroke-width="1" fill="none" fill-rule="evenodd">
        <rect fill="#FFFFFF" x="0" y="0" width="212" height="104"></rect>
        <path d="M96.5,76.8314634 C128.808658,76.8314634 155,99.2781939 155,66.9512737 C155,34.6243534 128.808658,8.41820664 96.5,8.41820664 C64.1913421,8.41820664 38,34.6243534 38,66.9512737 C38,99.2781939 64.1913421,76.8314634 96.5,76.8314634 Z" id="Oval" fill="url(#linearGradient-1)"></path>
        <g id="Group-35" transform="translate(25.000000, 44.000000)">
            <g id="Group-63">
                <g id="Group-61">
                    <path d="M68.2815867,2.32772788 C83.9439168,-0.775909292 102.075186,-0.775909292 122.675393,2.32772788 C121.440924,4.11231925 122.482507,6.3624562 125.800144,9.07813872 C130.776598,13.1516625 132.512571,13.5008217 137.604757,15.0138448 C143.391332,18.621823 140.035119,24.0919835 142.002554,25.8377794 C143.314178,27.0016434 144.201453,28.1267118 144.664379,29.2129848 L144.664379,29.2129848 L144.664379,39.4549875 L142.002554,45.0415344 L137.604757,45.0415344 L137.381713,45.0550411 C137.452547,44.4785991 137.489025,43.891453 137.489025,43.2957385 C137.489025,35.45377 131.167625,29.0965985 123.369782,29.0965985 C115.571939,29.0965985 109.250539,35.45377 109.250539,43.2957385 C109.250539,44.4743774 109.393338,45.619475 109.662486,46.7144888 L108.440418,46.7873303 L42.6219524,46.7877719 C42.9028714,45.6706006 43.0521191,44.5006975 43.0521191,43.2957385 C43.0521191,35.45377 36.7307185,29.0965985 28.9328757,29.0965985 C21.1350329,29.0965985 14.8136324,35.45377 14.8136324,43.2957385 C14.8136324,44.5006975 14.9628801,45.6706006 15.243799,46.7877719 L2.66182457,46.7873303 C2.83949428,45.2729176 2.83949428,44.1478491 2.66182457,43.4121249 C1.42288036,38.2816991 -0.462926012,33.8684406 0.462926012,29.2129848 C8.33266821,21.376301 21.7960997,17.1087999 40.8532205,16.4104815 C50.6518211,9.27211604 59.7946098,4.57786482 68.2815867,2.32772788 Z" id="Combined-Shape" fill="url(#linearGradient-2)"></path>
                    <path d="M92.3537393,4.65545575 L90.6177668,16.9924135 L113.416873,14.3155264 C121.016575,11.3670711 121.016575,8.767775 113.416873,6.51763805 C105.817171,4.26750111 98.7961263,3.64677367 92.3537393,4.65545575 Z" id="Path-18" fill="#2F3E42"></path>
                    <path d="M86.3357012,4.65545575 L83.4424136,18.1562774 L54.5095379,19.5529142 C48.0285737,18.3114593 50.4589353,14.9750493 61.8006226,9.54368429 C73.1423098,4.11231925 81.3206694,2.48290973 86.3357012,4.65545575 Z" id="Path-19" fill="#2F3E42"></path>
                    <path d="M46.4083327,16.5268679 C55.6668529,9.85404801 62.7264746,5.85811516 67.5871977,4.53906936 C67.8186607,3.60797821 62.0320856,4.88822854 54.9724639,8.49620675 C50.2660494,10.9015256 45.7139437,13.694799 41.3161465,16.8760271 L46.4083327,16.5268679 Z" id="Path-20" fill="#2F3E42"></path>
                    <path d="M61.3376965,14.3155264 L61.3376965,19.4365278 L53.3522228,19.4365278 C53.3522228,17.031209 54.6831351,15.4405949 57.3449597,14.6646856 C60.0067843,13.8887763 61.3376965,13.7723899 61.3376965,14.3155264 Z" id="Path-21" fill="url(#linearGradient-3)"></path>
                    <path d="M20.02155,25.1394611 C14.7750552,29.639735 11.1488014,31.8898719 9.14278873,31.8898719 C6.13376965,31.8898719 4.0506026,28.9802121 10.5315668,26.5360978 C14.8522095,24.9066883 18.0155373,24.4411427 20.02155,25.1394611 Z" id="Path-22" fill="#BC1D0B"></path>
                    <path d="M127.883311,15.8285496 C132.66688,20.3288235 136.100247,22.1522103 138.183414,21.2987101 C141.308165,20.0184597 140.729508,16.6432543 135.753053,15.363004 C133.129806,15.2854131 130.506558,15.4405949 127.883311,15.8285496 Z" id="Path-24" fill="#BC1D0B"></path>
                    <path d="M122.212467,4.30629657 C127.999042,7.02197909 133.014074,10.5523664 137.257562,14.8974584 C128.461968,12.7249124 123.446936,9.19452511 122.212467,4.30629657 Z" id="Path-26" fill="#2F3E42"></path>
                </g>
                <g id="Group-62" transform="translate(18.000000, 32.000000)">
                    <ellipse id="Oval-5" fill="#3C3A3D" cx="11.0609244" cy="11.2151703" rx="11.0609244" ry="11.2151703"></ellipse>
                    <ellipse id="Oval-5" fill="#F6F6F6" cx="11.0609244" cy="11.2151703" rx="6.8472389" ry="6.94272446"></ellipse>
                    <ellipse id="Oval-5" fill="#3C3A3D" cx="104.815426" cy="11.2151703" rx="11.0609244" ry="11.2151703"></ellipse>
                    <ellipse id="Oval-5" fill="#F6F6F6" cx="104.815426" cy="11.2151703" rx="6.8472389" ry="6.94272446"></ellipse>
                </g>
            </g>
            <g id="Group-11" transform="translate(152.000000, 25.000000)">
                <path d="M11.3793103,29.6377593 C15.3786137,29.6377593 18.6206897,26.6272602 18.6206897,22.9136214 C18.6206897,22.1720223 18.4914004,21.4584633 18.2526103,20.7913194 C14.4827586,21.8791386 14.5799685,21.8791386 11.3793103,21.8791386 C8.21936534,21.8791386 7.24137931,21.3618973 4.54338038,20.6896552 C4.28073798,21.3857849 4.13793103,22.1342172 4.13793103,22.9136214 C4.13793103,26.6272602 7.38000698,29.6377593 11.3793103,29.6377593 Z" id="Oval-4" fill="url(#linearGradient-4)"></path>
                <ellipse id="Oval-3" fill="url(#linearGradient-5)" cx="11.3793103" cy="21.2068966" rx="7.24137931" ry="1.55172414"></ellipse>
                <path d="M12.4137931,21.2068966 C12.4137931,14.3103448 15.3448276,10.3448276 21.2068966,9.31034483 C21.2068966,12.7586207 18.2758621,16.7241379 12.4137931,21.2068966 Z" id="Path-17" fill="url(#linearGradient-6)"></path>
                <path d="M10.862069,19.137931 C11.1724138,17.6293103 10.3017241,15.25 8.25,12 C6.19827586,8.75 5.17241379,4.75 5.17241379,0 C9.3191257,2.95957231 11.7329188,5.54577921 12.4137931,7.75862069 C13.0946674,9.97146217 12.577426,13.7645656 10.862069,19.137931 Z" id="Path-18" fill="url(#linearGradient-7)"></path>
                <path d="M10.3448276,19.6551724 C9.65517241,19.3103448 8.44827586,18.4482759 6.72413793,17.0689655 C4.13793103,15 0.75,14.4827586 0,9.31034483 C5.68965517,10.3448276 7.24137931,13.4482759 8.79310345,16.0344828 C9.82758621,17.7586207 10.3448276,18.9655172 10.3448276,19.6551724 Z" id="Path-19" fill="url(#linearGradient-8)"></path>
                <path d="M8.91308298,17.3849309 C9.04566951,17.5440347 9.02417299,17.7804964 8.86506915,17.913083 C8.70596531,18.0456695 8.46950355,18.024173 8.33691702,17.8650691 C5.84734828,14.8775867 4.34789851,13.1282286 3.85983496,12.640165 C3.71338835,12.4937184 3.71338835,12.2562816 3.85983496,12.109835 C4.00628157,11.9633883 4.24371843,11.9633883 4.39016504,12.109835 C4.90210149,12.6217714 6.40265172,14.3724133 8.91308298,17.3849309 Z" id="Path-22" fill="#53B973" fill-rule="nonzero"></path>
                <path d="M12.7104923,21.1677272 C12.6178714,21.3529691 12.392619,21.4280532 12.207377,21.3354323 C12.0221351,21.2428113 11.947051,21.0175589 12.0396719,20.832317 C12.0715185,20.7686238 12.1314324,20.6499943 12.2160925,20.4842614 C12.3569726,20.2084706 12.5159446,19.901268 12.6896927,19.5704784 C13.186241,18.6251268 13.7019513,17.6796579 14.2105044,16.7963815 C14.4276583,16.4192195 14.6393116,16.0608568 14.8442985,15.7240926 C15.7531756,14.2309374 16.4843876,13.230543 17.0250821,12.8250221 C17.1907676,12.700758 17.4258181,12.7343366 17.5500821,12.9000221 C17.6743462,13.0657075 17.6407676,13.300758 17.4750821,13.4250221 C17.0400114,13.7513251 16.3410576,14.7075862 15.4849474,16.1140528 C15.2832864,16.4453531 15.0747077,16.79851 14.8604713,17.1706048 C14.3572851,18.0445598 13.846042,18.9818388 13.3536722,19.9192352 C13.1812989,20.2474073 13.0236269,20.5520978 12.8839966,20.8254418 C12.8003505,20.9891899 12.741404,21.1059038 12.7104923,21.1677272 Z" id="Path-20" fill="#53B973" fill-rule="nonzero"></path>
                <path d="M11.9983108,16.4644466 C12.0179464,16.6706205 11.8667273,16.8536752 11.6605534,16.8733108 C11.4543795,16.8929464 11.2713248,16.7417273 11.2516892,16.5355534 C10.7608428,11.3816658 10.0217397,8.30206982 9.10983496,7.39016504 C8.96338835,7.24371843 8.96338835,7.00628157 9.10983496,6.85983496 C9.25628157,6.71338835 9.49371843,6.71338835 9.64016504,6.85983496 C10.7282603,7.94793018 11.4891572,11.1183342 11.9983108,16.4644466 Z" id="Path-21" fill="#53B973" fill-rule="nonzero"></path>
            </g>
        </g>
        <g id="Group-41" opacity="0.5" transform="translate(168.000000, 16.000000)" fill="#F1F1F1" fill-rule="nonzero">
            <path d="M34.1416936,0.5 L34.1416936,1.5 L22.15,1.5 L22.15,5.496 L44.1343845,5.49634541 L44.1343845,6.49634541 L32.143,6.496 L32.143,10.492 L44.1343845,10.4926908 L44.1343845,11.4926908 L21.318,11.492 L21.318,15.488 L33.3089694,15.4890362 L33.3089694,16.4890362 L15.489,16.489 L15.489,20.485 L27.4798998,20.4853816 L27.4798998,21.4853816 L2.49817271,21.4853816 L2.49817271,20.4853816 L14.489,20.485 L14.489,16.489 L2.49817271,16.4890362 L2.49817271,15.4890362 L8.32724235,15.4890362 L20.318,15.489 L20.318,11.492 L-9.57456336e-13,11.4926908 L-9.57456336e-13,10.4926908 L11.99,10.492 L11.99,6.496 L-9.57456336e-13,6.49634541 L-9.57456336e-13,5.49634541 L21.15,5.496 L21.15,1.5 L9.15996659,1.5 L9.15996659,0.5 L34.1416936,0.5 Z M31.143,6.496 L12.99,6.496 L12.99,10.492 L31.143,10.492 L31.143,6.496 Z" id="Combined-Shape"></path>
        </g>
    </g>
</svg>