<svg xmlns="http://www.w3.org/2000/svg" width="155" height="121" viewBox="0 0 155 121">
    <defs>
        <filter id="vps1dtjova" width="171.1%" height="177.2%" x="-35.5%" y="-38.6%" filterUnits="objectBoundingBox">
            <feGaussianBlur in="SourceGraphic" stdDeviation="16"/>
        </filter>
        <filter id="pw4lzlo2lb" width="325.6%" height="339.2%" x="-112.8%" y="-119.6%" filterUnits="objectBoundingBox">
            <feGaussianBlur in="SourceGraphic" stdDeviation="50"/>
        </filter>
        <linearGradient id="2322ky6gwc" x1="80.601%" x2="11.618%" y1="58.804%" y2="47.411%">
            <stop offset="0%" stop-color="#FDCA48"/>
            <stop offset="100%" stop-color="#F6AE42"/>
        </linearGradient>
    </defs>
    <g fill="none" fill-rule="evenodd">
        <g>
            <g>
                <g>
                    <path fill="#F3FAFF" d="M114.417 149.625c16.698 0 38.783 2.785 54-6 18.758-10.828 29-35.138 29-54.5 0-35.07-30.22-63.5-67.5-63.5-37.279 0-69.5 30-67.5 63.5s14.721 60.5 52 60.5z" filter="url(#vps1dtjova)" opacity=".5" transform="translate(-206 -960) translate(0 960) translate(206 -85) rotate(29 129.873 87.835)"/>
                    <path fill="#F2FAFF" d="M131.938 151.972c27 4 66-23.101 66-59 0-35.898-25.101-66-61-66-35.898 0-72 35.102-72 71 0 17.113 5.19 26.393 16 38 11.867 12.743 24 12 51 16z" filter="url(#pw4lzlo2lb)" opacity=".5" style="mix-blend-mode:multiply" transform="translate(-206 -960) translate(0 960) translate(206 -85) rotate(29 131.438 89.668)"/>
                    <g fill="#F25817" fill-rule="nonzero">
                        <path d="M3.845 32.153c.275 0 .502.206.535.472l.004.068v.363c0 .298-.241.54-.54.54-.274 0-.501-.207-.535-.473l-.004-.067v-.363c0-.298.242-.54.54-.54zm-2.152-.575c.21-.21.552-.21.763 0 .193.194.209.497.048.709l-.048.055-.257.257c-.106.105-.244.157-.382.157s-.276-.052-.381-.158c-.194-.193-.21-.496-.048-.708l.048-.055.257-.257zm3.54 0c.193-.192.496-.209.708-.048l.055.048.257.257c.211.21.211.552 0 .763-.104.106-.243.158-.38.158-.116 0-.23-.036-.327-.11l-.055-.047-.257-.257c-.211-.21-.211-.552 0-.763zm1.479-1.926c.298 0 .54.242.54.54 0 .275-.206.502-.472.535l-.068.004h-.364c-.298 0-.54-.241-.54-.54 0-.274.207-.501.473-.535l.067-.004h.364zm-5.371 0c.298 0 .54.242.54.54 0 .275-.206.502-.472.535l-.068.004H.977c-.298 0-.54-.241-.54-.54 0-.274.207-.501.473-.535l.067-.004h.364zm4.15-1.867c.21-.21.552-.21.763 0 .193.194.209.497.048.708l-.049.056-.257.256c-.105.106-.243.158-.38.158-.14 0-.277-.053-.383-.158-.193-.193-.209-.497-.048-.708l.049-.055.257-.257zm-4.055 0c.192-.193.496-.209.707-.048l.056.048.257.257c.21.21.21.552 0 .763-.105.105-.244.158-.382.158-.115 0-.23-.036-.326-.11l-.055-.048-.257-.256c-.21-.211-.211-.553 0-.763zm2.409-.997c.275 0 .502.206.535.472l.004.068v.363c0 .298-.241.54-.54.54-.274 0-.501-.206-.535-.472l-.004-.068v-.363c0-.298.242-.54.54-.54zM28.83 5.921c.275 0 .502.206.535.472l.004.067v.363c0 .298-.241.54-.54.54-.274 0-.501-.206-.534-.472l-.005-.068V6.46c0-.298.242-.54.54-.54zm-2.152-.575c.211-.21.553-.21.763 0 .193.194.21.497.048.708l-.048.056-.257.256c-.106.106-.244.158-.382.158s-.276-.053-.381-.158c-.193-.193-.21-.497-.048-.708l.048-.055.257-.257zm3.54 0c.193-.193.497-.209.708-.048l.055.048.258.257c.21.21.21.552 0 .763-.105.105-.243.158-.382.158-.115 0-.23-.036-.326-.11l-.055-.048-.257-.256c-.21-.211-.211-.553 0-.763zM31.7 3.42c.297 0 .539.242.539.54 0 .275-.206.502-.472.535l-.068.004h-.364c-.297 0-.54-.241-.54-.54 0-.275.207-.502.473-.535l.067-.004h.364zm-5.372 0c.298 0 .54.242.54.54 0 .275-.206.502-.472.535l-.068.004h-.363c-.298 0-.54-.241-.54-.54 0-.275.206-.502.472-.535l.068-.004h.363zm4.15-1.867c.21-.21.552-.21.763 0 .193.193.209.497.048.708l-.048.055-.257.257c-.106.105-.244.158-.382.158s-.276-.053-.381-.158c-.193-.194-.21-.497-.048-.708l.048-.055.257-.257zm-4.055 0c.193-.193.496-.21.707-.048l.056.048.257.257c.21.21.21.552 0 .763-.105.105-.243.158-.382.158-.115 0-.23-.037-.326-.11l-.055-.048-.257-.257c-.21-.21-.21-.552 0-.763zM28.83.556c.275 0 .502.206.535.472l.004.068v.363c0 .298-.241.54-.54.54-.274 0-.501-.206-.534-.473l-.005-.067v-.363c0-.298.242-.54.54-.54z" transform="translate(-206 -960) translate(0 960) translate(206 -85) rotate(-131 92.857 29.826)"/>
                    </g>
                    <path fill="#007FFF" fill-rule="nonzero" d="M116 144c-.81 0-1.538-.488-1.848-1.235-.31-.748-.138-1.608.435-2.18.572-.572 1.433-.742 2.18-.432.747.31 1.234 1.04 1.233 1.85-.001 1.103-.896 1.997-2 1.997zm0-3.5c-.828 0-1.5.672-1.5 1.5s.672 1.5 1.5 1.5 1.5-.672 1.5-1.5c0-.398-.158-.78-.44-1.06-.28-.282-.662-.44-1.06-.44z" transform="translate(-206 -960) translate(0 960) translate(206 -85)"/>
                    <path fill="#FF5C60" fill-rule="nonzero" d="M99.327 115L99.332 116.693 101.035 116.688 101.037 117.32 99.333 117.325 99.339 119.035 98.706 119.037 98.701 117.327 97.002 117.332 97 116.7 98.699 116.695 98.694 115.002z" transform="translate(-206 -960) translate(0 960) translate(206 -85)"/>
                    <path fill="url(#2322ky6gwc)" d="M138.77 112.411c-.074-.229-.255-.407-.484-.48l-7.32-2.306-4.457-6.25c-.14-.196-.365-.312-.606-.312-.24 0-.466.116-.606.312l-4.456 6.25-7.32 2.306c-.23.073-.41.252-.485.48-.074.23-.033.48.11.673l4.566 6.17-.068 7.674c-.002.241.112.468.307.61.195.14.446.18.674.103l7.278-2.437 7.279 2.437c.077.026.157.038.236.038.155 0 .309-.048.438-.142.194-.141.308-.368.306-.609l-.068-7.675 4.567-6.169c.143-.193.184-.444.11-.673z" transform="translate(-206 -960) translate(0 960) translate(206 -85)"/>
                    <path fill="#FCA309" fill-rule="nonzero" d="M150.036 119.722l1.072 1.96c.037.069.093.125.161.162l1.96 1.072c.282.154.282.558 0 .712l-1.96 1.072c-.068.037-.124.093-.161.161l-1.072 1.96c-.154.282-.558.282-.712 0l-1.072-1.96c-.037-.068-.093-.124-.161-.161l-1.96-1.072c-.282-.154-.282-.558 0-.712l1.96-1.072c.068-.037.124-.093.16-.161l1.073-1.96c.154-.282.558-.282.712 0z" transform="translate(-206 -960) translate(0 960) translate(206 -85)"/>
                    <path fill="#CFEFFC" d="M136.984 153.592l3.29 2.966.742-4.355c.067-.433.269-.853.576-1.18l2.982-3.264-4.367-.76c-.45-.066-.866-.275-1.188-.597l-3.265-2.972-.766 4.362c-.047.454-.247.877-.568 1.202l-2.975 3.288 4.36.737c.445.058.859.26 1.18.575v-.002z" transform="translate(-206 -960) translate(0 960) translate(206 -85)"/>
                    <path fill="#D6E9F5" fill-rule="nonzero" d="M84.972 94.308c-.058-.177-.198-.316-.376-.372l-5.673-1.788-3.453-4.843c-.109-.152-.284-.242-.47-.242s-.361.09-.47.242l-3.453 4.843-5.673 1.788c-.178.056-.318.195-.376.372-.057.177-.026.372.085.521l3.54 4.781-.054 5.949c-.001.186.087.362.238.471.151.11.346.14.522.08L75 104.223l5.64 1.889c.06.02.122.03.184.03.12 0 .24-.038.339-.11.15-.11.24-.286.238-.472l-.053-5.949 3.539-4.78c.11-.15.142-.345.085-.522z" transform="translate(-206 -960) translate(0 960) translate(206 -85)"/>
                    <path fill="#FFF" fill-rule="nonzero" d="M98.98 121.134c-.04-.124-.138-.22-.262-.26l-3.972-1.251-2.417-3.39c-.076-.107-.198-.17-.329-.17-.13 0-.253.063-.329.17l-2.417 3.39-3.972 1.251c-.124.04-.222.136-.262.26-.04.125-.018.26.06.365l2.477 3.347-.037 4.164c-.002.13.06.253.166.33.106.077.242.098.366.056L92 128.075l3.948 1.321c.042.014.086.021.129.021.084 0 .167-.026.237-.077.106-.077.168-.2.167-.33l-.037-4.164 2.477-3.347c.077-.104.1-.24.06-.365z" transform="translate(-206 -960) translate(0 960) translate(206 -85)"/>
                </g>
            </g>
        </g>
    </g>
</svg>
