<svg width="321" height="221" viewBox="0 0 321 221" fill="none" xmlns="http://www.w3.org/2000/svg">
<mask id="mask0" mask-type="alpha" maskUnits="userSpaceOnUse" x="0" y="0" width="321" height="221">
<rect width="321" height="221" rx="6" fill="#1E1E1E"/>
</mask>
<g mask="url(#mask0)">
<g opacity="0.4">
<line y1="-1" x2="332.811" y2="-1" transform="matrix(0.483429 -0.875384 -0.875384 -0.483429 -64.2452 87.0098)" stroke="url(#paint0_linear)" stroke-width="2"/>
<line y1="-1" x2="332.811" y2="-1" transform="matrix(0.483429 -0.875384 -0.875384 -0.483429 -55.4913 91.8441)" stroke="url(#paint1_linear)" stroke-width="2"/>
<line y1="-1" x2="332.811" y2="-1" transform="matrix(0.483429 -0.875384 -0.875384 -0.483429 -46.7375 96.6783)" stroke="url(#paint2_linear)" stroke-width="2"/>
<line y1="-1" x2="332.811" y2="-1" transform="matrix(0.483429 -0.875384 -0.875384 -0.483429 -37.9838 101.513)" stroke="url(#paint3_linear)" stroke-width="2"/>
<line y1="-1" x2="332.811" y2="-1" transform="matrix(0.483429 -0.875384 -0.875384 -0.483429 -29.2299 106.347)" stroke="url(#paint4_linear)" stroke-width="2"/>
<line y1="-1" x2="332.811" y2="-1" transform="matrix(0.483429 -0.875384 -0.875384 -0.483429 -20.4761 111.181)" stroke="url(#paint5_linear)" stroke-width="2"/>
<line y1="-1" x2="332.811" y2="-1" transform="matrix(0.483429 -0.875384 -0.875384 -0.483429 -11.7222 116.016)" stroke="url(#paint6_linear)" stroke-width="2"/>
<line y1="-1" x2="332.811" y2="-1" transform="matrix(0.483429 -0.875384 -0.875384 -0.483429 -2.96838 120.85)" stroke="url(#paint7_linear)" stroke-width="2"/>
<line y1="-1" x2="332.811" y2="-1" transform="matrix(0.483429 -0.875384 -0.875384 -0.483429 5.78552 125.684)" stroke="url(#paint8_linear)" stroke-width="2"/>
<line y1="-1" x2="332.811" y2="-1" transform="matrix(0.483429 -0.875384 -0.875384 -0.483429 14.5393 130.518)" stroke="url(#paint9_linear)" stroke-width="2"/>
<line y1="-1" x2="332.811" y2="-1" transform="matrix(0.483429 -0.875384 -0.875384 -0.483429 23.2931 135.353)" stroke="url(#paint10_linear)" stroke-width="2"/>
<line y1="-1" x2="332.811" y2="-1" transform="matrix(0.483429 -0.875384 -0.875384 -0.483429 32.047 140.187)" stroke="url(#paint11_linear)" stroke-width="2"/>
<line y1="-1" x2="332.811" y2="-1" transform="matrix(0.483429 -0.875384 -0.875384 -0.483429 40.8008 145.021)" stroke="url(#paint12_linear)" stroke-width="2"/>
<line y1="-1" x2="332.811" y2="-1" transform="matrix(0.483429 -0.875384 -0.875384 -0.483429 49.5547 149.855)" stroke="url(#paint13_linear)" stroke-width="2"/>
<line y1="-1" x2="332.811" y2="-1" transform="matrix(0.483429 -0.875384 -0.875384 -0.483429 58.3085 154.69)" stroke="url(#paint14_linear)" stroke-width="2"/>
<line y1="-1" x2="332.811" y2="-1" transform="matrix(0.483429 -0.875384 -0.875384 -0.483429 67.0624 159.524)" stroke="url(#paint15_linear)" stroke-width="2"/>
<line y1="-1" x2="332.811" y2="-1" transform="matrix(0.483429 -0.875384 -0.875384 -0.483429 75.8162 164.358)" stroke="url(#paint16_linear)" stroke-width="2"/>
<line y1="-1" x2="332.811" y2="-1" transform="matrix(0.483429 -0.875384 -0.875384 -0.483429 84.5699 169.193)" stroke="url(#paint17_linear)" stroke-width="2"/>
<line y1="-1" x2="332.811" y2="-1" transform="matrix(0.483429 -0.875384 -0.875384 -0.483429 93.3239 174.027)" stroke="url(#paint18_linear)" stroke-width="2"/>
<line y1="-1" x2="332.811" y2="-1" transform="matrix(0.483429 -0.875384 -0.875384 -0.483429 102.078 178.861)" stroke="url(#paint19_linear)" stroke-width="2"/>
<line y1="-1" x2="332.811" y2="-1" transform="matrix(0.483429 -0.875384 -0.875384 -0.483429 110.832 183.696)" stroke="url(#paint20_linear)" stroke-width="2"/>
<line y1="-1" x2="332.811" y2="-1" transform="matrix(0.483429 -0.875384 -0.875384 -0.483429 119.585 188.53)" stroke="url(#paint21_linear)" stroke-width="2"/>
<line y1="-1" x2="332.811" y2="-1" transform="matrix(0.483429 -0.875384 -0.875384 -0.483429 128.339 193.364)" stroke="url(#paint22_linear)" stroke-width="2"/>
<line y1="-1" x2="332.811" y2="-1" transform="matrix(0.483429 -0.875384 -0.875384 -0.483429 137.093 198.198)" stroke="url(#paint23_linear)" stroke-width="2"/>
<line y1="-1" x2="332.811" y2="-1" transform="matrix(0.483429 -0.875384 -0.875384 -0.483429 145.847 203.033)" stroke="url(#paint24_linear)" stroke-width="2"/>
<line y1="-1" x2="332.811" y2="-1" transform="matrix(0.483429 -0.875384 -0.875384 -0.483429 154.601 207.867)" stroke="url(#paint25_linear)" stroke-width="2"/>
<line y1="-1" x2="332.811" y2="-1" transform="matrix(0.483429 -0.875384 -0.875384 -0.483429 163.354 212.701)" stroke="url(#paint26_linear)" stroke-width="2"/>
<line y1="-1" x2="332.811" y2="-1" transform="matrix(0.483429 -0.875384 -0.875384 -0.483429 172.108 217.536)" stroke="url(#paint27_linear)" stroke-width="2"/>
<line y1="-1" x2="332.811" y2="-1" transform="matrix(0.483429 -0.875384 -0.875384 -0.483429 180.862 222.37)" stroke="url(#paint28_linear)" stroke-width="2"/>
<line y1="-1" x2="332.811" y2="-1" transform="matrix(0.483429 -0.875384 -0.875384 -0.483429 189.616 227.204)" stroke="url(#paint29_linear)" stroke-width="2"/>
<line y1="-1" x2="332.811" y2="-1" transform="matrix(0.483429 -0.875384 -0.875384 -0.483429 198.37 232.038)" stroke="url(#paint30_linear)" stroke-width="2"/>
<line y1="-1" x2="332.811" y2="-1" transform="matrix(0.483429 -0.875384 -0.875384 -0.483429 207.124 236.873)" stroke="url(#paint31_linear)" stroke-width="2"/>
<line y1="-1" x2="332.811" y2="-1" transform="matrix(0.483429 -0.875384 -0.875384 -0.483429 215.878 241.707)" stroke="url(#paint32_linear)" stroke-width="2"/>
<line y1="-1" x2="332.811" y2="-1" transform="matrix(0.483429 -0.875384 -0.875384 -0.483429 224.631 246.541)" stroke="url(#paint33_linear)" stroke-width="2"/>
<line y1="-1" x2="332.811" y2="-1" transform="matrix(0.483429 -0.875384 -0.875384 -0.483429 233.385 251.376)" stroke="url(#paint34_linear)" stroke-width="2"/>
<line y1="-1" x2="332.811" y2="-1" transform="matrix(0.483429 -0.875384 -0.875384 -0.483429 242.139 256.21)" stroke="url(#paint35_linear)" stroke-width="2"/>
<line y1="-1" x2="332.811" y2="-1" transform="matrix(0.483429 -0.875384 -0.875384 -0.483429 250.893 261.044)" stroke="url(#paint36_linear)" stroke-width="2"/>
<line y1="-1" x2="332.811" y2="-1" transform="matrix(0.483429 -0.875384 -0.875384 -0.483429 259.647 265.878)" stroke="url(#paint37_linear)" stroke-width="2"/>
<line y1="-1" x2="332.811" y2="-1" transform="matrix(0.483429 -0.875384 -0.875384 -0.483429 268.401 270.713)" stroke="url(#paint38_linear)" stroke-width="2"/>
<line y1="-1" x2="332.811" y2="-1" transform="matrix(0.483429 -0.875384 -0.875384 -0.483429 277.154 275.547)" stroke="url(#paint39_linear)" stroke-width="2"/>
<line y1="-1" x2="332.811" y2="-1" transform="matrix(0.483429 -0.875384 -0.875384 -0.483429 285.908 280.381)" stroke="url(#paint40_linear)" stroke-width="2"/>
</g>
</g>
<defs>
<linearGradient id="paint0_linear" x1="332.811" y1="-0.00381211" x2="-5.71038e-10" y2="-5.05233e-05" gradientUnits="userSpaceOnUse">
<stop stop-color="#F6AE42"/>
<stop offset="1" stop-color="#F6AE42" stop-opacity="0"/>
</linearGradient>
<linearGradient id="paint1_linear" x1="332.811" y1="-0.00381211" x2="-5.71038e-10" y2="-5.05233e-05" gradientUnits="userSpaceOnUse">
<stop stop-color="#F6AE42"/>
<stop offset="1" stop-color="#F6AE42" stop-opacity="0"/>
</linearGradient>
<linearGradient id="paint2_linear" x1="332.811" y1="-0.00381211" x2="-5.71038e-10" y2="-5.05233e-05" gradientUnits="userSpaceOnUse">
<stop stop-color="#F6AE42"/>
<stop offset="1" stop-color="#F6AE42" stop-opacity="0"/>
</linearGradient>
<linearGradient id="paint3_linear" x1="332.811" y1="-0.00381211" x2="-5.71038e-10" y2="-5.05233e-05" gradientUnits="userSpaceOnUse">
<stop stop-color="#F6AE42"/>
<stop offset="1" stop-color="#F6AE42" stop-opacity="0"/>
</linearGradient>
<linearGradient id="paint4_linear" x1="332.811" y1="-0.00381211" x2="-5.71038e-10" y2="-5.05233e-05" gradientUnits="userSpaceOnUse">
<stop stop-color="#F6AE42"/>
<stop offset="1" stop-color="#F6AE42" stop-opacity="0"/>
</linearGradient>
<linearGradient id="paint5_linear" x1="332.811" y1="-0.00381211" x2="-5.71038e-10" y2="-5.05233e-05" gradientUnits="userSpaceOnUse">
<stop stop-color="#F6AE42"/>
<stop offset="1" stop-color="#F6AE42" stop-opacity="0"/>
</linearGradient>
<linearGradient id="paint6_linear" x1="332.811" y1="-0.00381211" x2="-5.71038e-10" y2="-5.05233e-05" gradientUnits="userSpaceOnUse">
<stop stop-color="#F6AE42"/>
<stop offset="1" stop-color="#F6AE42" stop-opacity="0"/>
</linearGradient>
<linearGradient id="paint7_linear" x1="332.811" y1="-0.00381211" x2="-5.71038e-10" y2="-5.05233e-05" gradientUnits="userSpaceOnUse">
<stop stop-color="#F6AE42"/>
<stop offset="1" stop-color="#F6AE42" stop-opacity="0"/>
</linearGradient>
<linearGradient id="paint8_linear" x1="332.811" y1="-0.00381211" x2="-5.71038e-10" y2="-5.05233e-05" gradientUnits="userSpaceOnUse">
<stop stop-color="#F6AE42"/>
<stop offset="1" stop-color="#F6AE42" stop-opacity="0"/>
</linearGradient>
<linearGradient id="paint9_linear" x1="332.811" y1="-0.00381211" x2="-5.71038e-10" y2="-5.05233e-05" gradientUnits="userSpaceOnUse">
<stop stop-color="#F6AE42"/>
<stop offset="1" stop-color="#F6AE42" stop-opacity="0"/>
</linearGradient>
<linearGradient id="paint10_linear" x1="332.811" y1="-0.00381211" x2="-5.71038e-10" y2="-5.05233e-05" gradientUnits="userSpaceOnUse">
<stop stop-color="#F6AE42"/>
<stop offset="1" stop-color="#F6AE42" stop-opacity="0"/>
</linearGradient>
<linearGradient id="paint11_linear" x1="332.811" y1="-0.00381211" x2="-5.71038e-10" y2="-5.05233e-05" gradientUnits="userSpaceOnUse">
<stop stop-color="#F6AE42"/>
<stop offset="1" stop-color="#F6AE42" stop-opacity="0"/>
</linearGradient>
<linearGradient id="paint12_linear" x1="332.811" y1="-0.00381211" x2="-5.71038e-10" y2="-5.05233e-05" gradientUnits="userSpaceOnUse">
<stop stop-color="#F6AE42"/>
<stop offset="1" stop-color="#F6AE42" stop-opacity="0"/>
</linearGradient>
<linearGradient id="paint13_linear" x1="332.811" y1="-0.00381211" x2="-5.71038e-10" y2="-5.05233e-05" gradientUnits="userSpaceOnUse">
<stop stop-color="#F6AE42"/>
<stop offset="1" stop-color="#F6AE42" stop-opacity="0"/>
</linearGradient>
<linearGradient id="paint14_linear" x1="332.811" y1="-0.00381211" x2="-5.71038e-10" y2="-5.05233e-05" gradientUnits="userSpaceOnUse">
<stop stop-color="#F6AE42"/>
<stop offset="1" stop-color="#F6AE42" stop-opacity="0"/>
</linearGradient>
<linearGradient id="paint15_linear" x1="332.811" y1="-0.00381211" x2="-5.71038e-10" y2="-5.05233e-05" gradientUnits="userSpaceOnUse">
<stop stop-color="#F6AE42"/>
<stop offset="1" stop-color="#F6AE42" stop-opacity="0"/>
</linearGradient>
<linearGradient id="paint16_linear" x1="332.811" y1="-0.00381211" x2="-5.71038e-10" y2="-5.05233e-05" gradientUnits="userSpaceOnUse">
<stop stop-color="#F6AE42"/>
<stop offset="1" stop-color="#F6AE42" stop-opacity="0"/>
</linearGradient>
<linearGradient id="paint17_linear" x1="332.811" y1="-0.00381211" x2="-5.71038e-10" y2="-5.05233e-05" gradientUnits="userSpaceOnUse">
<stop stop-color="#F6AE42"/>
<stop offset="1" stop-color="#F6AE42" stop-opacity="0"/>
</linearGradient>
<linearGradient id="paint18_linear" x1="332.811" y1="-0.00381211" x2="-5.71038e-10" y2="-5.05233e-05" gradientUnits="userSpaceOnUse">
<stop stop-color="#F6AE42"/>
<stop offset="1" stop-color="#F6AE42" stop-opacity="0"/>
</linearGradient>
<linearGradient id="paint19_linear" x1="332.811" y1="-0.00381211" x2="-5.71038e-10" y2="-5.05233e-05" gradientUnits="userSpaceOnUse">
<stop stop-color="#F6AE42"/>
<stop offset="1" stop-color="#F6AE42" stop-opacity="0"/>
</linearGradient>
<linearGradient id="paint20_linear" x1="332.811" y1="-0.00381211" x2="-5.71038e-10" y2="-5.05233e-05" gradientUnits="userSpaceOnUse">
<stop stop-color="#F6AE42"/>
<stop offset="1" stop-color="#F6AE42" stop-opacity="0"/>
</linearGradient>
<linearGradient id="paint21_linear" x1="332.811" y1="-0.00381211" x2="-5.71038e-10" y2="-5.05233e-05" gradientUnits="userSpaceOnUse">
<stop stop-color="#F6AE42"/>
<stop offset="1" stop-color="#F6AE42" stop-opacity="0"/>
</linearGradient>
<linearGradient id="paint22_linear" x1="332.811" y1="-0.00381211" x2="-5.71038e-10" y2="-5.05233e-05" gradientUnits="userSpaceOnUse">
<stop stop-color="#F6AE42"/>
<stop offset="1" stop-color="#F6AE42" stop-opacity="0"/>
</linearGradient>
<linearGradient id="paint23_linear" x1="332.811" y1="-0.00381211" x2="-5.71038e-10" y2="-5.05233e-05" gradientUnits="userSpaceOnUse">
<stop stop-color="#F6AE42"/>
<stop offset="1" stop-color="#F6AE42" stop-opacity="0"/>
</linearGradient>
<linearGradient id="paint24_linear" x1="332.811" y1="-0.00381211" x2="-5.71038e-10" y2="-5.05233e-05" gradientUnits="userSpaceOnUse">
<stop stop-color="#F6AE42"/>
<stop offset="1" stop-color="#F6AE42" stop-opacity="0"/>
</linearGradient>
<linearGradient id="paint25_linear" x1="332.811" y1="-0.00381211" x2="-5.71038e-10" y2="-5.05233e-05" gradientUnits="userSpaceOnUse">
<stop stop-color="#F6AE42"/>
<stop offset="1" stop-color="#F6AE42" stop-opacity="0"/>
</linearGradient>
<linearGradient id="paint26_linear" x1="332.811" y1="-0.00381211" x2="-5.71038e-10" y2="-5.05233e-05" gradientUnits="userSpaceOnUse">
<stop stop-color="#F6AE42"/>
<stop offset="1" stop-color="#F6AE42" stop-opacity="0"/>
</linearGradient>
<linearGradient id="paint27_linear" x1="332.811" y1="-0.00381211" x2="-5.71038e-10" y2="-5.05233e-05" gradientUnits="userSpaceOnUse">
<stop stop-color="#F6AE42"/>
<stop offset="1" stop-color="#F6AE42" stop-opacity="0"/>
</linearGradient>
<linearGradient id="paint28_linear" x1="332.811" y1="-0.00381211" x2="-5.71038e-10" y2="-5.05233e-05" gradientUnits="userSpaceOnUse">
<stop stop-color="#F6AE42"/>
<stop offset="1" stop-color="#F6AE42" stop-opacity="0"/>
</linearGradient>
<linearGradient id="paint29_linear" x1="332.811" y1="-0.00381211" x2="-5.71038e-10" y2="-5.05233e-05" gradientUnits="userSpaceOnUse">
<stop stop-color="#F6AE42"/>
<stop offset="1" stop-color="#F6AE42" stop-opacity="0"/>
</linearGradient>
<linearGradient id="paint30_linear" x1="332.811" y1="-0.00381211" x2="-5.71038e-10" y2="-5.05233e-05" gradientUnits="userSpaceOnUse">
<stop stop-color="#F6AE42"/>
<stop offset="1" stop-color="#F6AE42" stop-opacity="0"/>
</linearGradient>
<linearGradient id="paint31_linear" x1="332.811" y1="-0.00381211" x2="-5.71038e-10" y2="-5.05233e-05" gradientUnits="userSpaceOnUse">
<stop stop-color="#F6AE42"/>
<stop offset="1" stop-color="#F6AE42" stop-opacity="0"/>
</linearGradient>
<linearGradient id="paint32_linear" x1="332.811" y1="-0.00381211" x2="-5.71038e-10" y2="-5.05233e-05" gradientUnits="userSpaceOnUse">
<stop stop-color="#F6AE42"/>
<stop offset="1" stop-color="#F6AE42" stop-opacity="0"/>
</linearGradient>
<linearGradient id="paint33_linear" x1="332.811" y1="-0.00381211" x2="-5.71038e-10" y2="-5.05233e-05" gradientUnits="userSpaceOnUse">
<stop stop-color="#F6AE42"/>
<stop offset="1" stop-color="#F6AE42" stop-opacity="0"/>
</linearGradient>
<linearGradient id="paint34_linear" x1="332.811" y1="-0.00381211" x2="-5.71038e-10" y2="-5.05233e-05" gradientUnits="userSpaceOnUse">
<stop stop-color="#F6AE42"/>
<stop offset="1" stop-color="#F6AE42" stop-opacity="0"/>
</linearGradient>
<linearGradient id="paint35_linear" x1="332.811" y1="-0.00381211" x2="-5.71038e-10" y2="-5.05233e-05" gradientUnits="userSpaceOnUse">
<stop stop-color="#F6AE42"/>
<stop offset="1" stop-color="#F6AE42" stop-opacity="0"/>
</linearGradient>
<linearGradient id="paint36_linear" x1="332.811" y1="-0.00381211" x2="-5.71038e-10" y2="-5.05233e-05" gradientUnits="userSpaceOnUse">
<stop stop-color="#F6AE42"/>
<stop offset="1" stop-color="#F6AE42" stop-opacity="0"/>
</linearGradient>
<linearGradient id="paint37_linear" x1="332.811" y1="-0.00381211" x2="-5.71038e-10" y2="-5.05233e-05" gradientUnits="userSpaceOnUse">
<stop stop-color="#F6AE42"/>
<stop offset="1" stop-color="#F6AE42" stop-opacity="0"/>
</linearGradient>
<linearGradient id="paint38_linear" x1="332.811" y1="-0.00381211" x2="-5.71038e-10" y2="-5.05233e-05" gradientUnits="userSpaceOnUse">
<stop stop-color="#F6AE42"/>
<stop offset="1" stop-color="#F6AE42" stop-opacity="0"/>
</linearGradient>
<linearGradient id="paint39_linear" x1="332.811" y1="-0.00381211" x2="-5.71038e-10" y2="-5.05233e-05" gradientUnits="userSpaceOnUse">
<stop stop-color="#F6AE42"/>
<stop offset="1" stop-color="#F6AE42" stop-opacity="0"/>
</linearGradient>
<linearGradient id="paint40_linear" x1="332.811" y1="-0.00381211" x2="-5.71038e-10" y2="-5.05233e-05" gradientUnits="userSpaceOnUse">
<stop stop-color="#F6AE42"/>
<stop offset="1" stop-color="#F6AE42" stop-opacity="0"/>
</linearGradient>
</defs>
</svg>
