<?xml version="1.0" encoding="UTF-8"?>
<svg width="48px" height="16px" viewBox="0 0 48 16" version="1.1" xmlns="http://www.w3.org/2000/svg" xmlns:xlink="http://www.w3.org/1999/xlink">
    <title>Mileage?</title>
    <g id="Entry-Points" stroke="none" stroke-width="1" fill="none" fill-rule="evenodd" opacity="0.8">
        <g id="Mobile-Recommender-Entry-Points-V2" transform="translate(-290.000000, -300.000000)" fill="#9E9E9E" fill-rule="nonzero">
            <g id="Group-8" transform="translate(0.000000, 290.000000)">
                <g id="Group-9-Copy" transform="translate(314.448174, 19.108514) rotate(-8.000000) translate(-314.448174, -19.108514) translate(290.448174, 13.108514)">
                    <path d="M2.14959281,9.47591089 L2.14959281,6.66341089 L2.00310844,2.90755152 L4.51678031,9.47591089 L5.57732719,9.47591089 L8.09685844,2.90169214 L7.95037406,6.66341089 L7.95037406,9.47591089 L9.42693656,9.47591089 L9.42693656,0.94466089 L7.51092094,0.94466089 L5.05584281,7.48372339 L2.59490531,0.94466089 L0.673030312,0.94466089 L0.673030312,9.47591089 L2.14959281,9.47591089 Z M11.8468584,2.23958277 C12.1046709,2.23958277 12.3038897,2.1682937 12.4445147,2.02571558 C12.5851397,1.88313745 12.6554522,1.70442652 12.6554522,1.48958277 C12.6554522,1.27083277 12.5851397,1.08919214 12.4445147,0.94466089 C12.3038897,0.80012964 12.1046709,0.727864015 11.8468584,0.727864015 C11.5890459,0.727864015 11.3908037,0.80012964 11.2521319,0.94466089 C11.11346,1.08919214 11.0441241,1.27083277 11.0441241,1.48958277 C11.0441241,1.70442652 11.11346,1.88313745 11.2521319,2.02571558 C11.3908037,2.1682937 11.5890459,2.23958277 11.8468584,2.23958277 Z M12.5558428,9.47591089 L12.5558428,3.13606714 L11.1320147,3.13606714 L11.1320147,9.47591089 L12.5558428,9.47591089 Z M15.6202959,9.47591089 L15.6202959,0.47591089 L14.1964678,0.47591089 L14.1964678,9.47591089 L15.6202959,9.47591089 Z M19.9620928,9.59309839 C20.4894366,9.59309839 20.9650225,9.4886062 21.3888506,9.27962183 C21.8126787,9.07063745 22.1515459,8.77669214 22.4054522,8.39778589 L22.4054522,8.39778589 L21.6378741,7.66536402 C21.2277178,8.19270777 20.6964678,8.45637964 20.0441241,8.45637964 C19.5792803,8.45637964 19.1935381,8.30403589 18.8868975,7.99934839 C18.5802569,7.69466089 18.4054522,7.28059839 18.3624834,6.75716089 L18.3624834,6.75716089 L22.5050616,6.75716089 L22.5050616,6.18294214 C22.5050616,5.17512964 22.26971,4.39583277 21.7990069,3.84505152 C21.3283037,3.29427027 20.6613116,3.01887964 19.7980303,3.01887964 C19.2550616,3.01887964 18.7628741,3.15755152 18.3214678,3.43489527 C17.8800616,3.71223902 17.5372881,4.09993433 17.2931475,4.5979812 C17.0490069,5.09602808 16.9269366,5.66145777 16.9269366,6.29427027 L16.9269366,6.29427027 L16.9269366,6.47005152 C16.9269366,7.41536402 17.20721,8.17219995 17.7677569,8.74055933 C18.3283037,9.3089187 19.0597491,9.59309839 19.9620928,9.59309839 Z M21.0988116,5.71419214 L18.3859209,5.71419214 C18.4523272,5.22591089 18.6056475,4.84505152 18.8458819,4.57161402 C19.0861162,4.29817652 19.4015459,4.16145777 19.7921709,4.16145777 C20.1867022,4.16145777 20.4952959,4.28352808 20.7179522,4.5276687 C20.9406084,4.77180933 21.0675616,5.13216089 21.0988116,5.60872339 L21.0988116,5.60872339 L21.0988116,5.71419214 Z M25.5695147,9.59309839 C26.2257647,9.59309839 26.7804522,9.35677027 27.2335772,8.88411402 C27.2804522,9.15755152 27.3351397,9.35481714 27.3976397,9.47591089 L27.3976397,9.47591089 L28.8507647,9.47591089 L28.8507647,9.37630152 C28.6906084,9.03645777 28.6105303,8.58137964 28.6105303,8.01106714 L28.6105303,8.01106714 L28.6105303,5.15169214 C28.5988116,4.47591089 28.3722491,3.95149683 27.9308428,3.57844995 C27.4894366,3.20540308 26.8976397,3.01887964 26.1554522,3.01887964 C25.6671709,3.01887964 25.2247881,3.10481714 24.8283037,3.27669214 C24.4318194,3.44856714 24.1183428,3.68587183 23.8878741,3.9886062 C23.6574053,4.29134058 23.5421709,4.61653589 23.5421709,4.96419214 L23.5421709,4.96419214 L24.9659991,4.96419214 C24.9659991,4.71419214 25.0695147,4.50813745 25.2765459,4.34602808 C25.4835772,4.1839187 25.7492022,4.10286402 26.0734209,4.10286402 C26.4484209,4.10286402 26.7277178,4.20149683 26.9113116,4.39876245 C27.0949053,4.59602808 27.1867022,4.85872339 27.1867022,5.18684839 L27.1867022,5.18684839 L27.1867022,5.60286402 L26.3136553,5.60286402 C25.3800616,5.60286402 24.6622881,5.78352808 24.160335,6.1448562 C23.6583819,6.50618433 23.4074053,7.02473902 23.4074053,7.70052027 C23.4074053,8.23567652 23.6085772,8.68489527 24.0109209,9.04817652 C24.4132647,9.41145777 24.9327959,9.59309839 25.5695147,9.59309839 Z M25.8331866,8.45052027 C25.5284991,8.45052027 25.285335,8.36946558 25.1036944,8.2073562 C24.9220537,8.04524683 24.8312334,7.82747339 24.8312334,7.55403589 C24.8312334,7.21809839 24.9640459,6.95833277 25.2296709,6.77473902 C25.4952959,6.59114527 25.8917803,6.49934839 26.4191241,6.49934839 L26.4191241,6.49934839 L27.1867022,6.49934839 L27.1867022,7.69466089 C27.0617022,7.92512964 26.8751787,8.10872339 26.6271319,8.24544214 C26.379085,8.38216089 26.1144366,8.45052027 25.8331866,8.45052027 Z M32.5714678,11.9720046 C33.4503741,11.9720046 34.1486162,11.7317703 34.6661944,11.2513015 C35.1837725,10.7708328 35.4425616,10.1145828 35.4425616,9.28255152 L35.4425616,9.28255152 L35.4425616,3.13606714 L34.1593584,3.13606714 L34.0949053,3.77473902 C33.6808428,3.27083277 33.1124834,3.01887964 32.3898272,3.01887964 C31.6242022,3.01887964 31.0099444,3.31282495 30.5470537,3.90071558 C30.0841631,4.4886062 29.8527178,5.27473902 29.8527178,6.25911402 C29.8527178,7.30208277 30.0880694,8.11848902 30.5587725,8.70833277 C31.0294756,9.29817652 31.6359209,9.59309839 32.3781084,9.59309839 C33.0617022,9.59309839 33.6085772,9.36458277 34.0187334,8.90755152 L34.0187334,8.90755152 L34.0187334,9.33528589 C34.0187334,9.83137964 33.8820147,10.2073562 33.6085772,10.4632156 C33.3351397,10.719075 32.9620928,10.8470046 32.4894366,10.8470046 C31.8488116,10.8470046 31.3097491,10.587239 30.8722491,10.0677078 L30.8722491,10.0677078 L30.1984209,10.9231765 C30.4288897,11.2356765 30.7658037,11.4886062 31.2091631,11.6819656 C31.6525225,11.875325 32.1066241,11.9720046 32.5714678,11.9720046 Z M32.7413897,8.43294214 C32.2804522,8.43294214 31.9201006,8.25032495 31.660335,7.88509058 C31.4005694,7.5198562 31.2706866,7.01887964 31.2706866,6.38216089 C31.2706866,5.65950464 31.4005694,5.11262964 31.660335,4.74153589 C31.9201006,4.37044214 32.2843584,4.18489527 32.7531084,4.18489527 C33.3273272,4.18489527 33.7492022,4.42512964 34.0187334,4.90559839 L34.0187334,4.90559839 L34.0187334,7.69466089 C33.7413897,8.18684839 33.3156084,8.43294214 32.7413897,8.43294214 Z M39.6964678,9.59309839 C40.2238116,9.59309839 40.6993975,9.4886062 41.1232256,9.27962183 C41.5470537,9.07063745 41.8859209,8.77669214 42.1398272,8.39778589 L42.1398272,8.39778589 L41.3722491,7.66536402 C40.9620928,8.19270777 40.4308428,8.45637964 39.7784991,8.45637964 C39.3136553,8.45637964 38.9279131,8.30403589 38.6212725,7.99934839 C38.3146319,7.69466089 38.1398272,7.28059839 38.0968584,6.75716089 L38.0968584,6.75716089 L42.2394366,6.75716089 L42.2394366,6.18294214 C42.2394366,5.17512964 42.004085,4.39583277 41.5333819,3.84505152 C41.0626787,3.29427027 40.3956866,3.01887964 39.5324053,3.01887964 C38.9894366,3.01887964 38.4972491,3.15755152 38.0558428,3.43489527 C37.6144366,3.71223902 37.2716631,4.09993433 37.0275225,4.5979812 C36.7833819,5.09602808 36.6613116,5.66145777 36.6613116,6.29427027 L36.6613116,6.29427027 L36.6613116,6.47005152 C36.6613116,7.41536402 36.941585,8.17219995 37.5021319,8.74055933 C38.0626787,9.3089187 38.7941241,9.59309839 39.6964678,9.59309839 Z M40.8331866,5.71419214 L38.1202959,5.71419214 C38.1867022,5.22591089 38.3400225,4.84505152 38.5802569,4.57161402 C38.8204912,4.29817652 39.1359209,4.16145777 39.5265459,4.16145777 C39.9210772,4.16145777 40.2296709,4.28352808 40.4523272,4.5276687 C40.6749834,4.77180933 40.8019366,5.13216089 40.8331866,5.60872339 L40.8331866,5.60872339 L40.8331866,5.71419214 Z M45.9952959,6.96809839 C46.0031084,6.40559839 46.1359209,5.97786402 46.3937334,5.68489527 L46.3937334,5.68489527 L47.1144366,4.97591089 C47.7081866,4.35872339 48.0050616,3.73177027 48.0050616,3.09505152 C48.0050616,2.38020777 47.785335,1.82356714 47.3458819,1.42512964 C46.9064287,1.02669214 46.2941241,0.82747339 45.5089678,0.82747339 C44.7472491,0.82747339 44.1349444,1.02864527 43.6720537,1.43098902 C43.2091631,1.83333277 42.9738116,2.38020777 42.9659991,3.07161402 L42.9659991,3.07161402 L44.3898272,3.07161402 C44.3898272,2.74739527 44.4923662,2.49055933 44.6974444,2.3011062 C44.9025225,2.11165308 45.1730303,2.01692652 45.5089678,2.01692652 C45.8605303,2.01692652 46.1271319,2.1136062 46.3087725,2.30696558 C46.4904131,2.50032495 46.5812334,2.78059839 46.5812334,3.14778589 C46.5812334,3.42512964 46.5031084,3.68294214 46.3468584,3.92122339 C46.2452959,4.07747339 46.004085,4.3401687 45.6232256,4.70930933 C45.2423662,5.07844995 44.9874834,5.41731714 44.8585772,5.72591089 C44.7296709,6.03450464 44.6652178,6.44856714 44.6652178,6.96809839 L44.6652178,6.96809839 L45.9952959,6.96809839 Z M45.3683428,9.54622339 C45.6261553,9.54622339 45.8253741,9.47395777 45.9659991,9.32942652 C46.1066241,9.18489527 46.1769366,9.00520777 46.1769366,8.79036402 C46.1769366,8.56770777 46.1046709,8.38313745 45.9601397,8.23665308 C45.8156084,8.0901687 45.6183428,8.01692652 45.3683428,8.01692652 C45.1222491,8.01692652 44.9269366,8.08821558 44.7824053,8.2307937 C44.6378741,8.37337183 44.5656084,8.55989527 44.5656084,8.79036402 C44.5656084,9.00520777 44.6349444,9.18489527 44.7736162,9.32942652 C44.9122881,9.47395777 45.1105303,9.54622339 45.3683428,9.54622339 Z" id="Mileage?"></path>
                </g>
            </g>
        </g>
    </g>
</svg>