<?xml version="1.0" encoding="UTF-8"?>
<svg width="25px" height="25px" viewBox="0 0 25 25" version="1.1" xmlns="http://www.w3.org/2000/svg" xmlns:xlink="http://www.w3.org/1999/xlink">
    <title>Shape</title>
    <g id="Online-Booking-Inventory-Designs-FINAL-8-may-2020" stroke="none" stroke-width="1" fill="none" fill-rule="evenodd" opacity="0.75">
        <path d="M12.0689655,0 C5.41197822,0 0,5.41197822 0,12.0689655 C0,18.7259528 5.41197822,24.137931 12.0689655,24.137931 C18.7259528,24.137931 24.137931,18.7259528 24.137931,12.0689655 C24.137931,5.41197822 18.7259528,0 12.0689655,0 Z M2.56624319,8.05444646 C4.1415608,4.34482759 7.80036298,1.75317604 12.0689655,1.75317604 C16.3375681,1.75317604 19.9963702,4.34482759 21.5716878,8.05444646 C21.876588,8.79128857 21.2667877,9.60435572 20.4791289,9.52813067 C19.0816697,9.42649728 17.6842105,9.35027223 16.2867514,9.29945554 C15.8548094,9.27404719 15.4482759,9.1215971 15.1433757,8.84210526 C14.3303085,8.13067151 13.2631579,7.69872958 12.0943739,7.69872958 C10.9255898,7.69872958 9.8584392,8.13067151 9.04537205,8.84210526 C8.71506352,9.1215971 8.30852995,9.29945554 7.90199637,9.29945554 C6.47912886,9.35027223 5.08166969,9.42649728 3.68421053,9.52813067 C2.87114338,9.60435572 2.26134301,8.79128857 2.56624319,8.05444646 Z M8.56261343,21.7749546 C5.13248639,20.5299456 2.54083485,17.5317604 1.90562613,13.8475499 C1.77858439,13.0344828 2.54083485,12.399274 3.32849365,12.6533575 C6.73321234,13.7967332 9.27404719,16.6932849 9.9092559,20.2250454 L9.9600726,20.5299456 C10.137931,21.3430127 9.35027223,22.0544465 8.56261343,21.7749546 Z M12.0689655,14.2540835 C11.0018149,14.2540835 10.1125227,13.3901996 10.1125227,12.2976407 C10.1125227,11.23049 10.9764065,10.3411978 12.0689655,10.3411978 C13.1615245,10.3411978 14.0254083,11.2050817 14.0254083,12.2976407 C14.0254083,13.3901996 13.1361162,14.2540835 12.0689655,14.2540835 Z M15.5753176,21.7749546 C14.7876588,22.0544465 14.0254083,21.3684211 14.1778584,20.5553539 L14.2286751,20.2504537 C14.8638838,16.6932849 17.4047187,13.7967332 20.8094374,12.6533575 C21.5716878,12.399274 22.3593466,13.0598911 22.2323049,13.8475499 C21.5970962,17.5317604 19.0054446,20.5299456 15.5753176,21.7749546 Z" id="Shape" fill="#007FFF"></path>
    </g>
</svg>