<svg width="63" height="135" viewBox="0 0 63 135" fill="none" xmlns="http://www.w3.org/2000/svg">
<mask id="mask0" mask-type="alpha" maskUnits="userSpaceOnUse" x="4" y="0" width="59" height="135">
<rect x="4" width="59" height="135" fill="white"/>
</mask>
<g mask="url(#mask0)">
<path fill-rule="evenodd" clip-rule="evenodd" d="M73.9999 8.14823C73.9999 6.9617 74.8953 5.99983 75.9999 5.99983C77.1045 5.99983 77.9999 6.9617 77.9999 8.14823C77.9999 9.33476 77.1045 10.2966 75.9999 10.2966C74.8953 10.2966 73.9999 9.33476 73.9999 8.14823ZM73.9999 18.8904C73.9999 17.7039 74.8953 16.742 75.9999 16.742C77.1045 16.742 77.9999 17.7039 77.9999 18.8904C77.9999 20.0769 77.1045 21.0388 75.9999 21.0388C74.8953 21.0388 73.9999 20.0769 73.9999 18.8904ZM73.9999 29.6325C73.9999 28.446 74.8953 27.4841 75.9999 27.4841C77.1045 27.4841 77.9999 28.446 77.9999 29.6325C77.9999 30.8191 77.1045 31.781 75.9999 31.781C74.8953 31.781 73.9999 30.8191 73.9999 29.6325ZM73.9999 40.3747C73.9999 39.1882 74.8953 38.2262 75.9999 38.2262C77.1045 38.2262 77.9999 39.1882 77.9999 40.3747C77.9999 41.5613 77.1045 42.5232 75.9999 42.5232C74.8953 42.5232 73.9999 41.5613 73.9999 40.3747ZM73.9999 51.1172C73.9999 49.9306 74.8953 48.9687 75.9999 48.9687C77.1045 48.9687 77.9999 49.9306 77.9999 51.1172C77.9999 52.3037 77.1045 53.2656 75.9999 53.2656C74.8953 53.2656 73.9999 52.3037 73.9999 51.1172ZM73.9999 61.8591C73.9999 60.6725 74.8953 59.7106 75.9999 59.7106C77.1045 59.7106 77.9999 60.6725 77.9999 61.8591C77.9999 63.0456 77.1045 64.0076 75.9999 64.0076C74.8953 64.0076 73.9999 63.0456 73.9999 61.8591ZM73.9999 72.6018C73.9999 71.4153 74.8953 70.4534 75.9999 70.4534C77.1045 70.4534 77.9999 71.4153 77.9999 72.6018C77.9999 73.7884 77.1045 74.7502 75.9999 74.7502C74.8953 74.7502 73.9999 73.7884 73.9999 72.6018ZM73.9999 83.344C73.9999 82.1574 74.8953 81.1955 75.9999 81.1955C77.1045 81.1955 77.9999 82.1574 77.9999 83.344C77.9999 84.5305 77.1045 85.4924 75.9999 85.4924C74.8953 85.4924 73.9999 84.5305 73.9999 83.344ZM73.9999 94.0857C73.9999 92.8992 74.8953 91.9373 75.9999 91.9373C77.1045 91.9373 77.9999 92.8992 77.9999 94.0857C77.9999 95.2723 77.1045 96.2341 75.9999 96.2341C74.8953 96.2341 73.9999 95.2723 73.9999 94.0857ZM73.9999 104.828C73.9999 103.642 74.8953 102.68 75.9999 102.68C77.1045 102.68 77.9999 103.642 77.9999 104.828C77.9999 106.015 77.1045 106.977 75.9999 106.977C74.8953 106.977 73.9999 106.015 73.9999 104.828ZM73.9999 115.57C73.9999 114.384 74.8953 113.422 75.9999 113.422C77.1045 113.422 77.9999 114.384 77.9999 115.57C77.9999 116.757 77.1045 117.719 75.9999 117.719C74.8953 117.719 73.9999 116.757 73.9999 115.57ZM73.9999 126.312C73.9999 125.126 74.8953 124.164 75.9999 124.164C77.1045 124.164 77.9999 125.126 77.9999 126.312C77.9999 127.499 77.1045 128.461 75.9999 128.461C74.8953 128.461 73.9999 127.499 73.9999 126.312ZM73.9999 137.055C73.9999 135.868 74.8953 134.907 75.9999 134.907C77.1045 134.907 77.9999 135.868 77.9999 137.055C77.9999 138.241 77.1045 139.203 75.9999 139.203C74.8953 139.203 73.9999 138.241 73.9999 137.055ZM73.9999 147.797C73.9999 146.611 74.8953 145.649 75.9999 145.649C77.1045 145.649 77.9999 146.611 77.9999 147.797C77.9999 148.984 77.1045 149.946 75.9999 149.946C74.8953 149.946 73.9999 148.984 73.9999 147.797ZM73.9999 158.539C73.9999 157.352 74.8953 156.39 75.9999 156.39C77.1045 156.39 77.9999 157.352 77.9999 158.539C77.9999 159.726 77.1045 160.688 75.9999 160.688C74.8953 160.688 73.9999 159.726 73.9999 158.539ZM73.9999 169.281C73.9999 168.095 74.8953 167.133 75.9999 167.133C77.1045 167.133 77.9999 168.095 77.9999 169.281C77.9999 170.468 77.1045 171.43 75.9999 171.43C74.8953 171.43 73.9999 170.468 73.9999 169.281ZM64 8.14823C64 6.9617 64.8954 5.99983 66 5.99983C67.1045 5.99983 68 6.9617 68 8.14823C68 9.33476 67.1045 10.2966 66 10.2966C64.8954 10.2966 64 9.33476 64 8.14823ZM64 169.281C64 168.095 64.8954 167.133 66 167.133C67.1045 167.133 68 168.095 68 169.281C68 170.468 67.1045 171.43 66 171.43C64.8954 171.43 64 170.468 64 169.281ZM64 158.539C64 157.352 64.8954 156.39 66 156.39C67.1045 156.39 68 157.352 68 158.539C68 159.726 67.1045 160.688 66 160.688C64.8954 160.688 64 159.726 64 158.539ZM64 147.797C64 146.611 64.8954 145.649 66 145.649C67.1045 145.649 68 146.611 68 147.797C68 148.984 67.1045 149.946 66 149.946C64.8954 149.946 64 148.984 64 147.797ZM64 137.055C64 135.868 64.8954 134.907 66 134.907C67.1045 134.907 68 135.868 68 137.055C68 138.241 67.1045 139.203 66 139.203C64.8954 139.203 64 138.241 64 137.055ZM64 126.312C64 125.126 64.8954 124.164 66 124.164C67.1045 124.164 68 125.126 68 126.312C68 127.499 67.1045 128.461 66 128.461C64.8954 128.461 64 127.499 64 126.312ZM64 115.57C64 114.384 64.8954 113.422 66 113.422C67.1045 113.422 68 114.384 68 115.57C68 116.757 67.1045 117.719 66 117.719C64.8954 117.719 64 116.757 64 115.57ZM64 104.828C64 103.642 64.8954 102.68 66 102.68C67.1045 102.68 68 103.642 68 104.828C68 106.015 67.1045 106.977 66 106.977C64.8954 106.977 64 106.015 64 104.828ZM64 94.0857C64 92.8992 64.8954 91.9373 66 91.9373C67.1045 91.9373 68 92.8992 68 94.0857C68 95.2723 67.1045 96.2341 66 96.2341C64.8954 96.2341 64 95.2723 64 94.0857ZM64 83.344C64 82.1574 64.8954 81.1955 66 81.1955C67.1045 81.1955 68 82.1574 68 83.344C68 84.5305 67.1045 85.4924 66 85.4924C64.8954 85.4924 64 84.5305 64 83.344ZM64 72.6018C64 71.4153 64.8954 70.4534 66 70.4534C67.1045 70.4534 68 71.4153 68 72.6018C68 73.7884 67.1045 74.7502 66 74.7502C64.8954 74.7502 64 73.7884 64 72.6018ZM64 61.8591C64 60.6725 64.8954 59.7106 66 59.7106C67.1045 59.7106 68 60.6725 68 61.8591C68 63.0456 67.1045 64.0076 66 64.0076C64.8954 64.0076 64 63.0456 64 61.8591ZM64 51.1172C64 49.9306 64.8954 48.9687 66 48.9687C67.1045 48.9687 68 49.9306 68 51.1172C68 52.3037 67.1045 53.2656 66 53.2656C64.8954 53.2656 64 52.3037 64 51.1172ZM64 40.3747C64 39.1882 64.8954 38.2262 66 38.2262C67.1045 38.2262 68 39.1882 68 40.3747C68 41.5613 67.1045 42.5232 66 42.5232C64.8954 42.5232 64 41.5613 64 40.3747ZM64 29.6325C64 28.446 64.8954 27.4841 66 27.4841C67.1045 27.4841 68 28.446 68 29.6325C68 30.8191 67.1045 31.781 66 31.781C64.8954 31.781 64 30.8191 64 29.6325ZM64 18.8904C64 17.7039 64.8954 16.742 66 16.742C67.1045 16.742 68 17.7039 68 18.8904C68 20.0769 67.1045 21.0388 66 21.0388C64.8954 21.0388 64 20.0769 64 18.8904ZM54 169.281C54 168.095 54.8955 167.133 56 167.133C57.1046 167.133 58 168.095 58 169.281C58 170.468 57.1046 171.43 56 171.43C54.8955 171.43 54 170.468 54 169.281ZM54 18.8904C54 17.7039 54.8955 16.742 56 16.742C57.1046 16.742 58 17.7039 58 18.8904C58 20.0769 57.1046 21.0388 56 21.0388C54.8955 21.0388 54 20.0769 54 18.8904ZM54 158.539C54 157.352 54.8955 156.39 56 156.39C57.1046 156.39 58 157.352 58 158.539C58 159.726 57.1046 160.688 56 160.688C54.8955 160.688 54 159.726 54 158.539ZM54 147.797C54 146.611 54.8955 145.649 56 145.649C57.1046 145.649 58 146.611 58 147.797C58 148.984 57.1046 149.946 56 149.946C54.8955 149.946 54 148.984 54 147.797ZM54 137.055C54 135.868 54.8955 134.907 56 134.907C57.1046 134.907 58 135.868 58 137.055C58 138.241 57.1046 139.203 56 139.203C54.8955 139.203 54 138.241 54 137.055ZM54 126.312C54 125.126 54.8955 124.164 56 124.164C57.1046 124.164 58 125.126 58 126.312C58 127.499 57.1046 128.461 56 128.461C54.8955 128.461 54 127.499 54 126.312ZM54 115.57C54 114.384 54.8955 113.422 56 113.422C57.1046 113.422 58 114.384 58 115.57C58 116.757 57.1046 117.719 56 117.719C54.8955 117.719 54 116.757 54 115.57ZM54 104.828C54 103.642 54.8955 102.68 56 102.68C57.1046 102.68 58 103.642 58 104.828C58 106.015 57.1046 106.977 56 106.977C54.8955 106.977 54 106.015 54 104.828ZM54 8.14823C54 6.9617 54.8955 5.99983 56 5.99983C57.1046 5.99983 58 6.9617 58 8.14823C58 9.33476 57.1046 10.2966 56 10.2966C54.8955 10.2966 54 9.33476 54 8.14823ZM54 94.0857C54 92.8992 54.8955 91.9373 56 91.9373C57.1046 91.9373 58 92.8992 58 94.0857C58 95.2723 57.1046 96.2341 56 96.2341C54.8955 96.2341 54 95.2723 54 94.0857ZM54 83.344C54 82.1574 54.8955 81.1955 56 81.1955C57.1046 81.1955 58 82.1574 58 83.344C58 84.5305 57.1046 85.4924 56 85.4924C54.8955 85.4924 54 84.5305 54 83.344ZM54 72.6018C54 71.4153 54.8955 70.4534 56 70.4534C57.1046 70.4534 58 71.4153 58 72.6018C58 73.7884 57.1046 74.7502 56 74.7502C54.8955 74.7502 54 73.7884 54 72.6018ZM54 61.8591C54 60.6725 54.8955 59.7106 56 59.7106C57.1046 59.7106 58 60.6725 58 61.8591C58 63.0456 57.1046 64.0076 56 64.0076C54.8955 64.0076 54 63.0456 54 61.8591ZM54 51.1172C54 49.9306 54.8955 48.9687 56 48.9687C57.1046 48.9687 58 49.9306 58 51.1172C58 52.3037 57.1046 53.2656 56 53.2656C54.8955 53.2656 54 52.3037 54 51.1172ZM54 40.3747C54 39.1882 54.8955 38.2262 56 38.2262C57.1046 38.2262 58 39.1882 58 40.3747C58 41.5613 57.1046 42.5232 56 42.5232C54.8955 42.5232 54 41.5613 54 40.3747ZM54 29.6325C54 28.446 54.8955 27.4841 56 27.4841C57.1046 27.4841 58 28.446 58 29.6325C58 30.8191 57.1046 31.781 56 31.781C54.8955 31.781 54 30.8191 54 29.6325ZM44.0001 8.14823C44.0001 6.9617 44.8955 5.99983 46.0001 5.99983C47.1047 5.99983 48.0001 6.9617 48.0001 8.14823C48.0001 9.33476 47.1047 10.2966 46.0001 10.2966C44.8955 10.2966 44.0001 9.33476 44.0001 8.14823ZM44.0001 169.281C44.0001 168.095 44.8955 167.133 46.0001 167.133C47.1047 167.133 48.0001 168.095 48.0001 169.281C48.0001 170.468 47.1047 171.43 46.0001 171.43C44.8955 171.43 44.0001 170.468 44.0001 169.281ZM44.0001 29.6325C44.0001 28.446 44.8955 27.4841 46.0001 27.4841C47.1047 27.4841 48.0001 28.446 48.0001 29.6325C48.0001 30.8191 47.1047 31.781 46.0001 31.781C44.8955 31.781 44.0001 30.8191 44.0001 29.6325ZM44.0001 40.3747C44.0001 39.1882 44.8955 38.2262 46.0001 38.2262C47.1047 38.2262 48.0001 39.1882 48.0001 40.3747C48.0001 41.5613 47.1047 42.5232 46.0001 42.5232C44.8955 42.5232 44.0001 41.5613 44.0001 40.3747ZM44.0001 51.1172C44.0001 49.9306 44.8955 48.9687 46.0001 48.9687C47.1047 48.9687 48.0001 49.9306 48.0001 51.1172C48.0001 52.3037 47.1047 53.2656 46.0001 53.2656C44.8955 53.2656 44.0001 52.3037 44.0001 51.1172ZM44.0001 61.8591C44.0001 60.6725 44.8955 59.7106 46.0001 59.7106C47.1047 59.7106 48.0001 60.6725 48.0001 61.8591C48.0001 63.0456 47.1047 64.0076 46.0001 64.0076C44.8955 64.0076 44.0001 63.0456 44.0001 61.8591ZM44.0001 72.6018C44.0001 71.4153 44.8955 70.4534 46.0001 70.4534C47.1047 70.4534 48.0001 71.4153 48.0001 72.6018C48.0001 73.7884 47.1047 74.7502 46.0001 74.7502C44.8955 74.7502 44.0001 73.7884 44.0001 72.6018ZM44.0001 83.344C44.0001 82.1574 44.8955 81.1955 46.0001 81.1955C47.1047 81.1955 48.0001 82.1574 48.0001 83.344C48.0001 84.5305 47.1047 85.4924 46.0001 85.4924C44.8955 85.4924 44.0001 84.5305 44.0001 83.344ZM44.0001 18.8904C44.0001 17.7039 44.8955 16.742 46.0001 16.742C47.1047 16.742 48.0001 17.7039 48.0001 18.8904C48.0001 20.0769 47.1047 21.0388 46.0001 21.0388C44.8955 21.0388 44.0001 20.0769 44.0001 18.8904ZM44.0001 104.828C44.0001 103.642 44.8955 102.68 46.0001 102.68C47.1047 102.68 48.0001 103.642 48.0001 104.828C48.0001 106.015 47.1047 106.977 46.0001 106.977C44.8955 106.977 44.0001 106.015 44.0001 104.828ZM44.0001 115.57C44.0001 114.384 44.8955 113.422 46.0001 113.422C47.1047 113.422 48.0001 114.384 48.0001 115.57C48.0001 116.757 47.1047 117.719 46.0001 117.719C44.8955 117.719 44.0001 116.757 44.0001 115.57ZM44.0001 126.312C44.0001 125.126 44.8955 124.164 46.0001 124.164C47.1047 124.164 48.0001 125.126 48.0001 126.312C48.0001 127.499 47.1047 128.461 46.0001 128.461C44.8955 128.461 44.0001 127.499 44.0001 126.312ZM44.0001 137.055C44.0001 135.868 44.8955 134.907 46.0001 134.907C47.1047 134.907 48.0001 135.868 48.0001 137.055C48.0001 138.241 47.1047 139.203 46.0001 139.203C44.8955 139.203 44.0001 138.241 44.0001 137.055ZM44.0001 147.797C44.0001 146.611 44.8955 145.649 46.0001 145.649C47.1047 145.649 48.0001 146.611 48.0001 147.797C48.0001 148.984 47.1047 149.946 46.0001 149.946C44.8955 149.946 44.0001 148.984 44.0001 147.797ZM44.0001 158.539C44.0001 157.352 44.8955 156.39 46.0001 156.39C47.1047 156.39 48.0001 157.352 48.0001 158.539C48.0001 159.726 47.1047 160.688 46.0001 160.688C44.8955 160.688 44.0001 159.726 44.0001 158.539ZM44.0001 94.0857C44.0001 92.8992 44.8955 91.9373 46.0001 91.9373C47.1047 91.9373 48.0001 92.8992 48.0001 94.0857C48.0001 95.2723 47.1047 96.2341 46.0001 96.2341C44.8955 96.2341 44.0001 95.2723 44.0001 94.0857ZM33.9999 18.8904C33.9999 17.7039 34.8953 16.742 35.9999 16.742C37.1044 16.742 37.9999 17.7039 37.9999 18.8904C37.9999 20.0769 37.1044 21.0388 35.9999 21.0388C34.8953 21.0388 33.9999 20.0769 33.9999 18.8904ZM33.9999 29.6325C33.9999 28.446 34.8953 27.4841 35.9999 27.4841C37.1044 27.4841 37.9999 28.446 37.9999 29.6325C37.9999 30.8191 37.1044 31.781 35.9999 31.781C34.8953 31.781 33.9999 30.8191 33.9999 29.6325ZM33.9999 169.281C33.9999 168.095 34.8953 167.133 35.9999 167.133C37.1044 167.133 37.9999 168.095 37.9999 169.281C37.9999 170.468 37.1044 171.43 35.9999 171.43C34.8953 171.43 33.9999 170.468 33.9999 169.281ZM33.9999 158.539C33.9999 157.352 34.8953 156.39 35.9999 156.39C37.1044 156.39 37.9999 157.352 37.9999 158.539C37.9999 159.726 37.1044 160.688 35.9999 160.688C34.8953 160.688 33.9999 159.726 33.9999 158.539ZM33.9999 147.797C33.9999 146.611 34.8953 145.649 35.9999 145.649C37.1044 145.649 37.9999 146.611 37.9999 147.797C37.9999 148.984 37.1044 149.946 35.9999 149.946C34.8953 149.946 33.9999 148.984 33.9999 147.797ZM33.9999 137.055C33.9999 135.868 34.8953 134.907 35.9999 134.907C37.1044 134.907 37.9999 135.868 37.9999 137.055C37.9999 138.241 37.1044 139.203 35.9999 139.203C34.8953 139.203 33.9999 138.241 33.9999 137.055ZM33.9999 126.312C33.9999 125.126 34.8953 124.164 35.9999 124.164C37.1044 124.164 37.9999 125.126 37.9999 126.312C37.9999 127.499 37.1044 128.461 35.9999 128.461C34.8953 128.461 33.9999 127.499 33.9999 126.312ZM33.9999 115.57C33.9999 114.384 34.8953 113.422 35.9999 113.422C37.1044 113.422 37.9999 114.384 37.9999 115.57C37.9999 116.757 37.1044 117.719 35.9999 117.719C34.8953 117.719 33.9999 116.757 33.9999 115.57ZM33.9999 104.828C33.9999 103.642 34.8953 102.68 35.9999 102.68C37.1044 102.68 37.9999 103.642 37.9999 104.828C37.9999 106.015 37.1044 106.977 35.9999 106.977C34.8953 106.977 33.9999 106.015 33.9999 104.828ZM33.9999 94.0857C33.9999 92.8992 34.8953 91.9373 35.9999 91.9373C37.1044 91.9373 37.9999 92.8992 37.9999 94.0857C37.9999 95.2723 37.1044 96.2341 35.9999 96.2341C34.8953 96.2341 33.9999 95.2723 33.9999 94.0857ZM33.9999 83.344C33.9999 82.1574 34.8953 81.1955 35.9999 81.1955C37.1044 81.1955 37.9999 82.1574 37.9999 83.344C37.9999 84.5305 37.1044 85.4924 35.9999 85.4924C34.8953 85.4924 33.9999 84.5305 33.9999 83.344ZM33.9999 72.6018C33.9999 71.4153 34.8953 70.4534 35.9999 70.4534C37.1044 70.4534 37.9999 71.4153 37.9999 72.6018C37.9999 73.7884 37.1044 74.7502 35.9999 74.7502C34.8953 74.7502 33.9999 73.7884 33.9999 72.6018ZM33.9999 61.8591C33.9999 60.6725 34.8953 59.7106 35.9999 59.7106C37.1044 59.7106 37.9999 60.6725 37.9999 61.8591C37.9999 63.0456 37.1044 64.0076 35.9999 64.0076C34.8953 64.0076 33.9999 63.0456 33.9999 61.8591ZM33.9999 51.1172C33.9999 49.9306 34.8953 48.9687 35.9999 48.9687C37.1044 48.9687 37.9999 49.9306 37.9999 51.1172C37.9999 52.3037 37.1044 53.2656 35.9999 53.2656C34.8953 53.2656 33.9999 52.3037 33.9999 51.1172ZM33.9999 40.3747C33.9999 39.1882 34.8953 38.2262 35.9999 38.2262C37.1044 38.2262 37.9999 39.1882 37.9999 40.3747C37.9999 41.5613 37.1044 42.5232 35.9999 42.5232C34.8953 42.5232 33.9999 41.5613 33.9999 40.3747ZM33.9999 8.14823C33.9999 6.9617 34.8953 5.99983 35.9999 5.99983C37.1044 5.99983 37.9999 6.9617 37.9999 8.14823C37.9999 9.33476 37.1044 10.2966 35.9999 10.2966C34.8953 10.2966 33.9999 9.33476 33.9999 8.14823ZM23.9999 104.828C23.9999 103.642 24.8954 102.68 25.9999 102.68C27.1045 102.68 27.9999 103.642 27.9999 104.828C27.9999 106.015 27.1045 106.977 25.9999 106.977C24.8954 106.977 23.9999 106.015 23.9999 104.828ZM23.9999 83.344C23.9999 82.1574 24.8954 81.1955 25.9999 81.1955C27.1045 81.1955 27.9999 82.1574 27.9999 83.344C27.9999 84.5305 27.1045 85.4924 25.9999 85.4924C24.8954 85.4924 23.9999 84.5305 23.9999 83.344ZM23.9999 18.8904C23.9999 17.7039 24.8954 16.742 25.9999 16.742C27.1045 16.742 27.9999 17.7039 27.9999 18.8904C27.9999 20.0769 27.1045 21.0388 25.9999 21.0388C24.8954 21.0388 23.9999 20.0769 23.9999 18.8904ZM23.9999 169.281C23.9999 168.095 24.8954 167.133 25.9999 167.133C27.1045 167.133 27.9999 168.095 27.9999 169.281C27.9999 170.468 27.1045 171.43 25.9999 171.43C24.8954 171.43 23.9999 170.468 23.9999 169.281ZM23.9999 8.14823C23.9999 6.9617 24.8954 5.99983 25.9999 5.99983C27.1045 5.99983 27.9999 6.9617 27.9999 8.14823C27.9999 9.33476 27.1045 10.2966 25.9999 10.2966C24.8954 10.2966 23.9999 9.33476 23.9999 8.14823ZM23.9999 158.539C23.9999 157.352 24.8954 156.39 25.9999 156.39C27.1045 156.39 27.9999 157.352 27.9999 158.539C27.9999 159.726 27.1045 160.688 25.9999 160.688C24.8954 160.688 23.9999 159.726 23.9999 158.539ZM23.9999 147.797C23.9999 146.611 24.8954 145.649 25.9999 145.649C27.1045 145.649 27.9999 146.611 27.9999 147.797C27.9999 148.984 27.1045 149.946 25.9999 149.946C24.8954 149.946 23.9999 148.984 23.9999 147.797ZM23.9999 137.055C23.9999 135.868 24.8954 134.907 25.9999 134.907C27.1045 134.907 27.9999 135.868 27.9999 137.055C27.9999 138.241 27.1045 139.203 25.9999 139.203C24.8954 139.203 23.9999 138.241 23.9999 137.055ZM23.9999 126.312C23.9999 125.126 24.8954 124.164 25.9999 124.164C27.1045 124.164 27.9999 125.126 27.9999 126.312C27.9999 127.499 27.1045 128.461 25.9999 128.461C24.8954 128.461 23.9999 127.499 23.9999 126.312ZM23.9999 115.57C23.9999 114.384 24.8954 113.422 25.9999 113.422C27.1045 113.422 27.9999 114.384 27.9999 115.57C27.9999 116.757 27.1045 117.719 25.9999 117.719C24.8954 117.719 23.9999 116.757 23.9999 115.57ZM23.9999 94.0857C23.9999 92.8992 24.8954 91.9373 25.9999 91.9373C27.1045 91.9373 27.9999 92.8992 27.9999 94.0857C27.9999 95.2723 27.1045 96.2341 25.9999 96.2341C24.8954 96.2341 23.9999 95.2723 23.9999 94.0857ZM23.9999 72.6018C23.9999 71.4153 24.8954 70.4534 25.9999 70.4534C27.1045 70.4534 27.9999 71.4153 27.9999 72.6018C27.9999 73.7884 27.1045 74.7502 25.9999 74.7502C24.8954 74.7502 23.9999 73.7884 23.9999 72.6018ZM23.9999 61.8591C23.9999 60.6725 24.8954 59.7106 25.9999 59.7106C27.1045 59.7106 27.9999 60.6725 27.9999 61.8591C27.9999 63.0456 27.1045 64.0076 25.9999 64.0076C24.8954 64.0076 23.9999 63.0456 23.9999 61.8591ZM23.9999 51.1172C23.9999 49.9306 24.8954 48.9687 25.9999 48.9687C27.1045 48.9687 27.9999 49.9306 27.9999 51.1172C27.9999 52.3037 27.1045 53.2656 25.9999 53.2656C24.8954 53.2656 23.9999 52.3037 23.9999 51.1172ZM23.9999 40.3747C23.9999 39.1882 24.8954 38.2262 25.9999 38.2262C27.1045 38.2262 27.9999 39.1882 27.9999 40.3747C27.9999 41.5613 27.1045 42.5232 25.9999 42.5232C24.8954 42.5232 23.9999 41.5613 23.9999 40.3747ZM23.9999 29.6325C23.9999 28.446 24.8954 27.4841 25.9999 27.4841C27.1045 27.4841 27.9999 28.446 27.9999 29.6325C27.9999 30.8191 27.1045 31.781 25.9999 31.781C24.8954 31.781 23.9999 30.8191 23.9999 29.6325ZM14 40.3747C14 39.1882 14.8954 38.2262 16 38.2262C17.1046 38.2262 18 39.1882 18 40.3747C18 41.5613 17.1046 42.5232 16 42.5232C14.8954 42.5232 14 41.5613 14 40.3747ZM14 18.8904C14 17.7039 14.8954 16.742 16 16.742C17.1046 16.742 18 17.7039 18 18.8904C18 20.0769 17.1046 21.0388 16 21.0388C14.8954 21.0388 14 20.0769 14 18.8904ZM14 169.281C14 168.095 14.8954 167.133 16 167.133C17.1046 167.133 18 168.095 18 169.281C18 170.468 17.1046 171.43 16 171.43C14.8954 171.43 14 170.468 14 169.281ZM14 158.539C14 157.352 14.8954 156.39 16 156.39C17.1046 156.39 18 157.352 18 158.539C18 159.726 17.1046 160.688 16 160.688C14.8954 160.688 14 159.726 14 158.539ZM14 147.797C14 146.611 14.8954 145.649 16 145.649C17.1046 145.649 18 146.611 18 147.797C18 148.984 17.1046 149.946 16 149.946C14.8954 149.946 14 148.984 14 147.797ZM14 137.055C14 135.868 14.8954 134.907 16 134.907C17.1046 134.907 18 135.868 18 137.055C18 138.241 17.1046 139.203 16 139.203C14.8954 139.203 14 138.241 14 137.055ZM14 126.312C14 125.126 14.8954 124.164 16 124.164C17.1046 124.164 18 125.126 18 126.312C18 127.499 17.1046 128.461 16 128.461C14.8954 128.461 14 127.499 14 126.312ZM14 115.57C14 114.384 14.8954 113.422 16 113.422C17.1046 113.422 18 114.384 18 115.57C18 116.757 17.1046 117.719 16 117.719C14.8954 117.719 14 116.757 14 115.57ZM14 94.0857C14 92.8992 14.8954 91.9373 16 91.9373C17.1046 91.9373 18 92.8992 18 94.0857C18 95.2723 17.1046 96.2341 16 96.2341C14.8954 96.2341 14 95.2723 14 94.0857ZM14 29.6325C14 28.446 14.8954 27.4841 16 27.4841C17.1046 27.4841 18 28.446 18 29.6325C18 30.8191 17.1046 31.781 16 31.781C14.8954 31.781 14 30.8191 14 29.6325ZM14 8.14823C14 6.9617 14.8954 5.99983 16 5.99983C17.1046 5.99983 18 6.9617 18 8.14823C18 9.33476 17.1046 10.2966 16 10.2966C14.8954 10.2966 14 9.33476 14 8.14823ZM14 83.344C14 82.1574 14.8954 81.1955 16 81.1955C17.1046 81.1955 18 82.1574 18 83.344C18 84.5305 17.1046 85.4924 16 85.4924C14.8954 85.4924 14 84.5305 14 83.344ZM14 72.6018C14 71.4153 14.8954 70.4534 16 70.4534C17.1046 70.4534 18 71.4153 18 72.6018C18 73.7884 17.1046 74.7502 16 74.7502C14.8954 74.7502 14 73.7884 14 72.6018ZM14 61.8591C14 60.6725 14.8954 59.7106 16 59.7106C17.1046 59.7106 18 60.6725 18 61.8591C18 63.0456 17.1046 64.0076 16 64.0076C14.8954 64.0076 14 63.0456 14 61.8591ZM14 51.1172C14 49.9306 14.8954 48.9687 16 48.9687C17.1046 48.9687 18 49.9306 18 51.1172C18 52.3037 17.1046 53.2656 16 53.2656C14.8954 53.2656 14 52.3037 14 51.1172ZM14 104.828C14 103.642 14.8954 102.68 16 102.68C17.1046 102.68 18 103.642 18 104.828C18 106.015 17.1046 106.977 16 106.977C14.8954 106.977 14 106.015 14 104.828Z" fill="#EFF2FB"/>
</g>
<path d="M20.1525 66.5146C21.2165 67.4532 22.5813 67.98 24 68C25.4214 68.0037 26.797 67.4977 27.8772 66.5741L31.2196 63.7222C31.6965 63.317 32.2892 63.0727 32.9131 63.0241L37.2657 62.7271C38.6716 62.6116 39.9905 61.9998 40.9866 61.0011C41.9827 60.0024 42.591 58.6819 42.7027 57.2759L43.0592 52.909C43.0879 52.261 43.3279 51.6403 43.7425 51.1415L46.5799 47.8144C47.4965 46.7393 48 45.3727 48 43.9599C48 42.5472 47.4965 41.1806 46.5799 40.1055L43.7277 36.7783C43.3224 36.3015 43.078 35.7089 43.0295 35.085L42.7324 30.733C42.6169 29.3273 42.005 28.0085 41.0062 27.0125C40.0074 26.0165 38.6867 25.4084 37.2805 25.2967L32.9131 24.9551C32.2701 24.9118 31.6569 24.6676 31.1602 24.2569L27.8326 21.42C26.7574 20.5034 25.3907 20 23.9777 20C22.5648 20 21.1981 20.5034 20.1228 21.42L16.7804 24.2718C16.3035 24.677 15.7108 24.9213 15.0869 24.9699L10.7343 25.3264C9.32843 25.4419 8.00947 26.0537 7.01336 27.0523C6.01726 28.0511 5.40898 29.3715 5.29735 30.7775L4.94081 35.085C4.90894 35.7278 4.66915 36.3429 4.25749 36.8377L1.42014 40.1649C0.503484 41.24 0 42.6065 0 44.0193C0 45.4321 0.503484 46.7986 1.42014 47.8737L4.27233 51.2157C4.67762 51.6926 4.92198 52.2851 4.97053 52.909L5.32706 57.2611C5.44253 58.6668 6.05441 59.9856 7.05324 60.9815C8.05207 61.9775 9.3727 62.5857 10.7789 62.6973L15.0869 63.039C15.7181 63.0683 16.325 63.2913 16.8249 63.6777L20.1525 66.5146Z" fill="url(#paint0_linear)"/>
<path d="M19.6429 43.2862C18.9224 43.2862 18.2181 43.0726 17.619 42.6723C17.0199 42.272 16.553 41.7031 16.2773 41.0374C16.0016 40.3718 15.9294 39.6393 16.07 38.9327C16.2106 38.226 16.5575 37.5769 17.067 37.0675C17.5764 36.558 18.2255 36.211 18.9322 36.0705C19.6388 35.9299 20.3713 36.0021 21.0369 36.2778C21.7026 36.5535 22.2715 37.0204 22.6718 37.6195C23.0721 38.2185 23.2857 38.9229 23.2857 39.6433C23.2857 40.6095 22.9019 41.5361 22.2187 42.2192C21.5356 42.9024 20.609 43.2862 19.6429 43.2862V43.2862ZM19.6429 38.4291C19.4027 38.4291 19.1679 38.5003 18.9682 38.6337C18.7685 38.7671 18.6129 38.9568 18.521 39.1787C18.4291 39.4005 18.4051 39.6447 18.4519 39.8802C18.4988 40.1158 18.6144 40.3322 18.7842 40.502C18.9541 40.6718 19.1704 40.7874 19.406 40.8343C19.6415 40.8812 19.8857 40.8571 20.1075 40.7652C20.3294 40.6733 20.5191 40.5177 20.6525 40.318C20.7859 40.1183 20.8571 39.8835 20.8571 39.6433C20.8571 39.3213 20.7292 39.0124 20.5015 38.7847C20.2738 38.557 19.9649 38.4291 19.6429 38.4291Z" fill="#47525F"/>
<path d="M29.3577 53.0001C28.6372 53.0001 27.9329 52.7864 27.3338 52.3861C26.7348 51.9859 26.2679 51.4169 25.9921 50.7513C25.7164 50.0856 25.6443 49.3532 25.7848 48.6465C25.9254 47.9399 26.2724 47.2908 26.7818 46.7813C27.2913 46.2719 27.9404 45.9249 28.647 45.7844C29.3537 45.6438 30.0861 45.7159 30.7518 45.9917C31.4174 46.2674 31.9863 46.7343 32.3866 47.3334C32.7869 47.9324 33.0006 48.6367 33.0006 49.3572C33.0006 50.3234 32.6168 51.2499 31.9336 51.9331C31.2504 52.6163 30.3238 53.0001 29.3577 53.0001V53.0001ZM29.3577 48.1429C29.1175 48.1429 28.8828 48.2141 28.6831 48.3476C28.4834 48.481 28.3278 48.6706 28.2358 48.8925C28.1439 49.1144 28.1199 49.3586 28.1667 49.5941C28.2136 49.8297 28.3293 50.046 28.4991 50.2158C28.6689 50.3857 28.8853 50.5013 29.1208 50.5482C29.3564 50.595 29.6005 50.571 29.8224 50.4791C30.0443 50.3872 30.2339 50.2315 30.3673 50.0318C30.5008 49.8321 30.572 49.5974 30.572 49.3572C30.572 49.0352 30.4441 48.7263 30.2163 48.4986C29.9886 48.2709 29.6798 48.1429 29.3577 48.1429Z" fill="#47525F"/>
<path d="M18.4274 53.0015C18.1436 53.0021 17.8687 52.9033 17.6502 52.7222C17.5273 52.6203 17.4256 52.4951 17.3511 52.3538C17.2766 52.2125 17.2307 52.058 17.2161 51.8989C17.2014 51.7399 17.2183 51.5795 17.2657 51.427C17.3131 51.2745 17.3901 51.1328 17.4924 51.0101L29.6352 36.4387C29.8413 36.1907 30.1375 36.0347 30.4586 36.0051C30.7797 35.9755 31.0994 36.0747 31.3474 36.2808C31.5953 36.4869 31.7513 36.7831 31.7809 37.1042C31.8105 37.4253 31.7113 37.745 31.5052 37.9929L19.3624 52.5644C19.2482 52.7014 19.1052 52.8117 18.9436 52.8872C18.782 52.9628 18.6058 53.0018 18.4274 53.0015V53.0015Z" fill="#47525F"/>
<defs>
<linearGradient id="paint0_linear" x1="24" y1="20" x2="24" y2="68" gradientUnits="userSpaceOnUse">
<stop stop-color="#DDE3EB"/>
<stop offset="1" stop-color="#B7C5D4"/>
</linearGradient>
</defs>
</svg>
