<?xml version="1.0" encoding="UTF-8"?>
<svg width="480px" height="80px" viewBox="0 0 480 80" version="1.1" xmlns="http://www.w3.org/2000/svg" xmlns:xlink="http://www.w3.org/1999/xlink">
    <!-- Generator: Sketch 57.1 (83088) - https://sketch.com -->
    <title>modelsprite</title>
    <desc>Created with Sketch.</desc>
    <g id="Deal-Details" stroke="none" stroke-width="1" fill="none" fill-rule="evenodd">
        <g id="Artboard" transform="translate(-85.000000, -223.000000)">
            <g id="modelsprite" transform="translate(85.000000, 223.000000)">
                <g id="icon">
                    <circle id="Oval-2" fill="#FFA236" fill-rule="nonzero" opacity="0.15" cx="40" cy="40" r="40"></circle>
                    <path d="M55.677,11 L55.677,16.62 M53,13.947 L58.353,13.95" id="Line" stroke="#FFA236" stroke-width="2" fill="#F0F1F2" fill-rule="nonzero" opacity="0.4" stroke-linecap="round" stroke-linejoin="round"></path>
                    <g id="Group-17" transform="translate(11.000000, 43.000000)" fill="#FFA236" fill-rule="nonzero">
                        <polygon id="Star" transform="translate(53.500000, 11.280000) rotate(-6.000000) translate(-53.500000, -11.280000) " points="53.5 14.097 50.719 15.56 51.25 12.463 49 10.269 52.11 9.818 53.5 7 54.89 9.818 58 10.269 55.75 12.463 56.281 15.56"></polygon>
                        <polygon id="Star" transform="translate(4.044992, 4.241118) rotate(27.000000) translate(-4.044992, -4.241118) " points="4.04449151 5.861118 2.44449151 6.703118 2.75049151 4.921118 1.45549151 3.659118 3.24549151 3.399118 4.04549151 1.778118 4.84549151 3.398118 6.63449151 3.658118 5.33949151 4.922118 5.64549151 6.704118"></polygon>
                    </g>
                    <g id="quality" transform="translate(22.000000, 18.000000)">
                        <g id="Shape">
                            <g id="path-1-link" fill="#F75D34" fill-rule="nonzero">
                                <path d="M34.623,15.564 L31.333,12.105 L31.996,7.342 C32.1019027,6.61909497 31.6181262,5.94154307 30.9,5.807 L26.24,4.977 L24.024,0.724 C23.6925064,0.0763015399 22.9020752,-0.184799186 22.25,0.138 L18.001,2.25 L13.75,0.14 C13.0979248,-0.182799186 12.3074936,0.0783015399 11.976,0.726 L9.76,4.976 L5.1,5.807 C4.38187381,5.94154307 3.89809735,6.61909497 4.004,7.342 L4.667,12.105 L1.377,15.564 C0.873494752,16.0961024 0.873494752,16.9288976 1.377,17.461 L4.667,20.919 L4.004,25.685 C3.89868291,26.4075489 4.38231771,27.0844611 5.1,27.219 L8.83,27.884 L8.83,42.636 C8.83,43.109 9.07,43.548 9.466,43.796 C9.85985479,44.0439741 10.3550379,44.0667586 10.77,43.856 L18,40.18 L25.23,43.856 C25.646,44.067 26.14,44.045 26.535,43.796 C26.9320113,43.5440906 27.1721037,43.1061862 27.171,42.636 L27.171,27.884 L30.9,27.219 C31.6181262,27.0844569 32.1019027,26.406905 31.996,25.684 L31.334,20.918 L34.623,17.46 C35.1253739,16.9278337 35.1253739,16.0961663 34.623,15.564 Z M18.6,37.434 C18.2233893,37.2420135 17.7776107,37.2420135 17.401,37.434 L11.511,40.429 L11.511,31.408 L11.977,32.3 C12.3084936,32.9476985 13.0989248,33.2087992 13.751,32.886 L18,30.772 L22.248,32.886 C22.438,32.981 22.638,33.026 22.837,33.026 C23.317,33.026 23.782,32.761 24.022,32.301 L24.488,31.408 L24.488,40.429 L18.6,37.435 L18.6,37.434 Z M28.95,19.501 C28.6615149,19.8058123 28.5275387,20.2254083 28.586,20.641 L29.159,24.76 L25.132,25.478 C24.7223926,25.5522836 24.370389,25.8123157 24.179,26.182 L22.262,29.856 L18.59,28.029 C18.2186859,27.8443645 17.7823141,27.8443645 17.411,28.029 L13.738,29.856 L11.822,26.182 C11.6307301,25.8122141 11.2786695,25.5521399 10.869,25.478 L6.841,24.76 L7.414,20.64 C7.47246134,20.2244083 7.33848508,19.8048123 7.05,19.5 L4.207,16.512 L7.05,13.522 C7.33806187,13.2173436 7.47199552,12.798249 7.414,12.383 L6.84,8.266 L10.868,7.548 C11.2777939,7.47414834 11.6299691,7.21398955 11.821,6.844 L13.737,3.169 L17.411,4.995 C17.7816199,5.17959585 18.2173801,5.17959585 18.588,4.995 L22.261,3.169 L24.178,6.844 C24.372,7.216 24.724,7.475 25.131,7.548 L29.158,8.266 L28.585,12.383 C28.5266883,12.798579 28.6606443,13.2181113 28.949,13.523 L31.792,16.512 L28.949,19.501 L28.95,19.501 Z" id="path-1"></path>
                            </g>
                            <path d="M34.514,15.667 L31.224,12.209 L31.184,12.085 L31.847,7.321 C31.9413983,6.67809529 31.5115696,6.07527606 30.873,5.955 L26.214,5.125 L26.108,5.045 L23.89,0.796 C23.596641,0.220520613 22.8951045,-0.0121363473 22.316,0.274 L18.067,2.387 L17.934,2.387 L13.684,0.273 C13.1048955,-0.0131363473 12.403359,0.219520613 12.11,0.795 L9.893,5.045 L9.786,5.125 L5.126,5.955 C4.48783509,6.07574023 4.05854848,6.67841805 4.153,7.321 L4.815,12.085 L4.775,12.209 L1.485,15.667 C1.03701123,16.1414216 1.03745009,16.8831089 1.486,17.357 L4.776,20.815 L4.816,20.939 L4.153,25.705 C4.05806092,26.3480351 4.48813083,26.9511927 5.127,27.071 L8.856,27.736 L8.98,27.884 L8.98,42.636 C8.98,43.057 9.194,43.448 9.546,43.669 C9.89513534,43.8889354 10.3342046,43.9090657 10.702,43.722 L17.932,40.046 L18.069,40.046 L25.298,43.722 C25.667,43.91 26.104,43.89 26.455,43.669 C26.8084056,43.4445837 27.0220646,43.0546372 27.021,42.636 L27.021,27.884 L27.144,27.737 L30.874,27.071 C31.5122708,26.9502566 31.9418591,26.3477745 31.848,25.705 L31.185,20.939 L31.225,20.815 L34.515,17.357 C34.9627684,16.8826444 34.9627684,16.1413556 34.515,15.667 L34.514,15.667 Z M18.532,37.57 C18.1981183,37.3997451 17.8028817,37.3997451 17.469,37.57 L11.362,40.675 L11.362,30.797 L11.645,31.339 L12.11,32.232 C12.4037178,32.807103 13.1051601,33.0392831 13.684,32.753 L17.934,30.639 L18.068,30.639 L22.316,32.753 C22.481,32.835 22.658,32.876 22.838,32.876 C23.275,32.876 23.681,32.633 23.89,32.232 L24.639,30.798 L24.639,40.675 L18.532,37.57 L18.532,37.57 Z M29.06,19.604 C28.8031699,19.8758061 28.6839395,20.2496894 28.736,20.62 L29.308,24.74 L29.186,24.908 L25.159,25.626 C24.7952258,25.6922844 24.4827489,25.9235025 24.313,26.252 L22.396,29.925 L22.196,29.99 L18.524,28.163 C18.1948703,27.9994241 17.8081297,27.9994241 17.479,28.163 L13.806,29.99 L13.606,29.925 L11.69,26.252 C11.5203703,25.923401 11.2078364,25.6921407 10.844,25.626 L6.816,24.908 L6.694,24.739 L7.266,20.619 C7.31789376,20.2490066 7.19866529,19.8754977 6.942,19.604 L4.099,16.615 L4.099,16.409 L6.942,13.419 C7.19853624,13.1474262 7.31774447,12.7739807 7.266,12.404 L6.694,8.287 L6.816,8.119 L10.843,7.4 C11.204,7.335 11.517,7.104 11.689,6.773 L13.605,3.1 L13.805,3.035 L17.48,4.86 C17.8087092,5.0238682 18.1952908,5.0238682 18.524,4.86 L22.196,3.034 L22.396,3.099 L24.313,6.774 C24.485,7.104 24.798,7.335 25.159,7.4 L29.186,8.118 L29.308,8.286 L28.736,12.403 C28.6842555,12.7729807 28.8034638,13.1464262 29.06,13.418 L31.903,16.408 L31.903,16.614 L29.06,19.604 Z" stroke="#FFF1E1" stroke-width="0.3"></path>
                        </g>
                        <g id="Shape" transform="translate(9.000000, 7.000000)">
                            <g id="path-2-link" fill="#F75D34" fill-rule="nonzero">
                                <path d="M9.5,0 C4.263,0 0,4.261 0,9.499 C0,14.738 4.262,19 9.5,19 C14.739,19 19,14.738 19,9.499 C19,4.261 14.739,0 9.5,0 Z M9.5,16.222 C5.78897949,16.2175907 2.78185729,13.2100211 2.778,9.499 C2.78351099,5.78876059 5.7907585,2.782855 9.501,2.779 C13.210526,2.78340824 16.2165918,5.78947397 16.221,9.499 C16.217145,13.2092415 13.2112394,16.216489 9.501,16.222 L9.5,16.222 Z" id="path-2"></path>
                            </g>
                            <path d="M9.5,0.15 C4.346,0.15 0.15,4.344 0.15,9.499 C0.15,14.655 4.345,18.85 9.5,18.85 C14.656,18.85 18.85,14.655 18.85,9.499 C18.85,4.344 14.656,0.15 9.5,0.15 Z M9.5,16.372 C5.70613683,16.3675905 2.63185748,13.2928638 2.628,9.499 C2.628,5.71 5.711,2.629 9.501,2.629 C13.2933687,2.63340845 16.3665915,5.70663131 16.371,9.499 C16.371,13.289 13.289,16.372 9.501,16.372 L9.5,16.372 Z" stroke="#FFF1E1" stroke-width="0.3"></path>
                        </g>
                        <g id="Shape" transform="translate(13.000000, 13.000000)">
                            <g id="path-3-link" fill="#F75D34" fill-rule="nonzero">
                                <path d="M7.722,0.414 L3.779,4.588 L2.279,3.001 C2.03590172,2.73685988 1.69326062,2.58664665 1.33428049,2.58683669 C0.975300348,2.58702672 0.632818482,2.73760265 0.39,3.002 C-0.13,3.555 -0.13,4.45 0.392,5.002 L2.836,7.587 C3.096,7.862 3.438,8 3.779,8 C4.12,8 4.462,7.862 4.723,7.586 L9.609,2.413 C10.1303304,1.84863717 10.1303304,0.978362826 9.609,0.414 C9.36608581,0.150388989 9.02396627,0.000423228353 8.6655,0.000423228353 C8.30703373,0.000423228353 7.96491419,0.150388989 7.722,0.414 Z" id="path-3"></path>
                            </g>
                            <path d="M7.83,0.517 L3.889,4.69 L3.67,4.69 L2.17,3.103 C1.95526677,2.86914687 1.65226652,2.73611917 1.33478013,2.73630928 C1.01729373,2.73649939 0.71445301,2.86988987 0.5,3.104 C0.0332564212,3.61054164 0.0332564212,4.39045836 0.5,4.897 L2.945,7.482 C3.17,7.721 3.469,7.849 3.779,7.849 C4.089,7.849 4.389,7.721 4.614,7.482 L9.5,2.31 C9.96674358,1.80345836 9.96674358,1.02354164 9.5,0.517 C9.28540685,0.283018429 8.98248637,0.149809376 8.665,0.149809376 C8.34751363,0.149809376 8.04459315,0.283018429 7.83,0.517 Z" id="Path" stroke="#FFF1E1" stroke-width="0.3"></path>
                        </g>
                    </g>
                </g>
                <g id="icon" transform="translate(82.000000, 0.000000)">
                    <circle id="Oval-2" fill="#FFA236" fill-rule="nonzero" opacity="0.15" cx="40" cy="40" r="40"></circle>
                    <g id="Group-12" transform="translate(19.487000, 23.590000)">
                        <path d="M40.094,8.183 L1.84,8.183 C0.81,8.183 0,8.984 0,10.004 L0,29.68 C0,30.7 0.81,31.501 1.84,31.501 L40.094,31.501 C41.124,31.501 41.934,30.7 41.934,29.68 L41.934,10.004 C41.934,8.984 41.124,8.183 40.094,8.183 Z M2.207,10.369 L4.414,10.369 C4.414,11.389 3.604,12.19 2.574,12.19 L2.207,12.19 L2.207,10.37 L2.207,10.369 Z M2.207,29.314 L2.207,27.493 L2.575,27.493 C3.605,27.493 4.415,28.294 4.415,29.314 L2.206,29.314 L2.207,29.314 Z M39.727,29.314 L37.519,29.314 C37.519,28.294 38.329,27.493 39.359,27.493 L39.726,27.493 L39.726,29.314 L39.727,29.314 Z M39.727,25.307 L39.359,25.307 C37.152,25.307 35.312,27.128 35.312,29.314 L6.622,29.314 C6.622,27.128 4.782,25.307 2.575,25.307 L2.207,25.307 L2.207,14.377 L2.575,14.377 C4.782,14.377 6.621,12.555 6.621,10.369 L35.681,10.369 C35.681,12.555 37.519,14.376 39.726,14.376 L39.726,25.306 L39.727,25.307 Z M39.727,12.19 C38.697,12.19 37.887,11.389 37.887,10.369 L39.727,10.369 L39.727,12.19 Z" id="Shape" fill="#F75D34" fill-rule="nonzero"></path>
                        <g id="Shape" transform="translate(17.000000, 13.000000)">
                            <g id="path-4-link" fill="#F45D3C" fill-rule="nonzero">
                                <path d="M8.312,3.758 C8.25689849,3.70406223 8.18205363,3.67513667 8.105,3.678 L6.567,3.678 C6.4770246,3.21056051 6.27985844,2.77035968 5.991,2.392 L8.087,2.392 C8.16403379,2.39474506 8.23883364,2.36583691 8.294,2.312 C8.34772814,2.25757892 8.37666502,2.18342817 8.374,2.107 L8.374,1.196 C8.37666502,1.11957183 8.34772814,1.04542108 8.294,0.991 C8.23883364,0.937163094 8.16403379,0.908254938 8.087,0.911 L0.603,0.911 C0.525966213,0.908254938 0.45116636,0.937163094 0.396,0.991 C0.34216991,1.04535488 0.313215139,1.11955148 0.316,1.196 L0.316,2.383 C0.314997776,2.45862947 0.345904297,2.53118161 0.401,2.583 C0.453682828,2.6381662 0.526719455,2.669261 0.603,2.669 L1.907,2.669 C3.173,2.669 3.977,3.005 4.317,3.677 L0.604,3.677 C0.526946374,3.67413667 0.45210151,3.70306223 0.397,3.757 C0.342911079,3.81159564 0.31393513,3.88620871 0.317,3.963 L0.317,4.873 C0.314149854,4.9498658 0.343505367,5.02443401 0.397989882,5.07872869 C0.452474396,5.13302336 0.52714462,5.16211842 0.604,5.159 L4.445,5.159 C4.313,5.647 4.005,6.019 3.523,6.275 C3.04,6.531 2.403,6.659 1.611,6.659 L0.603,6.659 C0.526868173,6.65847796 0.453853563,6.68920193 0.401,6.744 C0.34584156,6.795858 0.314694685,6.86829259 0.314997776,6.944 L0.314997776,8.078 C0.314997776,8.156 0.342,8.221 0.396,8.275 C1.547,9.488 3.041,11.187 4.876,13.372 C4.92862747,13.4427572 5.01290045,13.4828336 5.101,13.479 L6.854,13.479 C6.981,13.479 7.068,13.425 7.115,13.318 C7.175,13.211 7.164,13.11 7.079,13.014 C5.329,10.884 3.952,9.289 2.951,8.23 C3.971,8.11 4.798,7.783 5.433,7.248 C6.069,6.712 6.456,6.016 6.593,5.159 L8.105,5.159 C8.18184525,5.16238772 8.25661808,5.13355344 8.31129267,5.07944838 C8.36596726,5.02534332 8.39558289,4.95087651 8.393,4.874 L8.393,3.964 C8.39580151,3.88706049 8.36645496,3.81242604 8.312,3.758 L8.312,3.758 Z" id="path-4"></path>
                            </g>
                            <path d="M8.488,3.58 C8.58974421,3.68118095 8.64573638,3.81953579 8.643,3.963 L8.643,4.873 C8.64605044,5.01641873 8.59028183,5.15483943 8.48865782,5.25608565 C8.38703381,5.35733188 8.24840637,5.41258456 8.105,5.409 L6.8,5.409 C6.64140413,6.20345228 6.21585206,6.91976297 5.594,7.439 C5.022,7.921 4.308,8.243 3.455,8.405 C4.427,9.459 5.699,10.942 7.265,12.849 C7.419,13.023 7.445,13.239 7.343,13.419 C7.26000763,13.6141617 7.06490072,13.7375967 6.853,13.729 L5.101,13.729 C4.93848367,13.7338488 4.78346522,13.6606147 4.684,13.532 C2.854,11.354 1.363,9.657 0.22,8.452 C0.119542682,8.35365337 0.0635614947,8.21857618 0.0649204941,8.078 L0.0649204941,6.944 C0.0649204941,6.8 0.121,6.669 0.225,6.566 C0.324700544,6.4648751 0.460993287,6.40826674 0.603,6.409 L1.61,6.409 C2.364,6.409 2.962,6.289 3.405,6.054 C3.69057213,5.9133158 3.92590043,5.6881129 4.079,5.409 L0.603,5.409 C0.459853629,5.41228817 0.321552939,5.35707833 0.22002379,5.25611533 C0.118494642,5.15515233 0.0625123206,5.01716252 0.0649204941,4.874 L0.0649204941,3.963 C0.0625215714,3.8197497 0.118473555,3.68166455 0.219970452,3.58054497 C0.32146735,3.47942538 0.459759926,3.42398807 0.603,3.427 L3.813,3.427 C3.435,3.092 2.806,2.919 1.907,2.919 L0.603,2.919 C0.460847347,2.91946987 0.324533598,2.86249217 0.225,2.761 C0.122384626,2.66206788 0.0645945482,2.52553882 0.0649204941,2.383 L0.0649204941,1.196 C0.0625215714,1.0527497 0.118473555,0.914664554 0.219970452,0.813544969 C0.32146735,0.712425384 0.459759926,0.65698807 0.603,0.659883376 L8.087,0.659883376 C8.23024007,0.65698807 8.36853265,0.712425384 8.47002955,0.813544969 C8.57152644,0.914664554 8.62747843,1.0527497 8.625,1.196 L8.625,2.106 C8.62719545,2.24916641 8.57115276,2.38708574 8.46971855,2.48814287 C8.36828434,2.5892 8.23015724,2.64472864 8.087,2.642 L6.454,2.642 C6.587,2.883 6.691,3.145 6.765,3.427 L8.105,3.427 C8.24808761,3.42419781 8.38622674,3.47938132 8.488,3.58 Z" id="Path" stroke="#FEF1E2" stroke-width="0.5"></path>
                        </g>
                        <rect id="Rectangle-path" fill="#F75D34" fill-rule="nonzero" x="4.178" y="4.33" width="33.841" height="2.186" rx="1.093"></rect>
                        <rect id="Rectangle-path" fill="#F75D34" fill-rule="nonzero" x="8.593" y="0.686" width="25.013" height="2.186" rx="1.093"></rect>
                        <ellipse id="Oval" fill="#F75D34" fill-rule="nonzero" cx="7.857" cy="15.041" rx="1.471" ry="1.457"></ellipse>
                        <ellipse id="Oval" fill="#F75D34" fill-rule="nonzero" cx="34.341" cy="25.243" rx="1.471" ry="1.457"></ellipse>
                    </g>
                    <circle id="Oval-3" stroke="#FFA236" stroke-width="2" fill="#FFFFFF" fill-rule="nonzero" opacity="0.5" cx="19.487" cy="14.359" r="4.103"></circle>
                    <circle id="Oval-3" stroke="#FFA236" stroke-width="2" fill="#FFA236" fill-rule="nonzero" opacity="0.5" cx="12.308" cy="7.179" r="2.051"></circle>
                    <path d="M50.77,5.128 L50.77,10.256 M48.205,7.818 L53.333,7.821" id="Line" stroke="#FFA236" stroke-width="2" fill="#F0F1F2" fill-rule="nonzero" opacity="0.4" stroke-linecap="round" stroke-linejoin="round"></path>
                </g>
                <g id="icon" transform="translate(164.000000, 0.000000)" fill-rule="nonzero">
                    <circle id="Oval-2" fill="#FFA236" opacity="0.15" cx="40" cy="40" r="40"></circle>
                    <ellipse id="Oval-3" stroke="#FFA236" stroke-width="2" fill="#FFFFFF" opacity="0.5" cx="18.476" cy="19.46" rx="4.015" ry="4.007"></ellipse>
                    <ellipse id="Oval-3" stroke="#FFA236" stroke-width="2" fill="#FFA236" opacity="0.5" cx="12.231" cy="13.226" rx="2.231" ry="2.226"></ellipse>
                    <path d="M63.517,17.191 L65.483,22.057 M62.23,20.68 L66.867,18.81" id="Line" stroke="#FFA236" stroke-width="2" fill="#F0F1F2" opacity="0.4" stroke-linecap="round" stroke-linejoin="round"></path>
                    <path d="M54.016,35.616 L67.984,35.616 L66.496,31.104 L55.528,31.104 L54.016,35.616 Z M66.496,40.584 C66.912,40.584 67.264,40.44 67.552,40.152 C67.84,39.864 67.984,39.504 67.984,39.072 C67.984,38.64 67.84,38.284 67.552,38.004 C67.264,37.724 66.912,37.584 66.496,37.584 C66.08,37.584 65.724,37.728 65.428,38.016 C65.132,38.304 64.984,38.656 64.984,39.072 C64.984,39.488 65.128,39.844 65.416,40.14 C65.704,40.436 66.064,40.584 66.496,40.584 Z M55.528,40.584 C55.944,40.584 56.296,40.44 56.584,40.152 C56.872,39.864 57.016,39.504 57.016,39.072 C57.016,38.64 56.872,38.284 56.584,38.004 C56.296,37.724 55.944,37.584 55.528,37.584 C55.112,37.584 54.756,37.728 54.46,38.016 C54.164,38.304 54.016,38.656 54.016,39.072 C54.016,39.488 54.16,39.844 54.448,40.14 C54.736,40.436 55.096,40.584 55.528,40.584 Z M67.936,30.6 L70.0001247,36.6 L70.0001247,44.616 C70.0042432,44.8778186 69.9000033,45.1297317 69.712,45.312 C69.5297317,45.5000033 69.2778186,45.6042432 69.016,45.6001247 L67.984,45.6001247 C67.7221814,45.6042432 67.4702683,45.5000033 67.288,45.312 C67.0999967,45.1297317 66.9957568,44.8778186 67,44.616 L67,43.584 L55,43.584 L55,44.616 C55.0042432,44.8778186 54.9000033,45.1297317 54.712,45.312 C54.5297317,45.5000033 54.2778186,45.6042432 54.016,45.6001247 L52.984,45.6001247 C52.7221814,45.6042432 52.4702683,45.5000033 52.288,45.312 C52.0999967,45.1297317 51.9957568,44.8778186 51.9998753,44.616 L51.9998753,36.6 L54.064,30.6 C54.16,30.296 54.344,30.056 54.616,29.88 C54.888,29.704 55.192,29.616 55.528,29.616 L66.496,29.616 C66.832,29.616 67.132,29.704 67.396,29.88 C67.66,30.056 67.84,30.296 67.936,30.6 Z M14.016,35.616 L27.984,35.616 L26.496,31.104 L15.528,31.104 L14.016,35.616 L14.016,35.616 Z M26.496,40.584 C26.912,40.584 27.264,40.44 27.552,40.152 C27.84,39.864 27.984,39.504 27.984,39.072 C27.984,38.64 27.84,38.284 27.552,38.004 C27.264,37.724 26.912,37.584 26.496,37.584 C26.08,37.584 25.724,37.728 25.428,38.016 C25.132,38.304 24.984,38.656 24.984,39.072 C24.984,39.488 25.128,39.844 25.416,40.14 C25.704,40.436 26.064,40.584 26.496,40.584 L26.496,40.584 Z M15.528,40.584 C15.944,40.584 16.296,40.44 16.584,40.152 C16.872,39.864 17.016,39.504 17.016,39.072 C17.016,38.64 16.872,38.284 16.584,38.004 C16.296,37.724 15.944,37.584 15.528,37.584 C15.112,37.584 14.756,37.728 14.46,38.016 C14.164,38.304 14.016,38.656 14.016,39.072 C14.016,39.488 14.16,39.844 14.448,40.14 C14.736,40.436 15.096,40.584 15.528,40.584 Z M27.936,30.6 L30.0001247,36.6 L30.0001247,44.616 C30.0042432,44.8778186 29.9000033,45.1297317 29.712,45.312 C29.5297317,45.5000033 29.2778186,45.6042432 29.016,45.6001247 L27.984,45.6001247 C27.7221814,45.6042432 27.4702683,45.5000033 27.288,45.312 C27.0999967,45.1297317 26.9957568,44.8778186 27,44.616 L27,43.584 L15,43.584 L15,44.616 C15.0042432,44.8778186 14.9000033,45.1297317 14.712,45.312 C14.5297317,45.5000033 14.2778186,45.6042432 14.016,45.6001247 L12.984,45.6001247 C12.7221814,45.6042432 12.4702683,45.5000033 12.288,45.312 C12.0999967,45.1297317 11.9957568,44.8778186 11.9998753,44.616 L11.9998753,36.6 L14.064,30.6 C14.16,30.296 14.344,30.056 14.616,29.88 C14.888,29.704 15.192,29.616 15.528,29.616 L26.496,29.616 C26.832,29.616 27.132,29.704 27.396,29.88 C27.66,30.056 27.84,30.296 27.936,30.6 Z" id="directions_car---material" fill="#FFA236"></path>
                    <path d="M30.524,34.924 L51.476,34.924 L49.244,28.156 L32.792,28.156 L30.524,34.924 Z M49.244,42.376 C49.868,42.376 50.396,42.16 50.828,41.728 C51.26,41.296 51.476,40.756 51.476,40.108 C51.476,39.46 51.26,38.926 50.828,38.506 C50.396,38.086 49.868,37.876 49.244,37.876 C48.62,37.876 48.086,38.092 47.642,38.524 C47.198,38.956 46.976,39.484 46.976,40.108 C46.976,40.732 47.192,41.266 47.624,41.71 C48.056,42.154 48.596,42.376 49.244,42.376 L49.244,42.376 Z M32.792,42.376 C33.416,42.376 33.944,42.16 34.376,41.728 C34.808,41.296 35.024,40.756 35.024,40.108 C35.024,39.46 34.808,38.926 34.376,38.506 C33.944,38.086 33.416,37.876 32.792,37.876 C32.168,37.876 31.634,38.092 31.19,38.524 C30.746,38.956 30.524,39.484 30.524,40.108 C30.524,40.732 30.74,41.266 31.172,41.71 C31.604,42.154 32.144,42.376 32.792,42.376 Z M51.404,27.4 L54.5,36.4 L54.5,48.424 C54.5,48.832 54.356,49.18 54.068,49.468 C53.7945975,49.7500049 53.4167279,49.9063648 53.024,49.900187 L51.476,49.900187 C51.068,49.900187 50.72,49.756 50.432,49.468 C50.1499951,49.1945975 49.9936352,48.8167279 50,48.424 L50,46.876 L32,46.876 L32,48.424 C32,48.832 31.856,49.18 31.568,49.468 C31.2945975,49.7500049 30.9167279,49.9063648 30.524,49.900187 L28.976,49.900187 C28.568,49.900187 28.22,49.756 27.932,49.468 C27.6499951,49.1945975 27.4936352,48.8167279 27.499813,48.424 L27.499813,36.4 L30.596,27.4 C30.74,26.944 31.016,26.584 31.424,26.32 C31.8310805,26.0562235 32.3069618,25.9184684 32.792,25.9238397 L49.244,25.9238397 C49.748,25.9238397 50.198,26.056 50.594,26.32 C50.99,26.584 51.26,26.944 51.404,27.4 L51.404,27.4 Z" id="" fill="#F75D34"></path>
                </g>
                <g id="Group-68" transform="translate(246.000000, 2.000000)">
                    <g id="Group-36-Copy">
                        <g id="Group-20">
                            <circle id="Oval-2" fill="#FFC069" fill-rule="nonzero" opacity="0.2" cx="38" cy="39" r="38"></circle>
                            <circle id="Oval-3" stroke="#F79712" stroke-width="2" fill="#FFFFFF" fill-rule="nonzero" opacity="0.5" cx="15.5" cy="9.5" r="4.5"></circle>
                            <circle id="Oval-3" fill="#F5982C" fill-rule="nonzero" opacity="0.5" cx="8.5" cy="2.5" r="2.5"></circle>
                            <path d="M51,0.773 L51,6.227 M48,3.227 L54,3.23" id="Line" stroke="#F27A18" stroke-width="2" opacity="0.4" stroke-linecap="round" stroke-linejoin="round"></path>
                        </g>
                    </g>
                    <g id="discount" transform="translate(14.000000, 11.000000)" fill-rule="nonzero">
                        <circle id="Oval-7" fill="#FFA236" opacity="0.2" cx="32.5" cy="16.5" r="16.5"></circle>
                        <path d="M38.495,8 L27.278,8 C25.109,8 23.494,8.69 21.876,10.309 C21.602619,10.582381 21.602619,11.025619 21.876,11.299 C22.149381,11.572381 22.592619,11.572381 22.866,11.299 C24.233,9.934 25.47,9.402 27.278,9.402 L38.495,9.402 C39.655,9.402 40.598,10.346 40.598,11.505 L40.598,22.722 C40.598,24.532 40.066,25.768 38.7,27.133 L17.88,47.983 C17.085,48.777 15.7,48.776 14.907,47.983 L2.018,35.092 C1.62238668,34.6984452 1.40058571,34.1630263 1.402,33.605 C1.402,33.044 1.621,32.515 2.018,32.119 L20.835,13.329 C21.125,13.402 21.415,13.475 21.715,13.556 C24.567,14.32 26.817,15.11 28.495,15.815 C28.1596353,16.428132 27.9822957,17.1151513 27.979,17.814 C27.981206,20.1363857 29.8636138,22.0183461 32.186,22.02 C34.5079957,22.0177949 36.3897949,20.1359957 36.392,17.814 C36.3903461,15.4916138 34.5083857,13.609206 32.186,13.607 C31.7988484,13.607 31.485,13.9208484 31.485,14.308 C31.485,14.6951516 31.7988484,15.009 32.186,15.009 C33.733921,15.0106535 34.9883465,16.265079 34.99,17.813 C34.9888977,19.3613115 33.7343111,20.6163456 32.186,20.618 C30.6376889,20.6163456 29.3831023,19.3613115 29.382,17.813 C29.382,17.309 29.52,16.816 29.774,16.387 C30.988,16.968 31.748,17.458 32.048,17.771 C31.8430229,17.824878 31.6334337,17.8593631 31.422,17.874 C31.0362291,17.9079655 30.7510345,18.2482291 30.785,18.634 C30.8189655,19.0197709 31.1592291,19.3049655 31.545,19.271 C31.976,19.232 33.288,19.117 33.54,18.177 C34.23,15.597 24.113,12.747 22.078,12.202 C18.964,11.367 15.974,10.797 13.658,10.595 C10.809,10.345 9.423,10.67 9.163,11.645 C9.038,12.112 8.705,13.353 14.389,15.595 C14.7490897,15.7372133 15.1562867,15.5605897 15.2985,15.2005 C15.4407133,14.8404103 15.2640897,14.4332133 14.904,14.291 C12.158,13.208 11.02,12.414 10.654,12.041 C11.52,11.787 14.476,11.861 19.236,12.942 L1.027,31.128 C0.36738409,31.7836407 -0.00244012082,32.6759721 -1.9168516e-05,33.606 C-0.00308697992,34.5367427 0.366795444,35.4299349 1.027,36.086 L13.915,48.974 C14.5708057,49.633249 15.4631166,50.0027046 16.393,50.0000147 C17.3235225,50.001972 18.2163023,49.6322604 18.873,48.973 L39.692,28.125 C41.31,26.507 42,24.89 42,22.722 L42,11.505 C41.9972461,9.57038381 40.4296162,8.00275391 38.495,8 Z M36.65,34.094 C36.3135986,33.9033834 35.8868059,34.0103015 35.68,34.337 L27.553,47.622 C26.965,48.596 25.663,48.932 24.678,48.387 L23.094,47.403 C22.7660872,47.1986609 22.3356214,47.2865111 22.114,47.603 C22.0121439,47.7540652 21.9769433,47.9403893 22.0166674,48.118202 C22.0563915,48.2960147 22.1675391,48.449644 22.324,48.543 L23.938,49.545 C24.4787519,49.8443915 25.0869006,50.0009889 25.705,50.0000047 C26.931,50.0000047 28.123,49.392 28.778,48.306 L36.902,35.023 C36.9964675,34.8674924 37.0229818,34.6800318 36.9753469,34.5044253 C36.9277119,34.3288188 36.8101017,34.1804534 36.65,34.094 L36.65,34.094 Z" id="Shape" stroke="#F75D34" stroke-width="0.5" fill="#F75D34"></path>
                        <path d="M17,26.677 L17,38.323 C17,38.697 17.223,39 17.5,39 C17.777,39 18,38.697 18,38.323 L18,26.677 C18,26.303 17.777,26 17.5,26 C17.223,26 17,26.303 17,26.677 Z M21,29.5 C21,30.327 21.673,31 22.5,31 C23.327,31 24,30.327 24,29.5 C24,28.673 23.327,28 22.5,28 C21.673,28 21,28.673 21,29.5 Z M11,34.5 C11,35.327 11.673,36 12.5,36 C13.327,36 14,35.327 14,34.5 C14,33.673 13.327,33 12.5,33 C11.673,33 11,33.673 11,34.5 Z" id="Shape" stroke="#F75D34" fill="#F75D34" opacity="0.9"></path>
                    </g>
                </g>
                <g id="Group-20" transform="translate(326.000000, 1.000000)">
                    <circle id="Oval-2" fill="#FFC069" fill-rule="nonzero" opacity="0.2" cx="38" cy="39" r="38"></circle>
                    <g id="noun_887570_cc" transform="translate(15.000000, 22.000000)" fill-rule="nonzero">
                        <g id="Group">
                            <path d="M43.62,8.79 L2.38,8.79 C1.269,8.79 0.397,9.686 0.397,10.826 L0.397,32.802 C0.397,33.942 1.269,34.837 2.379,34.837 L43.621,34.837 C44.731,34.837 45.603,33.942 45.603,32.802 L45.603,10.826 C45.603,9.686 44.731,8.791 43.621,8.791 L43.62,8.79 Z M2.777,11.234 L5.157,11.234 C5.157,12.374 4.284,13.268 3.173,13.268 L2.777,13.268 L2.777,11.234 L2.777,11.234 Z M2.777,32.396 L2.777,30.36 L3.173,30.36 C4.283,30.36 5.156,31.256 5.156,32.395 L2.776,32.395 L2.777,32.396 Z M43.225,32.396 L40.845,32.396 C40.845,31.256 41.718,30.361 42.829,30.361 L43.225,30.361 L43.225,32.396 Z M43.225,27.92 L42.829,27.92 C40.449,27.92 38.467,29.954 38.467,32.396 L7.534,32.396 C7.534,29.954 5.552,27.92 3.172,27.92 L2.776,27.92 L2.776,15.71 L3.172,15.71 C5.552,15.71 7.534,13.675 7.534,11.234 L38.862,11.234 C38.862,13.675 40.845,15.71 43.224,15.71 L43.224,27.92 L43.225,27.92 Z M43.225,13.268 C42.115,13.268 41.242,12.373 41.242,11.234 L43.225,11.234 L43.225,13.268 L43.225,13.268 Z" id="Shape" fill="#F15A11"></path>
                            <rect id="Rectangle-path" fill="#F15A11" x="4.759" y="4.314" width="36.483" height="2.442" rx="1.221"></rect>
                            <rect id="Rectangle-path" fill="#F15A11" x="9.517" y="0.244" width="26.966" height="2.442" rx="1.221"></rect>
                            <circle id="Oval" fill="#FFAE19" transform="translate(23.028000, 21.803000) rotate(-45.000000) translate(-23.028000, -21.803000) " cx="23.028" cy="21.803" r="8.438"></circle>
                            <polygon id="Star" fill="#FFFFFF" points="23 24.423 20.091 25.952 20.647 22.713 18.294 20.419 21.546 19.947 23 17 24.454 19.947 27.706 20.419 25.353 22.713 25.909 25.952"></polygon>
                            <ellipse id="Oval" fill="#F15A11" cx="8.724" cy="16.279" rx="1.586" ry="1.628"></ellipse>
                            <ellipse id="Oval" fill="#F15A11" cx="37.276" cy="27.674" rx="1.586" ry="1.628"></ellipse>
                        </g>
                    </g>
                    <circle id="Oval-3" stroke="#F79712" stroke-width="2" fill="#FFFFFF" fill-rule="nonzero" opacity="0.5" cx="15.5" cy="9.5" r="4.5"></circle>
                    <circle id="Oval-3" fill="#F5982C" fill-rule="nonzero" opacity="0.5" cx="8.5" cy="2.5" r="2.5"></circle>
                    <path d="M51,0.773 L51,6.227 M48,3.227 L54,3.23" id="Line" stroke="#F27A18" stroke-width="2" opacity="0.4" stroke-linecap="round" stroke-linejoin="round"></path>
                </g>
                <g id="Group-20" transform="translate(404.000000, 1.000000)">
                    <circle id="Oval-2" fill="#FFC069" fill-rule="nonzero" opacity="0.2" cx="38" cy="39" r="38"></circle>
                    <g id="Group" transform="translate(38.000000, 39.000000) scale(-1, 1) translate(-38.000000, -39.000000) translate(22.000000, 23.000000)" fill="#F75D34" fill-rule="nonzero">
                        <path d="M29.487,28.923 L29.45,28.923 L29.45,13.538 C29.45,12.615 28.845,12 27.937,12 C27.029,12 26.424,12.615 26.424,13.538 L26.424,28.923 L21.884,28.923 L21.884,16.615 C21.884,15.692 21.279,15.077 20.371,15.077 C19.464,15.077 18.858,15.692 18.858,16.615 L18.858,28.923 L14.32,28.923 L14.32,19.693 C14.32,18.769 13.715,18.153 12.807,18.153 C11.899,18.153 11.294,18.769 11.294,19.693 L11.294,28.923 L1.514,28.923 C0.606,28.923 0.000998762206,29.538 0.000998762206,30.462 C0,31.385 0.605,32 1.513,32 L29.487,32 C30.395,32 31,31.385 31,30.462 C31,29.538 30.395,28.923 29.487,28.923 Z" id="Path"></path>
                        <path d="M27.520047,0.000322242143 L21.606047,0.000322242143 C20.719047,0.000322242143 20.128047,0.632322242 20.128047,1.58032224 C20.128047,2.52732224 20.719047,3.15932224 21.606047,3.15932224 L23.972047,3.15932224 L16.770047,10.8363222 L8.64004695,9.41432224 C8.04804695,9.41432224 7.45704695,9.57232224 7.16004695,10.0463222 L1.24804695,19.5223222 C0.805046954,20.3123222 0.953046954,21.2603222 1.69204695,21.7333222 C2.43204695,22.2073222 3.31804695,22.0493222 3.76204695,21.2603222 L9.08404695,12.5733222 L16.919047,14.1533222 C17.362047,14.3103222 17.806047,13.9943222 18.249047,13.6793222 L26.042047,5.36932224 L26.042047,7.89732224 C26.042047,8.84532224 26.634047,9.47732224 27.521047,9.47732224 C28.408047,9.47732224 28.999047,8.84532224 28.999047,7.89732224 L28.999047,1.57932224 C28.998047,0.632322242 28.258047,0.000322242143 27.520047,0.000322242143 Z" id="Path" transform="translate(14.999023, 11.000161) rotate(180.000000) translate(-14.999023, -11.000161) "></path>
                    </g>
                    <circle id="Oval-3" stroke="#F79712" stroke-width="2" fill="#FFFFFF" fill-rule="nonzero" opacity="0.5" cx="15.5" cy="9.5" r="4.5"></circle>
                    <circle id="Oval-3" fill="#F5982C" fill-rule="nonzero" opacity="0.5" cx="8.5" cy="2.5" r="2.5"></circle>
                    <path d="M51,0.773 L51,6.227 M48,3.227 L54,3.23" id="Line" stroke="#F27A18" stroke-width="2" opacity="0.4" stroke-linecap="round" stroke-linejoin="round"></path>
                </g>
            </g>
        </g>
    </g>
</svg>