<svg width="663" height="105" viewBox="0 0 663 105" xmlns="http://www.w3.org/2000/svg" xmlns:xlink="http://www.w3.org/1999/xlink"><defs><path d="M22.76 41.575c.889 0 1.613-.74 1.613-1.657 0-.916-.724-1.656-1.613-1.656-.888 0-1.612.74-1.612 1.656 0 .917.724 1.657 1.612 1.657z" id="path-1"/><path d="M43.825 41.575c.888 0 1.612-.74 1.612-1.657 0-.916-.724-1.656-1.612-1.656-.889 0-1.612.74-1.612 1.656 0 .917.723 1.657 1.612 1.657z" id="path-2"/></defs><g id="FULL-VIEW" fill="none" fill-rule="evenodd"><g id="icons-sprite"><g id="Group-13"><circle id="Oval-2-Copy-2" fill="#FFA236" opacity=".15" cx="52.5" cy="52.5" r="52.5"/><g id="Group-8" transform="translate(27 28)"><g id="Group-7" transform="translate(17.593)"><path d="M20.22 29.375c-.156 0-.313 0-.469-.078-.469-.156-.703-.625-.703-1.094V21.72h-7.266c-.625 0-1.171-.547-1.171-1.172 0-.625.546-1.172 1.171-1.172h8.516c.313 0 .625.156.86.313.234.234.312.546.312.859v4.765l5.547-5.625c.234-.234.547-.312.86-.312h3.437l-.078-16.797-28.516.156.078 9.532c0 .625-.547 1.171-1.172 1.171-.625 0-1.172-.546-1.172-1.171L.376 1.562c0-.312.156-.625.313-.859.234-.234.547-.312.859-.312L32.329.234c.313 0 .625.157.86.313.234.234.312.547.312.86l.078 19.14c0 .312-.156.625-.312.86-.235.234-.547.312-.86.312h-4.14l-7.188 7.343c-.234.157-.547.313-.86.313z" id="Shape" fill="#FFA236" fill-rule="nonzero"/><path d="M7.6 6.481h19.84" id="Path-2" stroke="#FFAE19" stroke-width="2" stroke-linecap="round"/><path d="M7.6 10.88h19.84" id="Path-2-Copy" stroke="#FFAE19" stroke-width="2" stroke-linecap="round"/><path d="M7.407 15.278h7.862" id="Path-2-Copy-2" stroke="#FFAE19" stroke-width="2" stroke-linecap="round"/><path id="Star" fill="#FFA236" d="M25.463 16.607l-1.43.75.273-1.59-1.158-1.125 1.6-.232.715-1.447.715 1.447 1.6.232-1.158 1.126.274 1.59z"/><path id="Star-Copy" fill="#FFA236" d="M19.907 16.607l-1.43.75.273-1.59-1.157-1.125 1.6-.232.714-1.447.716 1.447 1.6.232-1.158 1.126.273 1.59z"/></g><path d="M23.281 31.563c2.344-1.641 3.828-4.297 3.828-7.344 0-4.922-4.062-8.985-8.984-8.985s-8.906 4.063-8.906 8.985c0 3.047 1.484 5.703 3.828 7.343A17.743 17.743 0 0 0 .39 48.594c0 .625.546 1.172 1.171 1.172s1.172-.547 1.172-1.172c0-8.516 6.954-15.39 15.391-15.39 8.516 0 15.469 6.952 15.469 15.39 0 .625.547 1.172 1.172 1.172.625 0 1.172-.547 1.172-1.172 0-8.047-5.391-14.844-12.657-17.032zm-11.718-7.344a6.635 6.635 0 0 1 6.64-6.64 6.635 6.635 0 0 1 6.64 6.64 6.635 6.635 0 0 1-6.64 6.64 6.635 6.635 0 0 1-6.64-6.64z" id="Shape" fill="#F75D34" fill-rule="nonzero"/></g><g id="Group-3" transform="translate(20 5)" fill="#F5982C" opacity=".5"><path id="Star" d="M6.682 10.52l-4.13 2.167.79-4.59L0 4.846l4.617-.67L6.682 0l2.065 4.176 4.618.67-3.341 3.25.788 4.59z"/><path id="Star-Copy-2" d="M15.68 15.793l-2.274 1.193.434-2.527-1.84-1.79 2.543-.37L15.68 10l1.137 2.3 2.543.369-1.84 1.79.434 2.527z"/><path id="Star-Copy-3" d="M8.18 19.432l-1.347.707.257-1.498L6 17.581l1.506-.219L8.18 16l.674 1.362 1.506.219-1.09 1.06.257 1.498z"/></g></g><g id="car-dealers" transform="translate(110)"><circle id="Oval-2-Copy" fill="#FFA236" opacity=".15" cx="52.5" cy="52.5" r="52.5"/><g id="Group-2" transform="translate(19 28)" fill-rule="nonzero"><g id="Oval"><use fill="#F15A11" fill-rule="evenodd" xlink:href="#path-1"/><path stroke="#FFF2E1" d="M22.76 42.075c-1.168 0-2.112-.968-2.112-2.157 0-1.188.944-2.156 2.112-2.156 1.17 0 2.113.968 2.113 2.156 0 1.19-.944 2.157-2.113 2.157z"/></g><g id="Oval"><use fill="#F15A11" fill-rule="evenodd" xlink:href="#path-2"/><path stroke="#FFF2E1" d="M43.825 42.075c-1.169 0-2.112-.968-2.112-2.157 0-1.188.943-2.156 2.112-2.156 1.168 0 2.112.968 2.112 2.156 0 1.19-.944 2.157-2.112 2.157z"/></g><path d="M27.976 39.879c0 .715.58 1.295 1.295 1.295h8.044a1.295 1.295 0 0 0 0-2.59H29.27c-.715 0-1.295.58-1.295 1.295z" id="Shape" fill="#F75D34"/><path d="M65.982 13.367L61.513 1.062a1.29 1.29 0 1 0-2.505.442c0 .166.023.311.07.442l4.042 11.129-.816.243c-3.83 1.143-7.885 1.038-11.69-.3l-.441-.154-.083-.46-.904-4.98a1.295 1.295 0 0 0-2.548.463l.927 5.109-.673.214a18.833 18.833 0 0 1-11.757-.107l-.548-.183V7.656a1.295 1.295 0 0 0-2.59 0v5.263l-.547.184a18.828 18.828 0 0 1-11.757.107l-.673-.214.126-.695.802-4.413a1.294 1.294 0 1 0-2.549-.463l-.987 5.439-.44.154c-3.806 1.338-7.86 1.444-11.692.3l-.816-.243L7.197 2.799h42.608a1.295 1.295 0 0 0 0-2.59H6.29c-.545 0-1.031.34-1.218.853L.602 13.368a1.294 1.294 0 0 0 .717 1.636c5.133 2.157 10.764 2.265 15.954.312l.283-.106.283.106a21.413 21.413 0 0 0 15.17 0l.283-.106.283.106a21.413 21.413 0 0 0 15.17 0l.283-.106.282.106a21.524 21.524 0 0 0 7.045 1.363l.782.02v30.304H9.447v-21.1a1.295 1.295 0 0 0-2.59 0v22.395c0 .715.58 1.295 1.295 1.295h50.281c.715 0 1.295-.58 1.295-1.295V16.5l.672-.112a21.743 21.743 0 0 0 4.865-1.385c.638-.268.953-.988.717-1.637z" id="Shape" fill="#F75D34"/><path d="M50.167 41.174c-.716 0-1.295-.58-1.295-1.295v-3.193a3.668 3.668 0 0 0-3.668-3.663H21.382a3.67 3.67 0 0 0-3.669 3.663v3.193a1.295 1.295 0 0 1-2.59 0v-3.193a6.263 6.263 0 0 1 4.31-5.939l.38-.125 1.577-4.6a5.284 5.284 0 0 1 5.073-3.78h13.658c2.356 0 4.4 1.533 5.09 3.827l1.432 4.176.13.378.379.125a6.263 6.263 0 0 1 4.31 5.938v3.193c0 .715-.58 1.295-1.295 1.295zM22.98 29.369l-.364 1.064h21.355l-1.225-3.57c-.365-1.212-1.403-2.031-2.624-2.031H26.463c-1.206 0-2.255.805-2.61 1.985l-.873 2.552z" id="Combined-Shape" fill="#FFA236"/></g><ellipse id="Oval-3" stroke="#F79712" stroke-width="2" fill="#FFF" opacity=".5" cx="32.27" cy="15.26" rx="5.27" ry="5.26"/><ellipse id="Oval-3" fill="#F5982C" opacity=".5" cx="23.928" cy="6.922" rx="2.928" ry="2.922"/><path d="M73.513 5.319v6.375M70 8.188l7.026.003" id="Line" stroke="#F27A18" stroke-width="2" opacity=".4" stroke-linecap="round" stroke-linejoin="round"/></g><g id="expert-reviews" transform="translate(220)"><circle id="Oval-2-Copy-4" fill="#FFA236" opacity=".15" cx="52.5" cy="52.5" r="52.5"/><ellipse id="Oval-3" stroke="#FFA236" stroke-width="2" fill="#FFF" opacity=".5" cx="78.27" cy="28.26" rx="5.27" ry="5.26"/><ellipse id="Oval-3" stroke="#FFA236" stroke-width="2" fill="#FFA236" opacity=".5" cx="32.072" cy="15.922" rx="2.928" ry="2.922"/><path d="M24.057 20.965l4.125 6.114m-4.874-.942l5.827-3.926" id="Line" stroke="#FFA236" stroke-width="2" fill="#F0F1F2" opacity=".4" stroke-linecap="round" stroke-linejoin="round"/><g id="Group-6" transform="translate(35 28)" fill-rule="nonzero"><g id="Group-4"><g id="noun_1206632_cc"><g id="Group"><path d="M35.013 41.787l-4.689-12.112c.633-.686-1.738-1.873-2.389-1.212-.65.66-1.368 1.261-2.13 1.785a14.216 14.216 0 0 1-5.137 2.196 14.37 14.37 0 0 1-5.792 0c-.923-.192-1.855 2.23-.737 2.462.321.067.646.122.971.17l-3.126 8.074-2.136-3.564a1.502 1.502 0 0 0-1.701-.672l-3.974 1.138 1.31-3.383a1.503 1.503 0 0 0-2.801-1.084L.28 41.787a1.502 1.502 0 0 0 1.815 1.986l5.77-1.653 3.122 5.21a1.502 1.502 0 0 0 2.69-.23l4.588-11.85a17.267 17.267 0 0 0 2.89-.344 17.117 17.117 0 0 0 3.268-1.03c1.03-.443 2.025-.99 2.957-1.63.191-.131.37-.283.555-.422l3.186 8.228-3.972-1.138a1.503 1.503 0 0 0-1.702.672l-2.136 3.565-1.482-3.829a1.502 1.502 0 0 0-2.802 1.084L21.62 47.1a1.503 1.503 0 0 0 2.69.23l3.122-5.21 5.769 1.653a1.503 1.503 0 0 0 1.814-1.986z" id="Shape" fill="#F75D34"/><path d="M17.647 35.294C7.901 35.294 0 27.394 0 17.647 0 7.901 7.9 0 17.647 0c9.746 0 17.647 7.9 17.647 17.647 0 9.746-7.9 17.647-17.647 17.647zm0-2.941c8.122 0 14.706-6.584 14.706-14.706S25.769 2.941 17.647 2.941 2.941 9.525 2.941 17.647s6.584 14.706 14.706 14.706z" id="Oval-4" fill="#F75D34"/><path d="M16.556 9.398l-1.924 3.957-4.293.633a1.212 1.212 0 0 0-.675 2.059l3.117 3.085-.736 4.362a1.211 1.211 0 0 0 1.764 1.27l3.836-2.048 3.836 2.048a1.214 1.214 0 0 0 1.277-.085c.375-.27.564-.73.487-1.185l-.737-4.361 3.118-3.086a1.211 1.211 0 0 0-.676-2.059l-4.293-.633-1.924-3.957a1.211 1.211 0 0 0-2.177 0z" id="Shape" fill="#FFA236"/></g></g></g></g></g><g id="ORP" transform="translate(332)"><circle id="Oval-2-Copy-5" fill="#FFA236" opacity=".15" cx="52.5" cy="52.5" r="52.5"/><ellipse id="Oval-3" stroke="#FFA236" stroke-width="2" fill="#FFF" opacity=".5" cx="74.5" cy="24.493" rx="3.5" ry="3.493"/><path d="M72.575 12.63l-4.124 6.115m-.952-4.872l5.823 3.932" id="Line" stroke="#FFA236" stroke-width="2" fill="#F0F1F2" opacity=".4" stroke-linecap="round" stroke-linejoin="round"/><path d="M25.59 17.354l.77 7.335m-3.86-3.12l6.988-.73" id="Line-Copy" stroke="#FFA236" stroke-width="2" fill="#F0F1F2" opacity=".4" stroke-linecap="round" stroke-linejoin="round"/><path d="M30.147 9.085l-1.294 4.83m-1.8-2.943l4.83 1.296" id="Line-Copy-2" stroke="#FFA236" stroke-width="1.4" fill="#F0F1F2" opacity=".4" stroke-linecap="round" stroke-linejoin="round"/><g id="New-car" transform="translate(26 29)" fill-rule="nonzero"><circle id="Oval" fill="#FFA236" cx="7.5" cy="31.574" r="2.5"/><circle id="Oval" fill="#FFA236" cx="42.5" cy="31.574" r="2.5"/><path d="M45 21.574h-.75L41 11.324c-.5-3.25-2.75-4.75-6-4.75H23l3.25-3.25c.5-.5.5-1.25 0-1.75s-1.25-.5-1.75 0l-3.25 3.25-4-4.25c-.5-.5-1.25-.5-1.75 0s-.5 1.5-.25 2l4.25 4H15c-3.25 0-5.5 1.5-6.25 4.75l-3 10.25H5c-2.75 0-5 2.25-5 5v11.5c0 .75.25 1 1 1h1.5v2.5c0 2.75 2.25 5 5 5s5-2.25 5-5v-2.5h25v2.5c0 2.75 2.25 5 5 5s5-2.25 5-5v-2.5H49c.75 0 1-.25 1-1v-11.5c0-2.75-2.25-5-5-5zm-6.25-9.75l3 9.75H22.5v-12.5H35c2 0 3.25 1 3.75 2.75zm-27.5.25c.5-2 1.75-3 3.75-3h5v12.5H8.25l3-9.5zM10 36.574v5c0 1.5-1 2.5-2.5 2.5s-2.5-1-2.5-2.5v-5H2.5v-10c0-1.5 1-2.5 2.5-2.5h15v12.5H10zm37.5 0H45v5c0 1.5-1 2.5-2.5 2.5s-2.5-1-2.5-2.5v-5H22.5v-12.5H45c1.5 0 2.5 1 2.5 2.5v10z" id="Shape" fill="#F75D34"/></g><rect id="Rectangle-3" fill="#FFA236" x="46" y="35" width="2.8" height="34" rx="1.4"/><rect id="Rectangle-3-Copy" fill="#FFA236" transform="rotate(43 49.616 33.058)" x="48.216" y="29.122" width="2.8" height="7.872" rx="1.4"/><rect id="Rectangle-3-Copy-2" fill="#FFA236" transform="rotate(-44.3 44.81 33.196)" x="43.411" y="28.096" width="2.8" height="10.2" rx="1.4"/></g><g id="images" transform="translate(442)"><circle id="Oval-2-Copy-6" fill="#FFA236" opacity=".15" cx="52.5" cy="52.5" r="52.5"/><ellipse id="Oval-3" stroke="#F79712" stroke-width="2" fill="#FFF" opacity=".5" cx="20.27" cy="22.26" rx="5.27" ry="5.26"/><ellipse id="Oval-3" fill="#F5982C" opacity=".5" cx="28.928" cy="12.922" rx="2.928" ry="2.922"/><ellipse id="Oval-3-Copy" fill="#F5982C" opacity=".5" cx="21.43" cy="10.427" rx="1.43" ry="1.427"/><path d="M74.513 8.319v6.375M71 11.188l7.026.003" id="Line" stroke="#F27A18" stroke-width="2" opacity=".4" stroke-linecap="round" stroke-linejoin="round"/><path d="M79.833 18.257l-2.76 2.4m.196-2.841l2.642 3.043" id="Line-Copy-3" stroke="#F27A18" stroke-width="1.5" opacity=".4" stroke-linecap="round" stroke-linejoin="round"/><g id="noun_1181454_cc" transform="translate(28 28)" fill-rule="nonzero"><g id="Group"><path d="M36.001 20.283c-3.458 0-6.271-2.816-6.271-6.278 0-3.462 2.813-6.278 6.271-6.278 3.459 0 6.272 2.817 6.272 6.278 0 3.461-2.813 6.278-6.272 6.278z" id="Shape" fill="#FFA236"/><path d="M4 3a1 1 0 0 0-1 1v42a1 1 0 0 0 1 1h42a1 1 0 0 0 1-1V4a1 1 0 0 0-1-1H4zm0-3h42a4 4 0 0 1 4 4v42a4 4 0 0 1-4 4H4a4 4 0 0 1-4-4V4a4 4 0 0 1 4-4z" id="Rectangle" fill="#F75D34"/></g><path d="M26.863 39.345a1.5 1.5 0 0 0 2.05.076l4.68-4.073L46 48.324a1.5 1.5 0 1 0 2.169-2.073l-13.395-14.01a1.5 1.5 0 0 0-2.069-.096l-4.7 4.09-10.949-11.038a1.5 1.5 0 0 0-2.144.015L1.324 39.301a1.5 1.5 0 1 0 2.16 2.082l12.521-12.984 10.858 10.946z" id="Path-8" fill="#F75D34"/></g></g><g id="videos" transform="translate(552)"><circle id="Oval-2-Copy-7" fill="#FFA236" opacity=".15" cx="52.5" cy="52.5" r="52.5"/><ellipse id="Oval-3" stroke="#F79712" stroke-width="2" fill="#FFF" opacity=".5" cx="14.27" cy="25.26" rx="5.27" ry="5.26"/><path id="Triangle" stroke="#FFA236" stroke-width="1.4" fill="#F0F1F2" opacity=".4" stroke-linecap="round" stroke-linejoin="round" d="M27.998 17.101L25.21 11l5.997.21z"/><path id="Triangle-Copy" stroke="#FFA236" stroke-width="1.4" fill="#F0F1F2" opacity=".4" stroke-linecap="round" stroke-linejoin="round" d="M75.466 2.23l-2.451 6.244L69 4.014z"/><path d="M80.037 10.965l-4.124 6.114m-.952-4.871l5.823 3.932" id="Line" stroke="#FFA236" stroke-width="2" fill="#F0F1F2" opacity=".4" stroke-linecap="round" stroke-linejoin="round"/><path d="M28.035 21.847l-1.779 2.637m-.41-2.1l2.51 1.695" id="Line-Copy-4" stroke="#FFA236" stroke-width="1.2" fill="#F0F1F2" opacity=".4" stroke-linecap="round" stroke-linejoin="round"/><g id="noun_1181435_cc" transform="translate(24 28)"><g id="Group"><path d="M3.5 46.5v-43H47a1.5 1.5 0 0 0 0-3H2.5a2 2 0 0 0-2 2v45a2 2 0 0 0 2 2H47a1.5 1.5 0 0 0 0-3H3.5z" id="Path-5" fill="#F75D34" fill-rule="nonzero"/><rect id="Rectangle-2" fill="#F75D34" x="53" width="4" height="50" rx="2"/><path id="Rectangle-path" fill="#F75D34" fill-rule="nonzero" d="M43.229 18.254h4.688v4.597h-4.688zM43.229 36.043h4.688v4.597h-4.688zM43.229 27.149h4.688v4.596h-4.688zM9.375 18.254h4.688v4.597H9.375zM43.229 9.36h4.688v4.597h-4.688zM9.375 9.36h4.688v4.597H9.375zM9.42 35.998h4.597v4.688H9.42zM9.375 27.149h4.688v4.596H9.375z"/><path d="M22.982 17.13l10.91 6.146a2 2 0 0 1-.007 3.489l-10.91 6.088A2 2 0 0 1 20 31.106V18.873a2 2 0 0 1 2.982-1.743z" id="Path-6" fill="#FFA236"/></g></g></g></g></g></svg>