<?xml version="1.0" encoding="UTF-8"?>
<svg width="157px" height="101px" viewBox="0 0 157 101" version="1.1" xmlns="http://www.w3.org/2000/svg" xmlns:xlink="http://www.w3.org/1999/xlink">
    <!-- Generator: Sketch 55.2 (78181) - https://sketchapp.com -->
    <title>Group 19</title>
    <desc>Created with Sketch.</desc>
    <defs>
        <linearGradient x1="50%" y1="50.8774635%" x2="84.2031864%" y2="40.9342018%" id="linearGradient-1">
            <stop stop-color="#F75D34" offset="0%"></stop>
            <stop stop-color="#FFA236" offset="100%"></stop>
        </linearGradient>
        <linearGradient x1="50%" y1="50.6973954%" x2="84.2031864%" y2="42.7946343%" id="linearGradient-2">
            <stop stop-color="#F75D34" offset="0%"></stop>
            <stop stop-color="#FFA236" offset="100%"></stop>
        </linearGradient>
        <radialGradient cx="100%" cy="14.7256541%" fx="100%" fy="14.7256541%" r="138.879369%" gradientTransform="translate(1.000000,0.147257),scale(0.583843,1.000000),rotate(26.745663),translate(-1.000000,-0.147257)" id="radialGradient-3">
            <stop stop-color="#FFC788" offset="0%"></stop>
            <stop stop-color="#F75D34" offset="100%"></stop>
        </radialGradient>
    </defs>
    <g id="temp" stroke="none" stroke-width="1" fill="none" fill-rule="evenodd">
        <g id="PWA-Mobile-Price-" transform="translate(-183.000000, -918.000000)">
            <g id="Group-8" transform="translate(20.000000, 231.000000)">
                <g id="Group-18" transform="translate(0.000000, 636.000000)">
                    <g id="Group-10">
                        <g id="Oval-2-+-Oval-2-Mask">
                            <g id="Group-17" transform="translate(209.769913, 155.635334) rotate(-15.000000) translate(-209.769913, -155.635334) translate(70.769913, 83.135334)">
                                <g id="Group-19" transform="translate(0.422303, 0.292292)">
                                    <path d="M0,72.3881036 C30.5264593,55.4115181 51.4017626,49.1690293 62.62591,53.6606374 C79.462131,60.3980495 96.2983521,56.7325833 114.938454,53.6606374 C133.578556,50.5886914 155.610329,21.5044502 178.074283,21.5044502 C200.538236,21.5044502 222.329493,31.955211 239.406231,21.5044502 C256.48297,11.0536893 261.628258,-1.13686838e-13 271.876086,-1.13686838e-13 C278.707971,-1.13686838e-13 278.707971,37.3333333 271.876086,112 L18.8042894,112 L0,72.3881036 Z" id="Path-4" fill="url(#linearGradient-1)" opacity="0.049999997"></path>
                                    <path d="M12.7327485,82.0325456 C27.5049099,74.6476806 40.4988104,73.2153191 51.7144499,77.7354612 C67.8698935,84.2464496 76.9496389,59.5326985 99.7814765,70.0498503 C122.613314,80.567002 156.260233,46.638285 171.882016,46.638285 C187.5038,46.638285 216.103681,52.0991137 233.167475,41.581962 C250.23127,31.0648103 255.372658,26.4129931 265.612718,26.4129931 C272.439425,26.4129931 272.439425,57.4129931 265.612718,119.412993 L12.7327485,119.412993 L12.7327485,82.0325456 Z" id="Path-4" fill="url(#linearGradient-2)" opacity="0.049999997"></path>
                                    <path d="M13.5413912,106.060573 C28.3135526,98.6757079 41.3074531,97.2433464 52.5230927,101.763488 C68.6785362,108.274477 77.7582816,83.5607259 100.590119,94.0778776 C123.421957,104.595029 157.068876,70.6663123 172.690659,70.6663123 C188.312443,70.6663123 216.912324,76.1271411 233.976118,65.6099893 C251.039913,55.0928376 256.181301,50.4410205 266.421361,50.4410205 C273.248068,50.4410205 273.248068,81.4410205 266.421361,143.44102 L13.5413912,143.44102 L13.5413912,106.060573 Z" id="Path-4" fill="url(#linearGradient-2)" opacity="0.049999997"></path>
                                    <g id="Group-2" transform="translate(223.589405, 59.129390) rotate(15.000000) translate(-223.589405, -59.129390) translate(199.089405, 36.129390)" fill="url(#radialGradient-3)">
                                        <g id="Group-4" transform="translate(24.214419, 22.967146) scale(-1, 1) rotate(68.000000) translate(-24.214419, -22.967146) translate(8.214419, 3.467146)">
                                            <path d="M7.93882408,9.97183638 L29.4798923,9.66061263 C31.1365736,9.63667703 32.4989829,10.960279 32.5229185,12.6169603 C32.5231272,12.6314058 32.5232315,12.6458526 32.5232315,12.6602996 L32.5232315,25.7388545 C32.5232315,27.3788083 31.2063535,28.71485 29.5665708,28.7385414 L7.96832912,29.0505912 C7.69277374,29.0545724 7.42778986,28.9446603 7.23595178,28.7468099 L0.157772821,21.4467972 C-0.987864996,20.2652545 -0.967728403,18.381336 0.202903037,17.2245511 L7.25038298,10.260431 C7.4340095,10.0789765 7.68069516,9.97556581 7.93882408,9.97183638 Z M8.51433472,22.4751138 C9.88463399,22.4751138 10.995481,21.2287976 10.995481,19.6913887 C10.995481,18.1539798 9.88463399,16.9076636 8.51433472,16.9076636 C7.14403545,16.9076636 6.03318842,18.1539798 6.03318842,19.6913887 C6.03318842,21.2287976 7.14403545,22.4751138 8.51433472,22.4751138 Z" id="Combined-Shape" transform="translate(15.917398, 19.355494) rotate(65.000000) translate(-15.917398, -19.355494) "></path>
                                        </g>
                                    </g>
                                    <path d="M239.318969,32.0714838 L242.684698,32.5369569 C244.152729,32.7517907 245.298509,33.8975707 245.513342,35.3656014 L245.978816,38.7313303 C246.014621,38.9461641 246.301066,38.9461641 246.336872,38.7313303 L246.802345,35.3656014 C247.017179,33.8975707 248.162959,32.7517907 249.630989,32.5369569 L252.996718,32.0714838 C253.211552,32.0356782 253.211552,31.7492331 252.996718,31.7134275 L249.630989,31.2479544 C248.162959,31.0331206 247.017179,29.8873406 246.802345,28.4193099 L246.336872,25.053581 C246.301066,24.8387472 246.014621,24.8387472 245.978816,25.053581 L245.513342,28.4551155 C245.298509,29.9231462 244.152729,31.0689262 242.684698,31.28376 L239.318969,31.7492331 C239.104135,31.7492331 239.104135,32.0356782 239.318969,32.0714838 Z" id="Path" fill="#FFA236" transform="translate(246.157844, 31.892456) rotate(-5.000000) translate(-246.157844, -31.892456) "></path>
                                    <path d="M197.711537,19.5022844 L200.115629,19.8347652 C201.164222,19.9882179 201.982636,20.8066322 202.136089,21.8552255 L202.46857,24.2593176 C202.494145,24.4127703 202.698749,24.4127703 202.724324,24.2593176 L203.056805,21.8552255 C203.210258,20.8066322 204.028672,19.9882179 205.077266,19.8347652 L207.481358,19.5022844 C207.63481,19.4767089 207.63481,19.2721053 207.481358,19.2465299 L205.077266,18.9140491 C204.028672,18.7605964 203.210258,17.9421821 203.056805,16.8935887 L202.724324,14.4894966 C202.698749,14.336044 202.494145,14.336044 202.46857,14.4894966 L202.136089,16.9191642 C201.982636,17.9677575 201.164222,18.7861718 200.115629,18.9396245 L197.711537,19.2721053 C197.558084,19.2721053 197.558084,19.4767089 197.711537,19.5022844 Z" id="Path" fill="#FFA236" transform="translate(202.596447, 19.374407) rotate(45.000000) translate(-202.596447, -19.374407) "></path>
                                    <path d="M184.228054,50.1401126 L185.910918,50.3728492 C186.644934,50.480266 187.217824,51.0531561 187.325241,51.7871714 L187.557977,53.4700359 C187.57588,53.5774527 187.719103,53.5774527 187.737005,53.4700359 L187.969742,51.7871714 C188.077159,51.0531561 188.650049,50.480266 189.384064,50.3728492 L191.066929,50.1401126 C191.174345,50.1222098 191.174345,49.9789873 191.066929,49.9610845 L189.384064,49.7283479 C188.650049,49.620931 188.077159,49.048041 187.969742,48.3140256 L187.737005,46.6311612 C187.719103,46.5237443 187.57588,46.5237443 187.557977,46.6311612 L187.325241,48.3319284 C187.217824,49.0659438 186.644934,49.6388338 185.910918,49.7462507 L184.228054,49.9789873 C184.120637,49.9789873 184.120637,50.1222098 184.228054,50.1401126 Z" id="Path" fill="#FFA236" transform="translate(187.647491, 50.050599) rotate(85.000000) translate(-187.647491, -50.050599) "></path>
                                </g>
                            </g>
                        </g>
                    </g>
                </g>
            </g>
        </g>
    </g>
</svg>