<?xml version="1.0" encoding="UTF-8"?>
<svg width="22px" height="21px" viewBox="0 0 22 21" version="1.1" xmlns="http://www.w3.org/2000/svg" xmlns:xlink="http://www.w3.org/1999/xlink">
    <!-- Generator: Sketch 63.1 (92452) - https://sketch.com -->
    <title>Combined Shape</title>
    <desc>Created with Sketch.</desc>
    <g id="online-booking" stroke="none" stroke-width="1" fill="none" fill-rule="evenodd">
        <g id="Online-booking-Benefits" transform="translate(-48.000000, -188.000000)" fill="#007FFF" fill-rule="nonzero">
            <g id="Group-51" transform="translate(28.000000, 109.000000)">
                <g id="Group-104">
                    <g id="Group">
                        <path d="M30.7,79 C36.6094468,79 41.4,83.7905532 41.4,89.7 C41.4,94.049937 38.78004,97.9162595 34.8370176,99.5706998 L34.8,99.483 L34.5971461,99.6350586 C31.1509999,95.6206649 27.1765923,91.3529727 27.1765923,91.3346421 L27.1765923,90.1156656 L27.1949228,90.0698395 C27.5004322,90.1126108 27.8578728,90.1339961 28.2672555,90.1339961 C30.198075,90.1339961 31.398709,89.5077112 31.8691935,88.2551226 C31.9425157,88.071817 31.9791763,87.882404 31.9791763,87.6868779 L26.7366609,87.6868779 C26.7122202,87.6868779 26.7,87.6746577 26.7,87.650217 C27.2804679,86.807011 27.5768076,86.3854143 27.589028,86.3854143 L31.7500454,86.3854143 C31.511748,85.884379 31.0504357,85.508608 30.3660947,85.2397598 C29.8772796,85.0808949 29.4373526,85.0014636 29.0463006,85.0014636 L26.7183305,85.0014636 C27.2804678,84.1185416 27.5706974,83.7 27.589028,83.7 L36.4059856,83.7 C35.8866196,84.5187651 35.5933349,84.9464719 35.5261229,85.0014636 L33.1706571,85.0014636 C33.494497,85.3802953 33.7144605,85.8416076 33.8305541,86.3854143 L36.3418289,86.3854143 C36.3723799,86.3915245 36.3876551,86.4037447 36.3876551,86.4220753 C35.8255178,87.2652813 35.5383432,87.6868779 35.5261229,87.6868779 L33.8947108,87.6868779 C33.8580496,88.1207013 33.6503063,88.6431146 33.2714747,89.2541334 C32.7704392,89.8712624 32.2907966,90.2714737 31.8325325,90.4547794 C30.9771061,90.864162 30.1583532,91.0688502 29.3762491,91.0688502 C29.3762491,91.142995 32.0077694,94.0669313 35.2353972,97.8201622 C38.1330489,96.2023927 40,93.1235992 40,89.7 C40,84.5637518 35.8362482,80.4 30.7,80.4 C25.5637518,80.4 21.4,84.5637518 21.4,89.7 C21.4,91.5664796 21.9520003,93.3441998 22.9515178,94.8458019 C23.1830824,94.7513266 23.4355472,94.7 23.7,94.7 C24.8045695,94.7 25.7,95.5954305 25.7,96.7 C25.7,97.8045695 24.8045695,98.7 23.7,98.7 C22.5954305,98.7 21.7,97.8045695 21.7,96.7 C21.7,96.3778674 21.7761579,96.0735224 21.9114509,95.8039879 C20.6819938,94.0393175 20,91.9234173 20,89.7 C20,83.7905532 24.7905532,79 30.7,79 Z" id="Combined-Shape"></path>
                    </g>
                </g>
            </g>
        </g>
    </g>
</svg>