<?xml version="1.0" encoding="utf-8"?>
<!-- Generator: Adobe Illustrator 23.0.4, SVG Export Plug-In . SVG Version: 6.00 Build 0)  -->
<svg version="1.1" id="Layer_1" xmlns="http://www.w3.org/2000/svg" xmlns:xlink="http://www.w3.org/1999/xlink" x="0px" y="0px"
	 viewBox="0 0 80 80" style="enable-background:new 0 0 80 80;" xml:space="preserve">
<style type="text/css">
	.st0{fill:url(#SVGID_1_);}
	.st1{fill:#FFFFFF;}
	.st2{fill-rule:evenodd;clip-rule:evenodd;fill:#CEECFF;}
	.st3{fill:#57A2D4;}
	.st4{fill:#91C5E6;}
</style>
<g>
	<g id="Oval-2_1_">
		
			<linearGradient id="SVGID_1_" gradientUnits="userSpaceOnUse" x1="-904.3814" y1="13.1143" x2="-904.3814" y2="14.0727" gradientTransform="matrix(70 0 0 70 63347 -913)">
			<stop  offset="0" style="stop-color:#EAF7FF"/>
			<stop  offset="1" style="stop-color:#FFFFFF"/>
		</linearGradient>
		<circle class="st0" cx="40.3" cy="40" r="35"/>
	</g>
	<g>
		<g id="Shape_1_" transform="translate(9.333333, 14.777778)">
			<path class="st1" d="M53.5,7.4c1.4-0.1,2.6,1,2.7,2.4c0.1,1.4-1,2.6-2.4,2.7c-0.1,0-0.2,0-0.3,0h-7.3c-1.1,0-2-0.9-2-2s0.9-2,2-2
				h0.1c-0.2-1.7,0.9-3.2,2.6-3.4c1.7-0.2,3.2,0.9,3.4,2.6C52.7,7.5,53.1,7.4,53.5,7.4L53.5,7.4z"/>
			<path class="st1" d="M11.2,20.5c0.9-0.1,1.6,0.6,1.7,1.5s-0.6,1.6-1.5,1.7c-0.1,0-0.1,0-0.2,0H6.6c-0.7,0-1.2-0.6-1.2-1.2
				c0-0.7,0.6-1.2,1.2-1.2h0.1c-0.1-1.1,0.6-2,1.6-2.2c1.1-0.1,2,0.6,2.2,1.6C10.7,20.6,10.9,20.5,11.2,20.5L11.2,20.5z"/>
		</g>
	</g>
	<polygon id="Path-5_1_" class="st2" points="18.5,61.5 29.2,51.7 50.7,51.7 40.8,61.5 	"/>
	<g>
		<circle class="st3" cx="39.9" cy="16.9" r="1.8"/>
		<rect x="28.4" y="41" class="st3" width="1.8" height="8.9"/>
		<path class="st3" d="M35.5,45.4c0-1-0.8-1.8-1.8-1.8s-1.8,0.8-1.8,1.8v4.5h3.6V45.4z"/>
		<path class="st3" d="M44.4,43.7c-1,0-1.8,0.8-1.8,1.8V50h3.6v-4.5C46.2,44.5,45.4,43.7,44.4,43.7z"/>
		<rect x="48" y="41" class="st3" width="1.8" height="8.9"/>
		<rect x="37.3" y="41" class="st3" width="3.6" height="8.9"/>
		<path class="st3" d="M18.5,67.4c6,4.8,13.5,7.6,21.8,7.6c0.2,0,0.4,0,0.5,0V62.4H18.5V67.4z M28.4,64.2h1.8V66h-1.8V64.2z
			 M25.7,64.2h1.8V66h-1.8V64.2z M23,64.2h1.8V66H23V64.2z M20.3,64.2h1.8V66h-1.8V64.2z"/>
	</g>
	<g>
		<polygon class="st4" points="46.2,40.1 49.8,40.1 39.9,18.7 28.4,40.1 33.7,40.1 35.5,34.7 37.3,40.1 41.7,40.1 43.5,34.7 		"/>
		<path class="st4" d="M55.4,52.2v-3.6l-1.8-1.8l-1.8,1.8v4.5L42,62.9V75c1.8-0.1,3.6-0.3,5.4-0.7v-7.8h1.8V62
			c0-0.5,0.4-0.9,0.9-0.9S51,61.5,51,62v4.5h1.8v6.3c1.2-0.5,2.4-1,3.6-1.6v-4.7h1.8V62c0-0.5,0.4-0.9,0.9-0.9S60,61.5,60,62v4.5
			h1.8v1.3c1.6-1.2,3.1-2.6,4.5-4.1v-4.3L55.4,52.2z"/>
	</g>
</g>
</svg>
