<?xml version="1.0" encoding="UTF-8"?>
<svg width="14px" height="13px" viewBox="0 0 14 13" version="1.1" xmlns="http://www.w3.org/2000/svg" xmlns:xlink="http://www.w3.org/1999/xlink">
    <title>??</title>
    <g id="Entry-Points" stroke="none" stroke-width="1" fill="none" fill-rule="evenodd" opacity="0.8">
        <g id="Mobile-Recommender-Entry-Points-V2" transform="translate(-264.000000, -325.000000)" fill="#9E9E9E" fill-rule="nonzero">
            <path d="M268.420733,333.593507 L268.446123,333.2063 C268.492673,332.791587 268.676755,332.42977 268.998369,332.120851 L268.998369,332.120851 L269.51253,331.632081 C269.914548,331.242758 270.195961,330.888348 270.356768,330.568849 C270.517575,330.24935 270.597979,329.909751 270.597979,329.55005 C270.597979,328.758709 270.35042,328.14616 269.855303,327.712404 C269.360186,327.278647 268.66406,327.061769 267.766924,327.061769 C266.878252,327.061769 266.176836,327.290284 265.662676,327.747316 C265.148516,328.204347 264.887204,328.836997 264.878741,329.645265 L264.878741,329.645265 L266.719561,329.645265 C266.728024,329.306723 266.826413,329.04118 267.014727,328.848634 C267.203041,328.656089 267.453773,328.559816 267.766924,328.559816 C268.42708,328.559816 268.757159,328.9174 268.757159,329.63257 C268.757159,329.869549 268.693682,330.094891 268.566729,330.308595 C268.439776,330.522299 268.184812,330.79948 267.801836,331.140138 C267.418861,331.480796 267.155433,331.826743 267.011553,332.17798 C266.867673,332.529217 266.795733,333.001059 266.795733,333.593507 L266.795733,333.593507 L268.420733,333.593507 Z M267.639971,336.507081 C267.94889,336.507081 268.197507,336.416098 268.385821,336.234132 C268.574134,336.052166 268.668291,335.821534 268.668291,335.542238 C268.668291,335.258709 268.572019,335.024904 268.379473,334.840822 C268.186927,334.65674 267.940427,334.564699 267.639971,334.564699 C267.339515,334.564699 267.093015,334.65674 266.900469,334.840822 C266.707924,335.024904 266.611651,335.258709 266.611651,335.542238 C266.611651,335.821534 266.705808,336.052166 266.894121,336.234132 C267.082435,336.416098 267.331052,336.507081 267.639971,336.507081 Z M275.888994,333.593507 L275.914385,333.2063 C275.960935,332.791587 276.145017,332.42977 276.466631,332.120851 L276.466631,332.120851 L276.980791,331.632081 C277.38281,331.242758 277.664222,330.888348 277.82503,330.568849 C277.985837,330.24935 278.066241,329.909751 278.066241,329.55005 C278.066241,328.758709 277.818682,328.14616 277.323565,327.712404 C276.828448,327.278647 276.132321,327.061769 275.235186,327.061769 C274.346514,327.061769 273.645098,327.290284 273.130938,327.747316 C272.616778,328.204347 272.355466,328.836997 272.347002,329.645265 L272.347002,329.645265 L274.187823,329.645265 C274.196286,329.306723 274.294675,329.04118 274.482989,328.848634 C274.671302,328.656089 274.922035,328.559816 275.235186,328.559816 C275.895342,328.559816 276.22542,328.9174 276.22542,329.63257 C276.22542,329.869549 276.161944,330.094891 276.034991,330.308595 C275.908037,330.522299 275.653073,330.79948 275.270098,331.140138 C274.887123,331.480796 274.623695,331.826743 274.479815,332.17798 C274.335935,332.529217 274.263994,333.001059 274.263994,333.593507 L274.263994,333.593507 L275.888994,333.593507 Z M275.108233,336.507081 C275.417152,336.507081 275.665769,336.416098 275.854082,336.234132 C276.042396,336.052166 276.136553,335.821534 276.136553,335.542238 C276.136553,335.258709 276.04028,335.024904 275.847735,334.840822 C275.655189,334.65674 275.408688,334.564699 275.108233,334.564699 C274.807777,334.564699 274.561276,334.65674 274.368731,334.840822 C274.176185,335.024904 274.079912,335.258709 274.079912,335.542238 C274.079912,335.821534 274.174069,336.052166 274.362383,336.234132 C274.550697,336.416098 274.799313,336.507081 275.108233,336.507081 Z" id="??" transform="translate(271.472491, 331.784425) rotate(-18.000000) translate(-271.472491, -331.784425) "></path>
        </g>
    </g>
</svg>