<?xml version="1.0" encoding="UTF-8"?>
<svg width="159px" height="18px" viewBox="0 0 159 18" version="1.1" xmlns="http://www.w3.org/2000/svg" xmlns:xlink="http://www.w3.org/1999/xlink">
    <title>Group 3</title>
    <g id="Entry-Points" stroke="none" stroke-width="1" fill="none" fill-rule="evenodd">
        <g id="Desktop-Recommender-Entry-Points" transform="translate(-454.000000, -676.000000)">
            <g id="Group-8" transform="translate(90.000000, 620.000000)">
                <g id="Group-10" transform="translate(364.000000, 56.000000)">
                    <g id="Group-3">
                        <g id="Group-2">
                            <g id="CarDekho-Logo">
                                <g id="cdshape" fill="#F75D34">
                                    <path d="M17.9662348,8.87632509 C17.9662348,13.2987829 14.7624656,16.9799764 10.5473106,17.7149588 L9.57361602,12.1868865 C11.150373,11.9104829 12.3564978,10.5284649 12.3564978,8.87004319 C12.3564978,7.21162152 11.1566549,5.82960346 9.57361602,5.55319984 L10.5473106,0.0251276011 C14.7624656,0.772673734 17.9662348,4.45386729 17.9662348,8.87632509 Z" id="Path"></path>
                                    <path d="M8.40518257,12.1931684 L7.43148803,17.7212407 C3.21633294,16.9799764 0.0125638005,13.3050648 0.0125638005,8.88260699 C0.0125638005,4.4601492 3.21633294,0.778955634 7.43148803,0.0439733019 L8.40518257,5.57204554 C6.8284256,5.84844916 5.62230075,7.23046722 5.62230075,8.88888889 C5.62858265,10.5347468 6.8284256,11.9167648 8.40518257,12.1931684 Z" id="Path"></path>
                                </g>
                                <g id="name" transform="translate(21.777778, 4.444444)" fill="#000000">
                                    <path d="M0.276213251,4.56027888 C0.276213251,2.02239117 2.16078333,0.0812839823 4.76149005,0.0812839823 C6.32568322,0.0812839823 7.70141938,0.860239616 8.45524741,2.07892827 L6.75285243,3.06518661 C6.36965652,2.39930518 5.63467419,2.00354547 4.76149005,2.00354547 C3.23498828,2.00354547 2.24872994,3.02749521 2.24872994,4.56656078 C2.24872994,6.10562635 3.23498828,7.12957609 4.76149005,7.12957609 C5.63467419,7.12957609 6.38850222,6.73381637 6.75285243,6.06793494 L8.45524741,7.05419329 C7.71398318,8.27288194 6.33824702,9.05183757 4.76149005,9.05183757 C2.16078333,9.04555567 0.276213251,7.09816659 0.276213251,4.56027888 Z" id="c"></path>
                                    <path d="M15.5412309,2.32392238 L15.5412309,9.05811948 L13.6315332,9.05811948 L13.6315332,8.27288194 C13.2106459,8.75658826 12.5887378,9.05183757 11.7343994,9.05183757 C10.0696958,9.05183757 8.69395962,7.58815481 8.69395962,5.69102093 C8.69395962,3.79388704 10.0696958,2.33020428 11.7343994,2.33020428 C12.5887378,2.33020428 13.2106459,2.62545359 13.6315332,3.10915991 L13.6315332,2.33020428 L15.5412309,2.33020428 L15.5412309,2.32392238 Z M13.6315332,5.68473903 C13.6315332,4.72989019 12.9970613,4.13310966 12.1175953,4.13310966 C11.2381292,4.13310966 10.6036573,4.72989019 10.6036573,5.68473903 C10.6036573,6.63958787 11.2381292,7.2363684 12.1175953,7.2363684 C12.9970613,7.2363684 13.6315332,6.63958787 13.6315332,5.68473903 Z" id="a" fill-rule="nonzero"></path>
                                    <path d="M19.8694602,2.32392238 L19.8694602,4.50374178 C19.0716589,4.37810377 17.9409168,4.69848068 17.9409168,5.96742454 L17.9409168,9.05183757 L16.0123734,9.05183757 L16.0123734,2.32392238 L17.9471987,2.32392238 L17.9471987,3.59286624 C18.2047566,2.7322459 19.065377,2.32392238 19.8694602,2.32392238 Z" id="r"></path>
                                    <path d="M28.2997704,4.56656078 C28.2997704,7.10444849 26.4152003,9.05183757 23.9401316,9.05183757 L20.3468846,9.05183757 L20.3468846,0.0812839823 L23.9401316,0.0812839823 C26.4152003,0.0812839823 28.2997704,2.02867307 28.2997704,4.56656078 Z M26.3272537,4.56656078 C26.3272537,3.02749521 25.3535591,2.05380067 23.9401316,2.05380067 L22.401066,2.05380067 L22.401066,7.07932089 L23.9401316,7.07932089 C25.3472772,7.07932089 26.3272537,6.10562635 26.3272537,4.56656078 Z" id="d" fill-rule="nonzero"></path>
                                    <path d="M32.0877562,7.3368788 C32.609154,7.3368788 33.0551689,7.13585799 33.3127268,6.85317248 L34.8392286,7.73263852 C34.2173204,8.59954076 33.2750354,9.04555567 32.0626286,9.04555567 C29.8890911,9.04555567 28.5384826,7.58187291 28.5384826,5.68473903 C28.5384826,3.78760514 29.9142187,2.32392238 31.9244268,2.32392238 C33.7838693,2.32392238 35.1596055,3.76247754 35.1596055,5.68473903 C35.1596055,5.95486074 35.1344779,6.20613675 35.0842227,6.45113086 L30.5675364,6.45113086 C30.7999667,7.11073039 31.3904653,7.3368788 32.0877562,7.3368788 Z M33.2624716,5.0188576 C33.0614508,4.28387527 32.483516,4.01375355 31.911863,4.01375355 C31.1894445,4.01375355 30.6994563,4.37182187 30.5235631,5.0188576 L33.2624716,5.0188576 Z" id="e" fill-rule="nonzero"></path>
                                    <polygon id="k" points="39.4501434 9.05811948 37.4776267 6.33805666 37.4776267 9.05811948 35.630748 9.05811948 35.630748 0.0812839823 37.4776267 0.0812839823 37.4776267 5.0188576 39.3245054 2.32392238 41.4791972 2.32392238 39.2365588 5.58422862 41.5357343 9.05183757 39.4501434 9.05183757"></polygon>
                                    <path d="M47.9307087,4.87437389 L47.9307087,9.05811948 L46.0838301,9.05811948 L46.0838301,5.1444956 C46.0838301,4.37810377 45.6064056,4.02631735 45.015907,4.02631735 C44.3374618,4.02631735 43.8726012,4.42207707 43.8726012,5.29526121 L43.8726012,9.05811948 L42.0257225,9.05811948 L42.0257225,0.0812839823 L43.8726012,0.0812839823 L43.8726012,3.07775041 C44.2055419,2.61917169 44.8211681,2.32392238 45.6315332,2.32392238 C46.8753495,2.32392238 47.9307087,3.20967032 47.9307087,4.87437389 Z" id="h"></path>
                                    <path d="M48.4081332,5.68473903 C48.4081332,3.78760514 49.9095073,2.32392238 51.7815136,2.32392238 C53.6535199,2.32392238 55.1548941,3.78760514 55.1548941,5.68473903 C55.1548941,7.58187291 53.6535199,9.04555567 51.7815136,9.04555567 C49.9095073,9.04555567 48.4081332,7.58187291 48.4081332,5.68473903 Z M53.2451964,5.68473903 C53.2451964,4.78014539 52.6107244,4.18336486 51.7815136,4.18336486 C50.9523028,4.18336486 50.3178308,4.78014539 50.3178308,5.68473903 C50.3178308,6.58933267 50.9523028,7.18611319 51.7815136,7.18611319 C52.6107244,7.18611319 53.2451964,6.58933267 53.2451964,5.68473903 Z" id="o" fill-rule="nonzero"></path>
                                </g>
                            </g>
                        </g>
                        <path d="M82.7496094,12.6 L82.7496094,9.31289062 L84.4019531,9.31289062 L86.1128906,12.6 L87.7007812,12.6 L87.7007812,12.5238281 L85.7847656,8.9671875 C86.2769531,8.76015625 86.6607422,8.46425781 86.9361328,8.07949219 C87.2115234,7.69472656 87.3492187,7.2171875 87.3492187,6.646875 C87.3492187,5.8109375 87.0816406,5.17226562 86.5464844,4.73085937 C86.0113281,4.28945312 85.2515625,4.06875 84.2671875,4.06875 L84.2671875,4.06875 L81.2671875,4.06875 L81.2671875,12.6 L82.7496094,12.6 Z M84.2730469,8.1234375 L82.7496094,8.1234375 L82.7496094,5.2640625 L84.3140625,5.2640625 C84.8296875,5.271875 85.2173828,5.40078125 85.4771484,5.65078125 C85.7369141,5.90078125 85.8667969,6.25429687 85.8667969,6.71132812 C85.8667969,7.14882812 85.7261719,7.49355469 85.4449219,7.74550781 C85.1636719,7.99746094 84.7730469,8.1234375 84.2730469,8.1234375 L84.2730469,8.1234375 Z M91.4097656,12.7171875 C91.9371094,12.7171875 92.4126953,12.6126953 92.8365234,12.4037109 C93.2603516,12.1947266 93.5992187,11.9007812 93.853125,11.521875 L93.853125,11.521875 L93.0855469,10.7894531 C92.6753906,11.3167969 92.1441406,11.5804687 91.4917969,11.5804687 C91.0269531,11.5804687 90.6412109,11.428125 90.3345703,11.1234375 C90.0279297,10.81875 89.853125,10.4046875 89.8101562,9.88125 L89.8101562,9.88125 L93.9527344,9.88125 L93.9527344,9.30703125 C93.9527344,8.29921875 93.7173828,7.51992188 93.2466797,6.96914062 C92.7759766,6.41835937 92.1089844,6.14296875 91.2457031,6.14296875 C90.7027344,6.14296875 90.2105469,6.28164062 89.7691406,6.55898437 C89.3277344,6.83632812 88.9849609,7.22402344 88.7408203,7.72207031 C88.4966797,8.22011719 88.3746094,8.78554687 88.3746094,9.41835937 L88.3746094,9.41835937 L88.3746094,9.59414062 C88.3746094,10.5394531 88.6548828,11.2962891 89.2154297,11.8646484 C89.7759766,12.4330078 90.5074219,12.7171875 91.4097656,12.7171875 Z M92.5464844,8.83828125 L89.8335937,8.83828125 C89.9,8.35 90.0533203,7.96914062 90.2935547,7.69570312 C90.5337891,7.42226562 90.8492187,7.28554687 91.2398437,7.28554687 C91.634375,7.28554687 91.9429687,7.40761719 92.165625,7.65175781 C92.3882812,7.89589844 92.5152344,8.25625 92.5464844,8.7328125 L92.5464844,8.7328125 L92.5464844,8.83828125 Z M97.6792969,12.7171875 C98.1363281,12.7171875 98.5621094,12.6175781 98.9566406,12.4183594 C99.3511719,12.2191406 99.6636719,11.9486328 99.8941406,11.6068359 C100.124609,11.2650391 100.247656,10.896875 100.263281,10.5023437 L100.263281,10.5023437 L98.9214844,10.5023437 C98.9058594,10.8070312 98.7808594,11.0628906 98.5464844,11.2699219 C98.3121094,11.4769531 98.0171875,11.5804687 97.6617187,11.5804687 C97.1929687,11.5804687 96.8345703,11.4115234 96.5865234,11.0736328 C96.3384766,10.7357422 96.2144531,10.2230469 96.2144531,9.53554687 L96.2144531,9.53554687 L96.2144531,9.30703125 C96.2183594,8.62734375 96.3453125,8.12050781 96.5953125,7.78652344 C96.8453125,7.45253906 97.2007812,7.28554687 97.6617187,7.28554687 C98.0210937,7.28554687 98.3169922,7.40273437 98.5494141,7.63710937 C98.7818359,7.87148437 98.9058594,8.1703125 98.9214844,8.53359375 L98.9214844,8.53359375 L100.263281,8.53359375 C100.239844,7.81875 99.9908203,7.24160156 99.5162109,6.80214844 C99.0416016,6.36269531 98.4273437,6.14296875 97.6734375,6.14296875 C96.7828125,6.14296875 96.0796875,6.43300781 95.5640625,7.01308594 C95.0484375,7.59316406 94.790625,8.365625 94.790625,9.33046875 L94.790625,9.33046875 L94.790625,9.47695312 C94.790625,10.4886719 95.0503906,11.2816406 95.5699219,11.8558594 C96.0894531,12.4300781 96.7925781,12.7171875 97.6792969,12.7171875 Z M104.025,12.7171875 C104.610937,12.7171875 105.127539,12.5824219 105.574805,12.3128906 C106.02207,12.0433594 106.36582,11.6625 106.606055,11.1703125 C106.846289,10.678125 106.966406,10.1195312 106.966406,9.49453125 L106.966406,9.49453125 L106.960547,9.16054687 C106.917578,8.25039062 106.629492,7.51992188 106.096289,6.96914062 C105.563086,6.41835937 104.86875,6.14296875 104.013281,6.14296875 C103.435156,6.14296875 102.923437,6.27675781 102.478125,6.54433594 C102.032812,6.81191406 101.687109,7.19472656 101.441016,7.69277344 C101.194922,8.19082031 101.071875,8.75039062 101.071875,9.37148437 L101.071875,9.37148437 L101.071875,9.44179687 C101.071875,10.4339844 101.34043,11.2279297 101.877539,11.8236328 C102.414648,12.4193359 103.130469,12.7171875 104.025,12.7171875 Z M104.025,11.5804687 C103.544531,11.5804687 103.169531,11.3958984 102.9,11.0267578 C102.630469,10.6576172 102.495703,10.146875 102.495703,9.49453125 C102.495703,8.76015625 102.632422,8.20839844 102.905859,7.83925781 C103.179297,7.47011719 103.548437,7.28554687 104.013281,7.28554687 C104.485937,7.28554687 104.859961,7.47304687 105.135352,7.84804687 C105.410742,8.22304687 105.548437,8.73085937 105.548437,9.37148437 C105.548437,10.0941406 105.414648,10.6429687 105.14707,11.0179687 C104.879492,11.3929687 104.505469,11.5804687 104.025,11.5804687 Z M109.591406,12.6 L109.591406,8.00625 C109.829687,7.54140625 110.233984,7.30898437 110.804297,7.30898437 C111.546484,7.30898437 111.927344,7.68203125 111.946875,8.428125 L111.946875,8.428125 L111.946875,12.6 L113.370703,12.6 L113.364844,8.25234375 C113.446875,7.97109375 113.59043,7.74355469 113.795508,7.56972656 C114.000586,7.39589844 114.265234,7.30898437 114.589453,7.30898437 C114.995703,7.30898437 115.286719,7.40273437 115.4625,7.59023437 C115.638281,7.77773437 115.726172,8.07265625 115.726172,8.475 L115.726172,8.475 L115.726172,12.6 L117.15,12.6 L117.15,8.43398437 C117.142187,7.68007812 116.967383,7.10976562 116.625586,6.72304687 C116.283789,6.33632812 115.763281,6.14296875 115.064062,6.14296875 C114.228125,6.14296875 113.579687,6.4671875 113.11875,7.115625 C112.80625,6.4671875 112.226172,6.14296875 111.378516,6.14296875 C110.605078,6.14296875 109.995703,6.40273437 109.550391,6.92226562 L109.550391,6.92226562 L109.509375,6.26015625 L108.167578,6.26015625 L108.167578,12.6 L109.591406,12.6 Z M120.032812,12.6 L120.032812,8.00625 C120.271094,7.54140625 120.675391,7.30898437 121.245703,7.30898437 C121.987891,7.30898437 122.36875,7.68203125 122.388281,8.428125 L122.388281,8.428125 L122.388281,12.6 L123.812109,12.6 L123.80625,8.25234375 C123.888281,7.97109375 124.031836,7.74355469 124.236914,7.56972656 C124.441992,7.39589844 124.706641,7.30898437 125.030859,7.30898437 C125.437109,7.30898437 125.728125,7.40273437 125.903906,7.59023437 C126.079687,7.77773437 126.167578,8.07265625 126.167578,8.475 L126.167578,8.475 L126.167578,12.6 L127.591406,12.6 L127.591406,8.43398437 C127.583594,7.68007812 127.408789,7.10976562 127.066992,6.72304687 C126.725195,6.33632812 126.204687,6.14296875 125.505469,6.14296875 C124.669531,6.14296875 124.021094,6.4671875 123.560156,7.115625 C123.247656,6.4671875 122.667578,6.14296875 121.819922,6.14296875 C121.046484,6.14296875 120.437109,6.40273437 119.991797,6.92226562 L119.991797,6.92226562 L119.950781,6.26015625 L118.608984,6.26015625 L118.608984,12.6 L120.032812,12.6 Z M131.845312,12.7171875 C132.372656,12.7171875 132.848242,12.6126953 133.27207,12.4037109 C133.695898,12.1947266 134.034766,11.9007812 134.288672,11.521875 L134.288672,11.521875 L133.521094,10.7894531 C133.110937,11.3167969 132.579687,11.5804687 131.927344,11.5804687 C131.4625,11.5804687 131.076758,11.428125 130.770117,11.1234375 C130.463477,10.81875 130.288672,10.4046875 130.245703,9.88125 L130.245703,9.88125 L134.388281,9.88125 L134.388281,9.30703125 C134.388281,8.29921875 134.15293,7.51992188 133.682227,6.96914062 C133.211523,6.41835937 132.544531,6.14296875 131.68125,6.14296875 C131.138281,6.14296875 130.646094,6.28164062 130.204687,6.55898437 C129.763281,6.83632812 129.420508,7.22402344 129.176367,7.72207031 C128.932227,8.22011719 128.810156,8.78554687 128.810156,9.41835937 L128.810156,9.41835937 L128.810156,9.59414062 C128.810156,10.5394531 129.09043,11.2962891 129.650977,11.8646484 C130.211523,12.4330078 130.942969,12.7171875 131.845312,12.7171875 Z M132.982031,8.83828125 L130.269141,8.83828125 C130.335547,8.35 130.488867,7.96914062 130.729102,7.69570312 C130.969336,7.42226562 131.284766,7.28554687 131.675391,7.28554687 C132.069922,7.28554687 132.378516,7.40761719 132.601172,7.65175781 C132.823828,7.89589844 132.950781,8.25625 132.982031,8.7328125 L132.982031,8.7328125 L132.982031,8.83828125 Z M136.896094,12.6 L136.896094,8.08828125 C137.177344,7.56875 137.605078,7.30898437 138.179297,7.30898437 C138.573828,7.30898437 138.858008,7.40566406 139.031836,7.59902344 C139.205664,7.79238281 139.292578,8.09023438 139.292578,8.49257812 L139.292578,8.49257812 L139.292578,12.6 L140.716406,12.6 L140.716406,8.41054687 C140.692969,6.89882813 140.021094,6.14296875 138.700781,6.14296875 C137.939062,6.14296875 137.323828,6.42617187 136.855078,6.99257812 L136.855078,6.99257812 L136.814062,6.26015625 L135.472266,6.26015625 L135.472266,12.6 L136.896094,12.6 Z M144.390234,12.7171875 C145.101172,12.7171875 145.669531,12.459375 146.095312,11.94375 L146.095312,11.94375 L146.165625,12.6 L147.454687,12.6 L147.454687,3.6 L146.030859,3.6 L146.030859,6.84609375 C145.616797,6.37734375 145.073828,6.14296875 144.401953,6.14296875 C143.640234,6.14296875 143.032812,6.43886719 142.579687,7.03066406 C142.126562,7.62246094 141.9,8.40664062 141.9,9.38320312 C141.9,10.4105469 142.129492,11.2230469 142.588477,11.8207031 C143.047461,12.4183594 143.648047,12.7171875 144.390234,12.7171875 Z M144.753516,11.5570312 C144.296484,11.5570312 143.943945,11.3763672 143.695898,11.0150391 C143.447852,10.6537109 143.323828,10.1507812 143.323828,9.50625 C143.323828,8.771875 143.448828,8.22207031 143.698828,7.85683594 C143.948828,7.49160156 144.304297,7.30898437 144.765234,7.30898437 C145.347266,7.30898437 145.769141,7.56289063 146.030859,8.07070312 L146.030859,8.07070312 L146.030859,10.7777344 C145.761328,11.2972656 145.335547,11.5570312 144.753516,11.5570312 Z M151.732031,12.7171875 C152.259375,12.7171875 152.734961,12.6126953 153.158789,12.4037109 C153.582617,12.1947266 153.921484,11.9007812 154.175391,11.521875 L154.175391,11.521875 L153.407812,10.7894531 C152.997656,11.3167969 152.466406,11.5804687 151.814062,11.5804687 C151.349219,11.5804687 150.963477,11.428125 150.656836,11.1234375 C150.350195,10.81875 150.175391,10.4046875 150.132422,9.88125 L150.132422,9.88125 L154.275,9.88125 L154.275,9.30703125 C154.275,8.29921875 154.039648,7.51992188 153.568945,6.96914062 C153.098242,6.41835937 152.43125,6.14296875 151.567969,6.14296875 C151.025,6.14296875 150.532812,6.28164062 150.091406,6.55898437 C149.65,6.83632812 149.307227,7.22402344 149.063086,7.72207031 C148.818945,8.22011719 148.696875,8.78554687 148.696875,9.41835937 L148.696875,9.41835937 L148.696875,9.59414062 C148.696875,10.5394531 148.977148,11.2962891 149.537695,11.8646484 C150.098242,12.4330078 150.829687,12.7171875 151.732031,12.7171875 Z M152.86875,8.83828125 L150.155859,8.83828125 C150.222266,8.35 150.375586,7.96914062 150.61582,7.69570312 C150.856055,7.42226562 151.171484,7.28554687 151.562109,7.28554687 C151.956641,7.28554687 152.265234,7.40761719 152.487891,7.65175781 C152.710547,7.89589844 152.8375,8.25625 152.86875,8.7328125 L152.86875,8.7328125 L152.86875,8.83828125 Z M156.800391,12.6 L156.800391,8.2640625 C157.026953,7.7640625 157.466406,7.5140625 158.11875,7.5140625 C158.317969,7.5140625 158.511328,7.5296875 158.698828,7.5609375 L158.698828,7.5609375 L158.704687,6.225 C158.571875,6.1703125 158.403906,6.14296875 158.200781,6.14296875 C157.591406,6.14296875 157.114844,6.41835937 156.771094,6.96914062 L156.771094,6.96914062 L156.735937,6.26015625 L155.376562,6.26015625 L155.376562,12.6 L156.800391,12.6 Z" id="Recommender" fill="#000000" fill-rule="nonzero"></path>
                    </g>
                </g>
            </g>
        </g>
    </g>
</svg>