<?xml version="1.0" encoding="UTF-8"?>
<svg width="24px" height="10px" viewBox="0 0 24 10" version="1.1" xmlns="http://www.w3.org/2000/svg" xmlns:xlink="http://www.w3.org/1999/xlink">
    <title>Seats?</title>
    <g id="Entry-Points" stroke="none" stroke-width="1" fill="none" fill-rule="evenodd" opacity="0.8">
        <g id="Mobile-Recommender-Entry-Points-V2" transform="translate(-310.000000, -361.000000)" fill="#9E9E9E" fill-rule="nonzero">
            <g id="Group-8" transform="translate(0.000000, 290.000000)">
                <g id="Group-9-Copy-2" transform="translate(278.757973, 63.132040) rotate(7.000000) translate(-278.757973, -63.132040) translate(221.257973, 49.132040)">
                    <path d="M92.5607504,24.5156298 C93.1831462,24.5156298 93.6759848,24.3756558 94.039266,24.0957079 C94.4025473,23.81576 94.5841879,23.4388069 94.5841879,22.9648486 C94.5841879,22.6731819 94.5216879,22.4186246 94.3966879,22.2011767 C94.2716879,21.9837288 94.0750733,21.7910204 93.8068442,21.6230517 C93.538615,21.4550829 93.1831462,21.3053433 92.7404379,21.1738329 C92.2977296,21.0423225 91.9800212,20.9069058 91.7873129,20.7675829 C91.5946046,20.62826 91.4982504,20.4544319 91.4982504,20.2460986 C91.4982504,19.9987027 91.5874431,19.8059944 91.7658285,19.6679736 C91.9442139,19.5299527 92.194865,19.4609423 92.5177817,19.4609423 C92.8641358,19.4609423 93.1304119,19.5449267 93.3166098,19.7128954 C93.5028077,19.8808642 93.5959067,20.1132861 93.5959067,20.4101611 L93.5959067,20.4101611 L94.5802817,20.4101611 C94.5802817,20.0820361 94.49174,19.7832079 94.3146567,19.5136767 C94.1375733,19.2441454 93.8940837,19.0364631 93.5841879,18.8906298 C93.2742921,18.7447965 92.9214275,18.6718798 92.5255942,18.6718798 C91.92924,18.6718798 91.4442139,18.8203173 91.070516,19.1171923 C90.6968181,19.4140673 90.5099692,19.7916715 90.5099692,20.2500048 C90.5099692,20.7734423 90.7690837,21.1979215 91.2873129,21.5234423 C91.5581462,21.6927131 91.9227296,21.846359 92.3810629,21.9843798 C92.8393962,22.1224006 93.1564535,22.2591194 93.3322348,22.3945361 C93.508016,22.5299527 93.5959067,22.7226611 93.5959067,22.9726611 C93.5959067,23.2018277 93.5093181,23.3860725 93.336141,23.5253954 C93.1629639,23.6647183 92.9045004,23.7343798 92.5607504,23.7343798 C92.1623129,23.7343798 91.8563233,23.6458381 91.6427817,23.4687548 C91.42924,23.2916715 91.3224692,23.0416715 91.3224692,22.7187548 L91.3224692,22.7187548 L90.3341879,22.7187548 C90.3341879,23.0755256 90.429891,23.3880256 90.6212973,23.6562548 C90.8127035,23.924484 91.0809327,24.1347704 91.4259848,24.2871142 C91.7710369,24.4394579 92.1492921,24.5156298 92.5607504,24.5156298 Z M97.2209067,24.5156298 C97.5724692,24.5156298 97.8895264,24.4459683 98.1720785,24.3066454 C98.4546306,24.1673225 98.6805421,23.971359 98.8498129,23.7187548 L98.8498129,23.7187548 L98.3380942,23.2304736 C98.0646567,23.5820361 97.71049,23.7578173 97.2755942,23.7578173 C96.9656983,23.7578173 96.7085369,23.6562548 96.5041098,23.4531298 C96.2996827,23.2500048 96.1831462,22.9739631 96.1545004,22.6250048 L96.1545004,22.6250048 L98.9162192,22.6250048 L98.9162192,22.2421923 C98.9162192,21.5703173 98.7593181,21.0507861 98.445516,20.6835986 C98.1317139,20.3164111 97.6870525,20.1328173 97.1115317,20.1328173 C96.7495525,20.1328173 96.4214275,20.2252652 96.1271567,20.4101611 C95.8328858,20.5950569 95.6043702,20.8535204 95.4416098,21.1855517 C95.2788494,21.5175829 95.1974692,21.8945361 95.1974692,22.3164111 L95.1974692,22.3164111 L95.1974692,22.4335986 C95.1974692,23.0638069 95.3843181,23.5683642 95.758016,23.9472704 C96.1317139,24.3261767 96.6193442,24.5156298 97.2209067,24.5156298 Z M97.9787192,21.9296923 L96.1701254,21.9296923 C96.2143962,21.6041715 96.3166098,21.3502652 96.476766,21.1679736 C96.6369223,20.9856819 96.8472087,20.8945361 97.1076254,20.8945361 C97.3706462,20.8945361 97.5763754,20.9759163 97.7248129,21.1386767 C97.8732504,21.3014371 97.9578858,21.5416715 97.9787192,21.8593798 L97.9787192,21.8593798 L97.9787192,21.9296923 Z M100.959188,24.5156298 C101.396688,24.5156298 101.76648,24.3580777 102.068563,24.0429736 C102.099813,24.2252652 102.136271,24.3567756 102.177938,24.4375048 L102.177938,24.4375048 L103.146688,24.4375048 L103.146688,24.3710986 C103.039917,24.1445361 102.986532,23.8411506 102.986532,23.4609423 L102.986532,23.4609423 L102.986532,21.5546923 C102.978719,21.1041715 102.827677,20.7545621 102.533407,20.5058642 C102.239136,20.2571663 101.844605,20.1328173 101.349813,20.1328173 C101.024292,20.1328173 100.72937,20.190109 100.465047,20.3046923 C100.200724,20.4192756 99.99174,20.5774788 99.8380942,20.7793017 C99.6844483,20.9811246 99.6076254,21.1979215 99.6076254,21.4296923 L99.6076254,21.4296923 L100.556844,21.4296923 C100.556844,21.2630256 100.625855,21.1256558 100.763875,21.0175829 C100.901896,20.90951 101.07898,20.8554736 101.295125,20.8554736 C101.545125,20.8554736 101.731323,20.9212288 101.853719,21.0527392 C101.976115,21.1842496 102.037313,21.3593798 102.037313,21.5781298 L102.037313,21.5781298 L102.037313,21.8554736 L101.455282,21.8554736 C100.832886,21.8554736 100.35437,21.9759163 100.019735,22.2168017 C99.6850994,22.4576871 99.5177817,22.8033902 99.5177817,23.2539111 C99.5177817,23.6106819 99.6518962,23.9101611 99.9201254,24.1523486 C100.188355,24.3945361 100.534709,24.5156298 100.959188,24.5156298 Z M101.134969,23.7539111 C100.931844,23.7539111 100.769735,23.6998746 100.648641,23.5918017 C100.527547,23.4837288 100.467,23.3385465 100.467,23.1562548 C100.467,22.9322965 100.555542,22.7591194 100.732625,22.6367236 C100.909709,22.5143277 101.174032,22.4531298 101.525594,22.4531298 L101.525594,22.4531298 L102.037313,22.4531298 L102.037313,23.2500048 C101.95398,23.4036506 101.829631,23.5260465 101.664266,23.6171923 C101.498901,23.7083381 101.322469,23.7539111 101.134969,23.7539111 Z M105.314657,24.5156298 C105.515177,24.5156298 105.723511,24.4856819 105.939657,24.4257861 L105.939657,24.4257861 L105.939657,23.6914111 C105.827677,23.7174527 105.717,23.7304736 105.607625,23.7304736 C105.443563,23.7304736 105.329631,23.6946663 105.265829,23.6230517 C105.202026,23.5514371 105.170125,23.4349006 105.170125,23.2734423 L105.170125,23.2734423 L105.170125,20.9140673 L105.916219,20.9140673 L105.916219,20.2109423 L105.170125,20.2109423 L105.170125,19.1835986 L104.220907,19.1835986 L104.220907,20.2109423 L103.525594,20.2109423 L103.525594,20.9140673 L104.220907,20.9140673 L104.220907,23.3085986 C104.220907,24.1132861 104.58549,24.5156298 105.314657,24.5156298 Z M108.232625,24.5156298 C108.743042,24.5156298 109.155802,24.3977913 109.470907,24.1621142 C109.786011,23.9264371 109.943563,23.6184944 109.943563,23.2382861 C109.943563,23.0117236 109.892131,22.8190152 109.789266,22.6601611 C109.686401,22.5013069 109.528849,22.3652392 109.31661,22.2519579 C109.10437,22.1386767 108.812052,22.0410204 108.439657,21.9589892 C108.067261,21.8769579 107.819865,21.7955777 107.697469,21.7148486 C107.575073,21.6341194 107.513875,21.5208381 107.513875,21.3750048 C107.513875,21.2135465 107.579631,21.0846402 107.711141,20.9882861 C107.842651,20.8919319 108.012573,20.8437548 108.220907,20.8437548 C108.444865,20.8437548 108.624552,20.9043017 108.759969,21.0253954 C108.895386,21.1464892 108.963094,21.2981819 108.963094,21.4804736 L108.963094,21.4804736 L109.912313,21.4804736 C109.912313,21.0820361 109.756714,20.7578173 109.445516,20.5078173 C109.134318,20.2578173 108.726115,20.1328173 108.220907,20.1328173 C107.746948,20.1328173 107.356323,20.2552131 107.049032,20.5000048 C106.74174,20.7447965 106.588094,21.049484 106.588094,21.4140673 C106.588094,21.8489631 106.825073,22.1809944 107.299032,22.4101611 C107.515177,22.5143277 107.784709,22.6002652 108.107625,22.6679736 C108.430542,22.7356819 108.661662,22.8138069 108.800985,22.9023486 C108.940308,22.9908902 109.009969,23.1197965 109.009969,23.2890673 C109.009969,23.4427131 108.944865,23.5670621 108.814657,23.6621142 C108.684448,23.7571663 108.494344,23.8046923 108.244344,23.8046923 C107.986532,23.8046923 107.7795,23.7441454 107.62325,23.6230517 C107.467,23.5019579 107.382365,23.3294319 107.369344,23.1054736 L107.369344,23.1054736 L106.447469,23.1054736 C106.447469,23.3580777 106.52299,23.5937548 106.674032,23.8125048 C106.825073,24.0312548 107.036011,24.2031298 107.306844,24.3281298 C107.577677,24.4531298 107.886271,24.5156298 108.232625,24.5156298 Z M112.537313,22.7656298 C112.542521,22.3906298 112.631063,22.1054736 112.802938,21.9101611 L112.802938,21.9101611 L113.283407,21.4375048 C113.67924,21.0260465 113.877157,20.6080777 113.877157,20.1835986 C113.877157,19.7070361 113.730672,19.3359423 113.437704,19.0703173 C113.144735,18.8046923 112.736532,18.6718798 112.213094,18.6718798 C111.705282,18.6718798 111.297079,18.8059944 110.988485,19.0742236 C110.679891,19.3424527 110.52299,19.7070361 110.517782,20.1679736 L110.517782,20.1679736 L111.467,20.1679736 C111.467,19.9518277 111.53536,19.7806038 111.672079,19.6543017 C111.808797,19.5279996 111.989136,19.4648486 112.213094,19.4648486 C112.447469,19.4648486 112.625204,19.5293017 112.746297,19.6582079 C112.867391,19.7871142 112.927938,19.9739631 112.927938,20.2187548 C112.927938,20.4036506 112.875855,20.5755256 112.771688,20.7343798 C112.70398,20.8385465 112.543172,21.0136767 112.289266,21.2597704 C112.03536,21.5058642 111.865438,21.7317756 111.7795,21.9375048 C111.693563,22.143234 111.650594,22.4192756 111.650594,22.7656298 L111.650594,22.7656298 L112.537313,22.7656298 Z M112.119344,24.4843798 C112.291219,24.4843798 112.424032,24.4362027 112.517782,24.3398486 C112.611532,24.2434944 112.658407,24.1237027 112.658407,23.9804736 C112.658407,23.8320361 112.61023,23.7089892 112.513875,23.6113329 C112.417521,23.5136767 112.286011,23.4648486 112.119344,23.4648486 C111.955282,23.4648486 111.825073,23.5123746 111.728719,23.6074267 C111.632365,23.7024788 111.584188,23.8268277 111.584188,23.9804736 C111.584188,24.1237027 111.630412,24.2434944 111.72286,24.3398486 C111.815308,24.4362027 111.947469,24.4843798 112.119344,24.4843798 Z" id="Seats?" transform="translate(102.105672, 21.593755) rotate(-17.000000) translate(-102.105672, -21.593755) "></path>
                </g>
            </g>
        </g>
    </g>
</svg>