<svg width="64" height="31" viewBox="0 0 64 31" xmlns="http://www.w3.org/2000/svg"><g id="Desktop-model-mileage" fill="none" fill-rule="evenodd" transform="translate(-828 -958)"><g id="option1-copy" transform="translate(94 610)"><g id="Petrol"><g id="Tabs-16px-Regular-+-illustration-Mask"><g id="illustration" transform="translate(-250 318.52)"><g id="sedan" transform="translate(984 30)"><path d="M5.702 24.243c1.476 3.595 3.499 5.392 6.069 5.392s4.573-1.797 6.01-5.392h28.412c1.838 3.595 3.7 5.392 5.588 5.392s3.792-1.797 5.713-5.392h2.028c4.085-2.718 4.085-6.702 0-11.95-1.254-.557-3.297-.804-6.127-.744L38.587 1.766H15.626L9.57 8.152 4.283 9.605l-2.54 1.944v8.74c.079 1.35.35 2.257.813 2.72.464.463 1.512.875 3.146 1.234z" id="Path-2" fill="#FFF"/><path d="M12 17.775c-3.675 0-6.667 2.849-6.667 6.348 0 3.5 2.992 6.348 6.667 6.348s6.667-2.849 6.667-6.348c0-3.499-2.992-6.348-6.667-6.348zm0 11.11c-2.757 0-5-2.137-5-4.762 0-2.625 2.243-4.761 5-4.761s5 2.136 5 4.761-2.243 4.761-5 4.761zM52 17.775c-3.675 0-6.667 2.849-6.667 6.348 0 3.5 2.992 6.348 6.667 6.348s6.667-2.849 6.667-6.348c0-3.499-2.992-6.348-6.667-6.348zm0 11.11c-2.757 0-5-2.137-5-4.762 0-2.625 2.243-4.761 5-4.761s5 2.136 5 4.761-2.243 4.761-5 4.761z" id="Shape" fill="#2176AE" fill-rule="nonzero"/><path d="M56 11.11h-2.256c-.824 0-1.632-1.222-2.277-1.715L40.96 1.391A6.917 6.917 0 0 0 36.795 0H17.52c-2.235 0-4.307 1.056-5.547 2.826L9.704 6.071c-.68.968-1.816 2.5-3.037 2.5C2.992 8.57 0 10.466 0 13.965v5.079c0 3.499 2.992 6.348 6.667 6.348.736 0-.196-.446-.196-1.147 0-.7-.068-.44-.804-.44-2.206 0-4-2.661-4-4.761v-5.079c0-2.1 1.794-3.809 4-3.809 2.117 0 4.08-1 5.256-2.679l2.269-3.243c.744-1.061 1.99-2.648 3.328-2.648h20.275c.906 0 2.792 1.25 3.501 1.788l10.507 8a6.524 6.524 0 0 0 3.944 1.321H57c3.912 0 5.333 3.796 5.333 6.348 0 2.501-3.01 4.761-5 4.761-.736 0 .184-.102.184.6 0 .7-.92.988-.184.988 3.8 0 6.667-2.73 6.667-6.348 0-4.31-2.803-7.936-8-7.936z" id="Shape" fill="#2176AE" fill-rule="nonzero"/><path d="M45.803 23.806H17.838c-.644 0 .162.426.162.952s-.806.952-.162.952h27.966c.644 0 .196-.426.196-.952s.447-.952-.197-.952zM44 11.11H31V6.347c0-.7-.093-1.207-.83-1.207-.735 0-.837.506-.837 1.207v5.079c0 .7.598 1.27 1.334 1.27H44c.736 0 1.333-.212 1.333-.912 0-.701-.597-.676-1.333-.676zM25.333 11.11h-9.509l1.704-4.193c.328-.627.659-1.443 0-1.758-.661-.312-1.056-.007-1.387.623l-2.666 5.079c-.208.39-.184.86.058 1.234a1.35 1.35 0 0 0 1.134.601h10.666c.736 0 1.371-.162 1.371-.863 0-.7-.635-.724-1.37-.724zM36 15.236h-2.667c-.736 0-1.333.426-1.333.952s.597.952 1.333.952H36c.736 0 1.333-.426 1.333-.952s-.597-.952-1.333-.952z" id="Shape" fill="#2176AE" fill-rule="nonzero"/></g></g></g></g></g></g></svg>