<?xml version="1.0" encoding="UTF-8"?>
<svg width="16px" height="22px" viewBox="0 0 16 22" version="1.1" xmlns="http://www.w3.org/2000/svg" xmlns:xlink="http://www.w3.org/1999/xlink">
    <!-- Generator: Sketch 63.1 (92452) - https://sketch.com -->
    <title>Group 50</title>
    <desc>Created with Sketch.</desc>
    <g id="online-booking" stroke="none" stroke-width="1" fill="none" fill-rule="evenodd">
        <g id="Online-booking-Benefits" transform="translate(-53.000000, -460.000000)" stroke="#007FFF">
            <g id="Group-51" transform="translate(28.000000, 109.000000)">
                <g id="Group-104">
                    <g id="Group">
                        <g id="Group-14" transform="translate(25.000000, 351.000000)">
                            <g id="Group-15">
                                <g>
                                    <g id="Group-50">
                                        <path d="M13,0.5 L3,0.5 C2.30964406,0.5 1.68464406,0.779822031 1.23223305,1.23223305 C0.779822031,1.68464406 0.5,2.30964406 0.5,3 L0.5,21 L2.66666667,19.375 L5.33333333,21.375 L8,19.375 L10.6666667,21.375 L13.3333333,19.375 L15.5,21 L15.5,3 C15.5,2.30964406 15.220178,1.68464406 14.767767,1.23223305 C14.3153559,0.779822031 13.6903559,0.5 13,0.5 Z" id="Rectangle-31"></path>
                                        <line x1="3.44854798" y1="6.6" x2="12.4195076" y2="6.6" id="Line-2" stroke-width="1.2" stroke-linecap="round" stroke-linejoin="round"></line>
                                        <line x1="3.44854798" y1="9.6" x2="12.4195076" y2="9.6" id="Line-2-Copy" stroke-width="1.2" stroke-linecap="round" stroke-linejoin="round"></line>
                                        <line x1="3.44854798" y1="12.6" x2="12.4195076" y2="12.6" id="Line-2-Copy-2" stroke-width="1.2" stroke-linecap="round" stroke-linejoin="round"></line>
                                    </g>
                                </g>
                            </g>
                        </g>
                    </g>
                </g>
            </g>
        </g>
    </g>
</svg>