<svg width="24" height="25" viewBox="0 0 24 25" xmlns="http://www.w3.org/2000/svg"><g id="UC-dealer" fill="none" fill-rule="evenodd"><g id="mobile-UC-dealer-detail" transform="translate(-300 -342)"><g id="Group-2" transform="translate(0 320)"><g id="Group-6" transform="translate(20 20)"><g id="Group-4"><g id="Group-3" transform="translate(188 2)"><g id="shield" transform="translate(92)"><path d="M21.5 4.25c-1.56 0-2.745-.913-3.999-1.88C16.061 1.259 14.427 0 12 0 9.573 0 7.94 1.259 6.499 2.37 5.245 3.337 4.061 4.25 2.5 4.25a.5.5 0 0 0-.5.5c0 5.838.727 9.725 2.358 12.604 1.619 2.86 4.028 4.637 7.392 6.579a.5.5 0 0 0 .5 0c3.364-1.942 5.773-3.72 7.393-6.579C21.273 14.475 22 10.588 22 4.75a.5.5 0 0 0-.5-.5z" id="Shape" fill="#FFF" fill-rule="nonzero"/><path d="M17.487 3.617a46.092 46.092 0 0 1-.597-.455 59.977 59.977 0 0 0-.455-.35C14.755 1.54 13.58 1 12 1c-1.58 0-2.754.54-4.435 1.813-.127.096-.229.174-.455.349-.298.229-.43.33-.596.455-1.312.98-2.327 1.499-3.512 1.61.038 5.414.739 9.009 2.226 11.635 1.33 2.35 3.21 3.979 6.772 6.06 3.563-2.081 5.441-3.71 6.772-6.06 1.487-2.626 2.188-6.221 2.226-11.635-1.185-.111-2.2-.63-3.51-1.61zm4.013.633a.5.5 0 0 1 .5.5c0 5.838-.727 9.725-2.357 12.604-1.62 2.86-4.03 4.637-7.393 6.579a.5.5 0 0 1-.5 0c-3.364-1.942-5.773-3.72-7.392-6.579C2.728 14.475 2 10.588 2 4.75a.5.5 0 0 1 .5-.5c1.56 0 2.745-.913 3.999-1.88C7.939 1.259 9.573 0 12 0c2.427 0 4.06 1.259 5.501 2.37 1.254.967 2.438 1.88 3.999 1.88z" id="Shape" fill="#2176AE" fill-rule="nonzero"/><path d="M9.451 7.252h5.637v.012c-.332.511-.52.785-.563.82H13.02c.207.242.347.537.421.885h1.606c.02.004.03.011.03.023-.36.54-.544.809-.552.809h-1.043c-.023.277-.156.611-.398 1.002-.32.394-.627.65-.92.767-.547.262-1.07.393-1.57.393v.012c0 .039 1.13 1.38 3.392 4.025h-1.494c-2.203-2.566-3.305-3.855-3.305-3.867v-.78l.012-.029c.196.028.424.041.686.041 1.234 0 2.002-.4 2.303-1.2a.97.97 0 0 0 .07-.364H8.906c-.015 0-.023-.008-.023-.024.37-.539.56-.808.568-.808h2.66v-.012c-.152-.309-.447-.549-.884-.72a2.762 2.762 0 0 0-.844-.153H8.895v-.03c.359-.534.544-.802.556-.802z" id="`" fill="#2176AE"/></g></g></g></g></g></g></g></svg>