<?xml version="1.0" encoding="UTF-8"?>
<svg width="24px" height="24px" viewBox="0 0 24 24" version="1.1" xmlns="http://www.w3.org/2000/svg" xmlns:xlink="http://www.w3.org/1999/xlink">
    <title>shield</title>
    <g id="OCB-Update-22-June" stroke="none" stroke-width="1" fill="none" fill-rule="evenodd">
        <g id="Artboard" fill-rule="nonzero">
            <g id="Group-17-Copy" transform="translate(3.000000, 1.000000)">
                <path d="M8.49533827,0.213938229 C8.78058924,-0.0713127431 9.26332164,-0.0713127431 9.54857261,0.213938229 C11.5892141,2.18875265 14.0467609,3.11033272 17.2722911,3.1322751 C17.6891963,3.1322751 18.018332,3.46141084 18.018332,3.87831611 C18.018332,4.40493329 18.018332,4.95349285 18.0402744,5.52399479 L18.0590147,7.0753143 C18.0778534,12.276447 17.4466111,18.6268479 9.26332164,21.4541645 C9.1974945,21.4761069 9.10972497,21.4980492 9.02195544,21.4980492 C8.93418591,21.4980492 8.86835877,21.4761069 8.78058924,21.4541645 C-0.237729743,18.3383462 -0.0841330693,10.9437633 0.0255788404,5.52399479 C0.0475212224,4.93155047 0.0475212224,4.3829909 0.0475212224,3.85637372 C0.0475212224,3.43946846 0.376656952,3.11033272 0.793562209,3.11033272 C3.99714997,3.11033272 6.45469675,2.18875265 8.49533827,0.213938229 Z" id="Path" fill="#0099FF"></path>
                <path d="M7.99066349,11.7556314 L11.6111565,8.13513831 C11.8964075,7.82794495 12.3791399,7.82794495 12.6643908,8.11319593 C12.9139854,8.38199011 12.9451848,8.78518139 12.7579888,9.07287517 L12.6643908,9.18837267 L8.49533827,13.3574253 C8.36368398,13.511022 8.16620254,13.5768492 7.96872111,13.5768492 C7.82061003,13.5768492 7.68484154,13.5398214 7.56141564,13.4565089 L7.44210394,13.3574253 L5.35757765,11.272899 C5.07232669,10.9657057 5.07232669,10.4829732 5.35757765,10.1977223 C5.62637183,9.94812766 6.0295631,9.91692834 6.31725687,10.1041243 L6.43275437,10.1977223 L7.99066349,11.7556314 L11.6111565,8.13513831 L7.99066349,11.7556314 Z" id="Path" fill="#FFFFFF"></path>
            </g>
        </g>
    </g>
</svg>