<svg xmlns="http://www.w3.org/2000/svg" xmlns:xlink="http://www.w3.org/1999/xlink" width="56" height="56"><defs><circle id="A" cx="24" cy="24" r="24"/><filter x="-14.6%" y="-10.4%" width="129.2%" height="129.2%" id="B"><feOffset dy="2" in="SourceAlpha"/><feGaussianBlur stdDeviation="2"/><feColorMatrix values="0 0 0 0 0.542685688 0 0 0 0 0.542685688 0 0 0 0 0.542685688 0 0 0 0.319984703 0"/></filter></defs><g transform="translate(4 2)" fill-rule="evenodd"><use fill="#000" filter="url(#B)" xlink:href="#A"/><use fill="#fff" xlink:href="#A"/><path d="M30.624 22.748a6.68 6.68 0 0 0-6.662-6.662 6.68 6.68 0 0 0-6.662 6.662c0 .528.06 1.057.205 1.585.176.85.5 1.38.94 2.113.088.176.205.352.323.558l.4.675c.587.968.94 1.526.94 2.67v2.76a1.39 1.39 0 0 0 1.174 1.379c.293 1.497 1.174 2.436 2.67 2.436s2.407-.94 2.67-2.436c.675-.117 1.174-.704 1.174-1.38v-2.76c0-1.145.352-1.732.94-2.67l.4-.675.323-.558c.44-.734.763-1.262.94-2.113.147-.528.205-1.057.205-1.585zm-3.962 8.305h-5.34v-.675c0-.147 0-.264-.03-.382h5.37c0 .117-.03.235-.03.382v.675h.03zm-.264 2.318h-4.872c-.147 0-.235-.117-.235-.235v-.9h5.34v.9c.03.117-.088.235-.235.235zm-2.436 2.407c-.323 0-1.145 0-1.467-1.233h2.964c-.323 1.233-1.174 1.233-1.497 1.233zm5.312-11.68c-.147.646-.382 1.086-.792 1.76-.117.176-.205.352-.323.558l-.382.646c-.352.587-.675 1.115-.88 1.732h-5.8c-.205-.616-.5-1.145-.88-1.732l-.382-.646-.323-.558c-.4-.704-.646-1.115-.792-1.8a5.12 5.12 0 0 1-.176-1.32 5.5 5.5 0 0 1 5.488-5.488 5.5 5.5 0 0 1 5.488 5.488l-.235 1.35zm6.78-1.938h-2.436a.59.59 0 0 0-.587.587.59.59 0 0 0 .587.587h2.436a.59.59 0 0 0 .587-.587.59.59 0 0 0-.587-.587zm-5.283-5.633a.58.58 0 0 0 .411-.176l1.732-1.732c.235-.235.235-.587 0-.822s-.587-.235-.822 0l-1.73 1.733c-.235.235-.235.587 0 .822a.58.58 0 0 0 .411.176zm-6.808-2.847a.59.59 0 0 0 .587-.587v-2.436a.59.59 0 0 0-.587-.587.59.59 0 0 0-.587.587v2.436a.59.59 0 0 0 .587.587zm-7.22 2.67a.58.58 0 0 0 .411.176.58.58 0 0 0 .411-.176c.235-.235.235-.587 0-.822l-1.732-1.732c-.235-.235-.587-.235-.822 0s-.235.587 0 .822l1.732 1.732zm-2.406 5.8H11.9a.59.59 0 0 0-.587.587.59.59 0 0 0 .587.587h2.436a.59.59 0 0 0 .587-.587.59.59 0 0 0-.587-.587zm2.406 6.986L15 30.878c-.235.235-.235.587 0 .822a.58.58 0 0 0 .411.176.58.58 0 0 0 .411-.176l1.732-1.732c.235-.235.235-.587 0-.822s-.616-.235-.822 0zm14.438 0c-.235-.235-.587-.235-.822 0s-.235.587 0 .822L32.1 31.7a.58.58 0 0 0 .411.176.58.58 0 0 0 .411-.176c.235-.235.235-.587 0-.822l-1.732-1.732z" fill="#2176ae" fill-rule="nonzero"/></g></svg>