<svg xmlns="http://www.w3.org/2000/svg" width="125" height="24" xmlns:v="https://vecta.io/nano"><path d="M88.155 0l2.3 7.134 7.522.001.986 2.808-6.147 4.48 2.3 7.07-2.358 1.808-6.075-4.428-6.075 4.428-2.357-1.808 2.32-7.163-.014-.01L74.55 9.94l.91-2.808 7.443-.001L85.212 0h2.943zM26.948 7.156v9.38c0 .747.213 1.34.64 1.774s1.094.653 2.003.652 1.576-.217 2.003-.652.64-1.026.64-1.774v-9.38h2.805v9.603c0 1.51-.508 2.713-1.525 3.613s-2.325 1.35-3.924 1.345c-1.585 0-2.886-.45-3.903-1.346s-1.525-2.102-1.525-3.613V7.156h2.785zm14.785-.28c1.152 0 2.165.282 3.04.846.888.577 1.597 1.39 2.048 2.35l-2.358 1.367c-.57-1.223-1.477-1.835-2.724-1.836-.583 0-1.04.132-1.372.397-.323.24-.5.624-.503 1.028a1.3 1.3 0 0 0 .559 1.091c.34.256.97.53 1.888.827l1.123.357.37.128.665.26c.31.12.6.265.894.438a7.03 7.03 0 0 1 .722.551c.245.2.455.443.62.714a4.1 4.1 0 0 1 .519 2.019c0 1.32-.478 2.365-1.433 3.138s-2.2 1.162-3.73 1.17c-1.4 0-2.596-.317-3.558-.95a5.07 5.07 0 0 1-2.033-2.579l2.4-1.407c.557 1.458 1.648 2.187 3.274 2.187.786 0 1.362-.143 1.728-.428.347-.25.552-.653.55-1.08 0-.503-.224-.893-.67-1.172s-1.247-.582-2.4-.908a14.83 14.83 0 0 1-1.616-.57 6.98 6.98 0 0 1-1.321-.765 3.11 3.11 0 0 1-1.007-1.213c-.24-.538-.36-1.122-.346-1.71 0-1.29.457-2.32 1.372-3.09s2.016-1.152 3.304-1.152zm20.3.283l4.102 6.777 4.082-6.777 2.913.004V21.52h-2.796v-9.313L66.3 18.862l-.33.012-4.017-6.635v9.277H59.12V7.16h2.903zM10.47 7.157v2.692H6.627v11.584H3.82V9.848H0V7.157h10.47zm7.122 0c1.254-.005 2.46.49 3.348 1.38s1.39 2.094 1.4 3.352c.002.877-.26 1.733-.752 2.458-.5.745-1.18 1.335-2 1.703l3.15 5.384h-3.034l-2.876-4.956h-2.124v4.956h-2.805V7.156h5.692zm40.1 0v2.692h-3.842v11.584h-2.805V9.848h-3.82V7.157h10.47zm48.408 0c1.254-.005 2.46.49 3.348 1.38s1.39 2.094 1.39 3.352c.002.877-.26 1.733-.753 2.458-.5.745-1.18 1.335-2 1.703l3.15 5.384h-3.037l-2.876-4.956h-2.12v4.956h-2.805V7.156h5.692zm10.408 0v6.3l4.878-6.3h3.233l-5.265 6.934 5.468 7.342h-3.232l-5.082-6.687v6.687h-2.805V7.157h2.805zM84.934 9.94L82.098 18.7l4.585-3.328 4.586 3.33-2.837-8.76-3.498-.001zm-67.34-.157l-2.9.003v4.222h2.887c.524.003 1.023-.224 1.365-.622.377-.408.58-.946.57-1.502.012-.552-.192-1.086-.57-1.488a1.8 1.8 0 0 0-1.362-.612zm88.505.003h-2.887v4.222h2.887c.523.003 1.02-.225 1.362-.622.376-.407.58-.945.57-1.5a2.11 2.11 0 0 0-.569-1.488 1.8 1.8 0 0 0-1.362-.612zm-11.95.155h-2.775l.532 1.64 2.243-1.64zM81.99 9.94H79.3l2.17 1.58.512-1.58zm4.692-5.398l-.84 2.6 1.678.001-.84-2.59z" fill="#fff" fill-rule="nonzero" opacity=".3"/></svg>