<svg width="20" height="17" viewBox="0 0 20 17" xmlns="http://www.w3.org/2000/svg"><g id="Page-1" fill="none" fill-rule="evenodd"><g id="Wallet-svg" transform="translate(-2 -4)" fill-rule="nonzero"><g id="Paytm-Wallet" transform="translate(2 4)"><path d="M1.901 0h14.297a3.65 3.65 0 0 1 3.65 3.65v9.278a3.65 3.65 0 0 1-3.65 3.65H1.9a1.369 1.369 0 0 1-1.369-1.369V1.37C.532.613 1.145 0 1.902 0z" id="Grey" fill="#505352"/><path d="M1.369 0h14.296a3.65 3.65 0 0 1 3.65 3.65v9.278a3.65 3.65 0 0 1-3.65 3.65H1.37A1.369 1.369 0 0 1 0 15.209V1.37C0 .613.613 0 1.369 0z" id="Cyan" fill="#00BAED"/><path d="M1.901.722h.38v-.38h-.38v.38zm.76 0h.38v-.38h-.38v.38zm.761 0h.38v-.38h-.38v.38zm.76 0h.38v-.38h-.38v.38zm.761 0h.38v-.38h-.38v.38zm.76 0h.38v-.38h-.38v.38zm.76 0h.381v-.38h-.38v.38zm.761 0h.38v-.38h-.38v.38zm.76 0h.381v-.38h-.38v.38zm.761 0h.38v-.38h-.38v.38zm.76 0h.38v-.38h-.38v.38zm.761 0h.38v-.38h-.38v.38zm.76 0h.38v-.38h-.38v.38zm.761 0h.38v-.38h-.38v.38zm.76 0h.38v-.38h-.38v.38zm.761 0h.38v-.38h-.38v.38zm.76 0h.38v-.38h-.38v.38zm.76 0h.381v-.38h-.38v.38zm.744.013c.12.011.238.029.355.053l.077-.373a3.532 3.532 0 0 0-.398-.058l-.034.378zm.702.145c.113.038.225.082.333.132l.16-.345a3.513 3.513 0 0 0-.374-.148l-.12.361zm.653.303c.102.062.2.13.295.203l.234-.3a3.544 3.544 0 0 0-.331-.228l-.198.325zm.564.438c.085.084.166.172.242.265l.294-.24a3.556 3.556 0 0 0-.27-.297l-.266.272zm.455.559c.064.1.123.205.175.312l.342-.167a3.53 3.53 0 0 0-.197-.35l-.32.205zm.313.638c.04.113.073.228.1.344l.37-.086a3.51 3.51 0 0 0-.112-.385l-.358.127zm.162.7c.013.118.02.238.02.358h.38c0-.135-.007-.269-.022-.401l-.378.043zm.02.74v.38h.38v-.38h-.38zm0 .76v.38h.38v-.38h-.38zm0 .76v.38h.38v-.38h-.38zm0 .76v.381h.38v-.38h-.38zm0 .761v.38h.38V7.3h-.38zm0 .76v.381h.38v-.38h-.38zm0 .761v.38h.38v-.38h-.38zm0 .76v.38h.38v-.38h-.38zm0 .761v.38h.38v-.38h-.38zm0 .76v.38h.38v-.38h-.38zm0 .761v.38h.38v-.38h-.38zm0 .756a3.18 3.18 0 0 1-.029.358l.377.051a3.56 3.56 0 0 0 .031-.4l-.38-.009zm-.098.712a3.13 3.13 0 0 1-.108.341l.355.136a3.51 3.51 0 0 0 .122-.383l-.369-.094zm-.255.67c-.055.106-.116.209-.183.308l.315.212c.075-.111.144-.226.206-.345l-.338-.176zm-.4.593c-.077.09-.16.177-.247.26l.26.277c.098-.092.19-.189.277-.29l-.29-.247zm-.525.491a3.16 3.16 0 0 1-.3.197l.19.33a3.54 3.54 0 0 0 .336-.221l-.226-.306zm-.623.36c-.11.048-.222.089-.336.124l.11.364c.129-.04.255-.086.377-.14l-.15-.348zm-.68.207a3.16 3.16 0 0 1-.355.045l.026.38a3.54 3.54 0 0 0 .398-.05l-.068-.375zm-.725.052h-.38v.38h.38v-.38zm-.76 0h-.38v.38h.38v-.38zm-.76 0h-.381v.38h.38v-.38zm-.761 0h-.38v.38h.38v-.38zm-.76 0h-.38v.38h.38v-.38zm-.761 0h-.38v.38h.38v-.38zm-.76 0h-.38v.38h.38v-.38zm-.761 0h-.38v.38h.38v-.38zm-.76 0h-.38v.38h.38v-.38zm-.761 0h-.38v.38h.38v-.38zm-.76 0h-.38v.38h.38v-.38zm-.76 0H6.39v.38h.38v-.38zm-.761 0h-.38v.38h.38v-.38zm-.76 0h-.381v.38h.38v-.38zm-.761 0h-.38v.38h.38v-.38zm-.76 0h-.38v.38h.38v-.38zm-.761 0h-.38v.38h.38v-.38zm-.76 0H1.9a1.2 1.2 0 0 1-.064-.001l-.02.38.084.002h.306v-.38zm-.693-.064a1.174 1.174 0 0 1-.29-.15l-.22.312c.119.083.249.15.386.197l.124-.36zm-.533-.377a1.178 1.178 0 0 1-.168-.281l-.35.147c.056.134.13.26.221.372l.297-.238zm-.251-.596a1.193 1.193 0 0 1-.009-.139v-.221h-.38v.222c0 .062.004.123.011.183l.378-.045zm-.009-.74v-.38h-.38v.38h.38zm0-.76v-.38h-.38v.38h.38zm0-.761v-.38h-.38v.38h.38zm0-.76v-.38h-.38v.38h.38zm0-.761v-.38h-.38v.38h.38zm0-.76v-.38h-.38v.38h.38zm0-.761v-.38h-.38v.38h.38zm0-.76v-.38h-.38v.38h.38zm0-.76v-.381h-.38v.38h.38zm0-.761v-.38h-.38v.38h.38zm0-.76V5.94h-.38v.38h.38zm0-.761v-.38h-.38v.38h.38zm0-.76V4.42h-.38v.38h.38zm0-.761v-.38h-.38v.38h.38zm0-.76V2.9h-.38v.38h.38zm0-.761v-.38h-.38v.38h.38zm.007-.74a1.17 1.17 0 0 1 .078-.318l-.352-.142a1.55 1.55 0 0 0-.104.42l.378.04zm.243-.603c.067-.086.147-.163.235-.228L.983.641a1.567 1.567 0 0 0-.31.3l.299.235zm.524-.382c.102-.038.21-.06.32-.069L1.789.346c-.146.01-.288.041-.424.09l.13.358z" id="Dots" fill="#FFF"/><path d="M12.091 5.171H20v5.247h-7.909a1.217 1.217 0 0 1-1.216-1.216V6.388c0-.672.544-1.217 1.216-1.217z" id="Blue" fill="#1B386C"/><circle id="whitecirc" fill="#FFF" cx="13.46" cy="7.757" r="1.065"/><circle id="cyancirc" fill="#00BAED" cx="13.46" cy="7.757" r="1"/></g></g></g></svg>