<svg xmlns="http://www.w3.org/2000/svg" xmlns:xlink="http://www.w3.org/1999/xlink" width="1440" height="709" xmlns:v="https://vecta.io/nano"><defs><path d="M20 0h1400c11.046 0 20 8.954 20 20v669c0 11.046-8.954 20-20 20H20c-11.046 0-20-8.954-20-20V20C0 8.954 8.954 0 20 0z" id="A"/></defs><g fill-rule="evenodd"><mask id="B" fill="#fff"><use xlink:href="#A"/></mask><path d="M-115.442 568.517C65.674 630.313 223.115 401.19 427.02 327.854s358.405 15.697 521.405.26S1247.23 72.545 1368.77 58.517C1449.8 49.165 1542.35 27.66 1646.426-6l-1.5 715.057H-115.442c-120.744-134.89-120.744-181.738 0-140.54z" fill="#e8edf1" opacity=".322" mask="url(#B)"/></g></svg>