<svg xmlns="http://www.w3.org/2000/svg" xmlns:xlink="http://www.w3.org/1999/xlink" width="326" height="131"><defs><rect id="A" width="320" height="125" rx="6"/><filter x="-1.6%" y="-3.2%" width="103.1%" height="108.0%" id="B"><feOffset dy="1" in="SourceAlpha"/><feGaussianBlur stdDeviation="1.5"/><feColorMatrix values="0 0 0 0 0.141176471 0 0 0 0 0.152941176 0 0 0 0 0.17254902 0 0 0 0.15 0"/></filter><linearGradient x1="50%" y1="50.8647006%" x2="84.2031864%" y2="41.0660662%" id="C"><stop stop-color="#f75d34" offset="0%"/><stop stop-color="#ffa236" offset="100%"/></linearGradient><linearGradient x1="50%" y1="50.6872516%" x2="84.2031864%" y2="42.8994383%" id="D"><stop stop-color="#f75d34" offset="0%"/><stop stop-color="#ffa236" offset="100%"/></linearGradient></defs><g transform="translate(3 2)" fill="none" fill-rule="evenodd"><mask id="E" fill="#fff"><use xlink:href="#A"/></mask><use fill="#000" filter="url(#B)" xlink:href="#A"/><use fill="#fff" xlink:href="#A"/><g mask="url(#E)" opacity=".05"><g transform="matrix(.965926 -.258819 .258819 .965926 56.877864 93.080788)"><path d="M.422 72.15C30.95 55.297 51.824 49.1 63.048 53.56c16.836 6.688 33.672 3.05 52.313 0s40.672-31.92 63.136-31.92 44.255 10.374 61.332 0S262.05.3 272.298.3c6.832 0 6.832 37.06 0 111.182H19.227L.422 72.15z" fill="url(#C)"/><g fill="url(#D)"><path d="M13.155 81.724c14.772-7.33 27.766-8.753 38.982-4.266 16.155 6.463 25.235-18.07 48.067-7.63s56.48-23.24 72.1-23.24 44.222 5.42 61.285-5.02S255.795 26.5 266.035 26.5c6.827 0 6.827 30.774 0 92.32H13.155V81.724z"/><path d="M13.964 105.577c14.772-7.33 27.766-8.753 38.982-4.266 16.155 6.463 25.235-18.07 48.067-7.63s56.48-23.24 72.1-23.24 44.222 5.42 61.285-5.02 22.205-15.058 32.445-15.058c6.827 0 6.827 30.774 0 92.32H13.964v-37.108z"/></g></g></g><g fill="#ffa236"><path d="M296.41 71.03l3.366.465a3.34 3.34 0 0 1 2.829 2.829l.465 3.366a.18.18 0 0 0 .358 0l.465-3.366a3.34 3.34 0 0 1 2.829-2.829l3.366-.465a.18.18 0 0 0 0-.358l-3.366-.465a3.34 3.34 0 0 1-2.829-2.829l-.465-3.366a.18.18 0 0 0-.358 0l-.465 3.402a3.34 3.34 0 0 1-2.829 2.829l-3.366.465c-.215 0-.215.286 0 .322z" mask="url(#E)" transform="matrix(.939693 -.34202 .34202 .939693 -5.943914 107.990386)"/><path d="M273.048 50.16l2.404.332c1.05.153 1.867.972 2.02 2.02l.332 2.404c.026.153.23.153.256 0l.332-2.404c.153-1.05.972-1.867 2.02-2.02l2.404-.332c.153-.026.153-.23 0-.256l-2.404-.332c-1.05-.153-1.867-.972-2.02-2.02l-.332-2.404c-.026-.153-.23-.153-.256 0l-.332 2.43c-.153 1.05-.972 1.867-2.02 2.02l-2.404.332c-.153 0-.153.205 0 .23z" mask="url(#E)" transform="matrix(.866025 .5 -.5 .866025 62.25247 -132.263354)"/><path d="M248.014 103.623l1.683.233a1.67 1.67 0 0 1 1.414 1.414l.233 1.683a.09.09 0 0 0 .179 0l.233-1.683a1.67 1.67 0 0 1 1.414-1.414l1.683-.233a.09.09 0 0 0 0-.179l-1.683-.233a1.67 1.67 0 0 1-1.414-1.414l-.233-1.683a.09.09 0 0 0-.179 0l-.233 1.7a1.67 1.67 0 0 1-1.414 1.414l-1.683.233c-.107 0-.107.143 0 .16z" mask="url(#E)" transform="matrix(.34202 .939693 -.939693 .34202 262.727066 -168.14711)"/></g></g></svg>