<svg xmlns="http://www.w3.org/2000/svg" xmlns:xlink="http://www.w3.org/1999/xlink" width="52" height="53"><defs><filter x="-39.5%" y="-36.7%" width="179.6%" height="179.6%" id="A"><feOffset dy="1" in="SourceAlpha"/><feGaussianBlur stdDeviation="1"/><feColorMatrix values="0 0 0 0 0.141176471 0 0 0 0 0.152941176 0 0 0 0 0.17254902 0 0 0 0.15 0" result="C"/><feMerge><feMergeNode in="C"/><feMergeNode in="SourceGraphic"/></feMerge></filter><linearGradient x1="49.9988131%" y1="99.9884954%" x2="49.9988131%" y2="-0.0257903494%" id="B"><stop stop-color="#f9f9f9" offset="0%"/><stop stop-color="#fff" offset="100%"/></linearGradient><path d="M31.188 5.364C27.81 1.887 23.143 0 18.375 0 8.244 0 .1 8.244.2 18.276c0 3.178.894 6.257 2.384 9.04L0 36.75l9.634-2.483c2.682 1.5 5.66 2.185 8.64 2.185 10.032 0 18.176-8.244 18.176-18.276 0-4.867-1.887-9.436-5.264-12.813zm-12.813 28.01c-2.682 0-5.364-.695-7.648-2.086l-.596-.298-5.76 1.5 1.5-5.66-.397-.596c-4.37-7.052-2.284-16.39 4.867-20.76s16.39-2.284 20.76 4.867 2.284 16.39-4.867 20.76c-2.284 1.5-5.066 2.284-7.847 2.284zm8.74-11.025l-1.093-.497s-1.59-.695-2.582-1.192c-.1 0-.2-.1-.298-.1-.298 0-.497.1-.695.2 0 0-.1.1-1.5 1.69-.1.2-.298.298-.497.298h-.1c-.1 0-.298-.1-.397-.2l-.497-.2c-1.093-.497-2.086-1.093-2.88-1.887-.2-.2-.497-.397-.695-.596-.695-.695-1.39-1.5-1.887-2.384l-.1-.2c-.1-.1-.1-.2-.2-.397 0-.2 0-.397.1-.497 0 0 .397-.497.695-.795.2-.2.298-.497.497-.695.2-.298.298-.695.2-.993-.1-.497-1.29-3.178-1.59-3.774-.2-.298-.397-.397-.695-.497H11.82c-.2 0-.397.1-.596.1l-.1.1c-.2.1-.397.298-.596.397-.2.2-.298.397-.497.596-.695.894-1.093 1.986-1.093 3.08 0 .795.2 1.59.497 2.284l.1.298c.894 1.887 2.086 3.576 3.675 5.066l.397.397c.298.298.596.497.795.795 2.086 1.788 4.47 3.08 7.15 3.774.298.1.695.1.993.2h.993c.497 0 1.093-.2 1.5-.397.298-.2.497-.2.695-.397l.2-.2c.2-.2.397-.298.596-.497s.397-.397.497-.596c.2-.397.298-.894.397-1.39v-.695s-.1-.1-.298-.2z" id="C"/><filter x="-34.3%" y="-31.3%" width="168.6%" height="168.0%" id="D"><feOffset dy="1" in="SourceAlpha"/><feGaussianBlur stdDeviation="1"/><feColorMatrix values="0 0 0 0 0.141176471 0 0 0 0 0.152941176 0 0 0 0 0.17254902 0 0 0 0.2 0" result="C"/><feOffset dy="1" in="SourceAlpha"/><feGaussianBlur stdDeviation="4"/><feColorMatrix values="0 0 0 0 0 0 0 0 0 0 0 0 0 0 0 0 0 0 0.15 0" result="F"/><feMerge><feMergeNode in="C"/><feMergeNode in="F"/></feMerge></filter><linearGradient x1="49.9984912%" y1="99.9929345%" x2="49.9984912%" y2="-0.00558838011%" id="E"><stop stop-color="#20b038" offset="0%"/><stop stop-color="#60d66a" offset="100%"/></linearGradient></defs><g filter="url(#A)" transform="matrix(.997564 .069756 -.069756 .997564 9.261339 5.479574)" fill-rule="nonzero"><use fill="#000" filter="url(#D)" xlink:href="#C"/><use fill="url(#B)" xlink:href="#C"/><path d="M9.634 31.585l.596.298c2.483 1.5 5.264 2.185 8.045 2.185 8.74 0 15.892-7.15 15.892-15.892 0-4.172-1.69-8.244-4.668-11.224s-6.953-4.668-11.224-4.668c-8.74 0-15.892 7.15-15.793 15.99 0 2.98.894 5.86 2.384 8.343l.397.596-1.59 5.86 5.96-1.5z" fill="url(#E)"/><path d="M31.188 5.364C27.81 1.887 23.143 0 18.375 0 8.244 0 .1 8.244.2 18.276c0 3.178.894 6.257 2.384 9.04L0 36.75l9.634-2.483c2.682 1.5 5.66 2.185 8.64 2.185 10.032 0 18.176-8.244 18.176-18.276 0-4.867-1.887-9.436-5.264-12.813zm-12.813 28.01c-2.682 0-5.364-.695-7.648-2.086l-.596-.298-5.76 1.5 1.5-5.66-.397-.596c-4.37-7.052-2.284-16.39 4.867-20.76s16.39-2.284 20.76 4.867 2.284 16.39-4.867 20.76c-2.284 1.5-5.066 2.284-7.847 2.284zm8.74-11.025l-1.093-.497s-1.59-.695-2.582-1.192c-.1 0-.2-.1-.298-.1-.298 0-.497.1-.695.2 0 0-.1.1-1.5 1.69-.1.2-.298.298-.497.298h-.1c-.1 0-.298-.1-.397-.2l-.497-.2c-1.093-.497-2.086-1.093-2.88-1.887-.2-.2-.497-.397-.695-.596-.695-.695-1.39-1.5-1.887-2.384l-.1-.2c-.1-.1-.1-.2-.2-.397 0-.2 0-.397.1-.497 0 0 .397-.497.695-.795.2-.2.298-.497.497-.695.2-.298.298-.695.2-.993-.1-.497-1.29-3.178-1.59-3.774-.2-.298-.397-.397-.695-.497H11.82c-.2 0-.397.1-.596.1l-.1.1c-.2.1-.397.298-.596.397-.2.2-.298.397-.497.596-.695.894-1.093 1.986-1.093 3.08 0 .795.2 1.59.497 2.284l.1.298c.894 1.887 2.086 3.576 3.675 5.066l.397.397c.298.298.596.497.795.795 2.086 1.788 4.47 3.08 7.15 3.774.298.1.695.1.993.2h.993c.497 0 1.093-.2 1.5-.397.298-.2.497-.2.695-.397l.2-.2c.2-.2.397-.298.596-.497s.397-.397.497-.596c.2-.397.298-.894.397-1.39v-.695s-.1-.1-.298-.2z" fill="url(#B)"/></g></svg>